<?xml version="1.0" encoding="utf-8"?>
<!-- Generator: Adobe Illustrator 25.1.0, SVG Export Plug-In . SVG Version: 6.00 Build 0)  -->
<svg version="1.1" id="Layer_1" focusable="false" xmlns="http://www.w3.org/2000/svg" xmlns:xlink="http://www.w3.org/1999/xlink"
	 x="0px" y="0px" viewBox="0 0 100 100" style="enable-background:new 0 0 100 100;" xml:space="preserve">
<style type="text/css">
	.st0{fill:#062256;}
</style>
<path id="Icon_awesome-linkedin" class="st0" d="M92.3,0.7H7.7c-3.9,0-7,3.2-7,7.1v84.4c0,3.9,3.1,7.1,7,7.1h84.5
	c3.9,0,7.1-3.2,7-7.1V7.8C99.3,3.9,96.2,0.7,92.3,0.7z M30.5,85.2H15.9V38.2h14.6L30.5,85.2L30.5,85.2z M23.2,31.7
	c-4.7,0-8.5-3.8-8.5-8.5s3.8-8.5,8.5-8.5s8.5,3.8,8.5,8.5l0,0C31.7,27.9,27.9,31.7,23.2,31.7z M85.3,85.2H70.7V62.3
	c0-5.5-0.1-12.5-7.6-12.5c-7.6,0-8.8,5.9-8.8,12.1v23.3H39.7V38.2h14v6.4h0.2c2.9-4.9,8.2-7.8,13.8-7.6c14.8,0,17.5,9.8,17.5,22.4
	V85.2z"/>
</svg>
