<?xml version="1.0" encoding="utf-8"?>
<!-- Generator: Adobe Illustrator 25.1.0, SVG Export Plug-In . SVG Version: 6.00 Build 0)  -->
<svg version="1.1" id="Layer_1" focusable="false" xmlns="http://www.w3.org/2000/svg" xmlns:xlink="http://www.w3.org/1999/xlink"
	 x="0px" y="0px" viewBox="0 0 100 100" style="enable-background:new 0 0 100 100;" xml:space="preserve">
<style type="text/css">
	.st0{fill:#062256;}
</style>
<path class="st0" d="M50,24.7C36,24.7,24.7,36,24.7,50S36,75.3,50,75.3S75.3,64,75.3,50S64,24.7,50,24.7z M50,66.5
	c-9.1,0-16.5-7.4-16.5-16.5S40.9,33.5,50,33.5S66.5,40.9,66.5,50S59.1,66.5,50,66.5L50,66.5z M82.3,23.6c0,3.3-2.6,5.9-5.9,5.9
	c-3.3,0-5.9-2.6-5.9-5.9s2.6-5.9,5.9-5.9S82.3,20.4,82.3,23.6z M99.1,29.6c-0.4-7.9-2.2-14.9-8-20.7c-5.8-5.8-12.8-7.6-20.7-8
	c-8.2-0.5-32.6-0.5-40.8,0c-7.9,0.4-14.9,2.2-20.7,8s-7.6,12.8-8,20.7c-0.5,8.2-0.5,32.6,0,40.8c0.4,7.9,2.2,14.9,8,20.7
	c5.8,5.8,12.8,7.6,20.7,8c8.2,0.5,32.6,0.5,40.8,0c7.9-0.4,14.9-2.2,20.7-8c5.8-5.8,7.6-12.8,8-20.7C99.5,62.2,99.5,37.8,99.1,29.6
	L99.1,29.6z M88.5,79.1c-1.7,4.3-5,7.6-9.4,9.4c-6.5,2.6-21.9,2-29.1,2s-22.6,0.6-29.1-2c-4.3-1.7-7.6-5-9.4-9.4
	c-2.6-6.5-2-21.9-2-29.1s-0.6-22.6,2-29.1c1.7-4.3,5-7.6,9.4-9.4c6.5-2.6,21.9-2,29.1-2s22.6-0.6,29.1,2c4.3,1.7,7.6,5,9.4,9.4
	c2.6,6.5,2,21.9,2,29.1S91.1,72.6,88.5,79.1z"/>
</svg>
