<?xml version="1.0" encoding="utf-8"?>
<!-- Generator: Adobe Illustrator 25.1.0, SVG Export Plug-In . SVG Version: 6.00 Build 0)  -->
<svg version="1.1" id="Layer_1" xmlns="http://www.w3.org/2000/svg" xmlns:xlink="http://www.w3.org/1999/xlink" x="0px" y="0px"
	 viewBox="0 0 161.6 97.6" style="enable-background:new 0 0 161.6 97.6;" xml:space="preserve">
<style type="text/css">
	.st0{fill:#062256;}
</style>
<g>
	<path class="st0" d="M127.9,48.5c0.9,2.2-1.2,5.3-2.8,6.7c-1.8,1.5-3.9,2.5-6.1,3c0.4-0.4,0.8-0.8,1.1-1.3
		c3.4-4.2,10.1-12.8,10.1-12.8h-2.6c0,0-1.3,1.8-2,2.6c-1.8,2.2-6,6.4-7.2,6.4c-0.6,0-0.7-0.9,0.2-2c1.9-2.3,5.8-7,5.8-7h-2.8
		c0,0-2.5,3-3.8,4.6c0,0,0,0,0,0c-1.8,2.2-4.2,4.5-5.7,4.5c-0.6,0-0.6-0.8,0.4-2c1.8-2.3,3.7-4.7,5.6-7h-2.7
		c-0.8,1.2-1.7,2.3-2.6,3.5c1-1.6,1.6-3.7,0.3-3.7c-2,0-5,1.7-6.6,3.7c-2.5,3.2-1.8,5.9,0,5.9c1.9,0,3.6-2.5,5.4-4.7
		c-1.5,2-1.8,4.7,0,4.7c1.6,0,3.7-1.7,5.3-4c-1.1,1.9-0.7,4,0.9,4c1.5,0,4.5-3.1,6.4-5.3c-1.1,1.4-2.1,2.8-3.2,4.2
		c-2,2.6-4.2,5.5-5.7,7c0.1,0,0.1,0.1,0.2,0.2c1.1-0.6,5.7-1.1,8.7-3.3C127.5,54,129.3,50.5,127.9,48.5z M111.7,48.8L111.7,48.8
		c-1.3,1.6-3.4,4.4-5.1,4.4c-2,0,1.9-4.5,4-7.1c0.7-0.9,1.7-1.9,2.6-1.9C114.3,44.2,113.2,46.9,111.7,48.8z"/>
	<path class="st0" d="M105.6,47c2,0,3.3-3.1,1.6-3.1c-1.3,0-4.3,3-8.5,8.2c0.3-0.4,0.5-0.8,0.8-1.3c1.7-2.2,3.4-4.5,5.1-6.7h-2.6
		c-0.5,0.7-1,1.4-1.5,2c0,0,0.1-0.1,0.1-0.1c0,0-6,7.1-9.2,7.1c-0.4,0-0.7-0.2-0.7-0.6c0-1.1,1.3-2.6,2.5-4.2
		c0.7-0.9,1.4-1.8,2.1-2.6c1.6-2,2.4-1.9,2.4-1.1c0,0.7-1.2,2.4-2.5,3.6c-1,0.8-2.1,1.5-3.3,2c0,0,6.4-2.2,6.4-5.4
		c0-0.6-0.4-1.1-1.2-1.1c-1.3,0-4.3,1.8-6,3.7c-0.1,0.1-0.2,0.3-0.4,0.4c-0.1,0.1-0.1,0.2-0.2,0.3c-2.7,3.3-4.9,5-6.1,5
		c-0.7,0-0.2-1.1,0.8-2.4c1.8-2.3,5.2-6.7,5.2-6.7h-2.7c0,0-1.4,1.9-2.2,2.9c-3.3,4.1-5.7,6.2-6.8,6.2c-0.8,0-0.4-1,0.6-2.3
		c1.8-2.3,3.6-4.5,5.3-6.8h-2.7c0,0-2.3,3-3.5,4.4c-1.7,2.2-1.9,5,0.1,5c1.2,0,2.6-0.9,5.3-4.2c-1.3,1.9-1.2,4.2,0.6,4.2
		c1.1,0,2.7-0.6,5.9-4.9c-1.4,2.4-0.8,4.8,1.1,4.8c3.4,0,7.9-5.5,9.1-7c-1.7,2.2-3.4,4.5-5.1,6.8h2.7c1-1.5,6.2-7.4,7.5-8
		C105,45.5,104.5,47,105.6,47z"/>
	<g>
		<path class="st0" d="M71.7,55.8c-1.3,1.2-3,2-4.7,2.5c0.5-0.3,0.9-0.7,1.3-1.2c3.3-4.3,6.7-8.6,10-13h-2.8
			c-0.8,1.1-1.5,2.1-2.3,3.2c1-1.6,1.6-3.4-0.1-3.4c-2,0-5.2,1.7-6.8,3.7c-2.5,3.2-1.9,5.9-0.2,5.9c1.6,0,3.8-2.2,5.6-4.3
			c-4.5,5.7-7.1,9.1-8.1,10.2c0.8-0.3,1.9-0.4,2.9-0.6c4-0.9,6.7-3.2,11.5-9.9C76.2,51.3,74,53.7,71.7,55.8z M66.3,53.1
			c-0.4,0-0.8-0.5,0.4-2c1.3-1.7,2.7-3.4,4-5.1c0.7-0.9,1.6-1.8,2.4-1.8c1.7,0,0.4,2.5-1.2,4.5C70.3,50.7,67.6,53.1,66.3,53.1z"/>
		<path class="st0" d="M59.8,53.2c-0.3,0-0.5-0.1-0.5-0.4c0-1,4.9-4.5,4.9-7.3c0-0.8-0.3-1.6-1.4-1.6c-1.7,0-6.1,5.1-8.3,7.7
			c0.8-1.1,1.6-2.1,2.4-3.2c2.4-3.1,3.3-4.2,3.3-4.2h-2.6c-1,1.3-2,2.6-3,3.9c-3.3,4-5.8,5.2-7,5.2c-0.7,0-0.8-0.9,0.3-2.3
			c1.7-2.3,3.4-4.4,5.1-6.7h-2.7c-0.7,0.9-1.2,1.6-1.8,2.5c0.8-1.4,1.1-2.8-0.4-2.8c-1.9,0-5,1.6-6.5,3.6c-2.5,3.2-1.7,6,0.1,6
			c1.6,0,3.3-2.1,4.9-4.2c-1.4,2-1.3,4.2,0.7,4.2c1,0,3.2-0.3,6.4-4.3c-1,1.3-2,2.7-3,4h2.5c1-1.4,7.8-9,9.4-9
			c0.2,0,0.4,0.2,0.4,0.4c0,1.1-5,4.5-5,7.1c0,0.9,0.4,1.9,1.4,1.9c2.7,0,5.6-4.2,6.3-5.4C65.2,49.1,61.9,53.1,59.8,53.2z M42,53.1
			c-1.1,0-0.3-1.5,0.8-3.1c1-1.4,2.2-2.9,3.2-4c0.7-0.9,1.7-1.8,2.5-1.8c1.2,0,0.2,2.5-1.4,4.5C45.5,50.6,43.4,53.1,42,53.1z"/>
	</g>
	<path class="st0" d="M32,55c-0.5,0-1,0-1.4,0.1c1.9-0.3,3.6-1.4,4.7-3c2.3-3.1,4.8-6.3,7-9.4c1.4-2,3.1-3.5,4.4-3.7
		c5,0,9-1.3,9.3-2.4c-0.1,0-0.2,0-0.3,0c0,0-0.2,0.7-2.6,0.7c-4.2,0-8.1-1.2-12.6-1.2c-4.5,0-10,2.9-10,7.2c0,0.6,0.3,0.6,0.4,0.6
		c0.2,0,0.5,0,0.7,0c0,0-0.5-0.2-0.5-1.5c0.3-2.5,2.4-4.5,5-4.5c3.9,0,6.2,1,9.9,1.1c-2.7,0.2-6.3,2.4-8.5,5.5c0,0-6.5,8.6-7.1,9.5
		c-0.4,0.6-0.9,1.2-1.5,1.6c2.5-0.9,4.4,0,5.5,0c0.4,0,0.8-0.1,1.1-0.5C34.9,55.5,33.7,55,32,55z"/>
	<path class="st0" d="M128.8,55.6C128.7,55.6,128.7,55.6,128.8,55.6c-0.5,0-0.8,0.4-0.8,0.8s0.4,0.8,0.8,0.8s0.8-0.4,0.8-0.8l0,0
		C129.5,56,129.2,55.6,128.8,55.6z M128.7,57.1c-0.4,0-0.6-0.3-0.6-0.7s0.3-0.6,0.7-0.6c0.4,0,0.6,0.3,0.6,0.6
		C129.4,56.8,129.1,57.1,128.7,57.1z"/>
	<path class="st0" d="M128.8,56.5c0.1,0,0.2-0.1,0.2-0.2c0-0.2-0.1-0.2-0.3-0.2c-0.1,0-0.3,0-0.4,0v0.8h0.2v-0.4h0
		c0.1,0,0.2,0,0.2,0.2c0,0,0.1,0.1,0.1,0.1h0.2c0-0.1-0.1-0.1-0.1-0.2C128.9,56.5,128.9,56.5,128.8,56.5z M128.7,56.4L128.7,56.4
		h-0.1v-0.2h0.2c0.1,0,0.2,0,0.2,0.1C128.9,56.3,128.8,56.4,128.7,56.4z"/>
</g>
</svg>
