<?xml version="1.0" encoding="utf-8"?>
<!-- Generator: Adobe Illustrator 25.1.0, SVG Export Plug-In . SVG Version: 6.00 Build 0)  -->
<svg version="1.1" id="Layer_1" xmlns="http://www.w3.org/2000/svg" xmlns:xlink="http://www.w3.org/1999/xlink" x="0px" y="0px"
	 viewBox="0 0 161.55 161.55" style="enable-background:new 0 0 161.55 161.55;" xml:space="preserve">
<style type="text/css">
	.st0{fill:#666666;}
	.st1{clip-path:url(#SVGID_2_);}
	.st2{clip-path:url(#SVGID_4_);}
	.st3{clip-path:url(#SVGID_6_);}
	.st4{clip-path:url(#SVGID_8_);}
	.st5{clip-path:url(#SVGID_10_);}
	.st6{clip-path:url(#SVGID_12_);}
	.st7{opacity:0;fill:#666666;}
	.st8{opacity:0;fill:#666666;stroke:#009DE2;stroke-width:0.1121;}
	.st9{opacity:0;}
</style>
<g id="XMLID_44_">
	<g id="XMLID_28_">
		<path id="XMLID_1581_" class="st0" d="M66.45,102.43c0-0.75,0.39-1.02,0.96-1.04c0.56-0.01,0.96,0.25,0.96,1v1.08
			c0,0.75-0.39,1.02-0.96,1.04c-0.56,0.01-0.96-0.25-0.96-1V102.43z M67.03,103.58c0,0.34,0.15,0.43,0.38,0.42
			c0.23,0,0.38-0.1,0.38-0.44v-1.24c0-0.34-0.15-0.43-0.38-0.42c-0.23,0-0.38,0.1-0.38,0.44V103.58z"/>
		<path id="XMLID_1578_" class="st0" d="M70.94,104.22l-0.5-1.18l-0.28,0.03v1.24l-0.58,0.06v-3.03l0.83-0.09
			c0.69-0.08,1.02,0.22,1.02,0.8c0,0.38-0.13,0.67-0.45,0.82l0.57,1.29L70.94,104.22z M70.16,102.59l0.3-0.03
			c0.25-0.03,0.41-0.17,0.41-0.46c0-0.29-0.15-0.4-0.41-0.38l-0.3,0.03V102.59z"/>
		<path id="XMLID_1576_" class="st0" d="M72.68,103.97v-3.03l0.57-0.1v3.03L72.68,103.97z"/>
		<path id="XMLID_1574_" class="st0" d="M76.03,103c-0.15,0.21-0.31,0.37-0.53,0.42c-0.55,0.13-0.93-0.04-0.93-0.79v-1.08
			c0-0.75,0.38-1.11,0.93-1.24c0.58-0.14,0.89,0.13,0.91,0.81l-0.56,0.14c0-0.39-0.14-0.48-0.34-0.43
			c-0.22,0.05-0.37,0.18-0.37,0.52v1.24c0,0.34,0.14,0.39,0.37,0.34c0.21-0.05,0.34-0.24,0.34-0.5v-0.18l-0.4,0.1v-0.48l0.96-0.23
			v1.55l-0.29,0.07L76.03,103z"/>
		<path id="XMLID_1572_" class="st0" d="M77.73,102.79v-3.03l0.56-0.16v3.03L77.73,102.79z"/>
		<path id="XMLID_1570_" class="st0" d="M79.65,102.22v-3.03l0.6-0.2l0.77,1.55l0.01,0v-1.8l0.5-0.16v3.03L81,101.78l-0.84-1.68
			l-0.01,0v1.96L79.65,102.22z"/>
		<path id="XMLID_1567_" class="st0" d="M82.58,101.25l0.71-3.27L84,97.74l0.69,2.8l-0.53,0.18l-0.14-0.59l-0.76,0.25l-0.16,0.69
			L82.58,101.25z M83.36,99.84l0.55-0.18l-0.27-1.14l-0.01,0L83.36,99.84z"/>
		<path id="XMLID_1565_" class="st0" d="M85.71,100.21v-3.03l0.55-0.17v2.52l0.89-0.28v0.51L85.71,100.21z"/>
		<path id="XMLID_1562_" class="st0" d="M88.65,99.32l0.73-3.21l0.72-0.18l0.71,2.86l-0.54,0.13l-0.14-0.6l-0.78,0.19l-0.16,0.68
			L88.65,99.32z M89.45,97.97l0.56-0.14l-0.27-1.16l-0.01,0L89.45,97.97z"/>
		<path id="XMLID_1560_" class="st0" d="M91.86,98.57v-3.03l0.57-0.1v2.52l0.92-0.16v0.51L91.86,98.57z"/>
		<path id="XMLID_1558_" class="st0" d="M94.29,98.19v-3.03l1.58-0.15v0.51l-1,0.09v0.7l0.77-0.07v0.51l-0.77,0.07v0.8l1.05-0.1
			v0.51L94.29,98.19z"/>
		<path id="XMLID_1557_" class="st0" d="M81.95,80.29h-2.7c0.17,0.2,0.33,0.52,0.33,1.33v5.72c0,0.81-0.16,1.13-0.33,1.33h2.7
			c-0.17-0.2-0.33-0.52-0.33-1.33v-5.72C81.62,80.81,81.78,80.49,81.95,80.29z"/>
		<path id="XMLID_1556_" class="st0" d="M100.18,81.72c0.68,0,1.02,0.07,1.32,0.25l-0.32-1.68l-6.72,0c0.17,0.2,0.33,0.52,0.33,1.33
			v5.72c0,0.81-0.16,1.13-0.33,1.33h6.69l0.33-1.73c-0.3,0.17-0.63,0.25-1.32,0.25h-3.34v-2.1h2.3c0.68,0,1,0.07,1.27,0.25V83.7
			h-3.57v-1.97H100.18z"/>
		<path id="XMLID_1553_" class="st0" d="M88,80.29c-0.32,0-3.68,0-3.68,0c0.17,0.2,0.33,0.52,0.33,1.33v5.72
			c0,0.81-0.16,1.13-0.33,1.33c0,0,3.59,0,3.86,0c3.13,0,4.56-1.48,4.56-4.19C92.74,81.77,90.86,80.29,88,80.29z M87.97,87.23
			c-0.34,0-0.91,0-1.28,0v-5.51c0.3,0,0.73,0,1.21,0c1.62,0,2.79,0.81,2.79,2.75C90.69,86.42,89.67,87.23,87.97,87.23z"/>
		<path id="XMLID_1550_" class="st0" d="M64.15,80.29c-0.31,0-3.91,0-3.91,0c0.17,0.2,0.33,0.52,0.33,1.33v5.72
			c0,0.81-0.16,1.13-0.33,1.33h2.7c-0.17-0.2-0.33-0.52-0.33-1.33V86c0.58,0,1.24,0,1.55,0c2.54,0,3.69-0.99,3.69-2.86
			C67.84,81.21,66.56,80.29,64.15,80.29z M63.73,84.58c-0.29,0-0.77,0-1.12,0v-2.87c0.29,0,0.71,0,1.12,0c0.9,0,2.06,0.12,2.06,1.44
			C65.79,84.46,64.69,84.58,63.73,84.58z"/>
		<path id="XMLID_1547_" class="st0" d="M77.17,83.06c0-1.92-1.37-2.77-3.78-2.77c-0.3,0-3.85,0-3.85,0
			c0.17,0.2,0.33,0.52,0.33,1.33v5.72c0,0.81-0.16,1.13-0.33,1.33h2.7c-0.17-0.2-0.33-0.52-0.33-1.33v-1.51c0.55,0,1.38,0,1.65,0
			l1.75,2.84h2.33l-2.07-3.17C76.64,85.08,77.17,84.27,77.17,83.06z M73.06,84.44c-0.3,0-0.79,0-1.15,0V81.7c0.29,0,0.73,0,1.15,0
			c0.73,0,2.06,0.05,2.06,1.37C75.13,84.4,73.86,84.44,73.06,84.44z"/>
		<path id="XMLID_1546_" class="st0" d="M54.09,76.03v-5.54c0-0.81,0.16-1.13,0.33-1.33h-2.7c0.17,0.2,0.33,0.52,0.33,1.33v5.72
			c0,0.81-0.16,1.13-0.33,1.33l6.78,0l0.35-1.85c-0.38,0.27-1.14,0.35-2.34,0.35C56.43,76.03,54.16,76.03,54.09,76.03z"/>
		<path id="XMLID_1543_" class="st0" d="M64.13,68.98c-2.55,0-4.41,1.84-4.41,4.37c0,2.52,1.86,4.37,4.41,4.37
			c2.55,0,4.41-1.84,4.41-4.37C68.53,70.82,66.67,68.98,64.13,68.98z M64.12,76.22c-1.4,0-2.37-1.17-2.37-2.87
			c0-1.7,0.96-2.87,2.37-2.87c1.4,0,2.37,1.17,2.37,2.87C66.49,75.05,65.52,76.22,64.12,76.22z"/>
		<path id="XMLID_1540_" class="st0" d="M95.19,77.71c2.55,0,4.41-1.84,4.41-4.37c0-2.52-1.86-4.37-4.41-4.37s-4.41,1.84-4.41,4.37
			C90.79,75.87,92.65,77.71,95.19,77.71z M95.19,70.47c1.4,0,2.37,1.17,2.37,2.87c0,1.7-0.96,2.87-2.37,2.87
			c-1.4,0-2.37-1.17-2.37-2.87C92.82,71.64,93.78,70.47,95.19,70.47z"/>
		<path id="XMLID_1537_" class="st0" d="M84.66,77.53c3.13,0,4.56-1.48,4.56-4.19c0-2.71-1.88-4.19-4.74-4.19c-0.32,0-3.68,0-3.68,0
			c0.17,0.2,0.33,0.52,0.33,1.33v5.72c0,0.81-0.16,1.13-0.33,1.33C80.8,77.53,84.37,77.53,84.66,77.53z M83.17,70.59
			c0.3,0,0.73,0,1.21,0c1.62,0,2.79,0.81,2.79,2.75c0,1.95-1.02,2.75-2.72,2.75c-0.35,0-0.89,0-1.28,0V70.59z"/>
		<path id="XMLID_1536_" class="st0" d="M76.87,70.49v4.05l-4.34-5.38l0,0h0l0,0l0,0h-2.38c0.17,0.2,0.33,0.52,0.33,1.33v5.72
			c0,0.81-0.16,1.13-0.33,1.33h2.31c-0.17-0.2-0.33-0.52-0.33-1.33v-4.31l4.51,5.64l0,0l1.88,0v-7.05c0-0.81,0.16-1.13,0.33-1.33
			h-2.31C76.71,69.36,76.87,69.68,76.87,70.49z"/>
		<path id="XMLID_1535_" class="st0" d="M107.6,69.16c0.17,0.2,0.33,0.52,0.33,1.33v4.05l-4.34-5.38l0,0h0l0,0l0,0h-2.38
			c0.17,0.2,0.33,0.52,0.33,1.33v5.72c0,0.81-0.16,1.13-0.33,1.33h2.31c-0.17-0.2-0.33-0.52-0.33-1.33v-4.31l4.51,5.64l0,0l1.88,0
			v-7.05c0-0.81,0.16-1.13,0.33-1.33H107.6z"/>
		<path id="XMLID_1237_" class="st0" d="M87.2,52.65h3.89c4.88,0,6.77-2.02,7.39-2.69l1.64-1.76l1.7,1.7l9.04,9.04l1.6,1.6
			l-1.55,1.64l-2.59,2.74h-3.13c0.16-0.2,0.32-0.4,0.49-0.59l3.54-3.75l-9.04-9.04c-1.49,1.6-4.08,3.42-9.09,3.42h-2.51L87.2,52.65z
			 M105.42,92.79c0.09,0.8,0.14,1.56,0.14,2.28c0,8.71-6.51,10.12-14.09,13.1c-4.36,1.71-8.3,3.92-10.69,6.47
			c-2.39-2.56-6.33-4.76-10.69-6.47C62.51,105.19,56,103.78,56,95.07c0-0.72,0.05-1.48,0.14-2.28H53.8
			c-0.08,0.79-0.12,1.55-0.12,2.28c0,4.25,1.39,7.48,4.24,9.87c2.41,2.02,5.59,3.22,8.96,4.49c0.77,0.29,1.56,0.59,2.36,0.9
			c4.48,1.76,7.89,3.8,9.85,5.9l1.7,1.82l1.7-1.82c1.96-2.1,5.36-4.14,9.85-5.9c0.79-0.31,1.59-0.61,2.36-0.9
			c3.37-1.27,6.55-2.47,8.96-4.49c2.85-2.39,4.24-5.62,4.24-9.87c0-0.73-0.04-1.49-0.12-2.28H105.42z M53.24,64.92h3.13
			c-0.16-0.2-0.32-0.4-0.49-0.59l-3.54-3.75l9.04-9.04c1.49,1.6,4.08,3.42,9.09,3.42h2.08l1.38-2.32h-3.45
			c-4.88,0-6.77-2.02-7.39-2.69l-1.64-1.76l-1.7,1.7l-9.04,9.04l-1.6,1.6l1.55,1.64L53.24,64.92z M63.29,99.94
			c1.04,0.17,2.23,0.26,3.59,0.26c5.12,0,9.8-1.55,14.75-3.18c4.93-1.63,10.04-3.32,15.6-3.32c0.76,0,1.49,0.06,2.17,0.17
			c-0.01-0.19,0.02-0.36,0.06-0.51c-0.7-0.11-1.45-0.17-2.23-0.17c-5.64,0-10.79,1.7-15.76,3.34c-4.91,1.62-9.55,3.16-14.59,3.16
			c-0.85,0-2.01-0.05-3.24-0.23C63.54,99.63,63.42,99.79,63.29,99.94z M98.9,99.32c-0.35-0.05-0.71-0.08-1.08-0.09
			c-1.03-0.01-2.15,0.05-3.32,0.21c-1.17,0.15-2.38,0.39-3.63,0.7c-2.49,0.61-5.07,1.48-7.64,2.33c-1.29,0.43-2.57,0.85-3.85,1.23
			c-1.27,0.38-2.54,0.73-3.77,1.03c-0.49,0.12-0.97,0.22-1.44,0.32c0.43,0.05,0.85,0.13,1.19,0.24c0.12-0.03,0.24-0.05,0.36-0.08
			c2.49-0.56,5.09-1.39,7.67-2.24c2.58-0.85,5.14-1.71,7.6-2.31c1.23-0.3,2.43-0.53,3.57-0.68c1.14-0.15,2.23-0.21,3.23-0.2
			c0.21,0,0.41,0.02,0.6,0.03C98.54,99.58,98.74,99.42,98.9,99.32z M84,105.76c0,0-0.25-0.09-0.28,0.4l0,0
			c-0.04,0.33-0.29,0.62-0.81,0.67c-0.01,0-0.03,0-0.05,0c-0.29,0-0.77-0.24-0.66-0.77c0,0,0.16,0.2,0.49,0.17
			c0.68-0.07,0.47-1.15-0.38-1.04c-1.85,0.24-2.68,3.39-1.79,6.42c0.04,0.13,0.09,0.26,0.13,0.4c0,0.01,0.01,0.02,0.01,0.03
			c0,0,0,0,0,0.01c0.04,0.14,0.08,0.29,0.12,0.43l-0.01,0.47l0,0l0,0.28c-2.14-4.15-6.83-2.88-6.83-5.5c0-0.59,0.54-1.06,1.15-1.06
			c0.55,0,1.03,0.37,1.03,0.91c0,0.33-0.25,0.65-0.7,0.59c0.15-0.03,0.4-0.22,0.4-0.55c0-0.26-0.18-0.53-0.56-0.53
			c-0.34,0-0.64,0.31-0.64,0.7c0,2.05,3.86,1.31,5.83,4.4c-0.17-0.58-0.39-1.17-0.66-1.74l0.01,0.01c-1.27-2.61-3.24-2.09-3.2-1.39
			c-0.41-0.71,0.84-1.33,2.04-0.5c-1.15-1.48-2.69-2.59-4.49-2.82l-0.56-0.04c-0.02,0-0.04,0-0.07,0c-0.21,0-0.4,0.01-0.57,0.04
			c-1.36,0.23-0.95,1.41-0.24,1.4c0.41,0,0.58-0.21,0.67-0.44c0.29,0.54,0,1.21-0.75,1.22c-1.06,0.01-1.43-1.1-0.84-1.85
			c-0.57,0.24-1.08,0.51-1.97,0.51c-0.94,0-1.61-0.5-1.61-1.07c0-0.12-0.01-0.26,0.11-0.36c0,0,0.01,1.08,1.48,1.08
			c1.35,0,1.75-0.69,3.34-0.81c0.1-0.01,0.19-0.02,0.3-0.02c0.03,0,0.06,0,0.09,0c0.02,0,0.05,0,0.07,0c0.09,0,0.17,0.01,0.25,0.02
			c2.45,0.18,4.72,1.92,6.09,4.76c-0.37-2.39,0.51-5.01,2.37-5.21c0.04,0,0.11-0.01,0.11-0.01C83.3,104.9,83.86,105.31,84,105.76z
			 M71.87,106.21c-0.27,0.51-0.14,0.89-0.05,1.06c0,0.01,0.01,0.02,0.01,0.03c0.01,0.02,0.02,0.03,0.02,0.04
			c0,0.01,0.01,0.01,0.01,0.02c0,0,0,0.01,0,0.01l0,0c0.09,0.12,0.26,0.28,0.6,0.33c0.56,0.09,0.83-0.35,0.83-0.35
			c-0.34,0.16-0.68,0.24-1.01,0.15c0.39-0.03,0.53-0.13,0.53-0.13C72.24,107.5,71.59,107.17,71.87,106.21z M74.91,108.92
			c-0.77-0.64-0.66-1.93,0.2-2.06C73.72,106.9,74.11,108.69,74.91,108.92z M82.92,106.29c0,0-0.33,0.19-0.57,0.03
			C82.5,106.61,82.79,106.58,82.92,106.29z M83.76,105.65c-0.27-0.43-0.78-0.52-0.78-0.52c0.23,0.09,0.43,0.3,0.46,0.71
			s-0.15,0.68-0.55,0.81c0.33-0.01,0.56-0.14,0.65-0.39C83.61,106.01,83.52,105.8,83.76,105.65z M100.67,101.83
			c-0.26,0.63-0.95,0.79-1.5,0.68c-0.3-0.06-0.53-0.23-0.71-0.43c0,0.01,0,0.02,0,0.02c0,0.79-0.51,1.4-1.28,1.4
			c-0.53,0-0.89-0.23-1.01-0.63c-0.27-0.74-0.67-1.7-1.88-1.36c0.55-0.5,1.61-0.1,1.94,0.68c0.14-0.24,0.4-0.41,0.73-0.41
			c0.53,0,0.6,0.42,0.46,0.54c-0.03-0.1-0.13-0.24-0.34-0.24c-0.26,0-0.44,0.19-0.44,0.47c0,0.22,0.21,0.5,0.57,0.5
			c0.57,0,0.95-0.32,0.95-0.95c0-0.15-0.04-0.52-0.43-0.85c-0.49-0.41-1.62-0.81-4.17-0.35c-2.98,0.53-6.01,1.5-9.39,2.62
			c-0.19,0.06-0.41,0.13-0.65,0.21c0.76,0.15,1.25,0.77,1.26,1.5c0,0.16,0,0.38-0.08,0.52c0,0-0.09-0.65-0.58-0.69
			c0,0,0.35-0.41,0-0.72l0,0c-0.28-0.24-0.66-0.37-1.11-0.36c-0.16,0-0.33,0.02-0.5,0.06c-1.34,0.4-2.82,0.78-3.04,0.65
			c1.39-0.42,3.28-1.02,4.61-1.46c3.39-1.12,6.43-2.09,9.43-2.63c2.14-0.38,3.62-0.24,4.41,0.42c0.14,0.12,0.24,0.24,0.32,0.36l0,0
			c0.25,0.39,0.61,0.71,1,0.82c0.43,0.12,0.96,0.02,1.16-0.46c0.16-0.39-0.04-0.8-0.4-0.86c-0.38-0.07-0.68,0.25-0.67,0.5
			c-0.11-0.09-0.09-0.28-0.05-0.39c0.07-0.21,0.4-0.49,0.84-0.38C100.58,100.72,100.92,101.2,100.67,101.83z M84.34,104.42
			c0,0,0.16,0.26,0.04,0.5c0.1,0.03,0.21,0.1,0.24,0.28C84.62,105.2,84.63,104.73,84.34,104.42z M97.79,103.14
			c-0.69,0.38-1.4,0.02-1.4-0.59c0-0.19,0.06-0.37,0.15-0.43c-0.26,0.15-0.24,0.47-0.24,0.47c-0.1-0.23-0.25-0.39-0.25-0.39
			c0.18,0.31,0.21,0.6,0.37,0.83c0.16,0.22,0.38,0.36,0.83,0.36C97.57,103.38,97.76,103.21,97.79,103.14z M85.31,94.84
			c1.59-0.53,4.13-1.28,7.07-1.71c-1.06-0.09-3.62,0.46-3.7,0.48c-0.19,0.04-0.38,0.09-0.58,0.14
			C86.63,94.12,85.6,94.55,85.31,94.84z M82.19,95.88l-0.58,0.17c-3.69,1.22-7.23,2.39-10.88,2.89c-3.09,0.44-6.6,0.44-6.6-1.94h0
			c0-0.59,0.23-0.84,0.23-1.35c0-0.35-0.18-0.56-0.54-0.56c-0.19,0-0.39,0.16-0.39,0.36c0,0.13,0.04,0.25,0.11,0.3
			c-0.16,0.07-0.3-0.16-0.3-0.33c0-0.3,0.21-0.58,0.58-0.58c0.42,0,0.79,0.24,0.79,0.81c0,0.09-0.01,0.17-0.02,0.24
			c0.16-0.13,0.36-0.2,0.58-0.2c0.81,0,1.12,0.57,1.12,0.93c0,0.36-0.24,0.78-0.71,0.67c0,0,0.2-0.16,0.2-0.44
			c0-0.36-0.17-0.66-0.62-0.66c-0.41,0-0.76,0.3-0.76,0.8c0,2.2,3.89,2,6.32,1.65l0,0c1.27-0.17,2.52-0.43,3.77-0.74
			c-1.74,0.13-2.79-0.53-2.79-2.03c0-0.11,0.01-0.22,0.03-0.32l0,0c0.27-1.31-0.4-2.29-1.62-2.29c-0.78,0-1.2,0.5-1.36,1.05
			c-0.15-0.74,0.58-1.3,1.36-1.3c0.68,0,1.82,0.26,1.93,1.83c0.32-0.44,0.83-0.71,1.35-0.71c0.44,0,0.84,0.12,1.13,0.34
			c1.02,0.64,1.62,1.98,3.04,1.98c0.62,0,0.86-0.43,0.86-0.43c0.07,0.22-0.24,0.68-0.89,0.68c-1.26,0-1.91-0.78-2.54-1.43
			c0.16,1.01-0.13,1.56-0.71,1.79c0.01-0.3-0.5-0.27-0.5-0.27c-0.56,0-1.02-0.37-1.02-0.91c0-0.43,0.26-0.71,0.58-0.71
			c0.17,0,0.29,0.04,0.38,0.17c-0.33-0.05-0.47,0.18-0.47,0.47c0,0.23,0.17,0.47,0.47,0.47c0.54,0,0.79-0.36,0.79-0.89
			c0-0.51-0.38-0.94-0.98-0.99c-0.04,0-0.08-0.01-0.13-0.01c-0.76,0-1.39,0.61-1.39,1.49c0,1.98,2.23,2.02,4.15,1.58
			c0.69-0.2,1.38-0.4,2.07-0.62C78.65,96.7,81.92,95.69,82.19,95.88z M74.87,95.93c-0.2,0.56-0.45,0.64-0.62,0.57
			c0.18-0.07,0.29-0.29,0.29-0.43c-0.09,0.17-0.32,0.39-0.74,0.39c-0.53,0-0.74-0.32-0.74-0.61c0-0.17,0.04-0.42,0.19-0.49
			c-0.08,0-0.29,0.11-0.29,0.53c0,0.56,0.61,0.71,0.96,0.71c0.22,0,0.39,0.03,0.47,0.18C74.8,96.55,74.87,96.04,74.87,95.93z
			 M74.46,94.65c0,0,0.41,0.39,0.18,1.18c0.13-0.22,0.16-0.49,0.16-0.64c0-0.08,0.09-0.13,0.13-0.12c0.08,0.02,0.14,0.06,0.14,0.06
			C74.81,94.84,74.46,94.65,74.46,94.65z M64.58,96.2c0,0,0.24-0.22,0.62-0.22c0.81,0,0.92,0.83,0.69,1.15c0,0,0.25-0.1,0.25-0.51
			c0-0.44-0.41-0.76-0.91-0.76C65,95.87,64.71,95.96,64.58,96.2z M80.59,94.18c0,0.96-0.44,1.57-1.54,1.57
			c-1.76,0-3.72-2.43-5.48-2.43c-0.23,0-0.65,0.05-0.86,0.23c0.03-0.28,0.55-0.47,0.87-0.47c2.01,0,3.93,2.36,5.49,2.36
			c0.88,0,1.18-0.5,1.23-1.15c0-0.39-0.22-0.67-0.66-0.67c-0.33,0-0.54,0.25-0.54,0.51c0,0.16,0.06,0.28,0.19,0.37
			c-0.26,0.08-0.55-0.15-0.55-0.51c0-0.09,0.01-0.16,0.03-0.23l0,0c0.06-0.26-0.16-0.3-0.38-0.16c-0.38,0.24-0.76,0.52-1.32,0.52
			c-0.73,0-1.02-0.63-0.64-1.01c-0.06,0.58,0.65,0.6,0.84,0.23c0.06,0.21,0.4,0.35,0.83,0.12c0.35-0.21,0.73-0.43,1.21-0.43
			c0.49,0,1.07,0.15,1.25,0.72c0,0,0,0,0,0.01c0.02,0.05,0.03,0.1,0.04,0.16c0,0.02,0.01,0.04,0.01,0.05
			C80.59,94.04,80.59,94.1,80.59,94.18z M77.97,93.66c-0.43,0.2-0.72,0-0.74-0.06c-0.04,0.14,0.07,0.19,0.05,0.19
			c-0.47,0.1-0.73-0.03-0.88-0.22C76.55,94.15,77.6,93.97,77.97,93.66z M80.3,93.72c-0.26-0.64-1.36-0.57-1.64-0.32
			c0.34-0.12,0.55-0.05,0.55-0.05c-0.41,0.22-0.36,0.69-0.26,0.94c-0.07-0.56,0.19-0.89,0.66-0.89
			C80.03,93.4,80.21,93.61,80.3,93.72z M88.46,93.37c-0.16-0.04-0.32-0.05-0.44-0.05c-1.76,0-3.72,2.31-5.48,2.31
			c-1.1,0-1.54-0.49-1.54-1.46c0-0.07,0.01-0.14,0.01-0.2c0-0.02,0.01-0.04,0.01-0.05c0.01-0.06,0.02-0.11,0.04-0.16c0,0,0,0,0-0.01
			c0.18-0.58,0.76-0.72,1.25-0.72c0.48,0,0.85,0.22,1.21,0.43c0.43,0.22,0.77,0.09,0.83-0.12c0.19,0.37,0.9,0.35,0.84-0.23
			c0.38,0.38,0.09,1.01-0.64,1.01c-0.56,0-0.94-0.27-1.32-0.52c-0.22-0.14-0.44-0.1-0.38,0.16l0,0c0.02,0.07,0.03,0.15,0.03,0.23
			c0,0.36-0.29,0.59-0.55,0.51c0.13-0.09,0.19-0.21,0.19-0.37c0-0.27-0.22-0.51-0.54-0.51c-0.44,0-0.66,0.28-0.66,0.66
			c0.04,0.63,0.35,1.03,1.23,1.03c1.55,0,3.47-2.18,5.47-2.18C88.28,93.14,88.51,93.31,88.46,93.37z M83.62,93.66
			c0.36,0.31,1.42,0.49,1.56-0.08c-0.14,0.19-0.4,0.32-0.88,0.22c-0.02,0,0.09-0.05,0.05-0.19C84.34,93.66,84.05,93.86,83.62,93.66z
			 M81.28,93.72c0.09-0.11,0.28-0.32,0.69-0.32c0.46,0,0.72,0.33,0.66,0.89c0.1-0.25,0.15-0.72-0.26-0.94c0,0,0.21-0.07,0.55,0.05
			C82.65,93.15,81.55,93.08,81.28,93.72z M71.28,97.12c-0.11,0.27-0.87,0.72-1.65,0.47c-0.11,0.55-0.68,1.04-1.17,1
			c-0.32-0.02-0.68-0.56-0.56-1.17c-0.43,0.22-1.04,0.09-1.16-0.28c-0.08-0.23,0.16-0.8,0.68-1.03c-0.42-0.17-0.75-0.39-1.05-0.61
			l0,0c-1.04-0.74-2.17-1.36-3.66-1.36c-1.17,0-2.07,0.36-2.65,0.96c-0.01,0.01-0.02,0.03-0.04,0.04c-0.16,0.17-0.29,0.37-0.4,0.58
			c-0.12,0.27-0.17,0.56-0.17,0.87c0,0.83,0.55,1.27,1.28,1.23c-0.09,0.06-0.16,0.18-0.16,0.29c0,0.26,0.22,0.41,0.49,0.41
			c0.1,0,0.18-0.02,0.24-0.04c0.31-0.14,0.56-0.42,0.56-0.76c0-0.37-0.17-0.69-0.52-0.87c0.5-0.09,0.96,0.4,0.96,1.03
			c0,0.71-0.54,1.31-1.45,1.31c-0.99,0-1.95-0.67-1.95-2.29c0-0.37,0.13-0.91,0.47-1.43c-0.25,0.09-0.5,0.13-0.81,0.13
			c-0.16,0-0.3-0.02-0.43-0.05c-0.2,0.46-0.32,0.98-0.32,1.56c0,2,1.65,3.06,3.06,3.06c1.58,0,2.57-1.06,2.57-2.36
			c0-1.02-0.64-1.99-1.85-1.99c-0.72,0-1.06,0.45-1.06,0.84c0,0.09,0.01,0.17,0.04,0.23c-0.18-0.1-0.19-0.29-0.19-0.4
			c0-0.47,0.53-0.96,1.23-0.96c0.07,0,0.14,0,0.2,0.01c-0.13-0.24-0.09-0.52,0.11-0.73c0,0-0.27,0.52,0.5,0.88l0,0
			c0.84,0.35,1.31,1.24,1.31,2.12c0,1.53-1.16,2.69-2.86,2.69c-0.16,0-0.32-0.01-0.48-0.04c0.54,0.47,0.54,1.07,0.25,1.31
			c0.16-0.54-0.21-1.13-1.26-1.6l0.01,0c-0.47-0.22-0.9-0.54-1.24-0.97c0.71,1.98,2.34,3.66,4.27,3.62v0l0,0
			c0.75,0,1.28-0.5,1.28-1.11c0-0.46-0.23-0.83-0.77-0.83c-0.41,0-0.68,0.33-0.68,0.65c0,0.19,0.04,0.33,0.18,0.46
			c-0.31,0.07-0.5-0.25-0.5-0.59c0-0.59,0.46-1.02,1.07-1.02c0.81,0,1.29,0.57,1.29,1.25c0,0.94-0.86,1.57-1.87,1.57
			c-0.23,0-0.45-0.02-0.68-0.06c0.2,0.12,0.4,0.24,0.59,0.35c0.35,0.21,0.76,0.32,1.18,0.32c0.73,0,0.9-0.51,0.9-0.51
			c0.19,0.51-0.38,0.81-0.91,0.81c-0.01,0-0.02,0-0.03,0c1.03,0.55,1.81,0.95,1.74,1.09c-1.69-0.79-2.79-1.03-5.15-2.79
			c-0.05-0.04-0.1-0.08-0.15-0.12c-0.01-0.01-0.02-0.01-0.03-0.02l0,0c-1.46-1.14-2.42-3.19-2.42-5.15c0-0.61,0.12-1.17,0.35-1.67
			c-1.14-0.55-1.04-2.34,0.31-2.34c0.42,0,0.72,0.35,0.55,0.62c-0.08-0.1-0.21-0.19-0.42-0.19c-0.91,0-1.12,1.21-0.3,1.63
			c0.7-1.27,2.11-2.05,3.78-2.05c1.25,0,2.28,0.47,3.26,1.1c-0.02-0.08-0.03-0.17-0.03-0.25c0-0.53,0.35-0.98,1-0.98
			c0.22,0,0.41,0.07,0.55,0.17l0,0c0.68,0.53,1.44,0.58,1.79,0.06c-0.11,0.7-0.94,0.69-1.52,0.39c0.01,0.05,0.01,0.1,0.01,0.15
			c0,0.25-0.18,0.46-0.47,0.47c0.16-0.04,0.26-0.22,0.26-0.41c0-0.29-0.21-0.56-0.57-0.56c-0.41,0-0.7,0.24-0.7,0.76
			c0,0.27,0.11,0.46,0.35,0.64c0.06,0.04,0.12,0.09,0.19,0.13c0,0,0,0,0.01,0l0,0c0.15,0.11,0.3,0.22,0.45,0.33
			c0.36,0.26,0.72,0.53,1.21,0.75c-0.44-0.38-0.35-1.08-0.18-1.27c0.22-0.25,1.28-0.12,1.41,0.66c-0.31-0.64-1.14-0.72-1.28-0.57
			c-0.15,0.16-0.08,1.07,0.88,1.22c0.14-0.15,0.33-0.25,0.54-0.27c-0.05-1.06,0.68-1.38,0.9-1.31c-0.33,0.12-0.76,0.45-0.77,1.31
			c0.25,0.01,0.47,0.1,0.58,0.26c0,0,0.01,0,0.01,0c0.06-0.02,0.13-0.04,0.19-0.05c0.71-0.48,0.75-1.38,0.58-1.48
			c-0.13-0.08-0.25-0.09-0.39-0.07c0.07-0.06,0.3-0.07,0.47,0.02c0.27,0.16,0.44,0.91-0.23,1.55c0.24,0.06,0.4,0.18,0.4,0.28
			c-0.41-0.22-0.76-0.18-0.96-0.12l0,0c0.05,0.16,0.02,0.35-0.12,0.58c-0.06,0.1-0.13,0.17-0.21,0.22c0.37,0.85,1.72,0.48,1.81,0.22
			c0.07-0.23-0.03-0.54-0.33-0.8C71.03,96.19,71.42,96.76,71.28,97.12z M57.37,94.81c-0.29-0.71-0.04-1.46,0.87-1.46
			c0.19,0,0.31,0.11,0.31,0.11c-0.07-0.13-0.19-0.2-0.48-0.2c-0.45,0-0.91,0.36-0.91,0.94C57.17,94.44,57.25,94.66,57.37,94.81z
			 M63.95,101.73c0,0,0.01,0.23-0.06,0.38c0.11-0.1,0.17-0.3,0.17-0.43c0-0.76-0.52-1.14-1.07-1.14c-0.52,0-0.96,0.29-0.9,0.97
			c0-0.49,0.32-0.83,0.89-0.83C63.5,100.68,63.95,101.03,63.95,101.73z M68.61,96.39c0.28,0.2,0.65-0.16,0.39-0.39
			c0.18-0.06,0.41-0.01,0.43,0.22c0.15-0.22-0.08-0.47-0.57-0.45C68.44,95.79,68.41,96.25,68.61,96.39z M68.33,96.32
			c0.03,0.61,1.03,0.56,1.09-0.02C69.1,96.67,68.46,96.68,68.33,96.32z M59.3,95.92c0,0,0,0.01-0.01,0.03
			c-0.16,0.35-0.2,0.76-0.2,0.99c0,0.23,0.03,2.06,1.78,2.06c0.93,0,1.34-0.8,1.29-1.12c-0.2,0.65-0.83,0.93-1.22,0.93
			c-0.43,0-0.77-0.12-1.03-0.31c0.08,0.03,0.17,0.05,0.28,0.05c0.13,0,0.22-0.02,0.22-0.12c-0.34,0.05-0.89-0.29-1.05-0.63
			c-0.12-0.28-0.17-0.59-0.17-0.87c0,0.69,0.55,1.13,0.95,1.13c0.17,0,0.27-0.02,0.29-0.13C59.19,97.94,59.12,96.52,59.3,95.92z
			 M62.76,93.86c0.6,0,1.09,0.09,1.54,0.25c-0.8-0.44-1.62-0.73-2.58-0.73c-1.49,0-2.8,0.7-3.45,1.9c0.1,0.02,0.2,0.03,0.32,0.03
			c0.72,0,1.06-0.31,1.51-0.64c0,0,0.01-0.01,0.01-0.01c0.01-0.01,0.02-0.02,0.04-0.03c0.05-0.04,0.11-0.08,0.17-0.12
			c0.01-0.01,0.04-0.03,0.04-0.03C60.94,94.12,61.72,93.86,62.76,93.86z M68.05,97.04c0.07-0.11,0.15-0.22,0.26-0.33
			c-0.09-0.11-0.16-0.24-0.16-0.4c0-0.05,0.01-0.11,0.03-0.16c-0.84-0.13-1.38,0.69-1.29,0.92C67,97.29,67.65,97.26,68.05,97.04z
			 M69.09,96.92c-0.22,0.07-0.47,0.02-0.65-0.1c-0.01-0.01,0,0,0,0c-0.61,0.36-0.41,1.47,0.03,1.56
			C68.85,98.45,69.66,97.37,69.09,96.92z M104.74,96.07c-0.08,0.14-0.37,0.31-0.73,0.37c0.15,0.73,0.18,2.81-0.7,3.79
			c0.47-1.2,0.63-2.48,0.15-3.79c-0.14-0.02-0.28-0.06-0.42-0.13c-0.04,0.12-0.1,0.23-0.18,0.33c0.2,0.45,0.32,0.99,0.33,1.6
			c0.04,3.33-3.1,6.01-6.75,6.01c-0.22,0-0.43,0-0.64-0.01c0.01,0.06,0.02,0.12,0.01,0.17c-0.09,0.38-0.67,0.57-1.13,0.4
			c0.19,0.59-0.11,1.17-0.43,1.22c-0.31,0.05-0.67-0.1-0.93-0.35c-0.14,0.48-0.76,0.86-1.57,0.86c-0.9,0-1.4-0.27-1.97-0.51
			c0.59,0.75,0.22,1.86-0.84,1.85c-0.75-0.01-1.04-0.69-0.75-1.22c0.09,0.23,0.26,0.44,0.67,0.44c0.71,0.01,1.12-1.19-0.27-1.41
			c-0.16-0.02-0.33-0.03-0.51-0.03c-0.27,0-0.57,0.04-0.57,0.04c-1.83,0.21-3.41,1.33-4.57,2.83c1.2-0.83,2.45-0.21,2.04,0.5
			c0.04-0.7-1.91-1.22-3.18,1.35c-0.28,0.57-0.5,1.17-0.67,1.76c1.98-3.08,5.83-2.35,5.83-4.4c0-0.39-0.3-0.7-0.64-0.7
			c-0.37,0-0.56,0.27-0.56,0.53c0,0.33,0.24,0.52,0.4,0.55c-0.45,0.06-0.7-0.26-0.7-0.59c0-0.54,0.49-0.91,1.03-0.91
			c0.61,0,1.15,0.47,1.15,1.06c0,2.63-4.69,1.35-6.83,5.5l0-0.28l-0.01-0.46c0.04-0.15,0.08-0.29,0.12-0.43c0,0,0,0,0-0.01
			c0-0.01,0.01-0.02,0.01-0.03c0.04-0.13,0.08-0.27,0.13-0.4c0.89-3.03,0.06-6.17-1.79-6.42c-0.84-0.11-1.06,0.97-0.38,1.04
			c0.33,0.04,0.49-0.17,0.49-0.17c0.12,0.56-0.42,0.79-0.7,0.77c-0.52-0.05-0.77-0.33-0.81-0.67l0,0c-0.03-0.49-0.28-0.4-0.28-0.4
			c0.15-0.45,0.71-0.86,1.57-0.82c0,0,0.07,0,0.11,0.01c1.86,0.2,2.74,2.82,2.37,5.21c1.37-2.84,3.64-4.58,6.08-4.76
			c0.08-0.01,0.17-0.02,0.26-0.02c0.03,0,0.14,0,0.16,0c0.09,0,0.18,0.01,0.27,0.01c1.62,0.11,2.02,0.81,3.38,0.81
			c0.89,0,1.25-0.4,1.39-0.71c-0.07-0.1-0.13-0.21-0.16-0.32c-0.75,0.33-1.55-0.03-1.69-0.3c-0.18-0.34,0.14-0.94,0.4-0.93
			c-0.27,0.29-0.34,0.61-0.24,0.83c0.12,0.26,1.5,0.48,1.77-0.41c-0.09-0.05-0.17-0.11-0.24-0.2c-0.17-0.21-0.22-0.41-0.19-0.57l0,0
			c-0.2-0.04-0.55-0.04-0.93,0.21l-0.01,0l-0.01,0c-0.4-0.09-0.74-0.19-1.07-0.27c-0.12,0.81-0.82,1.12-1.6,1.12
			c-1.04,0-1.59-0.73-2.45-0.73c-0.37,0-0.76,0.23-0.91,0.62c-0.01,0.03-0.02,0.05-0.03,0.08c0,0,0,0,0,0
			c-0.01,0.05-0.02,0.09-0.03,0.14l0,0c-0.01,0.05-0.01,0.09-0.01,0.14c0,0.09,0,0.19,0.02,0.28c-0.05-0.01-0.16-0.09-0.16-0.39
			c-0.01-0.96,0.73-1.93,2.78-1.96c0.71-0.01,1.26,0.09,1.85,0.24c-0.07-0.3-0.25-0.58-0.56-0.66c0.43-0.17,1.07,0.26,1.12,0.81
			c0.39,0.1,0.82,0.22,1.32,0.32c0.03-0.02,0.06-0.03,0.1-0.04c-0.73-0.56-0.65-1.33-0.39-1.52c0.16-0.11,0.39-0.12,0.46-0.07
			c-0.15,0-0.26,0.02-0.38,0.11c-0.16,0.12-0.02,1.01,0.73,1.41c0.06,0,0.13,0.01,0.19,0.03c0.01,0,0.01,0,0.01,0
			c0.09-0.17,0.29-0.28,0.55-0.32c-0.1-0.86-0.57-1.14-0.91-1.22c0.22-0.09,0.98,0.16,1.04,1.21l0,0c0.2,0,0.41,0.08,0.56,0.21
			c0.94-0.25,0.91-1.16,0.75-1.3c-0.15-0.13-0.97,0.03-1.21,0.71c0.05-0.79,1.08-1.03,1.33-0.81c0.22,0.2,0.41,1.08-0.26,1.45
			c0.43,0.02,0.75,0.26,0.94,0.51c0.25,0.01,0.51,0.01,0.79,0.01c1.85-0.02,3.5-0.75,4.66-1.84c0.76-0.81,0-2.25-1.07-2.25
			c-1.06,0-1.27,0.69-1.25,1.16c-0.45-0.62,0.06-1.66,1.29-1.66c0.45,0,0.82,0.18,1.09,0.46c-0.01-0.04-0.01-0.08-0.01-0.13
			c0-0.66,0.65-0.85,0.86-0.57c-0.21-0.09-0.64,0.03-0.64,0.59c0,0.17,0.04,0.38,0.14,0.63c0.02,0.04,0.04,0.08,0.05,0.13
			c0,0.01,0,0.01,0.01,0.02l0,0c0.12,0.33,0.15,0.69,0.08,1.05c0.43-0.52,0.75-1.1,0.96-1.71c0.11-0.41,0.09-0.8-0.05-1.12l0,0
			c-0.2-0.42-0.69-0.2-0.69-0.2c0.1-0.47-0.5-0.74-0.5-0.74c0.15-0.04,0.36,0.02,0.52,0.06c0.43,0.13,0.78,0.43,0.96,0.83
			c0.01-0.12,0.01-0.23,0.01-0.35c-0.01-0.5-0.09-0.97-0.24-1.38c-0.26,0.2-0.58,0.3-0.85,0.25c-0.32-0.06-0.6-0.65-0.4-1.24
			c-0.46,0.17-1.04-0.04-1.12-0.43c0-0.01,0-0.02,0-0.03c-0.12,0.02-0.24,0.05-0.35,0.09l0,0c-0.67,0.29-0.55,1.4,0.24,1.4
			c0.41,0,0.52-0.32,0.53-0.43c0.15,0.32-0.16,0.69-0.58,0.69c-0.66,0-1.03-0.57-0.87-1.11c-0.16,0.24-0.25,0.53-0.25,0.85
			c0,1.32,1.3,1.3,1.8,0.92c-0.04,0.7-0.68,0.96-1.11,0.96c-0.82,0.01-1.56-0.53-1.57-1.45c0-0.23,0.03-0.46,0.1-0.68
			c0,0,0,0,0-0.01c0.07-0.25-0.22-0.23-0.22-0.23s0.58-1.28,2.4-1.36c0.04-0.06,0.08-0.12,0.13-0.18l0,0
			c-0.11-0.06-0.21-0.13-0.29-0.2c-0.62-0.44-1.29-0.08-1.29-0.08c0.18-0.33,0.6-0.41,0.99-0.34c-0.28-0.66,0.05-1.46,0.47-1.42
			c-0.3,0.15-0.67,1.41,0.36,1.83c0.18-0.12,0.39-0.2,0.64-0.2c-0.66-0.39-0.45-1.26-0.22-1.46c0.25-0.21,1.28,0.05,1.31,0.84
			c-0.23-0.68-1.04-0.86-1.2-0.74c-0.17,0.14-0.22,1.05,0.71,1.32c0.16-0.12,0.37-0.2,0.57-0.2l0,0c0.09-1.05,0.85-1.28,1.07-1.18
			c-0.34,0.07-0.81,0.34-0.94,1.2c0.25,0.04,0.45,0.16,0.54,0.33c0,0,0,0,0.01,0c0.07-0.01,0.13-0.02,0.19-0.02
			c0.77-0.38,0.93-1.27,0.77-1.39c-0.12-0.1-0.23-0.12-0.38-0.12c0.08-0.05,0.31-0.03,0.46,0.08c0.25,0.19,0.31,0.96-0.43,1.5
			c0.23,0.09,0.37,0.23,0.36,0.33c-0.38-0.27-0.73-0.28-0.93-0.24l0,0c0.03,0.16-0.03,0.35-0.2,0.56c-0.07,0.09-0.15,0.15-0.24,0.19
			c0.25,0.89,1.64,0.7,1.76,0.45c0.1-0.22,0.04-0.54-0.22-0.84C104.62,95.13,104.92,95.74,104.74,96.07z M99.66,95.41
			c0,0-0.86,0.09-1.47,0.95c0,0,0.4-0.38,0.68-0.47c-0.23,0.23-0.57,0.73-0.57,1.42c0.03,0.79,0.63,1.38,1.31,1.36
			c0.39,0,0.77-0.23,0.89-0.49c-0.35,0.33-0.73,0.34-0.91,0.34c-0.49,0-1.37-0.55-1.03-1.82c-0.23,1.39,0.83,1.68,1.08,1.56
			c-0.87-0.11-0.97-0.88-0.91-1.44C98.81,96.25,99.05,95.71,99.66,95.41z M102.19,95c0.25,0.23,0.67-0.07,0.44-0.34
			c0.19-0.04,0.41,0.05,0.4,0.28c0.18-0.2-0.02-0.48-0.51-0.52C102.09,94.39,102.01,94.84,102.19,95z M101.92,94.9
			c-0.05,0.61,0.95,0.69,1.08,0.12C102.64,95.35,102,95.27,101.92,94.9z M101.55,95.57c0.08-0.1,0.18-0.2,0.3-0.3
			c-0.08-0.12-0.12-0.26-0.11-0.42c0-0.05,0.03-0.11,0.05-0.16c-0.81-0.23-1.46,0.5-1.4,0.75
			C100.48,95.68,101.12,95.74,101.55,95.57z M102.6,95.59c-0.23,0.04-0.47-0.04-0.63-0.19l-0.01,0c-0.65,0.28-0.6,1.4-0.16,1.55
			C102.15,97.08,103.1,96.11,102.6,95.59z M102.51,98.45c-0.21-0.36-0.67-0.48-0.67-0.48c0.17,0.08,0.2,0.21,0.2,0.31
			C102.31,98.22,102.51,98.45,102.51,98.45z M101.37,100.55c-0.28-0.9-1.11-1.01-1.4-1.01c-0.29,0-0.86,0.1-1.07,0.56
			c0,0,0.28-0.44,1.07-0.44C100.76,99.67,101.19,100.23,101.37,100.55z M90.29,103.42c-0.59-0.15-1.17-0.25-1.92-0.24
			c-0.75,0.01-1.33,0.2-1.76,0.48c0.04,0,0.09-0.01,0.14-0.01c1.06,0,1.42,0.7,2.46,0.7C89.85,104.36,90.26,104.02,90.29,103.42z
			 M90.21,102.62c0.33,0.31,0.47,1.17-0.16,1.66C90.77,103.95,90.81,102.98,90.21,102.62z M78.64,106.29
			c0.14,0.3,0.42,0.32,0.57,0.03C78.97,106.47,78.64,106.29,78.64,106.29z M78.58,105.13c0,0-0.51,0.09-0.78,0.52
			c0.24,0.15,0.15,0.36,0.23,0.61c0.09,0.25,0.31,0.38,0.65,0.39c-0.4-0.12-0.58-0.4-0.55-0.81
			C78.16,105.43,78.36,105.22,78.58,105.13z M86.65,108.92c0.8-0.23,1.19-2.02-0.2-2.06C87.31,106.99,87.42,108.29,86.65,108.92z
			 M89.69,106.21c0.29,0.96-0.36,1.29-0.95,1.16c0,0,0.14,0.09,0.53,0.13c-0.33,0.08-0.67,0.01-1.01-0.15c0,0,0.27,0.44,0.83,0.35
			c0.34-0.05,0.51-0.21,0.6-0.33l0,0c0,0,0,0,0-0.01c0-0.01,0.01-0.01,0.01-0.02c0.01-0.01,0.01-0.02,0.02-0.04
			c0.01-0.01,0.01-0.02,0.01-0.03C89.82,107.1,89.95,106.72,89.69,106.21z M93.43,103.53c-0.24,0.26,0.17,0.57,0.43,0.35
			c0.18-0.16,0.11-0.61-0.32-0.59c-0.49,0.03-0.7,0.3-0.52,0.5C93.02,103.57,93.24,103.49,93.43,103.53z M94.13,103.78
			c-0.09,0.37-0.73,0.43-1.08,0.1C93.16,104.45,94.17,104.4,94.13,103.78z M94.09,104.29L94.09,104.29
			c-0.18,0.14-0.42,0.21-0.65,0.17c-0.52,0.51,0.41,1.5,0.77,1.39C94.65,105.71,94.73,104.59,94.09,104.29z M94.27,103.59
			c0.03,0.05,0.05,0.1,0.05,0.16c0.01,0.16-0.04,0.3-0.12,0.42c0.12,0.1,0.22,0.2,0.29,0.3c0.42,0.18,1.07,0.14,1.16-0.1
			C95.71,104.12,95.09,103.37,94.27,103.59z M59.96,58.92 M67.76,56.16c-1.31,0-1.97-0.56-2.79-0.84c0.07,0.1,0.12,0.22,0.12,0.36
			c0,0.25-0.29,0.64-0.63,0.54c0.25-0.1,0.33-0.34,0.33-0.54c0-0.29-0.22-0.5-0.63-0.52c-0.02,0-0.04,0-0.05,0
			c-0.05,0.34-0.41,0.81-1.15,0.89c0.16,0.19,0.21,0.39,0.15,0.47c-0.19-0.43-0.5-0.61-0.7-0.68l0,0c-0.06,0.15-0.2,0.3-0.46,0.39
			c-0.11,0.04-0.21,0.05-0.31,0.05c-0.23,0.91,1.08,1.44,1.32,1.28c0.2-0.14,0.3-0.45,0.23-0.85c0.23,0.12,0.2,0.81-0.14,1.01
			c-0.24,0.14-1.04,0.06-1.53-0.52c-0.34,0.57-0.7,1.17-1.23,1.66c0.55-0.13,0.91-0.13,1.03-0.13c0.15,0,0.31,0.01,0.46,0.03l0.03,0
			c0.07,0.01,0.14,0.02,0.21,0.04c1.4,0.24,2.03-0.19,2.16-0.96c0.22,0.66-0.27,1.32-1.19,1.38c0.12,0.08,0.24,0.18,0.34,0.28l0,0
			c0.56,0.42,1.03,1.31,1.03,2.37c0,2.56-2.09,3.03-2.92,3.03h0h0c-0.45,0-0.84-0.08-1.18-0.21l0,0c-0.97-0.39-1.39-0.7-2.08-0.7
			c-0.54,0-0.63,0.31-0.63,0.47c0,0.22,0.09,0.38,0.21,0.45c-0.34,0-0.5-0.28-0.5-0.48c0-0.54,0.44-0.79,0.9-0.79
			c0.37,0,0.69,0.07,1.02,0.19c-0.14-0.2-0.24-0.42-0.32-0.66l0,0c-0.25-0.81-0.7-1.58-1.45-1.51c-0.14,0.01-0.25,0.06-0.34,0.12
			c-0.26,0.2-0.15,0.59,0.13,0.57c0.13-0.01,0.17-0.09,0.17-0.09c0.13,0.23-0.19,0.42-0.19,0.42c0.14,0.11,0.48,0,0.55-0.13
			c0.07,0.39-0.27,0.63-0.59,0.66c-0.25,0.02-0.45-0.06-0.59-0.2c-0.08,0.13-0.23,0.31-0.5,0.25c0.23-0.16,0.27-0.41,0.28-0.76
			c-0.04-0.47,0.26-1.02,0.99-1.08c0.58-0.05,1.12,0.25,1.42,0.93c0.02-1.5,1.16-2.43,2.14-2.43c0.99,0,1.48,0.57,1.48,1.31
			c0,0.62-0.49,1.11-1.11,1.11c-0.58,0-0.78-0.47-0.75-0.75c0,0,0.09,0.14,0.45,0.14c0.39,0,0.71-0.35,0.71-0.72
			c0-0.37-0.27-0.74-0.72-0.74c-0.68,0-0.79,0.66-0.72,0.85c-0.52-0.24-1.11,0.13-1.11,1.3c0,1.33,1.06,2.11,2.29,2.11
			c1.12,0,2.61-0.7,2.61-2.59c0-0.43-0.05-0.93-0.21-1.29c0.05,0.19,0.09,0.4,0.09,0.6c0,1.23-0.93,2.45-2.33,2.45
			c-1.1,0-1.36-0.65-1.29-0.8c0.24,0.29,0.57,0.5,1.29,0.5c1.17,0,2.02-1.12,2.02-2.12c0-1.09-0.7-2.17-2.3-2.17
			c-1.1,0-1.79,0.34-2.51,0.7c-0.77,0.38-1.86,1.24-3.19,1.24c-0.08,0-0.16,0-0.24-0.01c0.4,0.39,0.5,1,0.15,1.42
			c0,0,0.26-1.07-1.02-1.57l0,0c-0.33-0.1-0.56-0.22-0.69-0.3l0.33-0.35c0.15,0.14,0.52,0.4,1.16,0.47
			c0.72,0.03,1.08-0.42,1.08-0.82c0-0.45-0.27-0.68-0.59-0.68c-0.28,0-0.55,0.21-0.55,0.57c0,0.04,0.01,0.09,0.02,0.12
			c-0.16-0.08-0.19-0.26-0.19-0.39c0-0.29,0.34-0.59,0.74-0.59c0.48,0,0.86,0.34,0.94,0.79c0.05,0.28-0.05,0.61-0.29,0.87
			c0.55-0.17,1.07-0.45,1.53-0.71c0.67-0.4,0.87-0.86,0.69-1.44c-0.18-0.58-0.7-0.83-1.2-0.59c-0.39,0.19-0.45,0.6-0.28,0.81
			c-0.2,0-0.36-0.17-0.45-0.39c-0.17-0.43,0.17-1.03,0.65-1.22c0.11-0.04,0.22-0.07,0.33-0.09c0.42-0.07,0.49-0.42,0.29-0.64
			c1.05,0.23,1.46,1.79,1.21,2.66c-0.02,0.11-0.06,0.21-0.12,0.32c0.92-0.43,1.46-1.19,1.95-1.97c-0.41,0.15-0.9,0.11-1.18-0.13
			c-0.25-0.21-0.2-0.87,0.27-1.28c-0.49-0.09-0.89-0.56-0.77-0.94c0.09-0.28,0.83-0.66,1.49-0.3c-0.38-0.67,0.24-1.34,0.54-1.39
			c0.33-0.06,1.1,0.69,0.73,1.4c0.14-0.71-0.48-1.28-0.68-1.25c-0.22,0.03-0.72,0.81-0.04,1.52c0.2-0.03,0.42,0.01,0.6,0.11l0,0
			c0.61-0.88,1.39-0.69,1.53-0.5c-0.34-0.11-0.89-0.11-1.42,0.58c0.2,0.17,0.32,0.37,0.31,0.57c0,0,0.01-0.01,0.01-0.01
			c0.06,0.02,0.12,0.05,0.18,0.08c0.87,0.05,1.45-0.65,1.38-0.84c-0.06-0.14-0.14-0.22-0.27-0.3c0.08-0.01,0.23,0.09,0.32,0.22
			c0.02,0,0.09,0,0.1,0l0,0c1.34,0,2.1,1.08,3.62,1.09c0.27,0,0.62-0.05,0.89-0.24C68.71,56.02,68.16,56.16,67.76,56.16z
			 M61.25,60.14c0,0,0.66,0.2,0.66,0.85c0,0.62-0.53,1.05-1.13,0.89c0.25,0.22,1.03,0.13,1.25-0.67c0,0,0.08,0.5-0.4,0.86
			c0,0,0.54-0.17,0.54-0.83C62.15,60.63,61.8,60.2,61.25,60.14z M59.25,61.16c0.31-0.3,0.63-0.37,0.78-0.28
			c-0.05-0.18-0.31-0.12-0.31-0.12c0.14-0.26,0.65-0.58,0.95-0.65C60.18,60.14,59.64,60.5,59.25,61.16z M56.79,61.83
			c-0.24,0.17-0.36,0.61-0.15,0.91c0.2,0.28,0.52,0.38,0.87,0.12c-0.25,0.1-0.64,0.05-0.8-0.31c0,0,0.18,0.12,0.36,0
			C56.76,62.56,56.59,62.16,56.79,61.83z M58.95,58.81c0.28-0.7-0.08-1.63-0.54-1.99c0.05,0.42-0.49,0.47-0.72,0.5
			c-0.44,0.05-0.89,0.47-0.77,0.93c0.11-0.37,0.15-0.56,0.56-0.73c0.48-0.19,0.86,0,1.12,0.32c0-0.09-0.04-0.25-0.14-0.5
			C59.07,57.66,58.95,58.81,58.95,58.81z M60.5,55.68c0.12-0.05,0.26-0.09,0.41-0.11c-0.01-0.14,0.02-0.29,0.11-0.42
			c0.03-0.05,0.08-0.08,0.13-0.11c-0.6-0.61-1.53-0.3-1.6-0.05C59.5,55.24,60.04,55.62,60.5,55.68z M61.41,56.23
			c-0.23-0.09-0.4-0.28-0.47-0.51h0c-0.71-0.08-1.23,0.96-0.93,1.31C60.27,57.31,61.59,56.94,61.41,56.23z M62.05,55.93
			c-0.48,0.1-1.01-0.28-0.89-0.65C60.81,55.79,61.66,56.36,62.05,55.93z M61.93,55.16c-0.35-0.24-0.66,0.11-0.58,0.34
			c0.1,0.33,0.62,0.27,0.55-0.08c0.19,0.06,0.34,0.25,0.21,0.44C62.37,55.79,62.34,55.45,61.93,55.16z M92.91,55.71
			c0.27,0.19,0.62,0.24,0.89,0.24c1.53,0,2.28-1.08,3.62-1.09l0,0c0.01,0,0.08,0,0.1,0c0.09-0.13,0.24-0.23,0.32-0.22
			c-0.13,0.08-0.22,0.16-0.27,0.3c-0.07,0.19,0.51,0.89,1.38,0.84c0.06-0.03,0.12-0.06,0.18-0.08c0,0,0.01,0,0.01,0.01
			c-0.01-0.2,0.1-0.4,0.31-0.57c-0.54-0.69-1.09-0.69-1.42-0.58c0.14-0.19,0.93-0.38,1.53,0.5l0,0c0.17-0.1,0.4-0.14,0.6-0.11
			c0.68-0.71,0.18-1.49-0.04-1.52c-0.2-0.03-0.82,0.54-0.68,1.25c-0.37-0.71,0.4-1.46,0.73-1.4c0.29,0.05,0.92,0.72,0.54,1.39
			c0.66-0.37,1.4,0.02,1.49,0.3c0.12,0.38-0.28,0.85-0.77,0.94c0.47,0.41,0.52,1.07,0.27,1.28c-0.28,0.24-0.77,0.28-1.18,0.13
			c0.48,0.78,1.03,1.54,1.95,1.97c-0.05-0.1-0.09-0.21-0.12-0.32c-0.25-0.87,0.16-2.43,1.21-2.66c-0.2,0.22-0.13,0.56,0.29,0.64
			c0.11,0.02,0.22,0.05,0.33,0.09c0.47,0.19,0.82,0.79,0.65,1.22c-0.09,0.22-0.25,0.39-0.45,0.39c0.17-0.21,0.11-0.62-0.28-0.81
			c-0.5-0.24-1.03,0.01-1.2,0.59c-0.18,0.58,0.02,1.04,0.69,1.44c0.46,0.26,0.97,0.55,1.53,0.71c-0.24-0.26-0.33-0.59-0.29-0.87
			c0.08-0.46,0.46-0.79,0.94-0.79c0.4,0,0.74,0.3,0.74,0.59c0,0.13-0.03,0.31-0.19,0.39c0.02-0.04,0.02-0.08,0.02-0.12
			c0-0.35-0.26-0.57-0.55-0.57c-0.32,0-0.59,0.23-0.59,0.68c0,0.39,0.36,0.84,1.08,0.82c0.65-0.07,1.01-0.33,1.16-0.47l0.33,0.35
			c-0.13,0.08-0.36,0.2-0.69,0.3l0,0c-1.28,0.5-1.02,1.57-1.02,1.57c-0.35-0.42-0.26-1.03,0.15-1.42c-0.08,0-0.15,0.01-0.24,0.01
			c-1.33,0-2.42-0.86-3.19-1.24c-0.73-0.36-1.41-0.7-2.51-0.7c-1.61,0-2.3,1.08-2.3,2.17c0,0.99,0.85,2.12,2.02,2.12
			c0.72,0,1.05-0.2,1.29-0.5c0.07,0.15-0.19,0.8-1.29,0.8c-1.4,0-2.33-1.22-2.33-2.45c0-0.2,0.04-0.4,0.09-0.6
			c-0.16,0.36-0.21,0.86-0.21,1.29c0,1.89,1.5,2.59,2.61,2.59c1.23,0,2.29-0.78,2.29-2.11c0-1.17-0.59-1.54-1.11-1.3
			c0.07-0.18-0.04-0.85-0.72-0.85c-0.46,0-0.72,0.38-0.72,0.74c0,0.37,0.32,0.72,0.71,0.72c0.36,0,0.45-0.14,0.45-0.14
			c0.03,0.28-0.17,0.75-0.75,0.75c-0.61,0-1.11-0.49-1.11-1.11c0-0.73,0.49-1.31,1.48-1.31c0.97,0,2.11,0.92,2.14,2.43
			c0.3-0.68,0.84-0.98,1.42-0.93c0.73,0.06,1.03,0.61,0.99,1.08c0.01,0.35,0.05,0.59,0.28,0.76c-0.27,0.06-0.43-0.12-0.5-0.25
			c-0.14,0.14-0.34,0.23-0.59,0.2c-0.32-0.03-0.66-0.26-0.59-0.66c0.07,0.14,0.41,0.25,0.55,0.13c0,0-0.32-0.19-0.19-0.42
			c0,0,0.04,0.08,0.17,0.09c0.28,0.02,0.39-0.37,0.13-0.57c-0.09-0.06-0.2-0.11-0.34-0.12c-0.75-0.07-1.2,0.7-1.45,1.51l0,0
			c-0.07,0.24-0.18,0.46-0.32,0.66c0.33-0.11,0.65-0.19,1.02-0.19c0.46,0,0.9,0.24,0.9,0.79c0,0.19-0.16,0.48-0.5,0.48
			c0.12-0.07,0.21-0.24,0.21-0.45c0-0.16-0.09-0.47-0.63-0.47c-0.69,0-1.11,0.31-2.08,0.7l0,0c-0.34,0.13-0.73,0.21-1.18,0.21h0h0
			c-0.84,0-2.92-0.48-2.92-3.03c0-1.06,0.48-1.94,1.03-2.37l0,0c0.1-0.1,0.22-0.2,0.34-0.28c-0.92-0.06-1.41-0.71-1.19-1.38
			c0.13,0.77,0.76,1.2,2.16,0.96c0.07-0.02,0.14-0.03,0.21-0.04l0.03,0c0.15-0.02,0.3-0.03,0.46-0.03c0.12,0,0.48,0,1.03,0.13
			c-0.53-0.5-0.89-1.09-1.23-1.66c-0.49,0.58-1.29,0.67-1.53,0.52c-0.33-0.2-0.37-0.89-0.14-1.01c-0.08,0.39,0.03,0.7,0.23,0.85
			c0.24,0.16,1.55-0.37,1.32-1.28c-0.1,0-0.2-0.01-0.31-0.05c-0.26-0.1-0.4-0.24-0.46-0.39l0,0c-0.2,0.07-0.5,0.25-0.7,0.68
			c-0.06-0.08-0.01-0.28,0.15-0.47c-0.74-0.08-1.1-0.56-1.15-0.89c-0.02,0-0.04,0-0.05,0c-0.41,0.03-0.63,0.23-0.63,0.52
			c0,0.2,0.09,0.44,0.33,0.54c-0.34,0.1-0.63-0.29-0.63-0.54c0-0.14,0.04-0.26,0.12-0.36c-0.82,0.29-1.48,0.84-2.79,0.84
			C93.4,56.16,92.85,56.02,92.91,55.71z M99.41,61.23c0,0.66,0.54,0.83,0.54,0.83c-0.48-0.36-0.4-0.86-0.4-0.86
			c0.22,0.8,1,0.89,1.25,0.67c-0.6,0.16-1.13-0.27-1.13-0.89c0-0.65,0.66-0.85,0.66-0.85C99.76,60.2,99.41,60.63,99.41,61.23z
			 M100.9,60.11c0.31,0.07,0.81,0.39,0.95,0.65c0,0-0.26-0.06-0.31,0.12c0.15-0.09,0.46-0.01,0.78,0.28
			C101.92,60.5,101.38,60.14,100.9,60.11z M104.48,62.54c0.18,0.12,0.36,0,0.36,0c-0.16,0.37-0.55,0.41-0.8,0.31
			c0.35,0.26,0.67,0.16,0.87-0.12c0.21-0.29,0.1-0.74-0.15-0.91C104.97,62.16,104.8,62.56,104.48,62.54z M103.09,57.34
			c-0.1,0.25-0.14,0.41-0.14,0.5c0.26-0.32,0.65-0.51,1.12-0.32c0.41,0.16,0.46,0.36,0.56,0.73c0.13-0.46-0.33-0.88-0.77-0.93
			c-0.23-0.03-0.77-0.08-0.72-0.5c-0.46,0.36-0.82,1.29-0.54,1.99C102.61,58.81,102.49,57.66,103.09,57.34z M102.01,54.99
			c-0.07-0.25-1.01-0.57-1.6,0.05c0.05,0.03,0.09,0.07,0.13,0.11c0.09,0.13,0.12,0.28,0.11,0.42c0.15,0.02,0.29,0.06,0.41,0.11
			C101.52,55.62,102.06,55.24,102.01,54.99z M101.54,57.02c0.31-0.35-0.22-1.38-0.93-1.31h0c-0.07,0.23-0.24,0.42-0.47,0.51
			C99.97,56.94,101.29,57.31,101.54,57.02z M100.39,55.28c0.12,0.37-0.4,0.75-0.89,0.65C99.9,56.36,100.75,55.79,100.39,55.28z
			 M99.45,55.87c-0.12-0.2,0.03-0.38,0.21-0.44c-0.07,0.35,0.45,0.41,0.55,0.08c0.07-0.23-0.23-0.59-0.58-0.34
			C99.22,55.45,99.19,55.79,99.45,55.87z M75.48,63.96h10.56v1.51H75.48V63.96z M84.43,65.12h0.16v-0.33l0.31,0.34h0.21l-0.43-0.46
			l0.41-0.41h-0.22l-0.29,0.29v-0.29h-0.16V65.12z M83.15,64.69c0,0.27,0.19,0.45,0.46,0.45c0.11,0,0.2-0.03,0.25-0.07v-0.18
			c-0.06,0.07-0.16,0.1-0.23,0.1c-0.15,0-0.3-0.08-0.3-0.3c0-0.19,0.13-0.3,0.3-0.3c0.07,0,0.17,0.03,0.23,0.1v-0.19
			c-0.05-0.04-0.14-0.06-0.24-0.06C83.35,64.23,83.15,64.43,83.15,64.69z M82.42,65.12h0.16v-0.87h-0.16V65.12z M80.7,64.23
			l0.39,0.95l0.24-0.58l0.24,0.58l0.4-0.95h-0.17l-0.22,0.54l-0.24-0.58l-0.24,0.58l-0.22-0.54H80.7z M80.12,64.87
			c0,0.05-0.02,0.09-0.06,0.11C80.04,64.99,80.02,65,79.99,65c-0.07,0-0.13-0.03-0.19-0.1L79.7,65c0.03,0.05,0.08,0.09,0.14,0.12
			c0.05,0.02,0.1,0.03,0.15,0.03c0.08,0,0.16-0.03,0.2-0.08c0.05-0.05,0.08-0.11,0.09-0.2c0-0.07-0.03-0.14-0.07-0.18
			c-0.04-0.04-0.1-0.06-0.15-0.08c-0.06-0.02-0.13-0.04-0.16-0.09c-0.01-0.01-0.02-0.05,0-0.08c0.01-0.03,0.03-0.05,0.06-0.05
			c0.06-0.02,0.13,0.01,0.2,0.08l0.09-0.12c-0.06-0.07-0.15-0.12-0.25-0.12c-0.04,0-0.08,0.01-0.11,0.02
			c-0.09,0.03-0.15,0.13-0.15,0.23c0,0.09,0.04,0.16,0.12,0.21c0.05,0.03,0.08,0.04,0.12,0.05C80.05,64.77,80.11,64.79,80.12,64.87z
			 M79,65.12h0.16v-0.87H79V65.12z M77.72,65.12h0.16v-0.39h0.34v0.39h0.16v-0.86h-0.16v0.32h-0.34v-0.32h-0.16V65.12z M76.5,64.69
			c0,0.27,0.19,0.45,0.46,0.45c0.11,0,0.2-0.03,0.25-0.07v-0.18c-0.06,0.07-0.16,0.1-0.23,0.1c-0.15,0-0.3-0.08-0.3-0.3
			c0-0.19,0.13-0.3,0.3-0.3c0.07,0,0.17,0.03,0.23,0.1v-0.19c-0.05-0.04-0.14-0.06-0.24-0.06C76.69,64.23,76.5,64.43,76.5,64.69z
			 M74.37,56.37c1.87-0.56,4.06-0.88,6.4-0.88c2.35,0,4.53,0.32,6.4,0.88L86.66,58c-1.65-0.53-3.68-0.84-5.89-0.84
			c-2.21,0-4.24,0.31-5.89,0.84L74.37,56.37z M86.03,56.98l-0.08,0.32l0.12,0.03l0.08-0.32l0.27-0.41l-0.13-0.03l-0.16,0.25
			l-0.01-0.3l-0.13-0.03L86.03,56.98z M85.06,57.11l0.13,0.03l0.07-0.32l0.02,0l0.06,0.35l0.14,0.03l-0.08-0.38
			c0.03-0.01,0.06-0.02,0.09-0.06c0.05-0.06,0.07-0.17,0.06-0.25c-0.01-0.06-0.06-0.11-0.12-0.13c-0.05-0.02-0.14-0.04-0.2-0.04
			l-0.01,0L85.06,57.11z M84.29,56.97l0.33,0.06l0.02-0.12l-0.2-0.04l0.04-0.23l0.18,0.03l0.02-0.12l-0.18-0.03l0.03-0.19l0.2,0.03
			l0.02-0.12l-0.33-0.05L84.29,56.97z M83.32,56.04l0.09,0.8l0.04,0l0.17-0.4l0.06,0.42l0,0.01l0.04,0l0.29-0.75l-0.13-0.02
			l-0.13,0.37l-0.06-0.4l-0.04,0l-0.16,0.37l-0.04-0.4L83.32,56.04z M82.53,56.76l0.33,0.03l0.01-0.12l-0.2-0.02l0.02-0.23
			l0.18,0.02l0.01-0.12L82.7,56.3l0.02-0.2l0.2,0.01L82.92,56l-0.33-0.03L82.53,56.76z M81.71,56.72l0.13,0.01l0.02-0.33l0.02,0
			l0.12,0.33l0.15,0.01L82,56.38c0.03-0.01,0.06-0.03,0.08-0.07c0.04-0.06,0.04-0.18,0.02-0.26c-0.02-0.06-0.07-0.09-0.14-0.11
			c-0.06-0.01-0.15-0.02-0.21-0.01l-0.01,0L81.71,56.72z M80.89,56.7l0.01,0c0.05,0,0.06,0,0.11,0l0.02,0c0.05,0,0.1,0,0.16-0.03
			c0.09-0.05,0.11-0.16,0.1-0.24c-0.01-0.05-0.04-0.11-0.08-0.14c0.02-0.01,0.03-0.02,0.04-0.04c0.05-0.07,0.05-0.17,0.02-0.24
			c-0.02-0.04-0.05-0.06-0.08-0.08c-0.05-0.02-0.1-0.02-0.17-0.02c-0.03,0-0.06,0-0.1,0l-0.01,0L80.89,56.7z M79.54,55.94l0.04,0.79
			l0.12-0.01l-0.01-0.41l0.27,0.4l0.05,0l-0.02-0.79l-0.12,0l0.01,0.43l-0.28-0.41L79.54,55.94z M78.94,55.97L79,56.76l0.14-0.01
			l-0.06-0.79L78.94,55.97z M78.15,56.05l0.09,0.79l0.13-0.02l-0.04-0.35l0.18-0.02l-0.01-0.12l-0.18,0.02l-0.02-0.19l0.2-0.02
			l-0.01-0.12l-0.22,0.02L78.15,56.05z M77.35,56.15l0.11,0.78l0.13-0.02l-0.05-0.34l0.18-0.03l-0.02-0.12l-0.18,0.02l-0.03-0.19
			l0.2-0.03l-0.02-0.12l-0.22,0.03L77.35,56.15z M76.76,56.25l0.13,0.78l0.13-0.03l-0.13-0.78L76.76,56.25z M75.99,56.4l0.17,0.77
			l0.13-0.03l-0.07-0.31l0.01,0c0.06,0.08,0.2,0.28,0.2,0.28l0.15-0.03l-0.23-0.31c0.03-0.02,0.05-0.05,0.06-0.09
			c0.02-0.08,0-0.19-0.04-0.25c-0.04-0.05-0.09-0.07-0.16-0.07C76.13,56.36,76.04,56.38,75.99,56.4z M75.18,57
			c0.03,0.11,0.09,0.27,0.21,0.32c0.03,0.01,0.05,0.02,0.08,0.02c0.06,0,0.12-0.02,0.16-0.06c0.08-0.09,0.09-0.23,0.03-0.43l0-0.01
			l-0.06,0.02c-0.05,0.01-0.11,0.03-0.16,0.04l-0.01,0l0.03,0.11l0.01,0c0.02,0,0.04-0.01,0.06-0.02l0.03-0.01
			c0.02,0.09,0.03,0.17-0.02,0.22c-0.02,0.02-0.04,0.02-0.06,0.02l-0.01,0c-0.08-0.02-0.11-0.09-0.15-0.22
			c-0.04-0.16-0.04-0.29,0-0.33c0.01-0.01,0.02-0.02,0.05-0.02c0.04-0.01,0.08,0.04,0.1,0.08l0.01,0.02l0.1-0.09l-0.01-0.01
			c-0.02-0.03-0.05-0.07-0.09-0.09c-0.03-0.02-0.07-0.03-0.11-0.04c-0.01,0-0.01,0-0.02,0c-0.03,0-0.06,0.01-0.08,0.03
			C75.16,56.61,75.12,56.79,75.18,57z M97.83,64.9H86.29v-0.42h11L97.83,64.9z M81.94,56.27c-0.02,0.01-0.04,0.02-0.08,0.02
			l0.01-0.23c0.02,0,0.05,0,0.07,0.01c0.02,0.01,0.03,0.03,0.04,0.07C81.98,56.19,81.97,56.24,81.94,56.27z M87.43,56.22l-0.98-0.87
			c0.64,0.15,1.24,0.33,1.82,0.53l-0.35,0.97h9.82l-0.2,0.42h-9.77l-0.08,0.22c-0.19-0.07-0.39-0.13-0.6-0.19L87.43,56.22z
			 M85.29,56.7l0.05-0.22c0.02,0,0.05,0.01,0.07,0.03c0.02,0.02,0.02,0.03,0.02,0.06c0,0.06-0.02,0.11-0.06,0.13
			C85.34,56.71,85.31,56.71,85.29,56.7z M81.05,56.58c-0.01,0-0.02,0-0.02,0l0-0.24c0.04,0,0.07,0.01,0.09,0.02
			c0.05,0.04,0.04,0.12,0.03,0.15c-0.01,0.03-0.02,0.05-0.05,0.06C81.08,56.58,81.07,56.58,81.05,56.58z M85.57,55.74l-0.12-0.03
			c0.06-0.1,0.11-0.19,0.19-0.28c0.08-0.09,0.16-0.18,0.24-0.27L87,56.09C86.54,55.96,86.07,55.84,85.57,55.74z M81.06,56.24
			c-0.01,0-0.02,0-0.03,0l0-0.21c0,0,0.01,0,0.02,0c0.02,0,0.03,0,0.04,0c0.04,0,0.06,0.04,0.06,0.09c0,0.07-0.02,0.11-0.08,0.12
			L81.06,56.24z M63.92,56.85h9.68l-0.35-0.97c0.58-0.2,1.19-0.38,1.82-0.53l-0.98,0.87l0.34,1.07c-0.2,0.06-0.4,0.12-0.6,0.19
			l-0.08-0.22h-9.63L63.92,56.85z M76.19,56.71l-0.05-0.22c0.02-0.01,0.05-0.01,0.07-0.01c0.02,0.01,0.04,0.03,0.05,0.06
			c0.01,0.03,0.03,0.1,0,0.14C76.24,56.7,76.22,56.71,76.19,56.71z M64.19,64.48h11.04v0.42H63.76L64.19,64.48z M74.51,56.09
			l0.84-0.69c0.1,0.13,0.16,0.3,0.28,0.42C75.25,55.9,74.87,55.99,74.51,56.09z M95.55,59.78v-0.87c-0.15,0.06-0.28,0.09-0.53,0.02
			c-0.28-0.08-0.44-0.11-0.66-0.11c-0.63,0-1.09,0.44-1.08,1.08c0,0.33,0.11,0.53,0.31,0.72c0.33,0.32,0.99,0.51,1.29,0.79
			c0.2,0.18,0.26,0.44,0.17,0.68c-0.09,0.23-0.3,0.35-0.61,0.35c-0.4,0-0.83-0.19-1.17-0.47v0.93c0.15-0.11,0.3-0.12,0.52-0.04
			c0.27,0.09,0.44,0.14,0.77,0.14c0.66,0,1.19-0.48,1.19-1.16c0-0.36-0.08-0.6-0.33-0.87c-0.37-0.4-1.08-0.58-1.34-0.84
			c-0.15-0.15-0.18-0.35-0.1-0.51c0.08-0.16,0.23-0.26,0.5-0.25C94.81,59.37,95.21,59.54,95.55,59.78z M76.08,62.33V59.3
			c0-0.15,0.03-0.26,0.08-0.36h-0.84c0.04,0.09,0.09,0.22,0.09,0.34v3.09c0,0.11-0.01,0.3-0.1,0.51h2.16
			c0.07-0.18,0.18-0.48,0.25-0.63c-0.17,0.07-0.31,0.09-0.48,0.09H76.08z M80.2,62.33V59.3c0-0.15,0.03-0.26,0.08-0.36h-0.84
			c0.04,0.09,0.09,0.22,0.09,0.34v3.09c0,0.11-0.01,0.3-0.1,0.51h2.16c0.07-0.18,0.18-0.48,0.25-0.63
			c-0.17,0.07-0.31,0.09-0.48,0.09H80.2z M71.68,62.43c-0.42,0-0.71-0.16-0.71-0.57l0-2.55c0-0.16,0.02-0.27,0.08-0.37h-0.81
			c0.04,0.08,0.08,0.2,0.08,0.36v2.61c0,0.65,0.47,1.1,1.35,1.1c0.94,0,1.38-0.45,1.38-1.11v-2.6c0-0.13,0.02-0.25,0.08-0.36H72.3
			c0.06,0.13,0.09,0.25,0.09,0.36v2.56C72.39,62.26,72.11,62.43,71.68,62.43z M65.86,58.41l0,4.1c0,0.14-0.06,0.27-0.13,0.36h0.99
			c-0.1-0.12-0.17-0.32-0.17-0.45v-1.99h1.19c0.19,0,0.24,0.02,0.36,0.11c0,0,0,0,0.01,0l0.26-0.7h-1.82v-1.27h1.41
			c0.14,0,0.26,0.01,0.38,0.13c0.01,0.01,0.02,0.02,0.03,0.03l0.27-0.75l-2.93,0C65.79,58.08,65.86,58.19,65.86,58.41z M91.69,63.37
			c-0.05,0.06-0.23,0.09-0.4,0.06c-0.46-0.08-0.96-0.42-1.33-0.97c-0.26-0.37-0.48-0.9-0.63-1.44h-0.42v0.07c0,0,0,1.11,0,1.43
			c0,0.21,0.04,0.28,0.09,0.35h-0.86c0.09-0.21,0.1-0.4,0.1-0.51v-3.09c0-0.12-0.05-0.25-0.09-0.34h1.66c0.54,0,0.94,0.31,0.94,0.97
			c0,0.51-0.23,0.89-0.73,1.03C90.31,62.06,90.92,62.96,91.69,63.37z M90.04,59.94c0-0.16-0.06-0.29-0.15-0.36
			c-0.09-0.07-0.22-0.1-0.42-0.1c-0.23,0-0.55,0-0.55,0v0.98h0.52c0.22,0,0.35-0.03,0.48-0.13C89.98,60.27,90.04,60.11,90.04,59.94z
			 M85.52,59.48c0.13,0,0.24,0.03,0.34,0.1l0.24-0.63h-2.56c0.04,0.09,0.09,0.22,0.09,0.34v3.09c0,0.11-0.01,0.3-0.1,0.51h2.31
			c0,0,0.17-0.43,0.25-0.63c-0.17,0.07-0.31,0.09-0.48,0.09H84.3v-1.31l0.68,0c0.12,0,0.22,0.03,0.3,0.1l0.25-0.64H84.3v-1.01
			L85.52,59.48z M92.32,58.15c-0.01-0.2-0.15-0.36-0.37-0.36c-0.21,0-0.36,0.15-0.36,0.34c0,0.15,0.1,0.28,0.24,0.33
			c0.03,0.12-0.03,0.25-0.1,0.34C92,58.78,92.33,58.52,92.32,58.15z M78.96,46.15c0.06,0,0.12,0,0.18,0c0.13,0,0.19,0.01,0.19,0.03
			c0,0.03-0.08,0.05-0.17,0.06c-0.18,0.01-0.23,0.03-0.23,0.03h0c0,0,0.14,0.13,0.3,0.13c0.09,0,0.14-0.04,0.15-0.08
			c0.01-0.03,0.02-0.04,0.03-0.04c0.01,0,0.02,0.03,0.03,0.06c0.01,0.03,0.02,0.07,0.04,0.09c0-0.02,0.04-0.16,0.02-0.27
			c-0.02-0.13,0.06-0.31,0.31-0.4c0.04-0.02,0.31-0.01,0.37-0.18c0,0-0.12,0.04-0.27,0.07c-0.04,0.01-0.09,0.01-0.12,0.02
			c-0.01,0,0-0.06-0.02-0.14c-0.04-0.19-0.11-0.48-0.21-0.49c-0.01,0-0.08,0.25-0.14,0.32c0,0,0.09-0.07,0.12-0.15
			c0.03-0.08,0.03-0.09,0.04-0.05c0.02,0.14,0.03,0.41-0.12,0.63c-0.09,0.14-0.19,0.22-0.26,0.22c-0.03,0-0.06-0.02-0.08-0.05
			c-0.05-0.08,0.01-0.17,0.08-0.27c0.04-0.06,0.13-0.16,0.12-0.21c0,0-0.08,0.11-0.18,0.2c-0.16,0.16-0.18,0.34-0.15,0.39
			c0,0-0.28,0.02-0.42,0.08C78.58,46.15,78.75,46.15,78.96,46.15z M87.08,47.65c0.32-0.16,0.3-0.46,0.29-0.56c0-0.02,0-0.01,0,0
			c-0.02,0.48-0.77,0.63-0.76,0.63l0,0C86.69,47.78,86.97,47.71,87.08,47.65z M79.28,51.08c-0.01,0.01-0.02,0.02-0.04,0.02
			c0,0-0.01,0-0.02,0l-0.07-0.03c0.02,0.07,0.05,0.2,0.08,0.2l0,0c0.08-0.02,0.21-0.22,0.26-0.48
			C79.5,50.78,79.38,50.98,79.28,51.08L79.28,51.08z M85.33,47.74c0.13-0.08,0.42-0.08,0.42-0.08c0.1,0,0.22,0.01,0.32,0.01
			c0,0-0.17-0.08-0.41-0.08c-0.21,0-0.36,0.04-0.54,0.14c-0.22,0.13-0.4,0.38-0.4,0.63c0,0.25,0.23,0.55,0.48,0.72
			c0.52,0.37,1.01,0.63,1.05,1.05c0.02,0.2-0.08,0.39-0.29,0.58c0.02-0.01,0.14-0.04,0.22-0.14c0.09-0.11,0.23-0.34,0.13-0.68
			c0,0,0.09,0.1,0.1,0.33c0,0.02,0.01,0.03,0.02,0c0.04-0.11,0.06-0.4-0.38-0.83c-0.36-0.34-0.53-0.47-0.66-0.57
			c-0.08-0.06-0.15-0.11-0.24-0.2c-0.05-0.05-0.07-0.06-0.08-0.06h0c-0.06,0.03,0.21,0.31,0.34,0.41c0,0-0.4-0.11-0.54-0.48
			c-0.02-0.04-0.04-0.11-0.03-0.17c0-0.03,0.02-0.07,0.05-0.07c0.01,0,0.02,0.01,0.03,0.02c0.06,0.06,0.08,0.1,0.09,0.11
			C85,48.32,84.92,47.93,85.33,47.74z M77.32,47.13c0.01-0.37,0.12-0.55,0.39-0.69c0,0,0-0.01,0-0.03c0.01-0.02,0.19-0.09,0.37-0.1
			c-0.1,0.11-0.3,0.08-0.32,0.15c0,0.02-0.01,0.03,0.02,0.05h0c-0.01,0-0.27,0.04-0.29,0.33c0,0,0,0.01,0,0.01c0,0.02,0,0.04,0,0.05
			c0,0,0.01,0.01,0.01,0.01c0.03,0,0.06-0.01,0.11-0.04c0.02-0.01,0.06-0.02,0.08-0.03c0.09-0.03,0.17-0.05,0.14-0.21
			c0,0,0.1,0.03,0.07,0.22c-0.01,0.05,0.01,0.07,0.05,0.12c0.06,0.06,0.14,0.1,0.21,0.1c0.01,0,0.02,0,0.03,0
			c0.05-0.01,0.08-0.02,0.12-0.03c0.04-0.01,0.08-0.02,0.13-0.02c0.05,0,0.1,0.01,0.16,0.04c0.1,0.04,0.2,0.12,0.34,0.12
			c0.16,0,0.25,0,0.4-0.19c0.01-0.01,0,0.09-0.05,0.15c-0.05,0.06-0.2,0.24-0.56,0.28c-0.13,0.01-0.26,0.04-0.39,0.04
			c-0.24,0-0.33-0.01-0.33-0.01s0.11-0.02,0.13-0.03c0.02-0.01,0.1-0.06-0.17-0.13c-0.04-0.01-0.08-0.06-0.1-0.08
			c-0.04-0.04-0.04-0.1-0.12-0.1c-0.02,0-0.13,0.01-0.16,0.01c-0.1,0.02-0.11,0.03-0.18,0.06C77.42,47.18,77.32,47.24,77.32,47.13z
			 M78.3,46.3c-0.07,0-0.14,0-0.14,0l0.16-0.03c0.01-0.04,0.08-0.08,0.08-0.08c0.17,0,0.39,0.27,0.39,0.28
			c0.06-0.02,0.12-0.04,0.19-0.04c0.09,0,0.18,0.04,0.27,0.12c0.1,0.08,0.21,0.1,0.28,0.1c0.07,0,0.12-0.02,0.12-0.02
			c-0.08-0.59,0.55-0.92,0.59-0.95c0.11-0.1,0.21-0.22,0.22-0.31c0-0.03,0.01-0.09,0.01-0.07c-0.03,0.07-0.13,0.17-0.13,0.17
			c0.05-0.08,0.11-0.25,0.11-0.24c0.1-0.04,0.12,0.31,0.12,0.31c0.13,0.85-0.37,1.26-0.37,1.26c0.15,0.15,0.22,0.3,0.24,0.49
			c0.02,0.28,0.09,0.35,0.09,0.35c-0.02,0.01-0.04,0.01-0.06,0.01c-0.05,0-0.1-0.03-0.1-0.03c0,0.01,0.17,0.25,0.14,0.62
			c-0.01,0.19,0.02,0.36,0.02,0.36c-0.01,0.01-0.05,0.01-0.06,0.01c-0.06,0-0.09-0.07-0.09-0.07c-0.05,0.41,0.07,0.51,0.07,0.51
			c-0.01,0.03-0.03,0.05-0.06,0.05c-0.05,0-0.08-0.03-0.08-0.03c0,0.13,0.01,0.2,0.04,0.25c0.03,0.05,0.04,0.06,0.06,0.06
			c0.01,0,0.02,0,0.02,0c0.09-0.01,0.15-0.44,0.2-0.9c0.03-0.21,0.05-0.43,0.09-0.61c0.08-0.48,0.38-0.96,0.87-1.43
			c0.39-0.37,0.87-1.12,0.87-1.13c-0.03,0.3-0.55,1.02-0.97,1.43c-0.39,0.38-0.51,0.71-0.54,0.92c-0.01,0.04,0,0.06,0,0.07
			c0,0,0,0,0,0c0.02,0,0.03-0.03,0.04-0.05c0.1-0.28,0.21-0.48,0.51-0.74c0.52-0.45,0.8-0.85,1.17-1.41
			c0.27-0.41,0.43-1.13,0.45-1.5c0.01-0.14-0.01-0.21-0.03-0.23c-0.01-0.01-0.01-0.01-0.01-0.01l-0.01,0
			C82.85,44.79,82.61,45,82.61,45c0.13-0.32,0.36-1.19,0.39-1.32c0.03-0.12,0.05-0.18,0.07-0.18l0.01,0
			c0.24,0.17,0.16,1.03,0.16,1.03c0.15-0.16,0.28-0.36,0.29-0.37c0.03,0.01,0.03,0.02,0.04,0.05c0.07,0.26-0.12,0.92-0.13,0.92
			c0.17-0.1,0.17-0.18,0.17-0.18c0.01,0,0.03,0.01,0.04,0.03c0.1,0.15-0.11,0.89-0.11,0.9c0.5-0.16,1.08-0.64,1.09-0.65
			c-0.21,0.44-1.13,0.85-1.72,1.13c-0.42,0.2-0.86,0.38-1.12,0.61c-0.22,0.19-0.4,0.49-0.57,0.92c-0.15,0.72-0.17,1.17-0.22,1.2
			c-0.05,0.03-0.08-0.26-0.08-0.23c-0.07,0.23-0.14,0.39-0.21,0.51c-0.09,0.17-0.2,0.26-0.32,0.26c-0.23,0-0.43-0.32-0.43-0.33
			c0.01,0.47,0.3,0.68,0.39,0.74c0.01,0.01,0.01,0.01,0.01,0.01c0,0.01-0.01,0.01-0.04,0.02c-0.02,0-0.03,0-0.05,0
			c-0.07,0-0.19-0.02-0.3-0.1c-0.36-0.27-0.47-1.01-0.47-1.01c0,0-0.13,0.07-0.2,0.22c0,0,0,0.01,0,0.01
			c-0.01,0.02-0.01,0.04-0.03,0.04c-0.01,0-0.02,0-0.04-0.01c-0.18-0.11-0.22-0.4-0.22-0.41c0,0-0.27,0.29-0.39,0.29
			c0,0-0.01,0-0.01,0c-0.02,0-0.02-0.01-0.02-0.03c0-0.01,0-0.01,0-0.02c0-0.09-0.01-0.21-0.01-0.21c-0.15,0.2-0.36,0.37-0.41,0.37
			c0,0-0.01,0-0.01,0c-0.03-0.02-0.08-0.13-0.08-0.13c0,0-0.17,0.42-0.24,0.44c-0.01,0-0.01,0-0.01,0c-0.03,0-0.05-0.02-0.06-0.05
			l0-0.01c0-0.01,0-0.01,0-0.01c0,0,0.01-0.01,0.01-0.01c0.02-0.01,0.05-0.05,0.06-0.07l0,0c0.01-0.02,0.19-0.41,0.24-0.53
			c0-0.01,0.01-0.01,0.01-0.01s0.01,0,0.01,0.01c0.06,0.23,0.11,0.24,0.11,0.24c0.11-0.06,0.35-0.35,0.42-0.44c0,0,0,0,0,0
			s0.01,0.01,0.01,0.01c0.03,0.13,0.03,0.31,0.03,0.31c0,0.01,0,0.02,0.01,0.02c0.01,0,0.02-0.01,0.03-0.01
			c0.18-0.11,0.31-0.31,0.38-0.45c0.02-0.03,0.02-0.04,0.02-0.04c0.01,0,0,0.03-0.01,0.05l0,0c-0.05,0.24,0.02,0.36,0.06,0.4
			c0.02,0.03,0.05,0.04,0.06,0.04c0,0,0.01,0,0.01,0c0.01-0.03,0.1-0.12,0.29-0.31c0.22-0.22,0.26-0.74,0.18-1.11
			c-0.05-0.23-0.05-0.34-0.04-0.35c-0.01,0-0.02-0.01-0.02-0.01c-0.01-0.01,0.01-0.04,0.04-0.07c0.03-0.05,0.08-0.11,0.09-0.19
			c0.01-0.07-0.04-0.13-0.08-0.18c-0.02-0.03-0.05-0.04-0.08-0.04c-0.01,0-0.03,0-0.04,0.01c-0.01,0.01-0.04,0.02-0.07,0.02
			c-0.1,0-0.23-0.07-0.23-0.07c-0.01,0.08-0.09,0.14-0.2,0.14c-0.06,0-0.11-0.04-0.14-0.08c-0.01,0-0.02-0.01-0.03,0
			c-0.02,0.01-0.03,0.03-0.03,0.03c-0.03-0.1,0.03-0.13,0.03-0.13c-0.01,0.06,0.06,0.1,0.09,0.09c0.02,0,0.05,0,0.07-0.01
			c0.04-0.01,0.06-0.05,0.06-0.08c-0.01-0.03-0.03-0.07-0.1-0.07c-0.01,0-0.01,0-0.02,0c-0.13,0.01-0.17,0.06-0.21,0.1
			c0,0.01-0.01,0.01-0.01,0.02c0,0-0.01,0-0.01,0c-0.04,0-0.12-0.23-0.12-0.23C78.56,46.32,78.42,46.3,78.3,46.3z M83.3,45.4
			c-0.04,0.3-0.18,0.53-0.18,0.54c0.32-0.24,0.39-0.63,0.37-0.7c0-0.01,0-0.01,0-0.01s-0.01,0-0.01,0
			C83.44,45.28,83.3,45.4,83.3,45.4z M82.62,46.12C82.62,46.12,82.62,46.12,82.62,46.12c0.01,0,0.01,0,0.02,0
			c0.09-0.03,0.24-0.24,0.25-0.25c0.32-0.47,0.56-1.31,0.54-1.36c0,0-0.01-0.01-0.01-0.01c-0.05,0-0.22,0.25-0.23,0.26
			c-0.22,0.77-0.44,1.14-0.53,1.28C82.63,46.09,82.61,46.11,82.62,46.12z M80.22,48.87c-0.04-0.12-0.07-0.21-0.04-0.44
			c0,0-0.14-0.13-0.19-0.3c0-0.01-0.01-0.03-0.02-0.03c0,0-0.01,0.01-0.01,0.02c-0.02,0.19-0.01,0.44,0.22,0.74
			c0.01,0.01,0.02,0.03,0.02,0.03c0.01,0,0.01,0,0.01,0C80.22,48.89,80.22,48.88,80.22,48.87z M80.29,46.2c0,0-0.06,0.08-0.06,0.16
			c-0.03,0.07,0.01,0.1-0.03,0.23c-0.02,0.05,0.14-0.14,0.16-0.17c0.08-0.09,0.2-0.34,0.16-0.66c0-0.04-0.01-0.05-0.02-0.05
			c-0.01,0-0.02,0.02-0.03,0.06C80.43,45.83,80.44,45.99,80.29,46.2z M80.04,46.21c0.05-0.1,0.12-0.04,0.26-0.22
			c0.14-0.19,0.12-0.42,0.09-0.37c-0.03,0.05,0.03,0.07-0.25,0.27C79.87,46.1,80.04,46.21,80.04,46.21z M79.87,47.04
			c0.03,0.08,0.11,0.25,0.11,0.57c0,0.28,0.23,0.55,0.33,0.65c0.01,0.01,0.01,0.02,0.02,0.02c0.01,0,0.02-0.02,0.02-0.05
			c0.01-0.1-0.03-0.27-0.08-0.48c-0.08-0.34-0.31-0.64-0.39-0.75c0,0-0.01-0.01-0.01-0.01l0,0C79.86,47.01,79.86,47.02,79.87,47.04z
			 M87.82,48.3c-0.25,0.36-0.61,0.31-0.64,0.31c-0.54-0.01-0.73-0.38-0.83-0.41c-0.13-0.05-0.82-0.18-0.89,0.15
			c-0.06,0.27,0.46,0.59,0.88,0.9c0.68,0.5,0.83,0.97,0.59,1.61c-0.23,0.6-0.9,0.82-1.68,0.7c0,0,0.01,0.37-0.04,0.69
			c-0.02,0.14,0.01,0.27,0.09,0.38c0.11,0.15,0.32,0.24,0.59,0.28c0.15,0.02,0.2,0.03,0.22,0.06c0.01,0.02,0,0.04-0.01,0.07l0,0.01
			c-0.03,0.08,0,0.21,0,0.22c0,0,0.34,0.26,0.42,0.58c0.05,0.21,0.06,0.46,0.01,0.49c0,0-0.01,0-0.01,0c-0.02,0-0.04-0.03-0.07-0.06
			c-0.02-0.03-0.02,0.01-0.02,0.02c0,0.03,0,0.04,0,0.1c0,0.13,0.04,0.3-0.02,0.42c-0.01,0-0.04-0.03-0.12-0.13
			c-0.01-0.02-0.04-0.06-0.06-0.06c0,0-0.01,0-0.02,0.01c-0.02,0.02-0.01,0.04,0,0.08c0,0.02,0.01,0.1,0.01,0.13
			c0.02,0.13,0.04,0.31-0.01,0.35c0,0-0.13-0.26-0.19-0.24c0,0,0.01,0.01,0.02,0.15c0,0.04-0.02,0.12-0.01,0.14
			c0.01,0.05,0,0.13-0.02,0.08c0,0-0.01-0.01-0.03-0.02l0.19,0.6c-0.38-0.09-1.34-0.29-1.37-0.3c-0.19-0.03-0.41-0.06-0.64-0.09
			c-0.02,0-0.02-0.05-0.04-0.04c-0.09,0.06-0.47,0.02-0.49-0.02c-0.02-0.03-0.07-0.15-0.02-0.25c0.1-0.25,0.16-0.36,0.35-0.38
			c0.06-0.01,0.19-0.05,0.31-0.05c0.1,0,0.48,0.05,0.54,0.05c0.04,0,0.07,0,0.09,0c0.01,0,0.03,0,0.04,0
			c0.12-0.01,0.21-0.04,0.32-0.22c0.11-0.18,0.23-0.43,0.19-0.59c-0.01-0.05-0.04-0.08-0.08-0.11c-0.16-0.09-0.3-0.07-0.48-0.09
			c-0.14-0.01-0.48-0.02-0.68-0.08c-0.18-0.06-0.22-0.11-0.3-0.35c0,0-0.1,0.12-0.22,0.15c-0.01,0.02,0,0.05,0,0.09
			c0.01,0.1,0.04,0.27-0.05,0.45c0,0-0.02,0.05-0.04,0.05c-0.01,0-0.02-0.01-0.03-0.04c-0.02-0.07-0.04-0.12-0.06-0.12
			c-0.01,0-0.01,0.01-0.02,0.02c-0.01,0.02-0.01,0.07-0.02,0.15c-0.02,0.14-0.04,0.36-0.1,0.43c0,0-0.11-0.12-0.17-0.12
			c-0.01,0-0.02,0-0.03,0.01c-0.03,0.03-0.01,0.09-0.02,0.2c-0.01,0.1-0.05,0.24-0.08,0.28c-0.01,0.01-0.01,0.01-0.02,0.01
			c-0.03,0-0.06-0.04-0.1-0.08c-0.04-0.05-0.08-0.1-0.12-0.1c-0.01,0-0.02,0.01-0.03,0.01c-0.02,0.03-0.05,0.06-0.08,0.1
			c-0.07,0.09-0.14,0.19-0.19,0.19c-0.03,0-0.09-0.11-0.15-0.11c0,0-0.02,0-0.02,0.01c-0.01,0.02-0.01,0.05-0.01,0.09
			c-0.01,0.1-0.09,0.23-0.15,0.25c-0.13,0.04-0.47-0.05-0.83-0.03c-0.1,0.01-0.3,0.02-0.39,0.01c-0.07-0.01-0.09-0.06-0.1-0.05
			c-0.07,0.07-0.27,0.05-0.3,0.04c0,0-0.06-0.01-0.08-0.07c-0.01-0.04-0.01-0.14,0.08-0.31c0.2-0.35,0.53-0.39,0.62-0.4
			c0.22-0.01,0.63,0.1,0.94-0.12c0.12-0.08,0.58-0.72,0.44-1.07c-0.01,0-0.78-0.31-0.84-0.67c0,0-0.02-0.01-0.06-0.01
			c-0.05,0-0.12,0.01-0.2,0.05c-0.2,0.1-0.63,0.1-0.71,0.1l-0.02,0c0,0-0.07,0.23-0.14,0.36c-0.13,0.23-0.12,0.49-0.13,0.6
			c0,0.02-0.01,0.06-0.03,0.05c0,0-0.11-0.04-0.22-0.35h0c0,0-0.06,0.01-0.14,0.11c-0.08,0.1-0.1,0.13-0.16,0.23h0c0,0,0,0-0.01,0
			c-0.02,0-0.07-0.01-0.09-0.08c0-0.01-0.01-0.02-0.01-0.02c-0.06,0-0.19,0.52-0.24,0.69l-0.01,0.03c-0.02,0.06-0.01,0.14,0.02,0.18
			c0.03,0.04,0.1,0.03,0.15,0.03c0.01,0,0.03,0,0.05,0c0.03-0.01,0.06-0.01,0.09-0.02c0.06-0.02,0.13-0.04,0.19-0.04
			c0.1,0,0.13,0.04,0.16,0.14c0,0,0.32,0.21,0.19,0.57h0c-0.06,0-1.68,0.06-2.07,0.11c0,0-0.03-0.06,0.01-0.13
			c0.03-0.04,0.07-0.09,0.15-0.12c0,0,0.02-0.04,0-0.07C78.5,55.01,78.47,55,78.43,55c0,0-0.02,0-0.03,0
			c-0.1,0.01-0.17,0.09-0.18,0.16c-0.01,0.06,0.03,0.17,0.03,0.17s-0.12,0.05-0.15,0.03c-0.02-0.06-0.23-0.01-0.3,0.01
			c-0.01,0-0.02,0.01-0.02,0.01c-0.03,0.01-0.07,0.03-0.1,0.03c-0.03,0-0.06-0.02-0.07-0.05c-0.03-0.09-0.09-0.25,0.13-0.44
			c0,0-0.01-0.14,0.18-0.16c0.01,0,0.03,0,0.05,0c0.07,0,0.16,0.01,0.25,0.02c0.11,0.01,0.22,0.02,0.32,0.02
			c0.07,0,0.16,0,0.21-0.01c0.01,0,0.02,0,0,0.01c-0.05,0.02-0.17,0.06-0.4,0.06c-0.02,0-0.04,0-0.07,0c-0.05,0-0.13-0.01-0.17-0.01
			c-0.13,0-0.17-0.01-0.19,0.02c-0.01,0.01-0.01,0.02,0,0.03c0.01,0.03,0.06,0.05,0.11,0.07c0.05,0.02,0.11,0.05,0.09,0.08
			c0,0,0.09-0.13,0.26-0.13c0.03,0,0.06,0,0.1,0.01c0.08,0.02,0.16,0.04,0.18,0.08c0,0.01,0,0.02,0,0.03c0,0,0.02,0,0.05,0
			c0.09,0,0.3-0.02,0.38-0.23c0.08-0.21,0.17-0.19,0.2-0.19c0.01,0,0.01,0,0.01,0l0.29-1.07c0,0-0.02-0.09-0.09-0.09
			c-0.03,0-0.07,0.01-0.11,0.04c-0.09,0.07-0.1,0.15-0.17,0.4c-0.02,0.05-0.03,0.12-0.05,0.19c-0.06,0.22-0.21,0.56-0.33,0.64
			c0,0,0.04-0.16,0.11-0.4c0.07-0.24,0.25-0.85,0.25-0.86c0,0-0.18,0.13-0.25,0.13c0,0-0.01,0-0.01,0c-0.01-0.01-0.01-0.03,0-0.07
			c0.02-0.08,0.05-0.24,0-0.49c-0.07-0.32-0.21-0.43-0.36-0.53c-0.09-0.06-0.18-0.12-0.25-0.23c-0.24,0.04-0.33,0.13-0.33,0.13
			s-0.02,0.01-0.04,0.01c-0.01,0-0.02,0-0.03-0.01c-0.01-0.01-0.02-0.04-0.02-0.08c0.01-0.13-0.01-0.22-0.01-0.22c0,0,0,0-0.01,0
			c-0.02,0-0.11,0.02-0.16,0.06c-0.01,0.01-0.02,0.01-0.02,0.01c0,0-0.01,0-0.01,0c-0.02-0.02-0.01-0.08-0.01-0.13
			c0-0.01,0-0.02,0-0.03c-0.01,0-0.22,0.04-0.25,0.09c-0.02,0.05-0.03,0.08,0.11,0.18c0.01,0.01,0.03,0.02,0.05,0.03
			c0.1,0.06,0.23,0.13,0.21,0.29c-0.01,0.16-0.05,0.24-0.13,0.25c0,0-0.16,0.21-0.28,0.21c-0.02,0-0.04-0.01-0.05-0.02
			c0,0.01,0.25,0.67,0.22,1.39c-0.02,0.41-0.09,0.83-0.15,0.97c-0.01,0.01-0.03,0.04-0.06,0.05c-0.47,0.06-1.25,0.25-1.8,0.36
			c0,0-0.02-0.02-0.04-0.05c-0.12-0.19-0.44-0.78-0.44-0.79c0,0-0.31-0.59-0.34-1.49c0-0.01,0.01-0.58,0.12-0.91
			c0-0.01,0.01-0.03,0.03-0.03c0.03-0.02,0.14-0.09,0.41-0.15c0,0-0.04-0.13-0.02-0.18c0.01-0.05,0.03-0.31,0.34-0.37
			c0.07-0.01,0.15-0.03,0.24-0.02c0.11,0.01,0.28,0.04,0.42,0.04c0.34,0,0.59-0.07,0.87-0.18c0.01,0,0.04-0.03,0.04-0.05
			c0-0.01,0-0.01-0.01-0.01c-0.01,0-0.02-0.01-0.03-0.02c-0.08-0.04-0.25-0.12-0.31-0.28c0-0.01,0-0.02,0-0.02
			c0,0,0.01-0.01,0.01-0.01h0.01c0.02,0,0.03,0,0.05,0c0.04,0,0.42-0.02,0.52-0.29c0,0-0.01,0-0.02,0c-0.02,0-0.05,0-0.1,0
			c-0.03,0-0.07,0-0.11,0c-0.01,0-0.02-0.01-0.03-0.02c0-0.01,0-0.01,0-0.02l0.01-0.01c0.04-0.07,0.1-0.17,0.12-0.36
			c0.01-0.12,0-0.2-0.01-0.27c-0.01-0.08-0.02-0.13,0.02-0.18h0c0,0-0.09,0.08-0.24,0.09l-0.01,0c-0.01,0-0.02,0-0.02-0.01
			c0,0,0-0.01,0.01-0.01c0.04-0.04,0.09-0.16,0.1-0.37c0-0.06,0.01-0.11,0.01-0.14c0.01-0.17,0.03-0.23,0.09-0.37
			c0,0-0.12-0.02-0.11-0.05c0.01-0.04,0.18-0.15,0.27-0.39c0.13-0.32,0.3-0.39,0.3-0.39c-0.07-0.02-0.21-0.1-0.21-0.1
			c0.11-0.05,0.41-0.21,0.6-0.26c0.07-0.02,0.2-0.04,0.24-0.06c0.16-0.06,0.16-0.06,0.16-0.06c-0.09-0.01-0.24-0.1-0.24-0.1
			c-0.04,0.04-0.08,0.12-0.26,0.12c-0.18,0-0.28-0.31-0.3-0.41l0-0.01c0-0.02-0.02-0.06-0.02-0.15c0-0.07,0.05-0.09,0.08-0.09
			c0.03,0,0.06,0.01,0.06,0.01c-0.04,0-0.06,0.02-0.06,0.04c0,0.02,0.06,0.04,0.24,0.07c0.16,0.02,0.33,0.03,0.48,0.03
			c0.25,0,0.4-0.03,0.4-0.03c-0.06,0.08-0.36,0.12-0.54,0.12c-0.04,0-0.08,0-0.12,0c-0.03,0-0.06,0-0.09,0c-0.06,0-0.09,0-0.11,0.01
			c-0.06,0.01-0.09,0.03-0.1,0.05c-0.01,0.03,0,0.06,0.03,0.11c0.02,0.04,0.04,0.05,0.08,0.05c0.02,0,0.12,0,0.15-0.03
			c0.03-0.03,0.02-0.09,0.02-0.1c0.07,0.03,0.23,0.09,0.41,0.09c0.07,0,0.14-0.01,0.2-0.03c0.09-0.02,0.16-0.03,0.21-0.03
			c0.04,0,0.08,0.01,0.13,0.01c0.02,0,0.05,0.01,0.08,0.01c0,0,0,0,0,0c0.04,0,0.05-0.08,0.05-0.08c0.05-0.36,0.15-0.42,0.21-0.42
			c0,0.01,0,0.07,0.04,0.39c0.06,0.46-0.07,0.76-0.15,0.89c-0.01,0.02-0.03,0.05-0.04,0.06c-0.01,0.01-0.01,0-0.01,0
			c-0.01-0.02,0.01-0.12,0.01-0.12c0.07-0.21-0.01-0.53-0.1-0.55c-0.06,0.04-0.1,0.17-0.11,0.17c-0.02,0-0.02-0.01-0.01-0.06
			c0.02-0.11,0.03-0.14,0.02-0.15l-0.02,0c-0.1,0-0.23,0.07-0.42,0.22c-0.16,0.13-0.34,0.15-0.52,0.17c-0.05,0-0.09,0.01-0.14,0.02
			c-0.23,0.03-0.27,0.07-0.29,0.09c-0.02,0.02,0.18,0.07,0.18,0.07s0.02,0.01,0.02,0.01c0,0,0,0.01-0.01,0.01
			c-0.05,0.03-0.17,0.08-0.22,0.12c-0.07,0.08-0.18,0.17-0.24,0.36c-0.05,0.14-0.09,0.17-0.13,0.21l0,0c0,0,0,0.01,0.01,0.01
			c0,0,0.11,0.02,0.27-0.23c0,0,0-0.01,0.01-0.01c0,0,0.01,0,0.01,0.01l0,0.24c0,0-0.16,0.02-0.25,0.19
			c-0.07,0.13-0.06,0.22-0.07,0.34c0,0.04,0.01,0.17-0.01,0.22c-0.01,0.02-0.01,0.04-0.01,0.04c0,0,0,0,0,0
			c0.01,0,0.03-0.01,0.06-0.03c0.08-0.07,0.06-0.06,0.13-0.23c0,0,0.01-0.01,0.01-0.01c0.01,0,0.02,0.01,0.03,0.02
			c0.04,0.07,0.12,0.25,0.12,0.32l0.01,0c0.03,0,0.13-0.05,0.47-0.53c0,0,0,0,0,0s0.02,0.01,0.02,0.03c0.03,0.07,0.09,0.19,0.1,0.35
			c0,0,0,0,0,0c0.01,0,0.05-0.02,0.18-0.25c0.1-0.18,0.17-0.24,0.25-0.3c0,0,0.01,0,0.01,0c0,0,0.01,0,0.01,0c0,0,0,0.01-0.01,0.02
			c-0.01,0.01-0.02,0.02-0.03,0.03c-0.03,0.04-0.08,0.09-0.13,0.21c-0.03,0.07-0.19,0.41-0.33,0.48c0,0,0,0,0,0
			c-0.01,0-0.02-0.01-0.02-0.02l0-0.02c0-0.07,0-0.21-0.04-0.3c-0.01-0.02-0.01-0.03-0.01-0.03c-0.01,0-0.02,0.01-0.02,0.02
			c0,0,0,0.01-0.01,0.01c-0.08,0.12-0.36,0.53-0.54,0.57c0,0-0.01,0-0.01-0.01c0-0.04,0-0.21-0.06-0.31c0,0-0.08,0.11-0.03,0.42
			c0.01,0.18-0.01,0.26-0.02,0.3c0,0.02-0.01,0.03,0,0.03c0,0,0,0,0.01,0c0,0,0.01,0,0.02,0c0.12-0.04,0.23-0.19,0.36-0.41
			c0.02-0.03,0.04-0.06,0.05-0.09c0,0,0.01-0.01,0.01,0c0.02,0.05,0.1,0.23,0.13,0.36c0,0.02,0.01,0.03,0.03,0.03
			c0.09,0,0.36-0.43,0.45-0.67c0-0.01,0.01-0.01,0.01,0c0.02,0.03,0.06,0.11,0.1,0.17c0,0.01,0.01,0.01,0.02,0.01
			c0.06,0,0.22-0.25,0.28-0.38h0c0,0-0.01,0-0.02,0c-0.01,0-0.03-0.01-0.04-0.05c-0.01-0.04-0.03-0.11-0.04-0.16
			c0-0.02,0-0.02,0-0.02l0,0c0,0,0,0,0.01,0.02c0.03,0.05,0.07,0.11,0.09,0.11c0.02,0,0.07-0.07,0.12-0.14
			c0.05-0.07,0.11-0.15,0.13-0.15c0.03,0.04,0.06,0.09,0.08,0.12c0.02,0.03,0.03,0.05,0.03,0.05c0.01,0,0.01,0.01,0.02,0.01
			c0.04,0,0.09-0.07,0.13-0.17c0.01,0.01,0.01,0.03,0.01,0.06c-0.01,0.07-0.05,0.17-0.13,0.24c-0.01,0-0.01,0.01-0.02,0.01
			c-0.02,0-0.03-0.03-0.03-0.03c0,0-0.06-0.12-0.08-0.15c0-0.01-0.01-0.01-0.01-0.01c-0.01,0-0.02,0.01-0.02,0.01l-0.17,0.26
			c0,0.01,0.08,0.31,0.14,0.31c0,0,0.01,0,0.01,0c0.03-0.01,0.26-0.15,0.31-0.38c0,0.01,0.04,0.17-0.14,0.38l-0.12,0.11
			c0,0.01,0.1,0.17,0.13,0.17c0.04-0.01,0.23-0.27,0.27-0.36c0,0.2-0.12,0.42-0.21,0.5c-0.02,0.02-0.04,0.03-0.05,0.03
			c-0.04,0-0.11-0.11-0.13-0.15c0-0.01-0.01-0.01-0.01-0.01c-0.01,0-0.02,0.01-0.03,0.02c-0.01,0.01-0.02,0.03-0.03,0.05
			c-0.06,0.11-0.18,0.33-0.31,0.45c-0.01,0.01-0.03,0.02-0.05,0.02c-0.01,0-0.02,0-0.03-0.01c-0.02-0.02-0.04-0.05-0.04-0.05
			c0,0,0.01,0.22,0.11,0.3c0,0,0.01,0.01,0.02,0.01c0.01,0,0.02,0,0.02-0.01c0.07-0.07,0.22-0.25,0.28-0.37c0,0,0.05,0.15,0.04,0.23
			c0,0-0.18,0.31-0.28,0.36c0,0,0.07,0.17,0.22,0.3c0,0,0.01,0,0.01,0c0.06,0,0.21-0.35,0.22-0.36c0,0,0.1,0.15-0.01,0.35
			c-0.02,0.03-0.03,0.06-0.05,0.08c-0.08,0.13-0.11,0.19-0.09,0.42c0,0.01,0.01,0.01,0.01,0.01c0.03-0.03,0.13-0.12,0.25-0.19
			c0.1-0.06,0.21-0.18,0.27-0.24c0.01-0.01,0.01-0.01,0.01-0.01c0.01,0,0.01,0.02,0,0.06c-0.04,0.15-0.13,0.51-0.07,0.66
			c0,0.01,0.01,0.01,0.02,0c0.06-0.04,0.24-0.17,0.32-0.26c0.01-0.01,0.01-0.01,0.01,0c-0.01,0.05-0.05,0.16-0.21,0.29
			c0,0-0.13,0.11-0.18,0.19c-0.01,0.01-0.02,0.02-0.03,0c-0.03-0.06-0.12-0.22-0.13-0.42c0,0-0.01-0.01-0.01,0
			c-0.04,0.03-0.15,0.13-0.17,0.19c0,0.01,0.1,0.53,0.28,0.64c0.01,0.01,0.05,0.01,0.06,0c0.07-0.05,0.32-0.24,0.46-0.43
			c0,0,0.03,0.19,0.06,0.23c0.01,0.02,0.02,0.03,0.04,0.03c0.03,0,0.07-0.04,0.14-0.14c0.13-0.19,0.43-1.11-0.04-1.82
			c-0.01-0.02-0.02-0.04,0.01-0.01c0,0,0.01,0,0.01,0.01c0.08,0.07,0.25,0.25,0.41,0.62c0,0,0.02,0.04,0.04,0.04
			c0.02,0,0.03-0.03,0.04-0.09c0-0.04,0-0.1,0-0.17c0-0.18,0-0.41,0.1-0.47c0.05-0.03,0.15-0.05,0.28-0.09
			c0.23-0.06,0.54-0.14,0.79-0.29c0.39-0.23,0.71-0.62,0.72-0.68c0-0.01,0-0.02,0-0.03c0,0-0.01-0.01-0.02-0.01
			c-0.02,0-0.29,0.23-0.76,0.44c-0.11,0.05-0.22,0.09-0.32,0.12c-0.12,0.04-0.21,0.07-0.25,0.12c-0.01,0.01-0.02,0.02-0.03,0.03
			c-0.07,0.09-0.19,0.25-0.3,0.25c0,0,0,0,0,0c0,0,0.23-0.35,0.31-0.55c-0.01,0-0.38,0.21-0.44,0.21c0,0-0.01,0-0.01,0
			c0,0,0,0,0-0.01c0.01-0.03,0.11-0.11,0.23-0.21c0.15-0.12,0.33-0.26,0.44-0.38c0.01-0.01,0.01-0.02,0.01-0.02c0,0,0,0,0,0
			c-0.01,0-0.03,0.01-0.05,0.01l-0.01,0c-0.01,0-0.02,0.01-0.04,0.01c-0.05,0.02-0.13,0.05-0.25,0.08c0,0-0.01,0-0.01,0
			c0,0-0.01,0-0.01,0c0,0,0-0.01,0.04-0.04c0.18-0.12,0.62-0.43,0.84-0.82c0.01-0.02,0.02-0.04,0.01-0.05c0,0-0.01-0.01-0.01-0.01
			c0,0-0.01,0-0.02,0.01c-0.11,0.05-0.31,0.15-0.47,0.22c-0.01,0-0.01,0-0.01,0s-0.01,0-0.01,0c0,0,0-0.01,0.04-0.05
			c0.2-0.16,0.68-0.56,0.77-0.78c0.01-0.02,0-0.03,0-0.05c-0.01-0.01-0.01-0.01-0.01-0.01c-0.01,0-0.02,0-0.02,0
			c-0.06,0.03-0.17,0.08-0.32,0.12c0,0-0.01,0-0.01,0s-0.01,0-0.01,0c0,0,0-0.01,0.05-0.04c0.19-0.12,0.51-0.37,0.61-0.65
			c0,0,0.01-0.02,0-0.03c0-0.01-0.01-0.01-0.02-0.01c-0.02,0-0.06,0.01-0.12,0.04c-0.13,0.07-0.26,0.12-0.38,0.14c0,0-0.01,0-0.01,0
			c0,0-0.01,0-0.01,0c0,0,0-0.02,0.05-0.05c0.12-0.08,0.33-0.26,0.51-0.45c0.08-0.09,0.12-0.13,0.11-0.16
			c-0.01-0.02-0.04-0.02-0.07-0.02c-0.02,0-0.03,0-0.05,0c-0.02,0-0.05,0-0.07,0c-0.06,0-0.14,0-0.22-0.04
			c-0.01,0-0.01-0.01-0.01-0.01c0,0,0.01-0.02,0.05-0.02c0.19-0.02,0.88-0.23,1.86-0.96c0.71-0.53,1.19-1.18,1.36-1.69
			c0-0.01,0.01-0.02,0.01-0.03c0.01-0.02,0.01-0.03,0.01-0.03h0c0,0-0.02,0.01-0.04,0.04c-0.07,0.09-0.27,0.29-0.47,0.33
			c0.01,0,0.48-0.45,0.67-0.77c0.03-0.04,0.05-0.07,0.06-0.07c0.01,0,0.02,0.01,0.02,0.02c0.05,0.11-0.07,0.68-0.37,1.11
			c0,0,0.14-0.05,0.31-0.22c0.02-0.02,0.04-0.03,0.05-0.03c0.01,0,0.02,0.01,0.02,0.02c0.04,0.08-0.06,0.62-0.44,1.04h0
			c0.01,0,0.08-0.03,0.14-0.07c0,0,0.01,0,0.01,0c0.01,0,0.01,0,0.01,0.01c0.03,0.06-0.01,0.45-0.44,0.95h0c0,0,0.14-0.05,0.18-0.08
			l0,0c0,0,0,0,0,0c0.02,0.07-0.19,0.68-0.72,1.13c0,0,0.16-0.07,0.2-0.07c0,0,0.01,0,0.01,0c0,0,0,0,0,0.01
			c0,0.01-0.22,0.51-0.73,0.88h0c0.01,0,0.08-0.02,0.13-0.02c0.03,0,0.04,0,0.05,0.01c0,0,0,0.01,0,0.02c0,0.01-0.23,0.37-0.49,0.66
			c0.03,0,0.04,0,0.05,0.01c0,0.01,0.01,0.01,0,0.02C83.7,49.62,83.45,50,83.45,50c0.01,0,0.08-0.02,0.28-0.02
			c0.14,0,0.28,0.01,0.43,0.04c0.48,0.09,0.72,0.28,0.93,0.44c0.19,0.15,0.36,0.28,0.68,0.32c-0.01,0-0.07,0.04-0.17,0.03
			c-0.57-0.04-0.85-0.56-1.52-0.6c0,0,0.13,0.06,0.13,0.09c0,0.01-0.01,0.01-0.03,0.02c-0.01,0-0.01,0-0.02,0
			c-0.02,0-0.04,0-0.07-0.01c-0.05-0.01-0.1-0.02-0.18-0.02c-0.21,0-0.45,0.07-0.74,0.22c-0.59,0.31-0.8,0.32-1.03,0.33
			c-0.03,0-0.06,0-0.09,0c-0.25,0.01-0.8,0.12-0.94,0.35c-0.04,0.07-0.04,0.14-0.01,0.21c0,0,0.02,0.05,0.28,0.05
			c0.07,0,0.15,0,0.24-0.01c0.23-0.02,0.52-0.09,0.8-0.16c0.3-0.07,0.59-0.14,0.78-0.14c0.01,0,0.03,0,0.04,0
			c0.29,0.02,0.54,0.13,0.71,0.32c0.15,0.17,0.21,0.39,0.19,0.63c0,0,0,0.06,0,0.12c-0.01,0.1-0.02,0.12-0.03,0.12
			c0-0.01-0.1-0.86-0.88-0.75c-0.19,0.03-0.29,0.11-0.36,0.11c0.01,0,0.68,0.05,0.94,0.51c0.08,0.15,0.09,0.32,0.1,0.49
			c0.01,0.24,0.03,0.49,0.24,0.7c0,0,0.01,0,0.01,0s0.01,0,0.01,0c0,0,0-0.01,0-0.02c-0.02-0.11-0.06-0.41,0.01-0.62
			c0-0.01,0.01-0.01,0.02-0.01c0,0,0.01,0.01,0.02,0.02c0.02,0.09,0.07,0.2,0.1,0.27c0.01,0.03,0.02,0.05,0.03,0.07
			c0.03,0.08,0.1,0.2,0.31,0.25c0.14,0.04,0.24,0.08,0.33,0.11c0.05,0.02,0.1,0.04,0.14,0.05c0.01,0,0.03,0.01,0.05,0.01
			c0.04,0,0.09-0.02,0.09-0.04c0-0.01,0-0.02-0.02-0.03c-0.1-0.08-0.12-0.1-0.13-0.11c0-0.01,0-0.02,0-0.02
			c0.01-0.01,0.02-0.01,0.04-0.01c0.13,0,0.57,0.2,0.81,0.54c0,0,0,0.01,0,0.01c0,0-0.01,0.01-0.01,0.01c-0.01,0-0.02,0-0.03,0
			c-0.06-0.02-0.18-0.05-0.28-0.07c-0.02,0-0.04-0.01-0.06-0.01c-0.03,0-0.04,0.01-0.05,0.02c-0.01,0.02,0.01,0.05,0.05,0.09
			c0.05,0.05,0.1,0.14,0.1,0.27c0,0.12-0.05,0.32-0.29,0.55c-0.01,0.01-0.03,0.03-0.04,0.04c-0.01,0.01-0.02,0.02-0.01,0.03
			c0,0.01,0.04,0.02,0.07,0.02c0.02,0,0.04,0,0.04,0.01c0,0,0,0-0.01,0.01c-0.12,0.08-0.39,0.14-0.57,0.14c-0.06,0-0.11,0-0.15-0.01
			c-0.05-0.01-0.1-0.02-0.15-0.03c-0.11-0.03-0.23-0.06-0.35-0.06c-0.18,0-0.29,0-0.4,0.15c-0.09,0.13,0.02,0.23,0.12,0.23
			c0.05,0,0.09,0.02,0.17-0.06c0.04-0.04,0.19-0.17,0.28-0.17c0.01,0,0.02,0,0.03,0c0.01,0,0.01,0,0.01,0.01
			c0,0-0.01,0.01-0.02,0.02c-0.01,0.01-0.03,0.02-0.04,0.04c-0.03,0.03-0.11,0.15-0.11,0.22c0,0.01,0.01,0.04,0.03,0.04
			c0.19,0.06,0.53-0.01,0.67,0.04c0.08,0.03,0.21,0.06,0.29,0.05c0.17-0.03,0.11-0.23,0.29-0.4c0.01-0.01,0.03-0.02,0.04-0.03
			c0.32-0.24,0.45-0.55,0.47-0.67c0,0.01,0.04,0.09,0.04,0.13c0,0,0,0.01,0,0.01s0.01,0,0.01-0.01c0.02-0.03,0.11-0.17,0.09-0.41
			c-0.02-0.26-0.39-0.54-0.68-0.77c-0.14-0.1-0.25-0.2-0.32-0.27l-0.01-0.01c-0.2-0.22-0.33-0.37-0.35-1.11
			c-0.02-0.73-0.44-1.19-0.72-1.32l0.01,0c0.08,0,0.79,0.02,1.01,0.76l0,0c0.01,0,0.02,0,0.03-0.01c0.02-0.03,0.03-0.09-0.03-0.26
			c0,0,0.25,0.1,0.55,0.1c0.15,0,0.35-0.03,0.47-0.09c0.25-0.13,0.4-0.37,0.46-0.66c0.04-0.22,0.03-0.55-0.26-0.91
			c-0.22-0.26-0.45-0.45-0.66-0.61c-0.31-0.24-0.53-0.42-0.48-0.7c0.06-0.36,0.36-0.43,0.59-0.43c0.11,0,0.24,0.02,0.36,0.05
			c0.17,0.04,0.39,0.09,0.6,0.09c0.28,0,0.51-0.12,0.6-0.31c0.19-0.38,0.08-0.54,0.05-0.59c0-0.01,0-0.01,0.01,0
			c0.04,0.03,0.18,0.16,0.17,0.44c0,0-0.02,0.12-0.03,0.17c0,0.01,0,0.01,0,0.02c0,0,0,0,0,0c0.02,0,0.06-0.01,0.09-0.04
			c0,0,0.01,0,0.01,0.01c-0.03,0.05-0.15,0.2-0.43,0.32c0,0,0.58-0.08,0.6-0.56c0-0.01,0-0.01,0.01,0
			C87.86,47.43,88.12,47.86,87.82,48.3z M83.94,48.87C83.94,48.87,83.93,48.87,83.94,48.87c-0.03-0.01-0.06,0.02-0.12,0.06
			c-0.3,0.22-0.68,0.36-0.68,0.36c-0.02,0.03-0.06,0.09-0.11,0.16c-0.07,0.1-0.15,0.2-0.14,0.22c0,0,0.01,0.01,0.01,0.01l0,0
			c0.08-0.01,0.36-0.19,0.63-0.37C83.72,49.17,83.95,48.91,83.94,48.87z M84.4,48.09C84.4,48.09,84.39,48.09,84.4,48.09
			c-0.03-0.01-0.05,0-0.07,0.01c-0.3,0.18-0.87,0.47-0.88,0.47c-0.03,0.11-0.1,0.24-0.16,0.34c-0.04,0.07-0.07,0.13-0.07,0.14
			c0,0,0,0,0,0s0.01,0,0.01,0c0.08-0.02,0.36-0.16,0.65-0.41c0.25-0.21,0.4-0.39,0.48-0.49C84.4,48.12,84.41,48.1,84.4,48.09z
			 M84.96,47.11c0,0-0.01-0.01-0.01-0.01c-0.01,0-0.03,0.01-0.05,0.02c-0.08,0.07-0.22,0.17-0.4,0.31
			c-0.21,0.15-0.39,0.28-0.53,0.37c-0.13,0.09-0.2,0.13-0.2,0.14c-0.01,0.01-0.26,0.36-0.23,0.41c0,0,0,0.01,0.01,0.01
			c0.06,0,1.06-0.51,1.41-1.19C84.97,47.15,84.97,47.12,84.96,47.11z M85.31,46.19C85.3,46.18,85.3,46.18,85.31,46.19
			c-0.02,0-0.04,0.01-0.05,0.02c-0.55,0.54-0.93,0.77-1.12,0.89c-0.05,0.03-0.09,0.05-0.1,0.07c-0.04,0.04-0.06,0.12-0.09,0.22
			c-0.01,0.04-0.02,0.08-0.04,0.12c-0.01,0.02-0.03,0.06-0.04,0.1c-0.02,0.05-0.05,0.1-0.04,0.11c0,0,0,0,0,0c0.01,0,0.01,0,0.01,0
			c0.71-0.43,1.19-0.91,1.44-1.44C85.31,46.23,85.31,46.2,85.31,46.19z M83.94,46.95c-0.01,0.01-0.02,0.03-0.01,0.03c0,0,0,0,0,0
			c0.01,0,0.02,0,0.02-0.01c0.27-0.13,1.2-0.65,1.64-1.67c0.01-0.02,0.01-0.03,0-0.04c0-0.01-0.01-0.01-0.02-0.01
			c-0.01,0-0.02,0-0.04,0.01c-0.1,0.06-0.23,0.13-0.33,0.17c0,0.01-0.35,0.52-0.98,1.01C84.22,46.45,84.17,46.66,83.94,46.95z
			 M82.68,47.55c0,0,0.01,0.01,0.02,0.01c0.02,0,0.07-0.01,0.14-0.04c0.53-0.21,0.82-0.47,1.1-0.8c0.02-0.02,0.05-0.09,0.04-0.11
			c0-0.01-0.01-0.01-0.01-0.01c-0.02,0-0.05,0.01-0.08,0.04c-0.18,0.14-0.72,0.45-0.99,0.55c0,0-0.06,0.21-0.19,0.32
			C82.71,47.5,82.67,47.54,82.68,47.55z M82.46,48.22c0,0.01,0.01,0.01,0.03,0.01c0.05,0,0.15-0.04,0.31-0.13
			c0.49-0.27,0.72-0.47,0.98-0.86c0,0,0.05-0.09,0.03-0.11c0-0.01-0.01-0.01-0.02-0.01c-0.02,0-0.05,0.02-0.1,0.05
			c-0.14,0.1-0.58,0.42-0.96,0.55c0,0-0.05,0.26-0.25,0.44C82.48,48.16,82.45,48.2,82.46,48.22z M82.16,48.87
			c0,0.01,0.01,0.01,0.03,0.01c0.12,0,0.59-0.15,0.93-0.43c0.3-0.25,0.39-0.36,0.53-0.64c0.03-0.06,0.07-0.15,0.06-0.18
			c0,0-0.01-0.01-0.01-0.01c-0.02,0-0.05,0.02-0.1,0.07c-0.13,0.12-0.54,0.49-1.1,0.7c-0.02,0.12-0.15,0.27-0.25,0.37
			c-0.04,0.04-0.07,0.07-0.08,0.1C82.16,48.86,82.16,48.87,82.16,48.87z M81.83,49.57c0.01,0.01,0.02,0.01,0.03,0.01
			c0.03,0,0.06-0.01,0.06-0.01c0.52-0.18,0.84-0.37,1.13-0.67c0.19-0.2,0.21-0.29,0.2-0.33c-0.01-0.02-0.02-0.03-0.02-0.03h0
			c-0.26,0.22-0.93,0.49-1.02,0.51c-0.1,0.02-0.25,0.27-0.25,0.27c0,0-0.09,0.13-0.12,0.2C81.83,49.54,81.83,49.56,81.83,49.57z
			 M82.96,49.25c0,0,0.01-0.03,0.01-0.04c0,0-0.01-0.01-0.02-0.01c-0.02,0-0.07,0.03-0.14,0.08c-0.29,0.22-0.85,0.42-1.02,0.46
			c-0.17,0.04-0.33,0.38-0.33,0.39c0,0-0.04,0.06-0.03,0.09c0.01,0.01,0.02,0.02,0.04,0.02c0.03,0,0.06-0.01,0.11-0.03
			C81.77,50.14,82.7,49.78,82.96,49.25z M82.29,50.55c0,0.01,0.01,0.01,0.02,0.01c0.07,0,0.28-0.08,0.51-0.22
			c0.31-0.19,0.8-0.81,0.79-0.88c0,0,0-0.01-0.01-0.01c-0.01,0-0.02,0.01-0.04,0.02c-0.23,0.14-0.68,0.36-0.69,0.36
			c-0.14,0.3-0.45,0.58-0.54,0.66C82.3,50.52,82.28,50.54,82.29,50.55z M77.18,51.48c0.01,0,0.01,0,0.02,0
			c0.14-0.01,0.23-0.22,0.24-0.22c-0.19,0.1-0.32,0.11-0.38,0.11c-0.03,0-0.04,0-0.04,0l0,0C77.01,51.36,77.05,51.48,77.18,51.48z
			 M74.97,52.9v0.02c0,0,0,0.01,0.01,0.01c0,0,0.01,0,0.03-0.01c0.02-0.01,0.05-0.01,0.09-0.02c0.04-0.01,0.04-0.06,0.04-0.06
			l0.01-0.27c0,0-0.01-0.02-0.02-0.02h0C74.96,52.57,74.97,52.8,74.97,52.9z M74.92,53.1c0.04-0.01,0.17-0.04,0.21-0.04
			c0.02,0,0.03,0.01,0.04,0.02c0.03,0.04,0.04,0.11,0.03,0.14c0,0,0,0,0,0.01c0,0.01-0.01,0.02-0.01,0.03c0,0,0,0,0,0s0.01,0,0.01,0
			c0.03-0.01,0.32-0.08,0.87-0.18c0.46-0.08,1-0.16,1.1-0.16c0.03,0,0.04,0,0.04-0.01c0.01-0.02-0.05-0.05-0.05-0.06h-0.01
			c-0.03,0-0.18,0-0.23-0.02c-0.02-0.01-0.04-0.08-0.06-0.12c-0.01-0.02-0.03-0.04-0.05-0.04c-0.19,0.01-0.49,0.05-0.66,0.07
			l-0.03,0l0,0c-0.01,0-0.02,0-0.02-0.01c0-0.01,0.03-0.04,0.18-0.07c0.03-0.01,0.11-0.03,0.13-0.05c0,0,0-0.01,0-0.01
			c-0.02-0.05-0.03-0.12-0.05-0.18c-0.02-0.06-0.03-0.12-0.04-0.14c-0.01-0.02-0.03-0.04-0.06-0.04c-0.02,0-0.04,0.01-0.04,0.01
			c-0.01,0-0.3,0.01-0.32,0.05c-0.02,0.03-0.01,0.1-0.01,0.1s0,0.1-0.05,0.11h0c-0.05,0-0.08-0.09-0.08-0.09l-0.02-0.07
			c0,0-0.1,0.03-0.16,0.03c-0.01,0-0.01,0-0.02,0c0,0-0.01,0-0.01,0c-0.04,0-0.1,0.05-0.12,0.09c-0.02,0.05-0.06,0.07-0.1,0.07
			c-0.01,0-0.02,0-0.02,0c0,0-0.01,0-0.01,0c-0.01,0-0.01,0-0.02,0.01c-0.01,0.01-0.01,0.02-0.01,0.03c0,0.05,0.01,0.13,0.01,0.26
			c0,0.01,0.01,0.02,0.04,0.02c0.01,0,0.01,0,0.02,0c0.17-0.03,0.26-0.04,0.32-0.04c0.07,0,0.09,0.01,0.09,0.02
			c0,0.01-0.01,0.01-0.03,0.02c-0.29,0.04-0.67,0.15-0.79,0.18l-0.03,0.01c-0.02,0.01-0.04,0.01-0.04,0.02c0,0,0,0.01,0,0.01
			c0,0,0,0.01,0,0.01C74.9,53.08,74.91,53.11,74.92,53.1C74.92,53.11,74.92,53.11,74.92,53.1z M76.71,52.44
			C76.71,52.44,76.71,52.44,76.71,52.44c0,0,0.01,0,0.01,0c0.02,0.02,0.07,0.06,0.07,0.06c0,0,0.03,0.02,0.05,0.02
			c0,0,0.01,0,0.02-0.01c0.01-0.01,0.01-0.04-0.01-0.08c-0.01-0.02-0.01-0.04-0.02-0.05c-0.04-0.12-0.07-0.18-0.14-0.19
			c-0.01,0-0.02,0-0.03,0c-0.04,0-0.07,0.01-0.1,0.02c-0.02,0.01-0.02,0.05-0.02,0.05c0,0,0.06,0.18,0.11,0.34
			c0.01,0.03,0.03,0.03,0.03,0.03l0.04-0.01c0,0,0.01,0,0.02-0.02c0-0.01,0-0.02,0-0.03C76.72,52.51,76.7,52.45,76.71,52.44z
			 M76.36,54.43c0,0,0.01,0.09,0.1,0.09c0.04,0,0.09-0.02,0.14-0.05c0.09-0.05,0.15-0.08,0.2-0.1c0.07-0.03,0.1-0.04,0.1-0.1
			c0.01-0.12-0.14-0.91-0.21-1.08c-0.01-0.02-0.03-0.04-0.05-0.04h0c-0.1,0-0.37,0.05-0.49,0.07c-0.01,0-0.01,0.01-0.02,0.01
			c-0.01,0.01,0,0.03,0,0.03L76.36,54.43z M76.12,54.39c0-0.01-0.16-0.88-0.21-1.07c0-0.01-0.01-0.04-0.04-0.04c0,0-0.01,0-0.01,0
			l-0.01,0c-0.09,0.02-0.3,0.05-0.47,0.1c-0.02,0.01-0.03,0.02-0.03,0.04c0,0.01,0,0.03,0,0.05l0,0c0,0,0.02,0.31,0.14,0.66
			c0.13,0.37,0.4,0.43,0.48,0.44c0.02,0,0.03,0,0.05,0c0.04,0,0.09-0.02,0.1-0.04C76.15,54.49,76.12,54.39,76.12,54.39z
			 M77.08,54.21c0.01,0.09,0.01,0.13,0.02,0.14c0.01,0.01,0.03,0.01,0.05,0.01c0.06,0,0.12-0.03,0.15-0.07
			c0.01-0.02,0.02-0.06,0.02-0.08c0-0.34-0.12-0.89-0.18-1.09c-0.01-0.03-0.05-0.04-0.11-0.04c-0.02,0-0.04,0-0.05,0
			c-0.05,0-0.11,0.01-0.12,0.03c0,0,0,0,0,0.01C77.01,53.6,77.06,54.01,77.08,54.21z M75.33,54.34c0.01,0,0.02,0,0.02,0
			c0-0.01-0.16-0.5-0.19-0.89l0,0c-0.08,0.03-0.13,0.05-0.14,0.07c-0.03,0.03,0.05,0.39,0.13,0.62
			C75.2,54.32,75.29,54.34,75.33,54.34z M75.65,55.32c0-0.02-0.04-0.1-0.05-0.1l0,0c-0.02,0-0.15,0.04-0.15,0.05
			c0,0.01,0,0.01,0.04,0.05c0.02,0.02,0.06,0.03,0.09,0.03C75.6,55.34,75.65,55.32,75.65,55.32z M76.29,55.21
			c0-0.03-0.03-0.15-0.04-0.16l0,0c-0.05,0-0.53,0.11-0.53,0.12c-0.01,0.01,0.05,0.09,0.09,0.1c0,0,0.39,0,0.43,0
			C76.28,55.27,76.29,55.23,76.29,55.21z M76.99,54.94c0-0.01-0.01-0.01-0.02-0.01c0,0-0.01,0-0.01,0c-0.1,0-0.47,0.07-0.48,0.08
			c-0.01,0.01,0.03,0.16,0.04,0.18c0,0,0.01,0.04,0.05,0.02c0.01,0,0.31-0.06,0.39-0.13C76.98,55.05,77,54.96,76.99,54.94z
			 M77.37,54.88C77.36,54.88,77.36,54.88,77.37,54.88c-0.01,0-0.02,0-0.02,0c-0.01,0-0.05,0.01-0.08,0.01
			c-0.04,0-0.08,0.01-0.1,0.01c-0.01,0-0.01,0.01-0.01,0.02c0,0.03,0,0.1,0,0.13c0.01,0,0.22-0.05,0.22-0.1c0-0.01,0-0.03,0-0.04
			C77.37,54.89,77.37,54.88,77.37,54.88z M77.26,54.57c-1.03,0.14-1.95,0.37-1.96,0.38c-0.05,0.02-0.05,0.03-0.05,0.03
			c0,0.01-0.01,0.02,0.03,0.03c0.02,0,0.74-0.12,1.03-0.17c0.21-0.04,1.1-0.2,1.08-0.26C77.39,54.54,77.28,54.57,77.26,54.57z
			 M77.35,52.71c-0.04,0-0.08,0-0.08,0c0,0,0.09,0.13,0.1,0.21c0.01,0.01,0.02,0.01,0.02,0.01c0.06,0,0.15-0.13,0.15-0.18
			C77.54,52.71,77.44,52.71,77.35,52.71z M77.63,51.83l-0.2-0.1c0,0-0.36,0.17-0.94,0.17c-0.06,0-0.35,0.02-0.45,0.01
			c-0.75-0.09-0.68,0.33-0.68,0.33c0,0.01-0.06,0.15,0,0.17c0,0,0.01,0,0.01,0c0.06,0,0.1-0.16,0.11-0.17h0c0,0,0.19-0.03,0.2-0.2
			c0,0-0.02-0.04-0.07-0.04c0,0-0.01,0-0.01,0l0,0c-0.01,0-0.01,0-0.01,0c0,0,0-0.01,0.03-0.02c0.02-0.01,0.04-0.01,0.07-0.01
			c0.09,0,0.21,0.04,0.27,0.14c0,0,0.29-0.08,0.55-0.08c0.24,0,0.4,0.07,0.53,0.24c0.07,0.09,0.32,0.27,0.4,0.27
			c0.01,0,0.01,0,0.01,0c0.02-0.01,0.04-0.03,0.04-0.06c0-0.05-0.04-0.12-0.16-0.17c-0.12-0.05-0.21-0.16-0.21-0.23
			c0-0.04,0.03-0.07,0.07-0.08C77.34,51.94,77.62,51.83,77.63,51.83z M77.96,50.94L77.96,50.94C77.96,50.94,77.95,50.95,77.96,50.94
			c-0.03,0-0.05-0.06-0.07-0.11c-0.02-0.05-0.03-0.05-0.05-0.05c-0.03,0-0.15,0.11-0.27,0.2c0,0,0.01,0.23,0.18,0.34
			C77.79,51.35,77.97,50.97,77.96,50.94z M78.16,51.58c-0.06-0.05-0.15-0.25-0.17-0.34c0-0.02-0.01,0.02-0.02,0.04
			s-0.02,0.05-0.03,0.07c-0.02,0.05-0.03,0.11-0.02,0.14c0.03,0.08,0.1,0.22,0.15,0.25C78.11,51.76,78.16,51.58,78.16,51.58z
			 M78.6,50.8c-0.06-0.12-0.1-0.3-0.09-0.32l0,0c0,0,0,0,0.01,0c0.01,0.01,0.02,0.03,0.04,0.05c0.05,0.06,0.11,0.15,0.15,0.15
			c0.05,0,0.26-0.28,0.29-0.44l-0.07-0.16c0,0-0.02-0.02-0.03-0.02c-0.01,0-0.01,0-0.01,0.01c-0.04,0.07-0.15,0.23-0.25,0.3
			c-0.01,0.01-0.02,0.01-0.03,0.01c-0.01,0-0.02-0.01-0.03-0.03c0,0,0-0.01-0.01-0.01c-0.01-0.02-0.03-0.06-0.06-0.09
			c0,0-0.01-0.02-0.02-0.02c0,0,0,0.01-0.01,0.03c-0.03,0.11-0.15,0.53-0.43,0.7c0,0.02,0.08,0.4,0.16,0.4
			C78.3,51.35,78.57,51.02,78.6,50.8z M78.75,51.51l-0.17-0.26h0l-0.2,0.3c0,0,0.05,0.23,0.18,0.35
			C78.64,51.89,78.75,51.52,78.75,51.51z M79.03,51.87l-0.17-0.21c-0.03,0-0.04,0.15-0.04,0.16c0,0.01,0.07,0.21,0.12,0.21
			C78.97,52.04,79.02,51.88,79.03,51.87z M77.9,55c-0.03-0.03-0.07-0.04-0.1-0.04c-0.01,0-0.02,0-0.03,0.01
			c-0.13,0.09-0.16,0.21-0.15,0.26c0,0.02,0.01,0.02,0.03,0.02c0.01,0,0.02-0.01,0.04-0.02c0.08-0.09,0.23-0.11,0.23-0.11
			C77.93,55.07,77.92,55.03,77.9,55z M80.13,54.94c0,0.01,0.01,0.02,0.03,0.03c0.02,0.01,0.05,0.01,0.08,0.01
			c0.05,0,0.08-0.01,0.08-0.03c0.01-0.03-0.03-0.09-0.13-0.16l0,0C80.18,54.8,80.11,54.89,80.13,54.94z M79.6,54.95
			c0.03,0.04,0.13,0.05,0.2,0.05c0.05,0,0.11,0,0.16-0.01c0.05-0.01,0.11-0.14,0.1-0.25c0-0.02-0.02-0.03-0.04-0.03
			c-0.11,0-0.39,0.16-0.4,0.19C79.59,54.91,79.59,54.93,79.6,54.95z M82.18,51.86c0,0-0.28,0.01-0.38,0
			c-0.3-0.01-0.63-0.05-0.62,0.02c0.01,0.08,0.13,0.18,0.22,0.19c0.03,0,0.05,0,0.08,0C81.66,52.07,81.88,51.99,82.18,51.86z
			 M83.44,53.51c-0.03-0.32-0.18-0.84-0.28-0.93c-0.08-0.06-0.19-0.1-0.29-0.1c-0.07,0-0.13,0.02-0.16,0.05
			c-0.09,0.08-0.14,0.1-0.2,0.11c-0.04,0.01-0.09,0.02-0.15,0.06c-0.07,0.04-0.1,0.07-0.1,0.11c0,0.07,0.1,0.16,0.34,0.31
			c0.41,0.24,0.41,0.31,0.4,0.52l0,0c-0.01,0.18-0.03,0.25-0.05,0.25c-0.01,0-0.02-0.02-0.03-0.06c-0.01-0.06-0.04-0.21-0.08-0.21
			c-0.03,0-0.06,0.07-0.09,0.2c-0.07,0.33-0.38,0.56-0.84,0.73c-0.1,0.04-0.21,0.06-0.31,0.06c-0.11,0-0.17,0-0.26-0.02
			c-0.07-0.02-0.14-0.03-0.21-0.03c-0.01,0-0.02,0-0.03,0c-0.24,0.02-0.4,0.27-0.41,0.31c0,0.02-0.02,0.1,0.1,0.1
			c0.04,0,0.07-0.01,0.07-0.01c0.04-0.18,0.26-0.27,0.36-0.27c0.02,0,0.03,0,0.03,0.01c0,0,0,0.01-0.02,0.01
			c-0.1,0.04-0.17,0.13-0.19,0.17c-0.05,0.17,0.06,0.17,0.67,0.09c0.11-0.01,0.32,0.02,0.36,0.01c0.12-0.01,0.12-0.16,0.17-0.25
			c0.03-0.05,0.05-0.09,0.07-0.1c0.01,0,0.02-0.01,0.03-0.01c0.05,0,0.09,0.05,0.14,0.1c0.01,0.01,0.03,0.03,0.04,0.04
			c0.01,0.01,0.02,0.02,0.04,0.02c0.08,0,0.21-0.18,0.25-0.28c0.01-0.02,0.02-0.05,0.01-0.06c0,0-0.01,0-0.01,0
			c-0.03,0-0.07,0.02-0.11,0.04c-0.03,0.02-0.06,0.03-0.08,0.03c0,0-0.01,0-0.01,0c0,0,0-0.02,0.01-0.03
			c0.03-0.06,0.16-0.17,0.3-0.29c0.05-0.04,0.09-0.08,0.13-0.12c0.12-0.1,0.21-0.48,0.07-0.85c0-0.01,0-0.01,0-0.02l0,0
			c0,0,0.01,0,0.02,0.01c0.06,0.07,0.2,0.26,0.17,0.54c0,0.01,0,0.02,0.01,0.03c0.01,0.01,0.02,0.02,0.03,0.02
			c0.01,0,0.02,0,0.03-0.01c0.02-0.02,0.04-0.04,0.07-0.06C83.44,53.72,83.45,53.64,83.44,53.51z M86.17,53.55
			c0,0,0.15,0.36,0.17,0.5c0,0,0.04,0.06,0.08,0.06c0.01,0,0.02-0.01,0.03-0.02c0.01-0.01,0.01-0.02,0.01-0.04
			C86.41,53.75,86.28,53.63,86.17,53.55L86.17,53.55z M85.19,52.61C85.18,52.61,85.18,52.6,85.19,52.61
			c-0.01-0.01-0.02-0.01-0.02-0.01c0,0,0,0.02,0.01,0.03c0.03,0.08,0.12,0.23,0.3,0.36c0.19,0.13,0.31,0.21,0.37,0.24
			c0,0,0.01,0,0.01,0c0,0,0,0,0.01,0c0,0,0-0.02,0-0.02l-0.05-0.1c0,0,0-0.02,0.02-0.02c0.04,0,0.11-0.01,0.12-0.06
			c0,0,0-0.01,0-0.01c-0.01-0.01-0.03-0.01-0.06-0.01C85.78,53.01,85.5,53,85.19,52.61z M87.83,47.87
			c-0.01-0.04-0.03-0.07-0.07-0.09c0,0-0.01,0-0.01,0c-0.04,0-0.08,0.05-0.15,0.12c-0.04,0.04-0.08,0.09-0.14,0.14
			c-0.05,0.05-0.1,0.09-0.15,0.12c-0.08,0.06-0.13,0.11-0.13,0.14c0,0.01,0.01,0.02,0.03,0.03c0.02,0.01,0.05,0.01,0.08,0.01
			c0.13,0,0.32-0.07,0.42-0.19C87.81,48.05,87.85,47.95,87.83,47.87z"/>
	</g>
</g>
</svg>
