<?xml version="1.0" encoding="utf-8"?>
<!-- Generator: Adobe Illustrator 25.1.0, SVG Export Plug-In . SVG Version: 6.00 Build 0)  -->
<svg version="1.1" id="Layer_1" xmlns="http://www.w3.org/2000/svg" xmlns:xlink="http://www.w3.org/1999/xlink" x="0px" y="0px"
	 viewBox="0 0 161.55 161.55" style="enable-background:new 0 0 161.55 161.55;" xml:space="preserve">
<style type="text/css">
	.st0{fill:#666666;}
	.st1{clip-path:url(#SVGID_2_);}
	.st2{clip-path:url(#SVGID_4_);}
	.st3{clip-path:url(#SVGID_6_);}
	.st4{clip-path:url(#SVGID_8_);}
	.st5{clip-path:url(#SVGID_10_);}
	.st6{clip-path:url(#SVGID_12_);}
	.st7{opacity:0;fill:#666666;}
	.st8{opacity:0;fill:#666666;stroke:#009DE2;stroke-width:0.1121;}
	.st9{opacity:0;}
</style>
<g>
	<g>
		<defs>
			<path id="SVGID_13_" d="M59.23,70.38c-0.86,0-1.56-0.69-1.56-1.56c0-0.85,0.7-1.54,1.56-1.54h13.62c0.74,0,1.17-0.38,1.32-0.91
				c0.09-0.33,0.64-1.21,1.75-1.21H97.3l0.12,0.02l0.06,0.11v2.97l-0.06,0.11c-0.09,0.03-0.15,0.03-0.15,0.03h-5.8
				c-0.71,0-1.32,0.52-1.32,1.24V89.4c0,0,0,1.02-0.83,1.57c0,0-6.1,3.96-6.47,4.2c-0.31,0.22-1.01,0.49-1.63,0.05
				c-0.46-0.33-0.49-1.09-0.49-1.09V69.97c0-1.21-0.71-1.57-1.57-1.57h-2.85c-0.89,0-1.2,0.33-1.35,0.85
				c-0.09,0.33-0.52,1.13-1.69,1.13h-0.86c-0.55,0-1.01,0.44-1.01,1.02v19.53c0,0,0.03,1.62-0.86,2.91
				c-0.71,1.07-2.36,2.01-2.36,2.01l-6.78,4.56c0,0-2.76,1.92-5.89,0.77c-2.33-0.88-2.7-2.45-2.46-3.85c0.25-1.4,1.9-2.22,2.95-2.17
				c1.25,0.05,2.27,0.49,2.88,2.01c0.49,1.24,0.89,1.65,1.53,1.7c0.64,0.03,1.23-0.82,1.23-2.39V71.4c0-0.55-0.46-1.02-1.01-1.02
				H59.23z M107.08,60h-7.24c-0.83,0-1.47,0.69-1.47,1.54c0,0.88,0.64,1.56,1.47,1.56h1.75h5.49c0.83,0,1.47-0.68,1.47-1.54
				C108.56,60.69,107.91,60,107.08,60 M98.77,65.17V88.6c0,0,0.06,0.74,0.49,1.07c0.61,0.47,1.32,0.17,1.63-0.02
				c0.08-0.06,0.45-0.3,0.97-0.64c1.82-1.18,5.49-3.57,5.49-3.57c0.83-0.55,0.83-1.57,0.83-1.57V65.17H98.77z"/>
		</defs>
		<use xlink:href="#SVGID_13_"  style="overflow:visible;fill:#666666;"/>
		<clipPath id="SVGID_2_">
			<use xlink:href="#SVGID_13_"  style="overflow:visible;"/>
		</clipPath>
	</g>
</g>
</svg>
