<?xml version="1.0" encoding="utf-8"?>
<!-- Generator: Adobe Illustrator 25.1.0, SVG Export Plug-In . SVG Version: 6.00 Build 0)  -->
<svg version="1.1" id="Layer_1" xmlns="http://www.w3.org/2000/svg" xmlns:xlink="http://www.w3.org/1999/xlink" x="0px" y="0px"
	 viewBox="0 0 161.55 161.55" style="enable-background:new 0 0 161.55 161.55;" xml:space="preserve">
<style type="text/css">
	.st0{fill:#666666;}
	.st1{clip-path:url(#SVGID_2_);}
	.st2{clip-path:url(#SVGID_4_);}
	.st3{clip-path:url(#SVGID_6_);}
	.st4{clip-path:url(#SVGID_8_);}
	.st5{clip-path:url(#SVGID_10_);}
	.st6{clip-path:url(#SVGID_12_);}
	.st7{opacity:0;fill:#666666;}
	.st8{opacity:0;fill:#666666;stroke:#009DE2;stroke-width:0.1121;}
	.st9{opacity:0;}
</style>
<g>
	<g>
		<path class="st7" d="M25.41,68.24c-5.68,0-9.22,4.09-9.22,10.22c0,6.16,3.55,10.22,9.22,10.22c5.67,0,9.23-4.06,9.23-10.22
			C34.64,72.29,31.08,68.24,25.41,68.24z M25.41,87c-4.2,0-5.07-4.57-5.07-8.54c0-3.96,0.87-8.54,5.07-8.54
			c4.21,0,5.07,4.56,5.07,8.54C30.48,82.44,29.61,87,25.41,87z"/>
		<path class="st7" d="M142.4,68.24c-5.68,0-9.22,4.09-9.22,10.22c0,6.16,3.55,10.22,9.22,10.22c5.67,0,9.23-4.06,9.23-10.22
			C151.62,72.29,148.07,68.24,142.4,68.24z M142.4,87c-4.2,0-5.07-4.57-5.07-8.54c0-3.96,0.87-8.54,5.07-8.54
			c4.21,0,5.07,4.56,5.07,8.54C147.46,82.44,146.6,87,142.4,87z"/>
		<path class="st7" d="M39.34,45.54c-5.68,0-9.22,4.09-9.22,10.22c0,6.16,3.55,10.22,9.22,10.22c5.67,0,9.23-4.06,9.23-10.22
			C48.57,49.59,45.01,45.54,39.34,45.54z M39.34,64.3c-4.2,0-5.07-4.57-5.07-8.54c0-3.96,0.87-8.54,5.07-8.54
			c4.21,0,5.07,4.56,5.07,8.54C44.41,59.73,43.54,64.3,39.34,64.3z"/>
		<path class="st7" d="M71.32,88.11c-5.68,0-9.22,4.09-9.22,10.22c0,6.16,3.55,10.22,9.22,10.22c5.67,0,9.23-4.06,9.23-10.22
			C80.55,92.15,76.99,88.11,71.32,88.11z M71.32,106.87c-4.2,0-5.07-4.57-5.07-8.54c0-3.96,0.87-8.54,5.07-8.54
			c4.21,0,5.07,4.56,5.07,8.54C76.39,102.3,75.53,106.87,71.32,106.87z"/>
	</g>
	<g>
		<g>
			<path class="st0" d="M95.59,68.24c-5.68,0-9.22,4.09-9.22,10.22c0,6.16,3.55,10.22,9.22,10.22c5.67,0,9.23-4.06,9.23-10.22
				C104.82,72.29,101.26,68.24,95.59,68.24z M95.6,87c-4.2,0-5.07-4.57-5.07-8.54c0-3.96,0.87-8.54,5.07-8.54
				c4.21,0,5.07,4.56,5.07,8.54C100.66,82.44,99.8,87,95.6,87z"/>
			<path class="st0" d="M62.45,86.44c-0.3,0-5.92,0-5.92,0l0-7.13c1.31,0,3.16,0,3.24,0c1.69,0,2.4,1.92,2.4,1.92h0.4v-5.52h-0.4
				c0,0-0.71,1.92-2.4,1.92c-0.09,0-1.94,0-3.24,0l0-7.15c0,0,5.27,0,5.57,0c1.96,0,2.91,2.61,2.91,2.61h0.39l-0.67-4.28l-13.21,0
				v0.43c0,0,1.26,1.1,1.26,3.22c0,0.06,0,11.94,0,11.99c0,2.13-1.26,3.21-1.26,3.21v0.43h13.56l0.67-4.24h-0.38
				C65.37,83.87,64.24,86.44,62.45,86.44z"/>
			<path class="st0" d="M39.82,88.11v-0.43c0,0-1.26-1.19-1.26-3.22c0-0.27,0-16.81,0-16.81l2.65-0.01c2.26,0,4.35,0.93,4.35,4.96
				c0,3.62-1.85,5.04-4.07,5.04l-1.75,0v0.42c0.83,0.79,2.02,1.25,3.39,1.25c3.75,0,6.57-2.56,6.57-6.68c0-4.03-2.72-6.64-6.57-6.64
				l-9.78,0v0.43c0,0,1.26,1.19,1.26,3.22c0,0.27,0,14.56,0,14.83c0,2.02-1.26,3.22-1.26,3.22v0.43H39.82z"/>
			<path class="st0" d="M68,68.81v0.43c0,0,1.26,1.09,1.26,3.21c0,0.06,0,11.94,0,12c0,2.13-1.26,3.22-1.26,3.22v0.43h6.28v-0.43
				c0,0-1.26-1.09-1.26-3.22c0-0.03,0-10.46,0-13.97h3.09c1.53,0,3.35,0.71,3.35,3.77c0,2.62-1.58,3.79-3.31,3.79h-1.95v0.48
				c0.19,0.52,1.09,0.8,2.28,2.64c1.19,1.84,3.97,6.24,4.41,6.94h5.57v-0.5c0,0-1.4-0.19-2.27-1.52c-0.81-1.24-1.13-1.74-1.95-3.05
				c-1.03-1.64-1.93-3.12-3-3.79l0-0.03c2.56-0.31,4.4-2.29,4.4-5.2c0-3.16-2.04-5.21-5.07-5.21H68z"/>
			<path class="st0" d="M128.34,84.46c0,2.13-1.26,3.22-1.26,3.22v0.43l6.26,0v-0.43c0,0-1.25-1.08-1.25-3.22c0-0.01,0-11.99,0-12
				c0-2.13,1.27-3.21,1.27-3.21v-0.43h-6.28v0.43c0,0,1.26,1.08,1.26,3.21C128.34,72.47,128.34,84.45,128.34,84.46z"/>
			<path class="st0" d="M119.77,88.11h4.31v-0.43c0,0-1.26-1.09-1.26-3.22c0-0.06,0-11.95,0-12c0-2.13,1.26-3.22,1.26-3.22v-0.43
				h-4.24v0.43c0,0,1.26,1.08,1.26,3.22c0,0.02,0,6.6,0,10.62h-0.01L112,68.82l-4.76,0v0.43c0,0,1.26,1.08,1.26,3.21
				c0,0.06,0,11.95,0,12c0,2.13-1.26,3.22-1.26,3.22v0.43h4.24v-0.43c0,0-1.26-1.08-1.26-3.22c0-0.02,0-7.33,0-11.35h0.01
				L119.77,88.11z"/>
		</g>
		<g>
			<path class="st0" d="M63.81,94.28h0.85v5.37h-0.85V94.28z M70.21,94.9h-1.94v-0.62h4.72v0.62h-1.94v4.75h-0.85V94.9z
				 M77.73,94.28h0.9l2.33,5.37h-0.91L79.37,98h-2.44l-0.74,1.64h-0.91L77.73,94.28z M78.19,95.16h-0.02l-0.98,2.22h1.92
				L78.19,95.16z M84.41,94.28h0.85v4.75h3.21v0.62h-4.06V94.28z M92.26,94.28h0.85v5.37h-0.85V94.28z M99.11,94.28h0.9l2.33,5.37
				h-0.91L100.74,98H98.3l-0.74,1.64h-0.91L99.11,94.28z M99.56,95.16h-0.02l-0.98,2.22h1.92L99.56,95.16z"/>
			<path class="st0" d="M63.81,94.28h0.85v5.37h-0.85V94.28z M70.21,94.9h-1.94v-0.62h4.72v0.62h-1.94v4.75h-0.85V94.9z
				 M77.73,94.28h0.9l2.33,5.37h-0.91L79.37,98h-2.44l-0.74,1.64h-0.91L77.73,94.28z M78.19,95.16h-0.02l-0.98,2.22h1.92
				L78.19,95.16z M84.41,94.28h0.85v4.75h3.21v0.62h-4.06V94.28z M92.26,94.28h0.85v5.37h-0.85V94.28z M99.11,94.28h0.9l2.33,5.37
				h-0.91L100.74,98H98.3l-0.74,1.64h-0.91L99.11,94.28z M99.56,95.16h-0.02l-0.98,2.22h1.92L99.56,95.16z"/>
		</g>
	</g>
</g>
</svg>
