<?xml version="1.0" encoding="utf-8"?>
<!-- Generator: Adobe Illustrator 25.1.0, SVG Export Plug-In . SVG Version: 6.00 Build 0)  -->
<svg version="1.1" id="Layer_1" xmlns="http://www.w3.org/2000/svg" xmlns:xlink="http://www.w3.org/1999/xlink" x="0px" y="0px"
	 viewBox="0 0 161.55 97.55" style="enable-background:new 0 0 161.55 97.55;" xml:space="preserve">
<style type="text/css">
	.st0{fill:#666666;}
	.st1{clip-path:url(#SVGID_2_);}
	.st2{clip-path:url(#SVGID_4_);}
	.st3{clip-path:url(#SVGID_6_);}
	.st4{clip-path:url(#SVGID_8_);}
	.st5{clip-path:url(#SVGID_10_);}
	.st6{clip-path:url(#SVGID_12_);}
	.st7{fill:#808080;}
	.st8{opacity:0;fill:#666666;}
	.st9{opacity:0;fill:#666666;stroke:#009DE2;stroke-width:0.1121;}
	.st10{opacity:0;}
</style>
<g>
	<path class="st0" d="M120.9,52.96v-7.74c0-2.74-1.38-3.5-3.05-3.64c-1.53-0.13-2.73,0.65-2.73,1.66c0,0.65,0.56,1.29,0.24,1.88
		c0.53-0.13,0.94-0.57,1.01-1.12c0.11-0.61,0.21-1.59,1.13-1.51c1.1,0.09,1.38,1.16,1.38,2.56l0-0.08c0,1.57-1.68,2.53-3.24,2.48
		c-0.75,1.2-1.11,2.6-1.03,4.01c0,1.45,0.41,3.6,1.86,4.25h0.05c0.9-0.37,1.75-0.86,2.53-1.45c0.29,0.74,0.83,1.35,1.53,1.73
		c0.75-0.47,1.6-1.15,1.63-1.13C121.06,54.49,120.9,52.96,120.9,52.96z M118.88,50.54v2.4c0,0.69-0.41,1.29-1.03,1.24
		c-0.78-0.07-1.13-1.58-1.13-3.29c-0.02-0.8,0.11-1.6,0.39-2.35c0.44-0.89,1.25-1.12,1.77-1.96L118.88,50.54z"/>
	<path class="st0" d="M99.07,40.91l-0.02-0.02v0.01l-0.73-0.39c-2.68,0.82-3.7,2.25-4.04,4.96l-0.04,0.28
		c0.01,0.67-0.29,1.31-0.82,1.72c0.54,0.51,0.82,1.24,0.76,1.98c0.25,4.19,1.48,4.73,2.72,5.13c3.14-0.88,3.74-3.58,3.74-7.56
		C100.64,43.75,100.14,41.64,99.07,40.91z M97.5,53.27c-0.5-0.01-1.31-0.72-1.31-6.69c0-2.89,0.43-4.14,0.98-4.67
		c0.91,0.1,1.39,1.65,1.39,4.91C98.56,51.32,98.2,53.29,97.5,53.27z"/>
	<path class="st0" d="M129.7,50.08c-0.53-0.41-0.82-1.07-0.75-1.74v-2.59c0.05-0.76-0.1-1.52-0.44-2.2c-0.42-0.7-1.19-1.12-2-1.09
		c-0.43,0.42-0.93,0.78-1.46,1.06c-0.09-0.41-0.25-0.8-0.48-1.14l-0.21-0.08c-0.18,0.05-1.22,0.41-1.62,0.52l-0.05,0.22
		c0.2,0.39,0.35,0.79,0.46,1.21v9.41c0.08,0.72-0.11,1.45-0.53,2.05c-0.13,0.15-0.19,0.18,0.2,0.21c0.88,0.1,1.76,0.2,2.64,0.31
		c0.36,0.05,0.36,0.05,0.22-0.13c-0.41-0.65-0.61-1.41-0.55-2.18v-9.53c0.25-0.3,0.59-0.51,0.97-0.58c0.58,0.18,0.96,0.75,0.91,1.36
		v8.88c-0.04,0.83,0.09,1.66,0.39,2.43c0.16,0.39,0.42,0.74,0.74,1.01l1.32,1.28l0.04-0.09c-0.4-1.08-0.58-2.22-0.56-3.37v-3.77
		C128.99,50.89,129.04,50.43,129.7,50.08z"/>
	<path class="st0" d="M104.86,54.44c-0.42-0.64-0.62-1.4-0.55-2.16c0-1.71,0-3.42,0-5.13c-0.04-1.06,0.04-2.13,0.24-3.17
		c0.32-1.04,0.85-1.53,1.34-1.25c0.36,0.28,0.5,0.77,0.35,1.2l-0.03,0.29l0.36-0.38c0.46-0.52,1.31-1.38,1.06-2.17
		c-0.28-0.71-1.08-1.07-1.79-0.79c0,0-0.01,0-0.01,0c-0.39,0.61-1.27,1.75-1.52,2.23v-2.07l-0.15-0.16l-2.28,0.62l-0.03,0.23
		c0.4,0.58,0.57,1.29,0.46,1.98c0,1.21-0.04,5.45-0.02,8.47c0.1,0.74-0.08,1.5-0.52,2.11l0.06,0.17c0.44,0.01,0.44,0.02,2.86,0.13
		C105.06,54.62,105,54.62,104.86,54.44z"/>
	<path class="st0" d="M113.28,52.2c0-1.87,0-5.28,0.01-7.85v0.01c-0.01-0.61,0.08-1.21,0.27-1.79c-0.43-0.33-0.87-0.65-1.32-0.98
		l-0.03-0.02l-0.04-0.03l0.01,0.01l-0.73-0.41c-2.69,0.52-3.8,2.13-4.15,4.87v-0.04l0,0.08l-0.05,0.36
		c-0.04,0.62-0.37,1.19-0.88,1.53c0.56,0.51,0.87,1.25,0.84,2.01v-0.01c0.17,4.13,1.06,4.49,2.18,5.01
		c0.72-0.28,1.38-0.69,1.95-1.21l0.06,0.05c0.08,1.14,0.75,1.91,0.75,2.89c0.06,0.46-0.26,0.89-0.72,0.95
		c-0.1,0.01-0.2,0.01-0.29-0.01c-0.62-0.19-1.22-0.46-1.78-0.8c-0.82-0.45-1.8-0.54-2.69-0.23c-0.47,0.18-0.91,0.41-1.33,0.69
		c-0.06,0.03-0.63,0.45-0.26,0.29c1.82-0.79,2.93,0.71,4.67,0.94c2.31,0.31,4.02-1.26,4.02-2.75c0-0.93-0.46-1.66-0.46-2.79
		L113.28,52.2z M111.32,51.87c0,1.19-0.34,1.95-0.89,1.77c-0.49-0.15-1.23-0.58-1.23-6.56c0-2.87,0.35-4.09,0.9-4.61
		c0.7,0.11,1.21,0.71,1.22,1.42V51.87z"/>
	<path class="st0" d="M91.31,38.24c-0.14-0.71,0.03-1.44,0.46-2.01l-0.04-0.16c-0.41,0-2.72-0.08-2.72-0.08l-0.26,0.18
		c-0.64,3.44-1.28,6.88-1.92,10.32c-0.43-3.45-0.86-6.9-1.3-10.34l-0.26-0.21c-0.59-0.01-2.5-0.02-2.88-0.02l-0.17,0.02
		c-0.82,0.01-1.65,0.1-2.45,0.27c-1.77,0.42-2.04,1.27-1.86,1.84c0.26,0.77,1.81,0.64,2.24,0.29c-0.94-0.43-0.81-1.37,0.66-1.77
		c0.58-0.14,1.17-0.21,1.76-0.2c0.36,0.58,0.49,1.27,0.37,1.94c-0.02,0.25-0.03,0.31-0.77,4.43c-0.08,0.82-0.56,1.55-1.29,1.95
		c0.51,0.6,0.72,1.4,0.56,2.18l-0.14,0.73c-0.59,3.45-1.07,10.35-6.02,11.18c1.12,0.3,2.32,0.1,3.28-0.56
		c1.93-1.12,3.24-3.05,3.57-5.25c0.09-0.39,2-11.6,2-11.6c0.57,4.33,1.12,8.65,1.68,12.98l0.11,0.14c0.34,0,0.67,0.01,1.01,0.02
		l0.13-0.11c0.81-4.32,1.61-8.67,2.43-13.01c0.35,3.68,0.68,7.37,1.01,11.04c0.05,0.71,0.23,1.4,0.54,2.04l0.31,0.17
		c0.73,0.01,1.45,0.03,2.19,0.05l0.06-0.21c-0.6-0.67-0.94-1.54-0.96-2.44C92.61,51.7,91.36,38.79,91.31,38.24z"/>
	<path class="st0" d="M66.32,39.57c1.06-0.38,1.62-1.54,1.25-2.61c-0.14-0.4-0.41-0.75-0.76-1c-0.48,0.42-0.97,0.85-1.45,1.27
		C65.35,37.89,66.56,38.59,66.32,39.57z"/>
	<path class="st0" d="M37.82,58.72c-1.78-0.76-3.26-2.09-4.19-3.79c-1.2-2.42-1.78-5.1-1.68-7.8c-0.05-2.05,0.18-4.1,0.69-6.08
		c0.27-0.92,0.8-2.06,1.75-2.17c0.45-0.13,0.91,0.14,1.04,0.58c0.03,0.11,0.04,0.23,0.02,0.35c-0.16,0.77-0.46,1.5-0.88,2.16
		c-0.35,0.56-0.4,1.24-0.15,1.85c0-0.7,0.93-1.7,1.45-2.2c0.79-0.58,1.33-1.45,1.49-2.43c0-1.06-0.85-1.71-2.71-1.49
		c-1.33,0.2-2.52,0.95-3.29,2.07c-1.07,1.62-1.69,3.48-1.82,5.42c-0.03,0.92-0.35,1.8-0.93,2.51c0.63,0.51,0.99,1.27,0.99,2.08
		l0.01,0.03l0.01,0.01c0.25,1.81,0.84,3.55,1.76,5.12c1.4,2.35,3.71,4.01,6.38,4.61l0.4-0.17l-0.01-0.33L37.82,58.72z"/>
	<path class="st0" d="M42.74,52.92c0,0,0.01-6.71,0.01-7.78c0-2.76-1.39-3.27-3.07-3.11c-1.54,0.15-2.74,1.15-2.74,2.16
		c0,0.65,0.57,1.2,0.24,1.85c0.55-0.23,0.93-0.73,1.01-1.31c0.11-0.62,0.2-1.63,1.14-1.72c1.11-0.1,1.38,0.92,1.38,2.33v0.01
		l-0.02-0.08c0,1.57-1.67,2.83-3.25,3.07c-0.73,1.28-1.09,2.74-1.03,4.21c0,1.47,0.41,3.43,1.87,3.82l0.04-0.02
		c0.91-0.51,1.76-1.1,2.54-1.78c0.27,0.69,0.83,1.22,1.53,1.46c0.76-0.61,1.61-1.45,1.65-1.43C42.89,54.44,42.74,52.92,42.74,52.92z
		 M40.71,50.84v2.42c0.06,0.67-0.38,1.28-1.03,1.44c-0.79,0.07-1.13-1.38-1.13-3.11c-0.01-0.83,0.12-1.65,0.39-2.43
		c0.44-0.98,1.26-1.36,1.78-2.29C40.71,48.27,40.71,50.05,40.71,50.84z"/>
	<path class="st0" d="M76.46,54.28c-0.43-0.66-0.63-1.45-0.58-2.23c0-0.38,0.01-7.81,0.01-8.64c0.05-0.75-0.12-1.49-0.48-2.15
		c-0.48-0.65-1.29-0.96-2.07-0.79c-0.44,0.48-0.94,0.91-1.48,1.27c-0.09-0.39-0.25-0.77-0.49-1.09l-0.21-0.04
		c-0.19,0.07-1.25,0.57-1.65,0.74l-0.04,0.23c0.2,0.36,0.35,0.75,0.45,1.16v9.46c0.07,0.75-0.12,1.5-0.53,2.13
		c-0.14,0.17-0.2,0.21,0.21,0.19c0.88-0.02,1.78-0.03,2.68-0.04c0.36-0.01,0.36-0.01,0.22-0.17c-0.43-0.61-0.63-1.36-0.57-2.11
		c0-3.19,0-6.39,0-9.58c0.25-0.33,0.59-0.59,0.99-0.72c0.59,0.1,0.99,0.64,0.92,1.24v8.92c-0.08,0.72,0.06,1.44,0.4,2.08
		c0.17,0.24,0.45,0.37,0.74,0.33l1.43-0.02L76.46,54.28z"/>
	<path class="st0" d="M67.62,52.25c0-3.85,0.01-7.69,0.01-11.54l-0.17-0.18l-2.25,0.76l-0.05,0.19c0.39,0.56,0.56,1.26,0.46,1.94
		c0,0.12,0.01,0.79,0.01,1.71c0.06,0.79-0.27,1.56-0.89,2.07c0.58,0.46,0.9,1.17,0.89,1.9c0,1.62-0.01,3-0.01,3.17
		c0.07,0.74-0.12,1.49-0.52,2.12c-0.14,0.18-0.21,0.23,0.18,0.2c0.91-0.02,1.83-0.04,2.75-0.05c0.4,0.01,0.24-0.03,0.12-0.21
		C67.75,53.71,67.56,52.98,67.62,52.25z"/>
	<path class="st0" d="M48.85,41.36c-0.72,0.38-1.38,0.88-1.95,1.47c0,0-0.69-0.81-0.69-1.3c-0.63,0.52-1.27,1.03-1.9,1.55
		c0.41,0.51,0.63,1.15,0.61,1.8v3.41l-0.02,0.11v4.75c-0.03,0.47-0.11,0.94-0.26,1.39l0.26,0.16v2.18c0.09,0.69-0.07,1.4-0.46,1.98
		l0.05,0.18l2.24,0.56l0.17,0.03l-0.01-0.44v-3.55c3.29-1.12,4.17-3.57,4.17-7.74C51.06,42.25,50.11,41.82,48.85,41.36z M47.9,54.4
		c-0.6-0.02-1.01-0.71-1.01-1.51V44.7c0-1.2,0.46-1.97,1.03-1.86c0.49,0.1,1.11,0.57,1.11,6.59C49.03,52.32,48.64,53.81,47.9,54.4z"
		/>
	<path class="st0" d="M56.23,42.13l0.33-0.24l0.4-0.56l0.07-0.28c-0.64,0.03-1.3,0.05-1.93,0.08c0-1.27,0.01-2.41,0.01-2.54
		c0.01-0.5-0.1-0.45-0.33-0.11c-0.27,0.38-0.56,0.87-1.24,1.81c-0.88,1.21-1.13,1.54-1.36,1.82l0.15,0.2l0.76-0.04v3.3
		c0.04,0.8-0.28,1.58-0.89,2.11c0.58,0.45,0.91,1.15,0.89,1.89v3.21c0,0.91,0.4,2.3,1.59,2.61c0.69-0.47,1.42-1.04,1.67-1.21
		l0.02-0.2c-0.83-0.31-1.35-1.13-1.29-2.01c0-0.38,0-5.83,0.02-9.78C55.45,42.17,56.06,42.15,56.23,42.13z"/>
	<path class="st0" d="M63.28,51.88c0,0,0.01-6.71,0.01-7.79c0-2.76-1.39-3.34-3.08-3.27c-1.55,0.05-2.76,0.97-2.76,1.98
		c0,0.66,0.57,1.23,0.24,1.87c0.54-0.19,0.94-0.67,1.03-1.24c0.1-0.62,0.21-1.62,1.14-1.65c1.11-0.04,1.39,0.99,1.39,2.41
		l-0.01-0.07c0,1.57-1.68,2.74-3.26,2.87c-0.74,1.25-1.1,2.69-1.03,4.15c0,1.46,0.41,3.46,1.87,3.93l0.04,0
		c0.91-0.45,1.76-1,2.55-1.64c0.28,0.7,0.84,1.26,1.55,1.54c0.76-0.57,1.62-1.36,1.65-1.34C63.43,53.4,63.28,51.88,63.28,51.88z
		 M61.24,49.69v2.41c0.07,0.66-0.39,1.26-1.04,1.38c-0.78,0.02-1.13-1.45-1.13-3.18c-0.02-0.82,0.12-1.63,0.39-2.4
		c0.44-0.95,1.26-1.28,1.78-2.19C61.24,47.12,61.24,48.89,61.24,49.69z"/>
	<path class="st0" d="M131.89,42.59L131.89,42.59l0.29-0.37l-0.13-0.3l-0.47-0.11l-0.41,0.04v1.47h0.24v-0.63h0.16l0.31,0.26
		l0.1,0.37h0.24l-0.08-0.37L131.89,42.59z M131.58,42.49h-0.16V42l0.16-0.02l0.36,0.26L131.58,42.49z"/>
	<path class="st0" d="M131.66,41.22L131.66,41.22c-0.74,0.01-1.33,0.62-1.31,1.35c0.01,0.72,0.59,1.29,1.3,1.3
		c0.73-0.02,1.31-0.63,1.29-1.36C132.93,41.81,132.37,41.24,131.66,41.22z M131.66,43.67c-0.62-0.03-1.1-0.56-1.06-1.17
		c0.03-0.57,0.48-1.03,1.06-1.06h0.01c0.62,0.04,1.09,0.57,1.05,1.19C132.68,43.18,132.23,43.63,131.66,43.67z"/>
</g>
</svg>
