<?xml version="1.0" encoding="utf-8"?>
<!-- Generator: Adobe Illustrator 25.1.0, SVG Export Plug-In . SVG Version: 6.00 Build 0)  -->
<svg version="1.1" id="Layer_1" xmlns="http://www.w3.org/2000/svg" xmlns:xlink="http://www.w3.org/1999/xlink" x="0px" y="0px"
	 viewBox="0 0 161.55 161.55" style="enable-background:new 0 0 161.55 161.55;" xml:space="preserve">
<style type="text/css">
	.st0{fill:#666666;}
	.st1{clip-path:url(#SVGID_2_);}
	.st2{clip-path:url(#SVGID_4_);}
	.st3{clip-path:url(#SVGID_6_);}
	.st4{clip-path:url(#SVGID_8_);}
	.st5{clip-path:url(#SVGID_10_);}
	.st6{clip-path:url(#SVGID_12_);}
	.st7{opacity:0;fill:#666666;}
	.st8{opacity:0;fill:#666666;stroke:#009DE2;stroke-width:0.1121;}
	.st9{opacity:0;}
</style>
<g>
	<path class="st0" d="M76.66,74.57h-0.03c-0.46,0.01-1.28,0.03-1.74,0.04v4.48c0,0,1.23-1.25,1.74-1.77
		c0.27-0.23,0.41-0.58,0.39-0.94v-1.51C77.01,74.67,76.97,74.57,76.66,74.57z"/>
	<path class="st0" d="M94.91,82.66c0.47,0.04,1.29,0.1,1.76,0.14h0.03c0.05,0,0.1-0.02,0.14-0.06c0.04-0.03,0.06-0.08,0.06-0.14
		v-7.15c-0.01-0.13-0.11-0.23-0.24-0.24c-0.47-0.04-1.29-0.11-1.76-0.15h-0.02c-0.11,0-0.21,0.08-0.21,0.2v7.15
		C94.69,82.55,94.79,82.65,94.91,82.66z"/>
	<path class="st0" d="M38.43,73.5v19.33c27.59-6.36,56.26-6.36,83.84,0V73.5C94.68,67.14,66.01,67.14,38.43,73.5z M51.67,84.79
		c0,0.43-0.14,0.85-0.41,1.2c-0.23,0.3-0.56,0.51-0.94,0.59c-1.39,0.23-2.11,0.35-3.53,0.62c-0.07,0.01-0.14,0.02-0.21,0.02
		c-0.29,0-0.56-0.11-0.77-0.3c-0.29-0.29-0.44-0.69-0.43-1.09v-1.56l0,0c0.05-0.01,2.08-0.39,2.12-0.4v0.86
		c0,0.28,0.04,0.33,0.17,0.33c0.04,0,1.55-0.26,1.57-0.27c0.18-0.04,0.26-0.1,0.26-0.43V82.2c0-0.28-0.18-0.28-0.24-0.28h-0.01
		l-0.08,0.01c-0.05,0.01-2.38,0.42-2.38,0.42c-0.08,0.02-0.16,0.02-0.25,0.02c-0.29,0.01-0.57-0.1-0.78-0.3
		c-0.25-0.25-0.38-0.58-0.37-0.93v-3.69c-0.01-0.89,0.62-1.65,1.49-1.81c1.07-0.2,2.15-0.39,3.24-0.57
		c0.08-0.01,0.16-0.02,0.24-0.02c0.32-0.01,0.63,0.1,0.87,0.31c0.29,0.28,0.45,0.67,0.43,1.07v1.59c-0.72,0.11-1.43,0.23-2.15,0.35
		v-1.01c0-0.1-0.08-0.18-0.18-0.18c0,0-0.01,0-0.01,0c-0.01,0-0.02,0-0.04,0c-0.4,0.07-1.15,0.2-1.55,0.27
		c-0.13,0.03-0.23,0.14-0.24,0.27v2.12c0,0.25,0.06,0.29,0.19,0.29c0.03,0,0.05,0,0.08-0.01c0,0,1.72-0.29,2.47-0.42
		c0.06-0.01,0.12-0.01,0.18-0.01c0.29-0.01,0.56,0.09,0.79,0.26c0.31,0.27,0.48,0.68,0.45,1.09L51.67,84.79z M65.04,84.75
		c-0.66,0.06-1.33,0.12-2,0.18l-0.11,0.01l-1.18-6.9l-1.18,7.14l-0.09,0.01c-0.66,0.07-1.33,0.15-1.99,0.23l-0.12,0.01l-1.18-6.87
		L56,85.74l-0.09,0.01c-0.66,0.09-1.32,0.18-1.99,0.28l-0.17,0.02l0.03-0.17c0.76-3.87,1.52-7.74,2.28-11.61l0.02-0.09l0.09-0.01
		c0.66-0.09,1.33-0.17,1.99-0.25l0.12-0.01l1.18,6.81l1.19-7.08l0.09-0.01c0.67-0.07,1.33-0.14,2-0.2l0.11-0.01l2.34,11.33
		L65.04,84.75z M69.64,84.43l-0.12,0.01c-0.66,0.04-1.31,0.08-1.97,0.13l-0.13,0.01V73.03l0.11-0.01c0.66-0.05,1.32-0.09,1.97-0.13
		l0.13-0.01V84.43z M79.89,84.1c-0.73,0-1.47,0.01-2.2,0.02l-0.08,0l-0.03-0.08c-0.48-1.21-0.96-2.42-1.45-3.63
		c-0.42,0.39-0.84,0.77-1.27,1.16v2.62l-0.12,0c-0.66,0.02-1.32,0.04-1.97,0.07l-0.13,0.01V72.75l0.12-0.01
		c1.72-0.07,3.08-0.12,4.76-0.14c0.85-0.07,1.59,0.57,1.66,1.42c0,0.05,0.01,0.09,0,0.14v2.44c0.06,0.52-0.14,1.04-0.53,1.39
		l-0.89,0.87c0.75,1.68,1.5,3.37,2.25,5.07l0.08,0.17L79.89,84.1z M116.23,87.12c0,0.53-0.43,0.96-0.96,0.96s-0.96-0.43-0.96-0.96
		c0-0.53,0.43-0.96,0.96-0.96C115.8,86.16,116.23,86.59,116.23,87.12L116.23,87.12z M109.87,74.86l0.14,0.02
		c1.72,0.27,3.47,0.58,5.2,0.9l0.1,0.02v1.99l-0.14-0.03c-1-0.19-2.04-0.37-3.1-0.56v2.71c0.79,0.14,1.58,0.28,2.38,0.42l0.1,0.02
		v1.99l-0.14-0.03c-0.78-0.14-1.55-0.28-2.33-0.42v4.87l-0.14-0.02c-0.65-0.11-1.3-0.22-1.95-0.32l-0.1-0.02V74.86z M101.95,73.78
		l0.14,0.02c1.74,0.2,3.49,0.43,5.22,0.68l0.11,0.02v1.98l-0.14-0.02c-1.04-0.15-2.09-0.29-3.12-0.42v2.7
		c0.79,0.1,1.59,0.21,2.39,0.32l0.11,0.01v1.99l-0.14-0.02c-0.78-0.11-1.57-0.22-2.35-0.31v4.86l-0.14-0.01
		c-0.65-0.08-1.3-0.16-1.96-0.24l-0.11-0.01L101.95,73.78z M92.41,74.55c-0.05-0.77,0.53-1.44,1.3-1.49c0.05,0,0.11,0,0.16,0h0.04
		c1.22,0.09,2.43,0.19,3.62,0.3c0.86,0.06,1.52,0.8,1.49,1.66v8.39c0.01,0.39-0.13,0.77-0.39,1.06c-0.28,0.27-0.65,0.42-1.04,0.41
		c-0.06,0-0.12,0-0.18-0.01c-1.4-0.13-2.1-0.19-3.47-0.28c-0.87-0.02-1.56-0.74-1.54-1.61c0-0.01,0-0.02,0-0.02L92.41,74.55z
		 M82.53,72.57l0.12,0c0.74,0.01,1.48,0.02,2.22,0.04h0.08l0.03,0.08c0.84,2.28,1.68,4.56,2.52,6.85v-6.85l0.12,0
		c0.62,0.02,1.24,0.05,1.86,0.08l0.12,0v11.54l-0.13-0.01c-0.75-0.04-1.51-0.07-2.26-0.09l-0.08,0l-0.03-0.08
		c-0.82-2.28-1.65-4.55-2.47-6.82v6.82l-0.12,0c-0.62-0.01-1.24-0.02-1.86-0.03h-0.12L82.53,72.57z"/>
	<path class="st0" d="M114.5,87.12c0,0.42,0.34,0.77,0.77,0.77c0.42,0,0.77-0.34,0.77-0.77s-0.34-0.77-0.77-0.77c0,0,0,0,0,0
		C114.85,86.36,114.51,86.7,114.5,87.12z M115.66,86.87c0.01,0.14-0.07,0.26-0.2,0.31l0.26,0.41h-0.28l-0.23-0.37h-0.09v0.37h-0.26
		v-1h0.43C115.58,86.58,115.66,86.75,115.66,86.87z"/>
	<path class="st0" d="M115.28,87.03c0.02,0,0.05-0.01,0.07-0.03c0.01-0.01,0.03-0.03,0.04-0.04c0.01-0.02,0.01-0.05,0.01-0.07
		c0-0.02,0-0.05-0.01-0.07c-0.01-0.02-0.03-0.03-0.05-0.04c-0.02-0.01-0.04-0.01-0.05-0.01c-0.02,0-0.05-0.01-0.07,0h-0.09v0.27
		h0.08C115.22,87.04,115.25,87.04,115.28,87.03z"/>
</g>
</svg>
