<?xml version="1.0" encoding="utf-8"?>
<!-- Generator: Adobe Illustrator 25.1.0, SVG Export Plug-In . SVG Version: 6.00 Build 0)  -->
<svg version="1.1" id="Layer_1" xmlns="http://www.w3.org/2000/svg" xmlns:xlink="http://www.w3.org/1999/xlink" x="0px" y="0px"
	 viewBox="0 0 161.55 97.55" style="enable-background:new 0 0 161.55 97.55;" xml:space="preserve">
<style type="text/css">
	.st0{fill:#666666;}
	.st1{clip-path:url(#SVGID_2_);}
	.st2{clip-path:url(#SVGID_4_);}
	.st3{clip-path:url(#SVGID_6_);}
	.st4{clip-path:url(#SVGID_8_);}
	.st5{clip-path:url(#SVGID_10_);}
	.st6{clip-path:url(#SVGID_12_);}
	.st7{fill:#808080;}
	.st8{opacity:0;fill:#666666;}
	.st9{opacity:0;fill:#666666;stroke:#009DE2;stroke-width:0.1121;}
	.st10{opacity:0;}
</style>
<g>
	<path class="st0" d="M125.55,56.15c-0.4-0.01-0.72-0.34-0.71-0.75c0.01-0.4,0.34-0.72,0.75-0.71c0.39,0.01,0.71,0.33,0.71,0.72
		C126.29,55.83,125.95,56.16,125.55,56.15 M125.55,54.52c-0.5,0.01-0.9,0.43-0.89,0.93s0.43,0.9,0.93,0.89
		c0.5-0.01,0.89-0.42,0.89-0.92C126.46,54.92,126.05,54.52,125.55,54.52"/>
	<path class="st0" d="M72.08,49.14c-0.06-0.01-0.12,0-0.18,0.03v-0.28c0.06,0.01,0.11,0.02,0.17,0.02h0.24
		c0.06,0,0.12-0.01,0.17-0.02v0.28c-0.05-0.02-0.11-0.03-0.17-0.03H72.08"/>
	<path class="st0" d="M125.5,55.36h-0.16v-0.28h0.25c0.12,0,0.22,0.02,0.22,0.14C125.82,55.38,125.63,55.36,125.5,55.36
		 M125.96,55.21c0-0.08-0.04-0.15-0.1-0.2c-0.07-0.03-0.15-0.05-0.23-0.04h-0.42v0.93h0.14v-0.43h0.17l0.27,0.43h0.16l-0.29-0.43
		C125.83,55.47,125.96,55.4,125.96,55.21"/>
	<path class="st0" d="M48.57,61.18l-4.41,0v0.33c0,0,1.13,0.12,1.13,2.1v5.51l-0.02,0.01c-0.66,0.4-1.45,0.55-2.21,0.41
		c-2.67-0.37-4.38-3.45-4.56-8.05c-0.13-3.12,0.5-5.5,1.83-6.88c0.93-0.98,2.26-1.48,3.6-1.37c1.03,0.13,1.98,0.64,2.65,1.43
		c0,0,0.01,0.01,0.01,0.01c0.35,0.45,0.61,0.96,0.76,1.51h0.31v-0.01h0.01v-3.82l-0.01-0.14H47.4c0,0-0.03,0.1-0.74-0.04l0-0.01
		c-0.09-0.02-0.18-0.04-0.27-0.06c-0.98-0.26-1.99-0.41-3.01-0.43c-2.17-0.11-4.28,0.74-5.77,2.31c-1.8,2.12-2.69,4.85-2.51,7.62
		c-0.04,2.48,0.73,4.91,2.19,6.92c1.37,1.76,3.49,2.77,5.72,2.72c1.76-0.05,3.48-0.52,5.01-1.38c0,0,0.34-0.16,0.4-0.2
		c0-0.07-0.01-6.67-0.01-6.67c0-0.15,0-0.29,0.01-0.4c0.03-0.98,0.15-1.1,0.15-1.1L48.57,61.18L48.57,61.18L48.57,61.18"/>
	<path class="st0" d="M58.45,54.94v0.32c0.19,0.07,0.36,0.21,0.45,0.4c0.03,0.07,0.06,0.13,0.08,0.2c0.11,0.28,0.16,0.58,0.18,0.88
		v8.76c0.1,0.93-0.12,1.86-0.63,2.65c-0.46,0.58-1.17,0.9-1.91,0.87c-0.73,0.05-1.44-0.26-1.89-0.84c-0.54-0.8-0.77-1.77-0.65-2.72
		V54.94l-3.77,0v0.32c0.18,0.06,0.34,0.19,0.43,0.35c0.04,0.08,0.07,0.16,0.1,0.24c0.13,0.33,0.19,0.69,0.18,1.05v8.63
		c0,1.99,0.36,3.15,1.22,4.1c1.02,0.99,2.41,1.5,3.83,1.42c1.34,0.04,2.64-0.51,3.54-1.5c0.89-1.13,1.14-2.31,1.14-4.57V54.94H58.45
		"/>
	<path class="st0" d="M110.65,61.59c-0.84-0.59-1.46-1-1.95-1.4c-0.79-0.63-1.44-1.22-1.42-2.22c0.02-1.01,0.88-1.93,2.52-1.76
		c0.61,0.06,1.2,0.28,1.69,0.66c0.05,0.04,0.1,0.08,0.16,0.12c0.02,0.02,0.04,0.03,0.06,0.05c0.05,0.04,0.1,0.09,0.14,0.14
		c0.28,0.3,0.47,0.67,0.54,1.07h0.31v-3.06c-1.1-0.23-2.22-0.39-3.34-0.48c-2.88-0.08-4.71,1.68-4.6,4.35
		c0.01,0.93,0.33,1.83,0.91,2.55c0.69,0.79,1.5,1.47,2.39,2.02c0.98,0.5,1.85,1.19,2.56,2.03c0.42,0.63,0.6,1.39,0.49,2.14
		c-0.33,1.17-1.53,1.87-2.71,1.6c-1.15-0.07-2.2-0.66-2.87-1.6c-0.2-0.27-0.33-0.59-0.37-0.93h-0.32v3.43
		c0.4,0.07,1.07,0.25,1.33,0.33c0.76,0.23,1.54,0.37,2.33,0.4c3.32,0.18,5.26-1.78,5.32-4.39C113.87,64.3,113.05,63.26,110.65,61.59
		"/>
	<path class="st0" d="M120.67,61.59c-0.84-0.59-1.45-1-1.95-1.4c-0.8-0.63-1.44-1.22-1.41-2.22c0.02-1.01,0.88-1.93,2.52-1.76
		c0.61,0.06,1.2,0.28,1.69,0.66c0.05,0.04,0.1,0.08,0.15,0.12c0.02,0.01,0.04,0.03,0.06,0.05c0.05,0.04,0.1,0.09,0.15,0.14
		c0.28,0.3,0.46,0.67,0.53,1.07h0.32v-3.06c-1.1-0.23-2.21-0.39-3.33-0.48c-2.88-0.08-4.71,1.68-4.61,4.35
		c0.01,0.93,0.34,1.83,0.92,2.55c0.69,0.79,1.5,1.47,2.39,2.02c0.98,0.5,1.85,1.19,2.56,2.03c0.42,0.63,0.59,1.39,0.48,2.14
		c-0.33,1.17-1.53,1.87-2.71,1.6c-1.15-0.07-2.2-0.66-2.86-1.6c-0.2-0.27-0.33-0.59-0.38-0.93h-0.32v3.43
		c0.4,0.07,1.07,0.25,1.33,0.33c0.76,0.23,1.54,0.37,2.33,0.4c3.32,0.18,5.27-1.78,5.32-4.39C123.9,64.3,123.07,63.26,120.67,61.59"
		/>
	<path class="st0" d="M66.45,69.64c-0.01-0.19-0.02-0.39-0.02-0.61V54.94h-3.73v0.31c0.19,0.07,0.35,0.21,0.45,0.4
		c0.04,0.06,0.06,0.13,0.09,0.2c0.12,0.34,0.18,0.69,0.18,1.05v12.41c-0.03,1.06-0.16,1.19-0.16,1.19v0.31h3.44V70.5
		C66.69,70.5,66.52,70.4,66.45,69.64"/>
	<path class="st0" d="M70.77,69.85c-0.04-0.32-0.05-0.64-0.05-0.96v-7.68l-1.62-2.87v11.01c-0.03,1.02-0.16,1.15-0.16,1.15v0.32
		h2.04V70.5C70.98,70.5,70.85,70.42,70.77,69.85"/>
	<path class="st0" d="M77.06,54.95v0.31c0,0,0.55,0.15,0.61,1.35v8.6c-0.87-1.65-1.9-3.55-2.92-5.46c-0.8-1.52-1.8-3.32-2.69-4.8
		h-4.04v0.33c0,0,0.58,0.08,1.22,1.18c0.99,1.76,8.11,14.36,8.11,14.36h1.93V54.94L77.06,54.95"/>
	<path class="st0" d="M83.66,69.85c-0.03-0.29-0.05-0.61-0.05-0.96v-7.68l-1.62-2.87v10.74c0,0.09,0,0.16,0,0.24
		c-0.03,1.05-0.15,1.18-0.15,1.18v0.32h2.04V70.5C83.88,70.5,83.74,70.42,83.66,69.85"/>
	<path class="st0" d="M89.95,54.95v0.31c0,0,0.54,0.15,0.61,1.35v8.6c-0.87-1.65-1.9-3.55-2.92-5.46c-0.81-1.52-1.81-3.32-2.69-4.8
		h-4.04v0.33c0,0,0.58,0.08,1.22,1.18c0.99,1.76,8.12,14.36,8.12,14.36h1.93V54.94L89.95,54.95"/>
	<path class="st0" d="M102.97,68.35h-0.32c-0.12,0.34-0.4,0.59-0.75,0.66c-0.05,0.01-0.1,0.03-0.14,0.04
		c-0.02,0-0.03,0.01-0.05,0.01c-0.18,0.03-0.36,0.05-0.54,0.05l-3.28,0.01v-5.56h2.84c1.11,0.02,1.24,0.16,1.24,0.16h0.32v-2.09
		h-0.32c0,0-0.14,0.31-1.32,0.35h-2.76V56.6h3.26c1.14,0.08,1.28,0.6,1.28,0.6h0.31l0-2.25h-8.58v0.25c0.17,0.08,0.31,0.2,0.41,0.36
		c0.09,0.19,0.17,0.38,0.22,0.58c0.05,0.22,0.08,0.45,0.07,0.68l0,0v12.27c0,0.09,0,0.17,0,0.25c-0.03,1.03-0.15,1.16-0.15,1.16
		v0.31h8.26V68.35v0.01V68.35"/>
	<path class="st0" d="M64.75,47.23c0-0.1,0-0.21-0.03-0.31h1.23v0.28c-0.07-0.02-0.15-0.04-0.22-0.04h-0.54v0.7h0.37
		c0.08,0,0.15-0.01,0.22-0.03v0.28c-0.07-0.02-0.15-0.03-0.22-0.03h-0.37v0.81h0.57c0.08,0,0.16-0.01,0.24-0.04v0.28h-1.28
		c0.03-0.11,0.04-0.23,0.03-0.35V47.23"/>
	<path class="st0" d="M67.63,47.06c-0.2-0.05-0.4,0.07-0.45,0.26c0,0.01,0,0.01,0,0.02c-0.02,0.22,0.17,0.32,0.47,0.43
		c0.42,0.17,0.58,0.37,0.58,0.66c0.01,0.4-0.31,0.73-0.71,0.73c-0.04,0-0.08,0-0.12-0.01c-0.19-0.01-0.37-0.06-0.53-0.16v-0.42
		c0.12,0.21,0.34,0.34,0.58,0.36c0.18,0.03,0.36-0.08,0.41-0.26c0.06-0.22-0.1-0.38-0.46-0.53c-0.13-0.05-0.25-0.12-0.36-0.2
		c-0.16-0.15-0.22-0.36-0.18-0.57c0.07-0.32,0.36-0.55,0.69-0.53c0.18-0.01,0.35,0.03,0.52,0.11v0.38
		C67.96,47.21,67.81,47.1,67.63,47.06"/>
	<path class="st0" d="M69.49,47.16h-0.43c-0.07-0.01-0.13,0.01-0.19,0.04v-0.28h1.67v0.28c-0.06-0.03-0.13-0.04-0.2-0.04h-0.41v1.77
		c0,0.07,0,0.13,0.03,0.19h-0.49c0.02-0.06,0.03-0.13,0.03-0.19V47.16"/>
	<path class="st0" d="M71.44,48.3c0,0.04-0.01,0.09-0.02,0.13h0.66c0.41,0,0.74-0.32,0.75-0.73c0-0.02,0-0.05,0-0.07
		c0-0.55-0.31-0.71-0.84-0.71h-0.56c0.01,0.04,0.02,0.08,0.02,0.13L71.44,48.3 M71.82,47.49V47.1c0.06-0.01,0.13-0.01,0.19-0.01
		c0.25,0,0.43,0.2,0.43,0.53c0,0.42-0.18,0.63-0.45,0.63c-0.08,0-0.13-0.01-0.16-0.01L71.82,47.49"/>
	<path class="st0" d="M86.52,46.86v2.08c0,0.06,0.01,0.13,0.03,0.18h-0.51c0.02-0.07,0.03-0.13,0.03-0.2v-1.48
		c0-0.12-0.07-0.17-0.24-0.25L86.52,46.86"/>
	<path class="st0" d="M87.77,49.12h-0.31l1.05-1.84h-0.82c-0.08,0-0.15,0.01-0.23,0.03v-0.39h1.43L87.77,49.12"/>
	<path class="st0" d="M89.52,48.1l0.12-1.19h1.09v0.42c-0.11-0.04-0.23-0.06-0.35-0.06h-0.6l-0.05,0.57
		c0.12-0.05,0.25-0.08,0.38-0.08c0.36-0.03,0.68,0.23,0.71,0.59c0,0.02,0,0.04,0,0.06c-0.01,0.42-0.36,0.76-0.78,0.75
		c-0.03,0-0.06,0-0.08-0.01c-0.17,0-0.34-0.04-0.49-0.11v-0.3c0.1,0.14,0.26,0.22,0.44,0.23c0.26,0.01,0.47-0.19,0.48-0.45
		c0-0.03,0-0.05,0-0.08C90.4,48.23,90.23,48.02,90,48c-0.03,0-0.06,0-0.09,0C89.77,48.01,89.64,48.04,89.52,48.1"/>
	<polygon class="st0" points="90.14,29.77 90.14,29.97 89.83,29.97 89.83,31.04 89.61,31.04 89.61,29.97 89.3,29.97 89.3,29.77 	"/>
	<polygon class="st0" points="91.08,29.77 90.86,30.65 90.85,30.65 90.62,29.77 90.31,29.77 90.31,31.04 90.5,31.04 90.5,30.04 
		90.51,30.04 90.77,31.04 90.94,31.04 91.2,30.04 91.21,30.04 91.21,31.04 91.4,31.04 91.4,29.77 	"/>
	<g>
		<defs>
			<polygon id="SVGID_1_" points="91.08,29.77 90.86,30.65 90.85,30.65 90.62,29.77 90.31,29.77 90.31,31.04 90.5,31.04 90.5,30.04 
				90.51,30.04 90.77,31.04 90.94,31.04 91.2,30.04 91.21,30.04 91.21,31.04 91.4,31.04 91.4,29.77 			"/>
		</defs>
		<use xlink:href="#SVGID_1_"  style="overflow:visible;fill:#666666;"/>
		<clipPath id="SVGID_2_">
			<use xlink:href="#SVGID_1_"  style="overflow:visible;"/>
		</clipPath>
		<g class="st1">
			<rect x="90.31" y="29.77" class="st0" width="1.1" height="1.27"/>
		</g>
	</g>
	<polygon class="st0" points="89.3,29.77 89.3,29.97 89.61,29.97 89.61,31.04 89.83,31.04 89.83,29.97 90.14,29.97 90.14,29.77 	"/>
	<g>
		<defs>
			<polygon id="SVGID_3_" points="89.3,29.77 89.3,29.97 89.61,29.97 89.61,31.04 89.83,31.04 89.83,29.97 90.14,29.97 90.14,29.77 
							"/>
		</defs>
		<use xlink:href="#SVGID_3_"  style="overflow:visible;fill:#666666;"/>
		<clipPath id="SVGID_4_">
			<use xlink:href="#SVGID_3_"  style="overflow:visible;"/>
		</clipPath>
		<g class="st2">
			<rect x="89.3" y="29.77" class="st0" width="0.85" height="1.27"/>
		</g>
	</g>
	<path class="st0" d="M85.85,30.44c0.58,7.55-2.7,13.66-8.79,18.58l-5.68-17.37c-0.1-0.29-0.29-0.36-0.48-0.3
		c-0.2,0.06-0.3,0.24-0.22,0.53c0.04,0.12,5.44,18.49,5.44,18.49h4.48c6.51-5.48,9.22-12.82,7.79-20.87
		C87.59,29.94,86.74,30.26,85.85,30.44"/>
	<g>
		<defs>
			<path id="SVGID_5_" d="M85.85,30.44c0.58,7.55-2.7,13.66-8.79,18.58l-5.68-17.37c-0.1-0.29-0.29-0.36-0.48-0.3
				c-0.2,0.06-0.3,0.24-0.22,0.53c0.04,0.12,5.44,18.49,5.44,18.49h4.48c6.51-5.48,9.22-12.82,7.79-20.87
				C87.59,29.94,86.74,30.26,85.85,30.44"/>
		</defs>
		<use xlink:href="#SVGID_5_"  style="overflow:visible;fill:#666666;"/>
		<clipPath id="SVGID_6_">
			<use xlink:href="#SVGID_5_"  style="overflow:visible;"/>
		</clipPath>
		<g class="st3">
			
				<rect x="70.52" y="29.44" transform="matrix(1 -7.113204e-03 7.113204e-03 1 -0.2821 0.5715)" class="st0" width="19.38" height="21.01"/>
		</g>
	</g>
	<path class="st0" d="M84.93,29.98c-0.08,0.09-1.03,1.22-3.07,5.64c-1.05,2.07-1.87,4.24-2.44,6.48c-0.24-0.53-0.54-1.19-0.88-1.94
		c1.09-1.6,2.05-3.29,2.84-5.05c0.8-1.6,1.4-3.29,1.79-5.03c0.13,0.01,0.26,0.01,0.39,0.01C84.03,30.09,84.48,30.06,84.93,29.98
		 M77.76,38.45c0.95-1.41,1.78-2.89,2.49-4.44c0.67-1.3,1.15-2.68,1.44-4.12c0.49,0.1,0.98,0.16,1.48,0.18
		c-0.08,0.05-0.68,0.51-2.46,4.38c-0.93,1.81-1.66,3.72-2.18,5.69C78.29,39.63,78.03,39.06,77.76,38.45 M76.26,35.15
		c0.67-1.04,1.26-2.13,1.77-3.25c0.47-0.9,0.81-1.86,1.01-2.86c0.09,0.03,0.18,0.08,0.27,0.11c0.34,0.14,0.66,0.27,0.99,0.38
		c0.45,0.15,0.91,0.28,1.38,0.37c-0.06,0.03-0.5,0.29-2.02,3.57c-0.81,1.59-1.44,3.26-1.91,4.98c-0.24-0.54-0.5-1.1-0.76-1.67
		c0.82-1.21,1.54-2.49,2.15-3.82c0.57-1.07,0.96-2.23,1.17-3.43c-0.02,0-0.34,0-1.68,2.92c-0.7,1.38-1.24,2.83-1.63,4.33
		C76.75,36.24,76.5,35.7,76.26,35.15 M75.49,33.46c0.56-0.85,1.05-1.74,1.47-2.67c0.4-0.73,0.66-1.52,0.79-2.34
		c0.37,0.18,0.8,0.37,1.28,0.57c-0.06,0.01-0.37,0.18-1.4,2.45c-0.6,1.17-1.06,2.4-1.37,3.67C76,34.57,75.74,34.02,75.49,33.46
		 M74.78,31.9c0.46-0.63,0.85-1.31,1.17-2.02c0.33-0.61,0.56-1.28,0.68-1.96c0.31,0.16,0.68,0.34,1.11,0.54
		c-0.05,0.01-0.29,0.2-1.12,1.99c-0.49,0.96-0.87,1.97-1.13,3.02C75.24,32.92,75.01,32.39,74.78,31.9 M69.67,28.55
		c-0.01-0.51,0.39-0.94,0.9-0.95c0.01,0,0.02,0,0.03,0c0.53,0,0.97,0.42,0.99,0.95c0.02,0.51-0.38,0.94-0.89,0.96
		c-0.01,0-0.03,0-0.04,0C70.12,29.51,69.69,29.08,69.67,28.55 M74.04,30.28c0.36-0.43,0.65-0.92,0.86-1.44
		c0.26-0.49,0.44-1.02,0.54-1.57c0.29,0.17,0.66,0.38,1.17,0.64c-0.04,0-0.24,0.14-0.95,1.67c-0.38,0.73-0.68,1.51-0.89,2.31
		C74.51,31.32,74.27,30.77,74.04,30.28 M72.91,27.81c-0.15-0.48-0.47-0.89-0.89-1.16c1.17-0.27,2.4-0.05,3.41,0.61
		c-0.04,0.02-0.23,0.17-0.77,1.34c-0.29,0.52-0.5,1.08-0.62,1.67C73.52,29.14,73.12,28.26,72.91,27.81 M77.78,25.24
		c-6.38-2.39-9.65,0.21-9.63,2.96c-0.11,1.41,0.95,2.65,2.36,2.76c0.07,0.01,0.13,0.01,0.2,0.01c0.33,0,0.66-0.07,0.96-0.2
		l6.04,16.59c1.14-0.99,2.19-2.08,3.12-3.26c-0.39-0.09-0.71-0.36-0.84-0.73c-0.05-0.11-0.26-0.56-0.56-1.24
		c1.21-1.84,2.28-3.78,3.2-5.79c0.96-2.04,1.73-4.17,2.31-6.35c1.77-0.26,3.44-1,4.81-2.15c0,0-1.18-3.1-1.34-3.53
		C86,26.16,82.26,26.92,77.78,25.24"/>
	<g>
		<defs>
			<path id="SVGID_7_" d="M84.93,29.98c-0.08,0.09-1.03,1.22-3.07,5.64c-1.05,2.07-1.87,4.24-2.44,6.48
				c-0.24-0.53-0.54-1.19-0.88-1.94c1.09-1.6,2.05-3.29,2.84-5.05c0.8-1.6,1.4-3.29,1.79-5.03c0.13,0.01,0.26,0.01,0.39,0.01
				C84.03,30.09,84.48,30.06,84.93,29.98 M77.76,38.45c0.95-1.41,1.78-2.89,2.49-4.44c0.67-1.3,1.15-2.68,1.44-4.12
				c0.49,0.1,0.98,0.16,1.48,0.18c-0.08,0.05-0.68,0.51-2.46,4.38c-0.93,1.81-1.66,3.72-2.18,5.69
				C78.29,39.63,78.03,39.06,77.76,38.45 M76.26,35.15c0.67-1.04,1.26-2.13,1.77-3.25c0.47-0.9,0.81-1.86,1.01-2.86
				c0.09,0.03,0.18,0.08,0.27,0.11c0.34,0.14,0.66,0.27,0.99,0.38c0.45,0.15,0.91,0.28,1.38,0.37c-0.06,0.03-0.5,0.29-2.02,3.57
				c-0.81,1.59-1.44,3.26-1.91,4.98c-0.24-0.54-0.5-1.1-0.76-1.67c0.82-1.21,1.54-2.49,2.15-3.82c0.57-1.07,0.96-2.23,1.17-3.43
				c-0.02,0-0.34,0-1.68,2.92c-0.7,1.38-1.24,2.83-1.63,4.33C76.75,36.24,76.5,35.7,76.26,35.15 M75.49,33.46
				c0.56-0.85,1.05-1.74,1.47-2.67c0.4-0.73,0.66-1.52,0.79-2.34c0.37,0.18,0.8,0.37,1.28,0.57c-0.06,0.01-0.37,0.18-1.4,2.45
				c-0.6,1.17-1.06,2.4-1.37,3.67C76,34.57,75.74,34.02,75.49,33.46 M74.78,31.9c0.46-0.63,0.85-1.31,1.17-2.02
				c0.33-0.61,0.56-1.28,0.68-1.96c0.31,0.16,0.68,0.34,1.11,0.54c-0.05,0.01-0.29,0.2-1.12,1.99c-0.49,0.96-0.87,1.97-1.13,3.02
				C75.24,32.92,75.01,32.39,74.78,31.9 M69.67,28.55c-0.01-0.51,0.39-0.94,0.9-0.95c0.01,0,0.02,0,0.03,0
				c0.53,0,0.97,0.42,0.99,0.95c0.02,0.51-0.38,0.94-0.89,0.96c-0.01,0-0.03,0-0.04,0C70.12,29.51,69.69,29.08,69.67,28.55
				 M74.04,30.28c0.36-0.43,0.65-0.92,0.86-1.44c0.26-0.49,0.44-1.02,0.54-1.57c0.29,0.17,0.66,0.38,1.17,0.64
				c-0.04,0-0.24,0.14-0.95,1.67c-0.38,0.73-0.68,1.51-0.89,2.31C74.51,31.32,74.27,30.77,74.04,30.28 M72.91,27.81
				c-0.15-0.48-0.47-0.89-0.89-1.16c1.17-0.27,2.4-0.05,3.41,0.61c-0.04,0.02-0.23,0.17-0.77,1.34c-0.29,0.52-0.5,1.08-0.62,1.67
				C73.52,29.14,73.12,28.26,72.91,27.81 M77.78,25.24c-6.38-2.39-9.65,0.21-9.63,2.96c-0.11,1.41,0.95,2.65,2.36,2.76
				c0.07,0.01,0.13,0.01,0.2,0.01c0.33,0,0.66-0.07,0.96-0.2l6.04,16.59c1.14-0.99,2.19-2.08,3.12-3.26
				c-0.39-0.09-0.71-0.36-0.84-0.73c-0.05-0.11-0.26-0.56-0.56-1.24c1.21-1.84,2.28-3.78,3.2-5.79c0.96-2.04,1.73-4.17,2.31-6.35
				c1.77-0.26,3.44-1,4.81-2.15c0,0-1.18-3.1-1.34-3.53C86,26.16,82.26,26.92,77.78,25.24"/>
		</defs>
		<use xlink:href="#SVGID_7_"  style="overflow:visible;fill:#666666;"/>
		<clipPath id="SVGID_8_">
			<use xlink:href="#SVGID_7_"  style="overflow:visible;"/>
		</clipPath>
		<g class="st4">
			<rect x="68.13" y="22.85" class="st0" width="21.62" height="24.5"/>
		</g>
	</g>
	<path class="st0" d="M84.93,29.98c-0.08,0.09-1.03,1.22-3.07,5.64c-1.05,2.07-1.87,4.24-2.44,6.48c-0.24-0.53-0.54-1.19-0.88-1.94
		c1.09-1.6,2.05-3.29,2.84-5.05c0.8-1.6,1.4-3.29,1.79-5.03c0.13,0.01,0.26,0.01,0.39,0.01C84.03,30.09,84.48,30.06,84.93,29.98
		 M77.76,38.45c0.95-1.41,1.78-2.89,2.49-4.44c0.67-1.3,1.15-2.68,1.44-4.12c0.49,0.1,0.98,0.16,1.48,0.18
		c-0.08,0.05-0.68,0.51-2.46,4.38c-0.93,1.81-1.66,3.72-2.18,5.69C78.29,39.63,78.03,39.06,77.76,38.45 M76.26,35.15
		c0.67-1.04,1.26-2.13,1.77-3.25c0.47-0.9,0.81-1.86,1.01-2.86c0.09,0.03,0.18,0.08,0.27,0.11c0.34,0.14,0.66,0.27,0.99,0.38
		c0.45,0.15,0.91,0.28,1.38,0.37c-0.06,0.03-0.5,0.29-2.02,3.57c-0.81,1.59-1.44,3.26-1.91,4.98c-0.24-0.54-0.5-1.1-0.76-1.67
		c0.82-1.21,1.54-2.49,2.15-3.82c0.57-1.07,0.96-2.23,1.17-3.43c-0.02,0-0.34,0-1.68,2.92c-0.7,1.38-1.24,2.83-1.63,4.33
		C76.75,36.24,76.5,35.7,76.26,35.15 M75.49,33.46c0.56-0.85,1.05-1.74,1.47-2.67c0.4-0.73,0.66-1.52,0.79-2.34
		c0.37,0.18,0.8,0.37,1.28,0.57c-0.06,0.01-0.37,0.18-1.4,2.45c-0.6,1.17-1.06,2.4-1.37,3.67C76,34.57,75.74,34.02,75.49,33.46
		 M74.78,31.9c0.46-0.63,0.85-1.31,1.17-2.02c0.33-0.61,0.56-1.28,0.68-1.96c0.31,0.16,0.68,0.34,1.11,0.54
		c-0.05,0.01-0.29,0.2-1.12,1.99c-0.49,0.96-0.87,1.97-1.13,3.02C75.24,32.92,75.01,32.39,74.78,31.9 M69.67,28.55
		c-0.01-0.51,0.39-0.94,0.9-0.95c0.01,0,0.02,0,0.03,0c0.53,0,0.97,0.42,0.99,0.95c0.02,0.51-0.38,0.94-0.89,0.96
		c-0.01,0-0.03,0-0.04,0C70.12,29.51,69.69,29.08,69.67,28.55 M74.04,30.28c0.36-0.43,0.65-0.92,0.86-1.44
		c0.26-0.49,0.44-1.02,0.54-1.57c0.29,0.17,0.66,0.38,1.17,0.64c-0.04,0-0.24,0.14-0.95,1.67c-0.38,0.73-0.68,1.51-0.89,2.31
		C74.51,31.32,74.27,30.77,74.04,30.28 M72.91,27.81c-0.15-0.48-0.47-0.89-0.89-1.16c1.17-0.27,2.4-0.05,3.41,0.61
		c-0.04,0.02-0.23,0.17-0.77,1.34c-0.29,0.52-0.5,1.08-0.62,1.67C73.52,29.14,73.12,28.26,72.91,27.81 M77.78,25.24
		c-6.38-2.39-9.65,0.21-9.63,2.96c-0.11,1.41,0.95,2.65,2.36,2.76c0.07,0.01,0.13,0.01,0.2,0.01c0.33,0,0.66-0.07,0.96-0.2
		l6.04,16.59c1.14-0.99,2.19-2.08,3.12-3.26c-0.39-0.09-0.71-0.36-0.84-0.73c-0.05-0.11-0.26-0.56-0.56-1.24
		c1.21-1.84,2.28-3.78,3.2-5.79c0.96-2.04,1.73-4.17,2.31-6.35c1.77-0.26,3.44-1,4.81-2.15c0,0-1.18-3.1-1.34-3.53
		C86,26.16,82.26,26.92,77.78,25.24"/>
	<g>
		<defs>
			<path id="SVGID_9_" d="M84.93,29.98c-0.08,0.09-1.03,1.22-3.07,5.64c-1.05,2.07-1.87,4.24-2.44,6.48
				c-0.24-0.53-0.54-1.19-0.88-1.94c1.09-1.6,2.05-3.29,2.84-5.05c0.8-1.6,1.4-3.29,1.79-5.03c0.13,0.01,0.26,0.01,0.39,0.01
				C84.03,30.09,84.48,30.06,84.93,29.98 M77.76,38.45c0.95-1.41,1.78-2.89,2.49-4.44c0.67-1.3,1.15-2.68,1.44-4.12
				c0.49,0.1,0.98,0.16,1.48,0.18c-0.08,0.05-0.68,0.51-2.46,4.38c-0.93,1.81-1.66,3.72-2.18,5.69
				C78.29,39.63,78.03,39.06,77.76,38.45 M76.26,35.15c0.67-1.04,1.26-2.13,1.77-3.25c0.47-0.9,0.81-1.86,1.01-2.86
				c0.09,0.03,0.18,0.08,0.27,0.11c0.34,0.14,0.66,0.27,0.99,0.38c0.45,0.15,0.91,0.28,1.38,0.37c-0.06,0.03-0.5,0.29-2.02,3.57
				c-0.81,1.59-1.44,3.26-1.91,4.98c-0.24-0.54-0.5-1.1-0.76-1.67c0.82-1.21,1.54-2.49,2.15-3.82c0.57-1.07,0.96-2.23,1.17-3.43
				c-0.02,0-0.34,0-1.68,2.92c-0.7,1.38-1.24,2.83-1.63,4.33C76.75,36.24,76.5,35.7,76.26,35.15 M75.49,33.46
				c0.56-0.85,1.05-1.74,1.47-2.67c0.4-0.73,0.66-1.52,0.79-2.34c0.37,0.18,0.8,0.37,1.28,0.57c-0.06,0.01-0.37,0.18-1.4,2.45
				c-0.6,1.17-1.06,2.4-1.37,3.67C76,34.57,75.74,34.02,75.49,33.46 M74.78,31.9c0.46-0.63,0.85-1.31,1.17-2.02
				c0.33-0.61,0.56-1.28,0.68-1.96c0.31,0.16,0.68,0.34,1.11,0.54c-0.05,0.01-0.29,0.2-1.12,1.99c-0.49,0.96-0.87,1.97-1.13,3.02
				C75.24,32.92,75.01,32.39,74.78,31.9 M69.67,28.55c-0.01-0.51,0.39-0.94,0.9-0.95c0.01,0,0.02,0,0.03,0
				c0.53,0,0.97,0.42,0.99,0.95c0.02,0.51-0.38,0.94-0.89,0.96c-0.01,0-0.03,0-0.04,0C70.12,29.51,69.69,29.08,69.67,28.55
				 M74.04,30.28c0.36-0.43,0.65-0.92,0.86-1.44c0.26-0.49,0.44-1.02,0.54-1.57c0.29,0.17,0.66,0.38,1.17,0.64
				c-0.04,0-0.24,0.14-0.95,1.67c-0.38,0.73-0.68,1.51-0.89,2.31C74.51,31.32,74.27,30.77,74.04,30.28 M72.91,27.81
				c-0.15-0.48-0.47-0.89-0.89-1.16c1.17-0.27,2.4-0.05,3.41,0.61c-0.04,0.02-0.23,0.17-0.77,1.34c-0.29,0.52-0.5,1.08-0.62,1.67
				C73.52,29.14,73.12,28.26,72.91,27.81 M77.78,25.24c-6.38-2.39-9.65,0.21-9.63,2.96c-0.11,1.41,0.95,2.65,2.36,2.76
				c0.07,0.01,0.13,0.01,0.2,0.01c0.33,0,0.66-0.07,0.96-0.2l6.04,16.59c1.14-0.99,2.19-2.08,3.12-3.26
				c-0.39-0.09-0.71-0.36-0.84-0.73c-0.05-0.11-0.26-0.56-0.56-1.24c1.21-1.84,2.28-3.78,3.2-5.79c0.96-2.04,1.73-4.17,2.31-6.35
				c1.77-0.26,3.44-1,4.81-2.15c0,0-1.18-3.1-1.34-3.53C86,26.16,82.26,26.92,77.78,25.24"/>
		</defs>
		<use xlink:href="#SVGID_9_"  style="overflow:visible;fill:#666666;"/>
		<clipPath id="SVGID_10_">
			<use xlink:href="#SVGID_9_"  style="overflow:visible;"/>
		</clipPath>
		<g class="st5">
			<rect x="68.13" y="22.85" class="st0" width="21.62" height="24.5"/>
		</g>
	</g>
	<path class="st0" d="M84.93,29.98c-0.08,0.09-1.03,1.22-3.07,5.64c-1.05,2.07-1.87,4.24-2.44,6.48c-0.24-0.53-0.54-1.19-0.88-1.94
		c1.09-1.6,2.05-3.29,2.84-5.05c0.8-1.6,1.4-3.29,1.79-5.03c0.13,0.01,0.26,0.01,0.39,0.01C84.03,30.09,84.48,30.06,84.93,29.98
		 M77.76,38.45c0.95-1.41,1.78-2.89,2.49-4.44c0.67-1.3,1.15-2.68,1.44-4.12c0.49,0.1,0.98,0.16,1.48,0.18
		c-0.08,0.05-0.68,0.51-2.46,4.38c-0.93,1.81-1.66,3.72-2.18,5.69C78.29,39.63,78.03,39.06,77.76,38.45 M76.26,35.15
		c0.67-1.04,1.26-2.13,1.77-3.25c0.47-0.9,0.81-1.86,1.01-2.86c0.09,0.03,0.18,0.08,0.27,0.11c0.34,0.14,0.66,0.27,0.99,0.38
		c0.45,0.15,0.91,0.28,1.38,0.37c-0.06,0.03-0.5,0.29-2.02,3.57c-0.81,1.59-1.44,3.26-1.91,4.98c-0.24-0.54-0.5-1.1-0.76-1.67
		c0.82-1.21,1.54-2.49,2.15-3.82c0.57-1.07,0.96-2.23,1.17-3.43c-0.02,0-0.34,0-1.68,2.92c-0.7,1.38-1.24,2.83-1.63,4.33
		C76.75,36.24,76.5,35.7,76.26,35.15 M75.49,33.46c0.56-0.85,1.05-1.74,1.47-2.67c0.4-0.73,0.66-1.52,0.79-2.34
		c0.37,0.18,0.8,0.37,1.28,0.57c-0.06,0.01-0.37,0.18-1.4,2.45c-0.6,1.17-1.06,2.4-1.37,3.67C76,34.57,75.74,34.02,75.49,33.46
		 M74.78,31.9c0.46-0.63,0.85-1.31,1.17-2.02c0.33-0.61,0.56-1.28,0.68-1.96c0.31,0.16,0.68,0.34,1.11,0.54
		c-0.05,0.01-0.29,0.2-1.12,1.99c-0.49,0.96-0.87,1.97-1.13,3.02C75.24,32.92,75.01,32.39,74.78,31.9 M69.67,28.55
		c-0.01-0.51,0.39-0.94,0.9-0.95c0.01,0,0.02,0,0.03,0c0.53,0,0.97,0.42,0.99,0.95c0.02,0.51-0.38,0.94-0.89,0.96
		c-0.01,0-0.03,0-0.04,0C70.12,29.51,69.69,29.08,69.67,28.55 M74.04,30.28c0.36-0.43,0.65-0.92,0.86-1.44
		c0.26-0.49,0.44-1.02,0.54-1.57c0.29,0.17,0.66,0.38,1.17,0.64c-0.04,0-0.24,0.14-0.95,1.67c-0.38,0.73-0.68,1.51-0.89,2.31
		C74.51,31.32,74.27,30.77,74.04,30.28 M72.91,27.81c-0.15-0.48-0.47-0.89-0.89-1.16c1.17-0.27,2.4-0.05,3.41,0.61
		c-0.04,0.02-0.23,0.17-0.77,1.34c-0.29,0.52-0.5,1.08-0.62,1.67C73.52,29.14,73.12,28.26,72.91,27.81 M77.78,25.24
		c-6.38-2.39-9.65,0.21-9.63,2.96c-0.11,1.41,0.95,2.65,2.36,2.76c0.07,0.01,0.13,0.01,0.2,0.01c0.33,0,0.66-0.07,0.96-0.2
		l6.04,16.59c1.14-0.99,2.19-2.08,3.12-3.26c-0.39-0.09-0.71-0.36-0.84-0.73c-0.05-0.11-0.26-0.56-0.56-1.24
		c1.21-1.84,2.28-3.78,3.2-5.79c0.96-2.04,1.73-4.17,2.31-6.35c1.77-0.26,3.44-1,4.81-2.15c0,0-1.18-3.1-1.34-3.53
		C86,26.16,82.26,26.92,77.78,25.24"/>
	<g>
		<defs>
			<path id="SVGID_11_" d="M84.93,29.98c-0.08,0.09-1.03,1.22-3.07,5.64c-1.05,2.07-1.87,4.24-2.44,6.48
				c-0.24-0.53-0.54-1.19-0.88-1.94c1.09-1.6,2.05-3.29,2.84-5.05c0.8-1.6,1.4-3.29,1.79-5.03c0.13,0.01,0.26,0.01,0.39,0.01
				C84.03,30.09,84.48,30.06,84.93,29.98 M77.76,38.45c0.95-1.41,1.78-2.89,2.49-4.44c0.67-1.3,1.15-2.68,1.44-4.12
				c0.49,0.1,0.98,0.16,1.48,0.18c-0.08,0.05-0.68,0.51-2.46,4.38c-0.93,1.81-1.66,3.72-2.18,5.69
				C78.29,39.63,78.03,39.06,77.76,38.45 M76.26,35.15c0.67-1.04,1.26-2.13,1.77-3.25c0.47-0.9,0.81-1.86,1.01-2.86
				c0.09,0.03,0.18,0.08,0.27,0.11c0.34,0.14,0.66,0.27,0.99,0.38c0.45,0.15,0.91,0.28,1.38,0.37c-0.06,0.03-0.5,0.29-2.02,3.57
				c-0.81,1.59-1.44,3.26-1.91,4.98c-0.24-0.54-0.5-1.1-0.76-1.67c0.82-1.21,1.54-2.49,2.15-3.82c0.57-1.07,0.96-2.23,1.17-3.43
				c-0.02,0-0.34,0-1.68,2.92c-0.7,1.38-1.24,2.83-1.63,4.33C76.75,36.24,76.5,35.7,76.26,35.15 M75.49,33.46
				c0.56-0.85,1.05-1.74,1.47-2.67c0.4-0.73,0.66-1.52,0.79-2.34c0.37,0.18,0.8,0.37,1.28,0.57c-0.06,0.01-0.37,0.18-1.4,2.45
				c-0.6,1.17-1.06,2.4-1.37,3.67C76,34.57,75.74,34.02,75.49,33.46 M74.78,31.9c0.46-0.63,0.85-1.31,1.17-2.02
				c0.33-0.61,0.56-1.28,0.68-1.96c0.31,0.16,0.68,0.34,1.11,0.54c-0.05,0.01-0.29,0.2-1.12,1.99c-0.49,0.96-0.87,1.97-1.13,3.02
				C75.24,32.92,75.01,32.39,74.78,31.9 M69.67,28.55c-0.01-0.51,0.39-0.94,0.9-0.95c0.01,0,0.02,0,0.03,0
				c0.53,0,0.97,0.42,0.99,0.95c0.02,0.51-0.38,0.94-0.89,0.96c-0.01,0-0.03,0-0.04,0C70.12,29.51,69.69,29.08,69.67,28.55
				 M74.04,30.28c0.36-0.43,0.65-0.92,0.86-1.44c0.26-0.49,0.44-1.02,0.54-1.57c0.29,0.17,0.66,0.38,1.17,0.64
				c-0.04,0-0.24,0.14-0.95,1.67c-0.38,0.73-0.68,1.51-0.89,2.31C74.51,31.32,74.27,30.77,74.04,30.28 M72.91,27.81
				c-0.15-0.48-0.47-0.89-0.89-1.16c1.17-0.27,2.4-0.05,3.41,0.61c-0.04,0.02-0.23,0.17-0.77,1.34c-0.29,0.52-0.5,1.08-0.62,1.67
				C73.52,29.14,73.12,28.26,72.91,27.81 M77.78,25.24c-6.38-2.39-9.65,0.21-9.63,2.96c-0.11,1.41,0.95,2.65,2.36,2.76
				c0.07,0.01,0.13,0.01,0.2,0.01c0.33,0,0.66-0.07,0.96-0.2l6.04,16.59c1.14-0.99,2.19-2.08,3.12-3.26
				c-0.39-0.09-0.71-0.36-0.84-0.73c-0.05-0.11-0.26-0.56-0.56-1.24c1.21-1.84,2.28-3.78,3.2-5.79c0.96-2.04,1.73-4.17,2.31-6.35
				c1.77-0.26,3.44-1,4.81-2.15c0,0-1.18-3.1-1.34-3.53C86,26.16,82.26,26.92,77.78,25.24"/>
		</defs>
		<use xlink:href="#SVGID_11_"  style="overflow:visible;fill:#666666;"/>
		<clipPath id="SVGID_12_">
			<use xlink:href="#SVGID_11_"  style="overflow:visible;"/>
		</clipPath>
		<g class="st6">
			<rect x="68.13" y="22.85" class="st0" width="21.62" height="24.5"/>
		</g>
	</g>
	<path class="st0" d="M92.24,46.81c-0.42-0.01-0.76,0.32-0.77,0.73c0,0.01,0,0.02,0,0.03c-0.02,0.36,0.25,0.67,0.6,0.69
		c0.02,0,0.04,0,0.06,0c0.16,0.01,0.32-0.05,0.44-0.17c0,0.19-0.02,0.87-0.49,0.94c-0.19,0.02-0.37-0.06-0.48-0.21v0.29
		c0.14,0.06,0.28,0.09,0.43,0.09c0.59,0,1.01-0.5,1.01-1.34c0.01-0.24-0.05-0.48-0.16-0.69C92.75,46.94,92.51,46.8,92.24,46.81
		 M92.24,48.08c-0.24,0-0.33-0.24-0.33-0.56c0-0.14,0.04-0.55,0.33-0.55c0.29,0,0.32,0.37,0.32,0.54
		C92.56,47.64,92.56,48.08,92.24,48.08"/>
</g>
</svg>
