<?xml version="1.0" encoding="utf-8"?>
<!-- Generator: Adobe Illustrator 25.1.0, SVG Export Plug-In . SVG Version: 6.00 Build 0)  -->
<svg version="1.1" id="Layer_1" xmlns="http://www.w3.org/2000/svg" xmlns:xlink="http://www.w3.org/1999/xlink" x="0px" y="0px"
	 viewBox="0 0 161.55 161.55" style="enable-background:new 0 0 161.55 161.55;" xml:space="preserve">
<style type="text/css">
	.st0{fill:#666666;}
	.st1{clip-path:url(#SVGID_2_);}
	.st2{clip-path:url(#SVGID_4_);}
	.st3{clip-path:url(#SVGID_6_);}
	.st4{clip-path:url(#SVGID_8_);}
	.st5{clip-path:url(#SVGID_10_);}
	.st6{clip-path:url(#SVGID_12_);}
	.st7{opacity:0;fill:#666666;}
	.st8{opacity:0;fill:#666666;stroke:#009DE2;stroke-width:0.1121;}
	.st9{opacity:0;}
</style>
<g>
	<path class="st0" d="M66.2,99.36l0.77,0.59c0.01,0.54,0.02,1.12,0.03,1.75c0,0.63,0.01,1.29,0.01,2.01
		c-0.47-0.61-0.89-1.15-1.28-1.62c-0.38-0.48-0.72-0.91-1.01-1.26c-0.31-0.36-0.55-0.67-0.75-0.94c-0.16-0.18-0.3-0.38-0.42-0.58
		h-1.7v0.06l0.8,0.57c0.06,1.84,0.06,3.33,0,4.48l-0.67,0.55v0.08h1.96v-0.08l-0.74-0.55h0c-0.04-1.34-0.06-2.65-0.06-3.96
		l3.38,4.26c0.04,0.06,0.1,0.13,0.16,0.19c0.04,0.04,0.07,0.1,0.08,0.16h0.79c-0.04-0.74-0.08-1.53-0.08-2.38
		c-0.01-0.83,0-1.75,0.03-2.75l0.67-0.59V99.3H66.2V99.36z"/>
	<path class="st0" d="M71.58,99.82l0.66-0.47V99.3h-2.31v0.06l0.66,0.47c0.01,1.53,0.01,3.08,0,4.65l-0.69,0.48v0.07h2.36v-0.07
		l-0.69-0.48C71.55,102.97,71.55,101.44,71.58,99.82"/>
	<path class="st0" d="M78.07,104.53c-0.81,0.03-1.59,0.03-2.34,0c-0.01-0.76-0.01-1.51,0-2.25c0.43-0.01,1.03-0.02,1.8-0.02
		l0.44,0.65h0.06v-1.77h-0.06l-0.44,0.67c-1.01,0-1.62-0.01-1.81-0.02c-0.01-0.32-0.02-0.65-0.02-0.98c0-0.33,0-0.65,0.01-1.01
		c0.36-0.03,0.74-0.03,1.12-0.03c0.38,0,0.78,0.01,1.2,0.01l0.48,0.66h0.06V99.3H74.1v0.06l0.65,0.47c0.02,1.33,0.02,2.87,0,4.65
		l-0.65,0.48v0.07h4.6v-1.27h-0.07L78.07,104.53z"/>
	<path class="st0" d="M58.29,99.36l0.76,0.59c0.01,0.54,0.02,1.12,0.02,1.75c0.01,0.63,0.01,1.29,0.01,2.01
		c-0.45-0.61-0.88-1.15-1.26-1.62c-0.39-0.48-0.73-0.91-1.03-1.26c-0.29-0.36-0.54-0.67-0.74-0.94c-0.15-0.18-0.29-0.38-0.42-0.58
		h-1.7v0.06l0.8,0.57c0.06,1.84,0.06,3.33,0,4.48l-0.66,0.55v0.08h1.95v-0.08l-0.74-0.55h0c-0.04-1.34-0.07-2.65-0.07-3.96
		l3.39,4.26c0.05,0.06,0.11,0.12,0.15,0.19c0.04,0.04,0.07,0.1,0.08,0.16h0.78c-0.05-0.74-0.08-1.53-0.08-2.38
		c-0.01-0.83,0-1.75,0.04-2.75l0.67-0.59V99.3h-1.96V99.36z"/>
	<path class="st0" d="M92.49,97.89c0.11,0.06,0.22,0.15,0.33,0.22c0.12,0.08,0.22,0.16,0.32,0.24c-0.21,0.75-0.41,1.42-0.58,2.04
		c-0.18,0.61-0.33,1.13-0.46,1.57c-0.13,0.44-0.23,0.8-0.31,1.09c-0.07,0.28-0.13,0.48-0.15,0.58l-1.59-5.24
		c0.11-0.11,0.21-0.21,0.31-0.3c0.09-0.08,0.2-0.16,0.3-0.22v-0.07h-2.53v0.07l0.64,0.49c-0.18,0.55-0.33,1.07-0.48,1.57
		c-0.14,0.49-0.28,0.95-0.41,1.38c-0.13,0.43-0.24,0.84-0.35,1.21c-0.12,0.37-0.21,0.73-0.3,1.07l-1.5-5.22l0.62-0.51v-0.07h-2.44
		v0.07c0.11,0.08,0.2,0.15,0.27,0.22c0.06,0.05,0.12,0.09,0.18,0.15c0.04,0.03,0.07,0.07,0.11,0.11c0.03,0.03,0.05,0.08,0.06,0.12
		c0.08,0.25,0.19,0.6,0.34,1.05c0.15,0.47,0.31,1,0.51,1.58c0.19,0.59,0.4,1.22,0.62,1.91c0.21,0.69,0.44,1.4,0.66,2.15h0.8
		c-0.01-0.03-0.01-0.05-0.01-0.08c0-0.05,0.01-0.1,0.02-0.14c0.01-0.04,0.03-0.1,0.03-0.15c0.02-0.04,0.04-0.09,0.05-0.13
		c0.07-0.25,0.14-0.52,0.22-0.82c0.08-0.29,0.16-0.61,0.25-0.93c0.09-0.32,0.19-0.65,0.28-0.99c0.1-0.33,0.19-0.67,0.29-1.01
		c0.09-0.32,0.18-0.64,0.28-0.95c0.08-0.33,0.18-0.61,0.25-0.87l1.9,6.07h0.77c0.03-0.13,0.09-0.37,0.19-0.73
		c0.1-0.36,0.24-0.81,0.41-1.38c0.17-0.56,0.37-1.23,0.6-2c0.23-0.77,0.49-1.66,0.77-2.62c0.16-0.16,0.3-0.27,0.4-0.37
		c0.1-0.09,0.17-0.16,0.21-0.19v-0.05h-1.86V97.89z"/>
	<path class="st0" d="M33.75,97.85l0.88,0.55l0.06,6.15c0,0.25,0,0.47-0.01,0.66c-0.01,0.17-0.03,0.34-0.05,0.51
		c-0.03,0.15-0.07,0.3-0.14,0.44c-0.07,0.14-0.16,0.27-0.26,0.39c-0.14,0.16-0.3,0.3-0.49,0.39c-0.19,0.1-0.41,0.14-0.62,0.13
		c0.03-0.03,0.05-0.06,0.06-0.09c0.02-0.03,0.04-0.07,0.05-0.11c0.01-0.05,0.02-0.1,0.02-0.16c0-0.06-0.01-0.12-0.04-0.17
		c-0.03-0.06-0.07-0.12-0.12-0.18c-0.05-0.05-0.11-0.08-0.18-0.11c-0.07-0.03-0.14-0.05-0.21-0.05c-0.15,0-0.29,0.06-0.39,0.16
		c-0.06,0.05-0.1,0.11-0.13,0.18c-0.04,0.07-0.05,0.15-0.06,0.23c0,0.12,0.03,0.23,0.09,0.33c0.06,0.09,0.14,0.17,0.23,0.23
		c0.1,0.06,0.2,0.1,0.31,0.13c0.11,0.03,0.22,0.05,0.33,0.05c0.22,0,0.44-0.04,0.64-0.11c0.2-0.07,0.39-0.17,0.57-0.29
		c0.18-0.13,0.35-0.28,0.5-0.45c0.15-0.18,0.28-0.38,0.39-0.59c0.09-0.18,0.19-0.36,0.27-0.53c0.09-0.18,0.16-0.36,0.21-0.56
		c0.06-0.21,0.11-0.42,0.13-0.64c0.03-0.26,0.04-0.53,0.04-0.8c-0.01-0.32-0.01-0.63-0.02-0.96c-0.01-0.34-0.01-0.7-0.02-1.12
		c-0.01-0.41-0.01-0.86-0.02-1.37c-0.01-0.52-0.01-1.1-0.01-1.76l0.73-0.47v-0.07h-2.72V97.85z"/>
	<path class="st0" d="M43.14,103.32c-0.1,0.3-0.25,0.58-0.45,0.83c-0.18,0.22-0.39,0.4-0.64,0.53c-0.23,0.1-0.49,0.16-0.74,0.16
		c-0.27,0-0.54-0.06-0.79-0.18c-0.25-0.13-0.48-0.32-0.66-0.54c-0.2-0.25-0.36-0.54-0.46-0.85c-0.11-0.36-0.17-0.74-0.16-1.12
		c0-0.36,0.04-0.72,0.13-1.06c0.08-0.3,0.22-0.58,0.4-0.83c0.17-0.23,0.38-0.43,0.63-0.57c0.26-0.14,0.56-0.21,0.85-0.2
		c0.3,0,0.6,0.07,0.86,0.2c0.26,0.14,0.48,0.33,0.65,0.56c0.18,0.25,0.32,0.54,0.4,0.84c0.1,0.35,0.15,0.7,0.14,1.06
		C43.32,102.55,43.26,102.95,43.14,103.32 M43.99,100.57c-0.13-0.23-0.31-0.44-0.51-0.62c-0.18-0.2-0.39-0.36-0.63-0.49
		c-0.22-0.13-0.46-0.24-0.72-0.3c-0.25-0.07-0.5-0.1-0.76-0.1c-0.44-0.01-0.87,0.08-1.27,0.24c-0.75,0.31-1.36,0.91-1.69,1.65
		c-0.16,0.38-0.25,0.8-0.24,1.21c0,0.41,0.08,0.82,0.25,1.19c0.16,0.37,0.39,0.7,0.68,0.98c0.29,0.29,0.63,0.52,1,0.68
		c0.39,0.17,0.81,0.25,1.23,0.23c0.42,0.02,0.85-0.06,1.23-0.24c0.37-0.16,0.7-0.39,0.98-0.68c0.28-0.28,0.51-0.61,0.66-0.98
		c0.26-0.65,0.3-1.36,0.12-2.03C44.24,101.05,44.13,100.8,43.99,100.57"/>
	<path class="st0" d="M49.94,99.36l0.66,0.47v1.95c-1.03,0.01-2.04,0.01-3.04,0v-1.95l0.66-0.47V99.3h-2.29v0.06l0.64,0.47v4.65
		l-0.64,0.48v0.07h2.29v-0.07l-0.66-0.48v-2.23c1-0.01,2.01-0.01,3.04,0v2.23l-0.66,0.48v0.07h2.29v-0.07l-0.65-0.48
		c-0.02-1.46-0.02-2.99,0-4.65l0.65-0.47V99.3h-2.29L49.94,99.36z"/>
	<path class="st0" d="M96.28,102.49l0.88-2.42l0.94,2.42H96.28z M97.83,99.21h-0.82l-1.99,5.22l-0.66,0.55v0.07h1.93v-0.07
		l-0.73-0.55l0.55-1.51c0.77-0.01,1.48-0.01,2.15,0l0.59,1.51l-0.74,0.55v0.07h2.52v-0.07l-0.66-0.58L97.83,99.21z"/>
	<path class="st0" d="M119.12,104.56c-0.84,0.03-1.62,0.03-2.35,0c-0.01-0.76-0.01-1.51,0-2.25c0.42-0.01,1.02-0.02,1.81-0.02
		l0.44,0.65h0.07v-1.77h-0.07l-0.44,0.67c-1.03,0-1.62-0.01-1.82-0.02c-0.01-0.32-0.02-0.65-0.02-0.98c-0.01-0.33,0-0.65,0.01-1.01
		c0.35-0.03,0.72-0.03,1.11-0.03c0.39,0,0.8,0.01,1.23,0.01l0.47,0.66h0.06v-1.13h-4.49v0.06l0.65,0.47c0.02,1.33,0.02,2.87,0,4.65
		l-0.65,0.48v0.07h4.6v-1.27h-0.07L119.12,104.56z"/>
	<path class="st0" d="M123.98,102.15h-0.3c-0.07-0.01-0.14-0.01-0.19-0.01c-0.05,0-0.1,0-0.16-0.01l0.01-2.36
		c0.08,0,0.17-0.01,0.26-0.01c0.09,0,0.18,0,0.27-0.01c0.08-0.01,0.15-0.01,0.22-0.01h0.14c0.18,0,0.35,0.03,0.52,0.09
		c0.15,0.06,0.29,0.15,0.4,0.26c0.11,0.1,0.19,0.22,0.25,0.36c0.06,0.14,0.09,0.29,0.09,0.44c0.02,0.35-0.12,0.69-0.39,0.92
		C124.78,102.07,124.38,102.18,123.98,102.15 M126.95,104.88c-0.05-0.05-0.11-0.11-0.17-0.17c-0.06-0.07-0.12-0.16-0.17-0.23
		c-0.05-0.05-0.1-0.11-0.14-0.17l-0.9-1.4c-0.08-0.15-0.19-0.28-0.33-0.39c-0.15-0.09-0.31-0.14-0.49-0.16
		c0.25-0.01,0.51-0.06,0.75-0.13c0.21-0.07,0.41-0.17,0.59-0.31c0.16-0.12,0.3-0.28,0.39-0.46c0.09-0.18,0.14-0.38,0.15-0.59
		c0-0.22-0.06-0.43-0.17-0.62c-0.12-0.2-0.27-0.37-0.46-0.5c-0.22-0.15-0.46-0.26-0.72-0.32c-0.3-0.08-0.61-0.12-0.93-0.11h-2.66
		v0.06l0.65,0.49v4.62l-0.68,0.48v0.07H124v-0.07l-0.65-0.45l-0.02-1.96c0.14-0.01,0.26-0.02,0.37-0.02h0.25
		c0.1,0,0.19,0.02,0.28,0.05c0.08,0.05,0.15,0.11,0.2,0.2l1.34,2.26h1.3v-0.07C127.03,104.95,126.99,104.92,126.95,104.88"/>
	<path class="st0" d="M110.55,101.74c0.5-0.47,0.92-0.87,1.27-1.19c0.35-0.31,0.61-0.55,0.79-0.7l0.87-0.45v-0.06h-1.93v0.06
		l0.29,0.44c-0.2,0.22-0.41,0.42-0.61,0.62c-0.21,0.2-0.41,0.39-0.62,0.58c-0.2,0.19-0.39,0.37-0.58,0.54
		c-0.19,0.17-0.37,0.33-0.54,0.46c0.66,0.66,1.42,1.49,2.3,2.5l-0.25,0.45v0.07h2.08v-0.07l-0.44-0.45
		C111.96,103.25,111.08,102.34,110.55,101.74"/>
	<path class="st0" d="M109.51,99.86l0.67-0.47v-0.06h-2.33v0.06l0.66,0.47c0.01,1.54,0.01,3.08,0,4.65l-0.68,0.48v0.07h2.36v-0.07
		l-0.68-0.48C109.49,102.92,109.49,101.38,109.51,99.86"/>
	<path class="st0" d="M105.77,104.54h-1.14c-0.36,0-0.68-0.01-0.98-0.01c-0.02-1.58-0.02-3.12,0-4.67l0.72-0.45v-0.07h-2.38v0.07
		l0.65,0.45c0.02,1.54,0.02,3.08,0,4.65l-0.65,0.48v0.07h4.39v-1.28h-0.08L105.77,104.54z"/>
	<path class="st0" d="M128.87,104.15c0,0.07-0.05,0.12-0.14,0.12h-0.18v-0.24h0.17C128.82,104.04,128.87,104.07,128.87,104.15
		 M129.05,104.14c0-0.17-0.12-0.26-0.31-0.26h-0.36v0.8h0.18v-0.26h0.14l0.17,0.26h0.21l-0.2-0.29
		C128.98,104.36,129.06,104.26,129.05,104.14 M129.36,104.3c0,0.37-0.3,0.67-0.67,0.67c-0.37,0-0.67-0.3-0.67-0.67
		c0-0.37,0.3-0.67,0.67-0.67C129.06,103.63,129.36,103.93,129.36,104.3C129.36,104.3,129.36,104.3,129.36,104.3 M129.44,104.3
		c0-0.42-0.34-0.75-0.76-0.75s-0.75,0.34-0.75,0.76c0,0.42,0.34,0.75,0.75,0.75c0.41,0,0.75-0.33,0.76-0.74
		C129.44,104.31,129.44,104.3,129.44,104.3"/>
	<path class="st0" d="M111.31,115.75v-1.66h-1.68v0.6h1.01v0.74c-0.28,0.2-0.61,0.3-0.95,0.3c-0.78-0.04-1.38-0.7-1.34-1.48
		c0.03-0.7,0.58-1.27,1.28-1.34c0.41-0.01,0.81,0.14,1.11,0.42l0.44-0.53c-0.42-0.37-0.96-0.56-1.52-0.54
		c-1.11-0.01-2.02,0.88-2.04,1.99c0,0.02,0,0.04,0,0.06c-0.04,1.08,0.8,1.99,1.88,2.04c0.06,0,0.11,0,0.17,0
		C110.27,116.37,110.85,116.15,111.31,115.75 M104.59,115.08l-2.12-2.73h-0.64v3.95h0.68v-2.81l2.18,2.81h0.58v-3.95h-0.68
		L104.59,115.08z M98.26,116.3h0.69v-3.95h-0.69L98.26,116.3z M94.09,114.05l1.64-1.7h-0.85L93,114.34v-1.99h-0.69v3.95H93v-1.15
		l0.61-0.63l1.35,1.78h0.84L94.09,114.05z M87.16,116.3h2.77v-0.63h-2.08v-3.32h-0.69L87.16,116.3z M83.41,114.73h-1.36l0.68-1.58
		L83.41,114.73z M83.06,112.33h-0.64l-1.74,3.98h0.71l0.41-0.95h1.87l0.4,0.95h0.73L83.06,112.33z M74.91,115.28l-0.94-2.93h-0.75
		l1.38,3.98h0.6l0.97-2.84l0.97,2.84h0.6l1.38-3.98h-0.73l-0.94,2.93l-0.97-2.94h-0.59L74.91,115.28z M67.03,113.7
		c0,0.42-0.33,0.71-0.85,0.71h-0.81v-1.42h0.81C66.7,112.98,67.03,113.23,67.03,113.7 M67.73,113.68c0.01-0.73-0.58-1.33-1.31-1.34
		c-0.06,0-0.12,0-0.19,0.01h-1.56v3.95h0.69v-1.27h0.78c0.76,0.1,1.46-0.43,1.57-1.19C67.73,113.78,67.73,113.73,67.73,113.68
		 M62.08,112.35h-2.93v3.95h2.95v-0.62h-2.26v-1.06h1.98V114h-1.98v-1.03h2.23L62.08,112.35z M56.56,112.35h-2.93v3.95h2.96v-0.62
		h-2.26v-1.06h1.98V114h-1.98v-1.03h2.23L56.56,112.35z M49.6,114.05l1.64-1.7h-0.85l-1.88,1.99v-1.99h-0.69v3.95h0.69v-1.15
		l0.61-0.63l1.35,1.78h0.84L49.6,114.05z"/>
	<path class="st0" d="M113.38,115.42c0,0.07-0.05,0.12-0.14,0.12h-0.18v-0.24h0.17C113.33,115.3,113.38,115.34,113.38,115.42
		 M113.56,115.41c0-0.17-0.12-0.26-0.31-0.26h-0.36v0.8h0.18v-0.26h0.14l0.17,0.26h0.21l-0.2-0.29
		C113.5,115.62,113.57,115.52,113.56,115.41 M113.87,115.56c0,0.37-0.3,0.67-0.67,0.67c-0.37,0-0.67-0.3-0.67-0.67
		c0-0.37,0.3-0.67,0.67-0.67C113.57,114.89,113.87,115.19,113.87,115.56C113.87,115.56,113.87,115.56,113.87,115.56 M113.95,115.56
		c0-0.42-0.34-0.75-0.76-0.75s-0.75,0.34-0.75,0.76c0,0.42,0.34,0.75,0.75,0.75c0.41,0,0.75-0.33,0.76-0.74
		C113.95,115.57,113.95,115.57,113.95,115.56"/>
	<path class="st0" d="M82.4,54.07c-0.03-0.02-0.05-0.04-0.08-0.06c-0.03-0.02-0.06-0.04-0.1-0.05c-0.13-0.06-0.25,0.08-0.37-0.01
		c-0.08-0.06-0.14-0.14-0.21-0.21c-0.07-0.06-0.14-0.12-0.22-0.17c-0.06-0.04-0.26-0.19-0.31-0.07c-0.03,0.07-0.04,0.15-0.04,0.23
		c0,0.1,0,0.2,0.02,0.3c0.03,0.22,0.1,0.44,0.19,0.64l0,0c0.06,0.19,0.25,0.03,0.37,0c0.06-0.02,0.12-0.03,0.18-0.04
		c0.03,0,0.07,0.05,0.09,0.07c0.04,0.05,0.09,0.08,0.15,0.11c0.08,0.04,0.17,0.04,0.25,0c0.04-0.02,0.07-0.05,0.1-0.08
		c0.03-0.02,0.04-0.02,0.07,0c0.11,0.07,0.22,0.13,0.33,0.19c0.03,0.01,0.08,0.03,0.1,0.01c0.03-0.03,0.01-0.1-0.01-0.14
		c-0.04-0.11-0.07-0.22-0.08-0.33c-0.03-0.19,0.01-0.37,0.11-0.53c0.03-0.04,0.12-0.17,0.05-0.22c-0.04-0.04-0.14,0-0.18,0.02
		c-0.13,0.04-0.24,0.1-0.35,0.17c-0.02,0.01-0.03,0.05-0.02,0.1C82.45,54.01,82.47,54.11,82.4,54.07 M71.9,82.1
		c-0.51,0.04-1.02,0.04-1.52-0.01c-0.29-0.05-0.58-0.12-0.86-0.23c-0.1-0.04-0.16-0.09-0.25,0.09c-0.11,0.21-0.72,1.36-0.94,1.89
		c-0.22,0.53-0.59,1.49-0.68,1.83c-0.09,0.34-0.3,0.85-0.2-0.08c0.18-0.98,0.48-1.94,0.89-2.86c0.18-0.38,0.39-0.74,0.64-1.08
		c0.04-0.07-0.12-0.17-0.15-0.2c-0.05-0.04-0.09-0.08-0.13-0.14c-0.05-0.08-0.02-0.21-0.1-0.11c-0.37,0.52-0.67,1.08-0.89,1.68
		c-0.19,0.51-0.53,1.7-0.66,2.29c-0.06,0.31-0.15,0.61-0.25,0.9c-0.05,0.13-0.11,0.24-0.19,0.35c-0.04,0.04-0.1,0.09-0.17,0.15
		c-0.01,0.01-0.02,0.02,0,0.02c0.13-0.03,0.27-0.02,0.39,0.03c0.07,0.07,0.08,0.2-0.11,0.32c-0.13,0.11-0.25,0.23-0.35,0.36
		c-0.11,0.12-0.32,0.03-0.34-0.19c-0.01-0.03-0.01-0.01-0.02-0.01c-0.11,0.22-0.16,0.46-0.14,0.7l-0.03,0.08
		c-0.12,0.31-0.13,0.66-0.01,0.97c0.08,0.22,0.19,0.43,0.31,0.63l0.42-0.01c0,0,0.24,0.63,0.52,1.26c0.19,0.54,0.63,0.94,1.17,1.09
		c0.55,0.23,1.14,0.33,1.73,0.32c0.36-0.01,0.5-0.05,0.53-0.12c0.11-0.24-0.04-0.29-0.04-0.29c0.1-0.19,0.08-0.43-0.07-0.6
		c-0.25-0.23-0.53-0.43-0.83-0.6c-0.25-0.33-0.44-0.7-0.56-1.09c-0.15-0.47-0.23-0.97-0.22-1.46c0-0.02,0.02-0.02,0.03-0.03
		c0.14-0.04,0.22-0.18,0.19-0.32c-0.02-0.05-0.05-0.11-0.08-0.16c-0.02-0.02-0.01,0-0.01,0.01c0.01,0.05-0.02,0.11-0.07,0.13
		c-0.14,0.07-0.16-0.1-0.3-0.13c-0.18-0.03-0.24-0.14-0.11-0.21c0.08-0.06,0.2-0.08,0.29-0.03c0.04,0.02,0.08,0.05,0.11,0.09
		c0,0,0.01,0.01,0.01-0.01c0-0.02,0.01-0.03,0.01-0.05c0.05-0.36,0.16-0.71,0.31-1.04c0.59-1.1,1.29-2.15,2.07-3.12
		c0.44-0.55,0.64-0.75,0.73-0.86C72.07,82.17,72.17,82.08,71.9,82.1 M67.39,90.09c-0.16,0.18-0.38-0.38-0.46-0.61
		c-0.09-0.24-0.39-0.54-0.39-0.84c0-0.31,0.08-0.38,0.08-0.38c0.15-0.14,0.23,0.09,0.25,0.31c0.02,0.24,0.18,0.41,0.4,0.7
		C67.49,89.55,67.57,89.88,67.39,90.09 M68.72,90.85c0.05,0.12,0.12,0.22,0.22,0.3c0.07,0.04,0.15,0.08,0.23,0.11
		c0.03,0.01,0.16,0.07,0.14,0.1c-0.05,0.02-0.11,0.02-0.16,0.02c-0.12,0-0.25-0.03-0.35-0.09c-0.21-0.08-0.42-0.18-0.62-0.28
		c-0.17-0.13,0.12-0.29,0.29-0.29C68.56,90.71,68.66,90.76,68.72,90.85 M68.22,90.61c-0.17,0-0.24,0.11-0.39,0.12
		c-0.07,0.01-0.13-0.1,0.03-0.26c0.14-0.11,0.32-0.15,0.5-0.13C68.6,90.4,68.51,90.61,68.22,90.61 M83.68,51.06
		c-0.04,0.11-0.06,0.28-0.11,0.48c-0.06,0.24-0.17,0.46-0.31,0.66c-0.1,0.18-0.1,0.21-0.07,0.2c0.25-0.19,0.45-0.44,0.57-0.73
		c0.05-0.13,0.08-0.27,0.09-0.42c0.07-0.56-0.09-0.36-0.11-0.32C83.71,50.96,83.69,51.01,83.68,51.06 M85.32,80.84
		c0.13-0.39,0.34-0.74,0.62-1.03c0.04-0.06-0.05-0.3-0.11-0.44c-0.01-0.04-0.02-0.05-0.03-0.06c-0.03-0.01-0.05-0.01-0.08,0
		c-0.04,0-0.09,0-0.11-0.04c0.05-0.17,0.08-0.34,0.11-0.51c0.03-0.29,0-0.58-0.09-0.86c-0.06-0.22-0.11-0.3-0.18-0.32
		c-0.05-0.02,0.01,0.11,0.02,0.34c0.02,0.29-0.04,0.58-0.16,0.85c-0.15,0.29-0.32,0.56-0.39,0.72c-0.06,0.17-0.03,0.3,0.1,0.34l0,0
		c0.05,0,0.09,0.01,0.1,0.11c0.02,0.15-0.01,0.46-0.55,1.1c-0.22,0.24-0.47,0.45-0.73,0.65c0.02,0.1,0.02,0.19,0.01,0.29
		c-0.01,0.13-0.06,0.26-0.13,0.37c-0.03,0.02-0.05,0.04-0.08,0.06c-0.27,0.17-0.04,0.49-0.04,0.49c0.3-0.16,0.59-0.33,0.87-0.52
		C84.91,81.95,85.21,81.42,85.32,80.84 M93.6,87.72c-0.06,0-0.11,0.02-0.15,0.06c-0.19-0.14-0.45-0.15-0.65-0.03
		c-0.09,0.1-0.16,0.23-0.19,0.36c-0.04,0.2-0.05,0.46-0.12,0.49c-0.02,0.03-0.06,0.03-0.12,0.01c-0.23-0.08-0.2-0.02-0.38,0.08
		c-0.34,0.19-0.74,0.2-1.09,0.05c-0.01-0.01-0.07-0.07-0.04-0.07c0.36,0.03,0.73-0.06,1.03-0.27c0.03-0.03,0.06-0.06,0.09-0.09
		c0.01-0.01,0.05-0.05-0.01-0.04c-0.03,0.01-0.05,0.02-0.12,0.04c-0.67,0.13-1.36,0.08-2-0.15c-0.16-0.04-0.32-0.1-0.46-0.19
		c0.03-0.09-0.01-0.18-0.09-0.22c-0.09-0.05-0.19-0.07-0.29-0.08c-0.09-0.07-0.17-0.17-0.23-0.27c-0.49-0.99-0.93-2-1.32-3.03
		c-0.41-1.11-0.77-2.24-1.06-3.39h0c0,0-0.02-0.08-0.05-0.18c-0.01-0.03-0.01-0.05-0.01-0.05v0c-0.03-0.1-0.05-0.21-0.08-0.28
		c-0.01-0.02-0.02-0.03-0.02-0.04c-0.05-0.09-0.11,0.32-0.08,0.63c-0.09,0.17-0.18,0.34-0.25,0.52c-0.11,0.47-0.35,0.91-0.69,1.27
		c-0.29,0.22-0.48,0.31-0.52,0.35c-0.04,0.04,0.02,0.05,0.08,0.08c0.04,0.02,0.08,0.05,0.1,0.08c0.04,0.08,0.08,0.16,0.12,0.25
		c0.01,0.02,0.02,0.05,0.02,0.07c0.31,0.96,0.74,1.88,1.28,2.74c0.43,0.67,0.98,1.45,0.73,1.21c-0.56-0.52-1.06-1.1-1.51-1.71
		c-0.3-0.4-0.53-0.84-0.69-1.31c-0.12-0.36-0.21-0.66-0.25-0.79c-0.01-0.02-0.03-0.09-0.03-0.11c-0.02-0.05-0.04-0.1-0.06-0.15
		c-0.09-0.14-0.15-0.22-0.24-0.17c-0.08,0.04-0.31,0.17-0.31,0.17c0.23,0.71,0.55,1.38,0.97,1.99c0.48,0.75,1.01,1.46,1.6,2.13
		c0.05,0.06,0.1,0.12,0.14,0.18c0.08,0.12,0.15,0.22,0.21,0.31c-0.02,0.13,0,0.27,0.08,0.38c0.03,0.03,0.06,0.06,0.1,0.07
		c0.06,0.01,0.25,0.02,0.15,0.27c-0.02,0.04-0.04,0.08-0.06,0.13c-0.02,0.07-0.02,0.15,0.01,0.22c0.05,0.13,0.2,0.22,0.23,0.3
		c0.03,0.08,0.04,0.22,0.13,0.5c0.02,0.06,0.04,0.12,0.07,0.17c0.03,0.09,0.07,0.19,0.11,0.27c0.18,0.31,0.42,0.59,0.69,0.83
		l0.41,0.44c0.24-0.07,0.48-0.16,0.7-0.28c0.23-0.1,0.44-0.23,0.63-0.39l-0.1-0.48l0.28-0.11c0.69-0.15,1.37-0.36,2.03-0.63
		c0.69-0.47,1.21-1.14,1.5-1.92C93.83,87.82,93.64,87.73,93.6,87.72 M88.07,90.24c-0.06,0.04-0.32,0.01-0.46-0.3
		c-0.05-0.15-0.09-0.3-0.11-0.46c-0.02-0.13,0.26-0.21,0.4-0.13c0.14,0.08,0.1,0.34,0.1,0.34C87.99,90.09,88.13,90.19,88.07,90.24
		 M90.35,90.11c-0.23,0.08-0.47,0.15-0.71,0.19c-0.26,0.06-0.51,0.18-0.73,0.35c-0.32,0.2-0.21-0.27-0.08-0.4
		c0.27-0.15,0.58-0.21,0.89-0.19c0.25-0.02,0.49-0.06,0.72-0.14C90.48,89.91,90.49,90.05,90.35,90.11 M87.32,62.52
		c0.09,0.01,0.18,0.03,0.27,0.08l0.13-0.25c0.38-0.03,0.67-0.36,0.64-0.74c-0.03-0.36-0.33-0.64-0.69-0.64
		c-0.15,0-0.29,0.05-0.41,0.14c-0.01,0.01-0.02,0.02,0.03,0.01c0.06-0.03,0.13-0.04,0.19-0.01l0.01,0.01
		c0.06,0.07-0.06,0.12-0.07,0.27c0,0.05-0.02,0.13-0.08,0.15c-0.07,0.01-0.13-0.01-0.18-0.05c-0.04-0.03-0.06-0.08-0.06-0.14
		c0-0.03-0.01-0.03-0.02-0.01c-0.06,0.1-0.1,0.22-0.09,0.34c0,0.13,0.04,0.26,0.11,0.37c-0.1,0.22-0.24,0.55-0.26,0.62
		C86.79,62.76,87.07,62.53,87.32,62.52 M88.21,62.96c0.04,0.03,0.08,0.07,0.11,0.11c0.1-0.02,0.19-0.1,0.2-0.21
		c0.02-0.1-0.08-0.19-0.29-0.22c-0.21-0.03-0.32-0.07-0.43-0.09c-0.07-0.01-0.15,0.01-0.21,0.06c0.02,0.01,0.04,0.02,0.06,0.03
		C87.85,62.73,88.04,62.84,88.21,62.96 M79.56,72.14c0.26-0.27,0.54-0.52,0.84-0.75c0.23-0.17-0.04-0.11-0.82,0.42
		c-0.37,0.27-0.69,0.6-0.95,0.98c-0.6,0.92-1.14,1.88-1.61,2.88c-0.24,0.52-0.57,0.98-0.98,1.37c-0.47,0.41-1.02,0.59-1.3,0.84
		c-0.03,0.03-0.06,0.06-0.09,0.09c-0.03,0.03-0.06,0.06-0.08,0.11c-0.04,0.07-0.05,0.15-0.05,0.23c0.02,0.14-0.02,0.29-0.11,0.4
		c-0.16,0.14-0.34,0.24-0.54,0.3c-0.02,0.01-0.05,0.01-0.07,0.02c-0.05,0.01-0.23,0.06-0.26,0.07c-0.22,0.03-0.34,0.13-0.16,0.23
		c0.07,0.04,0.14,0.07,0.22,0.08c0.16,0.05,0.21,0.08,0.21,0.15c0,0.1-0.12,0.27-0.55,0.41c-0.54,0.14-1.1,0.2-1.66,0.18
		c-0.26-0.03-0.53-0.03-0.79-0.01c-0.07,0.04-0.05,0.13,0.25,0.22c0.16,0.05,0.56,0.12,0.75,0.18c0.11,0.04,0.08,0.14-0.06,0.16
		c-0.43,0.05-0.87,0.01-1.29-0.1c0,0-0.15-0.05-0.21-0.08c-0.18-0.09-0.33-0.22-0.44-0.39c-0.04-0.07-0.05-0.21-0.12-0.25
		l-0.32,0.44c0,0-0.04,0.13,0.19,0.43c0.04-0.04,0.03-0.11,0.06-0.16c0.04-0.07,0.14-0.13,0.2-0.03c0.05,0.09,0.05,0.19,0.01,0.28
		c-0.02,0.04-0.04,0.09-0.04,0.13c0,0.01,0,0.02,0.01,0.03c0.22,0.16,0.48,0.27,0.75,0.32c0.56,0.11,1.13,0.1,1.68-0.03
		c0.05-0.01,0.28-0.06,0.29-0.01c0,0.08-0.02,0.16-0.06,0.23c-0.05,0.12-0.07,0.15-0.1,0.22c-0.02,0.08,0.03,0.07,0.04,0.07
		c0.08-0.05,0.16-0.12,0.23-0.19c0.08-0.08,0.34-0.31,0.41-0.38c0.23-0.21,0.35-0.32,0.32-0.42c-0.01-0.02-0.01-0.04-0.01-0.07
		c-0.01-0.03-0.02-0.07-0.03-0.1c-0.01-0.15,0.07-0.29,0.3-0.46c0.25-0.13,0.48-0.29,0.7-0.46c0.23-0.23,0.07-0.49,0.26-0.72
		c0.2-0.22,0.53-0.32,0.64-0.48c0.17-0.25,0.17-0.31,0.34-0.6c0.31-0.4,0.66-0.79,1.02-1.15c0.54-0.71,1-1.48,1.38-2.28
		C78.41,73.66,78.95,72.87,79.56,72.14 M71.89,70.26c-0.01,0.01-0.03,0.03-0.06,0.05c-0.56,0.4-0.7,1.18-0.29,1.75
		c0.08,0.11,0.17,0.2,0.27,0.28c0.25,0.15-0.02-0.09,1.09-1.48c0.38-0.4,0.8-0.76,1.25-1.06c-0.14,0.02-0.53,0.09-1.11,0.21
		C72.65,70.07,72.26,70.15,71.89,70.26 M86.87,64.92c0.2-0.12,0.28-0.14,0.4-0.22c0.09-0.06,0.16-0.16,0.17-0.27
		c-0.01-0.08,0.04-0.11,0.16-0.16c0.09-0.03,0.16-0.11,0.19-0.2c0.04-0.09,0.06-0.17,0.06-0.17s0.04-0.07,0.19-0.09
		c0.15-0.02,0.35-0.09,0.34-0.27c-0.01-0.11-0.03-0.21-0.07-0.31l0-0.01l0,0l0,0.01c-0.08,0.1-0.21,0.13-0.32,0.08
		c-0.23-0.08-0.37-0.17-0.48-0.21c-0.14-0.05-0.27-0.05-0.21,0.08c0.06,0.13,0.09,0.19,0,0.28c-0.04,0.03-0.08,0.06-0.13,0.08
		c-0.16,0.07-0.2,0.18-0.19,0.24c0.03,0.08,0,0.17-0.06,0.23c-0.08,0.07-0.18,0.15-0.17,0.25c0.01,0.1-0.03,0.15-0.13,0.22
		c-0.1,0.07-0.23,0.08-0.61,0.12c-0.21,0.03-0.43,0-0.62-0.1c-0.09-0.04-0.2-0.01-0.24,0.08c-0.01,0.02-0.01,0.03-0.02,0.05
		c-0.01,0.1,0,0.13,0.11,0.15c0.11,0.02,0.12,0.1-0.02,0.13c-0.14,0.03,0.14,0.18,0.27,0.22c0.02,0,0.05,0.01,0.06,0.02
		c-0.62,1.32-8.13,16.21-8.19,16.36c-0.02,0.04,0,0.08,0.03,0.1c0.04,0.03,0.09,0.02,0.12-0.02c0.07-0.1,8.74-16.52,8.74-16.52
		C86.48,65.04,86.68,65,86.87,64.92 M68.49,74.22c0.32,0.27-0.96-1.38,2.69-3.86c-2.15,0.4-2.54,1.11-2.68,1.38
		c-0.06,0.12-0.15,0.38-0.18,0.43c-0.13-0.83,0.66-1.36,0.98-1.54c1.14-0.64,2.29-0.62,4.51-1.28c0.12-0.04,0.62-0.2,0.71-0.24
		c0.48-0.17,0.94-0.4,1.37-0.67c0.62-0.37,1.16-0.86,1.6-1.43c0.05-0.05,0.09-0.11,0.13-0.16c0.09-0.1-0.07-0.04-0.19,0
		c-0.29,0.11-0.71,0.28-1.07,0.41c-0.29,0.1-0.58,0.19-0.88,0.26c-0.49,0.11-0.86,0.03-0.34-0.15c1.09-0.51,2.2-0.94,3.35-1.29
		c0.09-0.03,0.18-0.05,0.27-0.07c0.06-0.01,0.13-0.03,0.19-0.04c0.34-0.07,0.69-0.1,1.04-0.1c0.33-0.01,0.66,0.01,0.98,0.08
		c0.22-0.2,0.41-0.42,0.57-0.66c0.03-0.05,0.06-0.1,0.08-0.15c0.02-0.03,0.03-0.06,0.04-0.09l0.01,0.03
		c0.12,0.28,0.56,1.23,0.77,1.04c0.16-0.43,0.27-0.89,0.3-1.35c-0.31-0.15-0.75-0.36-0.71-0.35c0.07,0.01,0.32,0.1,0.44-0.03
		l0.02-0.02c0.02-0.03,0.06-0.05,0.09-0.07c0.06-0.02,0.13,0,0.16,0.06c0.01,0.01,0.01,0.01,0.02,0.02
		c0.02,0.04,0.04,0.08,0.06,0.13c0.02,0.06,0.04,0.12,0.08,0.17c0.17,0.19,0.12,0.1,0.59,0.3c0.04,0.02,0.07,0.03,0.11,0.04
		c-0.06-0.07-0.12-0.14-0.17-0.22c-0.19-0.29,0.2-0.27,0.36-0.14c0.27,0.23,0.13,0.29,0.1,0.46c0.18,0.05,0.35,0.09,0.54,0.11
		c0.15,0.03,0.31-0.06,0.35-0.21c0.07-0.22-0.31-0.09-0.38-0.56c-0.1-0.4,0.04-0.81,0.37-1.06c0.14-0.1,0.28-0.19,0.43-0.27
		c0.08-0.05,0.22-0.11,0.28-0.13c0.06-0.03,0.11-0.05,0.16-0.08c0.06-0.03,0.11-0.07,0.16-0.12c0.04-0.05,0.05-0.09,0.01-0.1
		c-0.03-0.01-0.07-0.01-0.1,0c-0.14,0.02-0.28,0.02-0.42,0.01c-0.14-0.01-0.31-0.02-0.48-0.04c-0.07-0.01-0.16-0.02-0.25-0.03
		c-0.1-0.01-0.14-0.02-0.28-0.04c-0.21-0.03-0.41-0.08-0.61-0.14c-0.4-0.12-0.83-0.27-1.21-0.35l-0.1-0.02
		c-0.31-0.05-0.62-0.04-0.92,0.03c-0.29,0.06-0.59,0.09-0.89,0.1c-0.16,0-0.31-0.03-0.46-0.08c-0.11-0.03-0.22-0.08-0.32-0.15
		c0,0-0.21-0.13,0.44-0.22c0.43-0.06,0.87-0.09,1.31-0.08c0.38,0.02,0.75,0.09,1.11,0.21c0.15,0.05,0.2,0.07,0.3,0.11
		c0.09,0.03,0.11,0.04,0.16,0.05c0.05,0.01,0.07,0.02,0.11,0.03c0.1-0.44,0.39-1.53,0.55-2.14c0.19-0.73,0.33-1.46,0.42-2.21
		c0.84,0.25,1.7,0.43,2.57,0.53c1.08,0.19,2.18,0.21,3.26,0.06c0.25-0.09,0.79-0.38,0.83-0.64c0.07-0.45-0.64-1.54-1.25-2.27
		c-0.27-0.32-0.49-0.67-0.65-1.06c-0.01-0.05-0.02-0.09-0.03-0.11c-0.02-0.24-0.01-0.41-0.3-0.44c-0.05,0-0.09,0.01-0.14,0.02
		c-0.05,0.01-0.08-0.01-0.11-0.08c-0.01-0.01-0.01-0.03-0.02-0.05l-0.01-0.02c-0.01-0.05-0.05-0.09-0.1-0.11
		c-0.03-0.01-0.06-0.02-0.09-0.03c-0.07-0.04-0.11-0.1-0.12-0.17c-0.03-0.08-0.07-0.2-0.07-0.21c-0.05-0.09-0.1-0.17-0.17-0.25
		c-0.07-0.11-0.13-0.22-0.18-0.34c-0.09-0.24-0.17-0.48-0.23-0.72c-0.04-0.08-0.11-0.15-0.19-0.18c-0.04-0.01-0.07-0.01-0.11-0.01
		c-0.15-0.02-0.26-0.06-0.21-0.06c0.08-0.01,0.17-0.01,0.26-0.01c-0.02-0.05-0.05-0.12-0.08-0.19c-0.03-0.11-0.13-0.18-0.25-0.19
		c-0.09,0-0.58-0.03-0.64,0.08l-0.01,0.02c0.03-0.01,0.07-0.02,0.1-0.02c0.1-0.01,0.14,0.07,0.16,0.18
		c0.01,0.07,0.01,0.14-0.01,0.21c0,0,0.14-0.04,0.17,0.08c0.02,0.08,0.01,0.17-0.01,0.25c0,0,0.07-0.07,0.15,0.03
		c0.02,0.02,0.03,0.04,0.03,0.06c0.02,0.05,0.01,0.11-0.01,0.16c-0.01,0.03-0.02,0.06-0.04,0.09c-0.01,0.03-0.04,0.04-0.06,0.07
		c-0.02,0.03,0,0.06-0.01,0.1c-0.01,0.07-0.04,0.14-0.09,0.19c-0.02,0.02-0.05,0.03-0.08,0.04c-0.04,0-0.08-0.03-0.09-0.07
		c0,0-0.11,0.17-0.21,0.18c-0.09,0.02-0.13-0.06-0.14-0.12c-0.01-0.05-0.05-0.39-0.09-0.6c-0.01-0.05-0.01-0.09,0-0.14
		c0,0,0.01-0.04,0.01-0.05c0,0,0.02-0.08,0.02-0.12c0.02-0.12,0.04-0.24,0.02-0.24c0,0-0.01,0-0.01,0.01
		c-0.08,0.13-0.13,0.27-0.16,0.42c0,0.06,0,0.08,0,0.13c0.01,0.07,0,0.13-0.01,0.2c-0.01,0.01-0.02,0-0.03-0.01
		c-0.04-0.06-0.08-0.12-0.12-0.17c-0.1-0.11-0.29-0.21-0.43-0.12c-0.09,0.06,0.05,0.16,0.13,0.3c0.08,0.15,0.15,0.31,0.21,0.48
		c0.04,0.14,0.12,0.26,0.22,0.36c0.19,0.15,0.39,0.28,0.61,0.39c0.2,0.09,0.38,0.21,0.55,0.34c0.03,0.03,0.06,0.06,0.09,0.1
		c0.03,0.05,0.06,0.09,0.08,0.12c0.02,0.02,0.05,0.04,0.09,0.04c0.1,0.01,0.19,0.02,0.29,0.01c0.04,0,0.07,0,0.11,0.01
		c0.07,0.03,0.04,0.11,0.02,0.14c-0.03,0.04-0.07,0.08-0.12,0.1c-0.03,0.02-0.06,0.03-0.09,0.04c-0.04,0.01-0.08,0.02-0.12,0.03
		c-0.06,0.01-0.12,0.01-0.19,0l-0.03,0c-0.04,0-0.09-0.01-0.13-0.03c-0.02-0.01-0.05-0.02-0.07-0.04c-0.08-0.05-0.14-0.11-0.2-0.18
		c0-0.01-0.01-0.01-0.01-0.01c-0.03-0.04-0.05-0.06-0.1-0.04c-0.06,0.02-0.17,0.08-0.15,0.15c0,0.01,0.01,0.02,0.01,0.03
		c0.07,0.16,0.09,0.34,0.06,0.51c-0.02,0.18,0.04,0.47,0.21,0.2c0.11-0.19,0.49,0.27,0.33,0.38c-0.16,0.11-0.36,0-0.25,0.18
		c0.11,0.18,0.24,0.12,0.5,0.32L87.26,56c0.02,0.01,0.03,0.01,0.05,0.01c0.03,0.01,0.07,0.02,0.1,0.02c0.01,0,0.03,0,0.04,0
		c0.05,0,0.09,0,0.14,0c0.09-0.02,0.19-0.01,0.27,0.02c0.04,0.02,0.03,0.06-0.04,0.11c-0.06,0.04-0.12,0.07-0.18,0.1
		c0.04,0.12,0.09,0.24,0.15,0.36c0.04,0.06,0.09,0.16,0.13,0.21c0.25,0.31,0.56,0.56,0.9,0.76c0.06,0.04,0,0.09-0.16,0.04
		c-0.34-0.11-0.66-0.29-0.92-0.53c-0.02-0.02-0.08-0.08-0.1-0.1c-0.07-0.09-0.13-0.18-0.17-0.28c-0.02-0.05-0.05-0.12-0.07-0.17
		c-0.01-0.05-0.04-0.09-0.08-0.13c-0.06-0.04-0.18-0.03-0.2,0.24c0,0.09,0,0.19,0.01,0.28c0,0.03,0,0.05,0,0.08
		c0,0.11-0.07,0.12-0.13,0.06c-0.14-0.13-0.22-0.31-0.24-0.5c0-0.02-0.01-0.08,0-0.09c-0.01-0.15,0.03-0.3,0.11-0.42
		c-0.13-0.07-0.25-0.17-0.33-0.3c-0.19-0.26-0.5-0.4-0.82-0.39c-0.51,0.03-0.74-0.43-0.96-0.63c-0.28-0.22-0.63-0.33-0.99-0.32
		c-0.34,0.01-0.61,0.06-0.66,0.05c0,0-0.06,0.08,0.12,0.42c0.1,0.18,0.4,0.24,0.37,0.65c-0.02,0.38-0.21,0.73,0.03,1.03
		c0.01,0.02,0.03,0.04,0.04,0.06c0.17,0.24,0.25,0.54,0.22,0.83c-0.14,1.25-0.49,2.48-1.02,3.62c-0.15,0.33-0.16-0.03-0.16-0.03
		c-0.03-1.12-0.23-2.23-0.58-3.3c-0.45-1.35-1.12-2.62-1.97-3.76c-0.46-0.68-0.99-1.31-1.58-1.87c-0.06,0.06,0.02,0.38-0.2,0.7
		c-0.11,0.13-0.24,0.24-0.38,0.34c-0.07,0.06,0.23,0.01,0.47,0.11c0.31,0.12,0.59,0.31,0.23,0.25c-0.35-0.06-1-0.06-0.95,0
		c0.05,0.06,0.56,0.2,0.93,0.46c0.24,0.17,0.58,0.48,0.04,0.35c-0.53-0.15-1.08-0.26-1.63-0.31c-0.6-0.04-1.21,0.24-1.07,0.3
		c0.01,0,0.02,0.01,0.03,0.01l0,0h0c0.15,0.05,0.29,0.11,0.43,0.2c0.17,0.1,0.33,0.23,0.46,0.38c-0.01,0.01-0.04,0.01-0.09,0
		c-0.08-0.02-0.16-0.04-0.24-0.08c-0.2-0.13-0.43-0.22-0.67-0.25h0c-0.13,0.01-0.09,0.05,0,0.11c0.07,0.04,0.17,0.09,0.24,0.14
		c0.3,0.17,0.55,0.41,0.74,0.7c0.16,0.28,0.29,0.57,0.38,0.88c0.05,0.16,0.1,0.33,0.14,0.5c0.04,0.2,0.02,0.21-0.03,0.15
		c-0.03-0.04-0.08-0.13-0.12-0.19c-0.04-0.06-0.11-0.17-0.17-0.26c-0.09-0.15-0.19-0.3-0.3-0.46c-0.18-0.27-0.42-0.65-0.56-0.62
		c-0.14,0.03-0.03,0.43,0.09,0.68c0.25,0.34,0.53,0.65,0.84,0.93c0.05,0.05,0.1,0.11,0.15,0.16c0.03,0.04,0.06,0.07,0.09,0.11
		c0.33,0.42,0.63,0.86,0.9,1.33c0.24,0.41,0.44,0.84,0.61,1.29c0.08,0.19,0.23,0.35,0.41,0.44c0.42,0.22,0.36,0.28,0.45,0.38
		c0.1,0.1,0.22,0.17,0.36,0.19c0.05,0.01,0.21,0.07,0.21,0.07c0.14,0.03,0.27,0.11,0.35,0.24c0.04,0.05,0.03,0.11-0.03,0.11
		c-0.08,0-0.21-0.02-0.42-0.04c-0.31-0.02-0.62,0-0.92,0.07c-0.11,0.02-0.57,0.12-0.67,0.14c-0.31,0.05-0.62,0-0.89-0.14
		c-0.23-0.13-0.43-0.29-0.6-0.49l-0.01-0.01c-0.14-0.15-0.24-0.42,0.16-0.17c0.29,0.18,0.61,0.29,0.95,0.31c0.05,0,0.1,0,0.15,0
		c0.18,0,0.51-0.01,0.76-0.02c0.13,0.01,0.26,0,0.39-0.02c0.01-0.02-0.01-0.05-0.06-0.08c-0.13-0.09-0.28-0.15-0.43-0.17
		c-0.43-0.08-1.2-0.09-1.57-0.69c-0.16-0.26,0.19-0.06,0.54,0c0.24,0.04-0.1-0.35-0.29-0.57c-0.18-0.2-0.44-0.39-1.1-0.98
		c-0.49-0.46-0.94-0.96-1.34-1.5c-0.32-0.37-0.52-0.84-0.55-1.33c0-0.32,0.06-0.64,0.19-0.94c0.04-0.08,0.11-0.24,0.02-0.21
		c-0.14,0.07-0.26,0.18-0.34,0.32c-0.09,0.14-0.16,0.3-0.18,0.47c-0.06,0.74,0.02,1.48,0.24,2.18c0,0.02,0.16,0.52,0.42,1.19
		c0.2,0.47,0.43,0.93,0.68,1.37c0.21,0.35,0.51,0.82,0.75,1.17c0.2,0.28,0.54,0.73,0.54,0.74c0.12,0.14,0.24,0.27,0.38,0.39
		c0.15,0.11,0.3,0.21,0.47,0.3c0.34,0.15,0.68,0.28,1.03,0.4c0.41,0.15,1.41,0.53,1.59,0.61c0.53,0.21-0.72-0.05-1.64-0.25
		c-0.43-0.06-0.85-0.19-1.24-0.36c-0.21-0.11-0.4-0.24-0.57-0.4c0,0-0.02-0.02-0.03-0.03c-0.01-0.02-0.03,0.01-0.04,0.05
		c-0.01,0.04-0.01,0.08-0.04,0.25c-0.02,0.08-0.03,0.17-0.05,0.25c-0.19,0.64-0.51,1.24-0.96,1.74c0.03-0.24-0.08-0.36-0.34-0.18
		c-0.63,0.54-1.43,0.84-2.25,0.85c-0.58-0.03-0.9-0.36-0.94-0.25c-0.01,0.04-0.01,0.09-0.01,0.13c0.09,0.33,0.33,0.59,0.64,0.73
		c0.29,0.12,0.6,0.18,0.92,0.17c-0.95,0.15-1.88,0.44-2.75,0.87c-2.02,0.99-3.32,3.04-3.34,5.3C67.89,73.21,68.1,73.78,68.49,74.22
		 M81.4,59.17c-0.14,0.06-0.31,0-0.37-0.14c-0.06-0.14,0-0.31,0.14-0.37c0.14-0.06,0.31,0,0.37,0.14c0.01,0.01,0.01,0.03,0.02,0.04
		C81.6,58.97,81.53,59.12,81.4,59.17 M82.03,60.38c0.01,0.13-0.08,0.25-0.22,0.26c-0.13,0.01-0.25-0.08-0.26-0.22
		c-0.01-0.12,0.06-0.23,0.18-0.26C81.87,60.15,82.01,60.24,82.03,60.38 M78.8,55.54c0.26-0.19,0.55-0.32,0.85-0.41
		c0.18,0-0.28,0.35-0.2,0.47c0.04,0.06,0.53,0.41,1.13,1.04c0.31,0.31,0.58,0.68,0.78,1.07c0.07,0.11,0.11,0.25,0.11,0.38
		c-0.02,0.06-0.23-0.31-0.68-0.8C79.9,56.35,78.77,55.62,78.8,55.54 M86.22,52.02c0.03-0.1,0.06-0.2,0.03-0.19c0,0-0.05,0-0.09,0.09
		c-0.03,0.08-0.04,0.17-0.03,0.25C86.14,52.2,86.19,52.12,86.22,52.02"/>
	<path class="st0" d="M83.11,50.82c-0.01-0.01-0.01-0.01-0.02-0.02c-0.09-0.03-0.18-0.05-0.28-0.05c-0.03,0-0.05,0-0.07,0
		c-0.17,0.01-0.35-0.01-0.51-0.07c-0.02-0.01-0.03-0.02-0.05-0.03c-0.03-0.02-0.05-0.05-0.05-0.08c-0.01-0.02-0.02-0.05-0.03-0.07
		c-0.01-0.01-0.01-0.02-0.02-0.02l-0.01-0.01c-0.04-0.03-0.08-0.06-0.11-0.09l0,0v0c0-0.01,0-0.02,0-0.04
		c0-0.01,0.01-0.02,0.01-0.03l0.01-0.02c0-0.01,0-0.01,0-0.02c0-0.02-0.01-0.03-0.02-0.05c-0.02-0.02-0.04-0.04-0.07-0.05
		c-0.04-0.03-0.08-0.05-0.12-0.07c-0.07-0.04-0.15-0.07-0.23-0.07c-0.08-0.01-0.17,0-0.19,0.06c-0.01,0.03-0.03,0.07-0.04,0.1
		c-0.02,0.07-0.04,0.15-0.06,0.23c-0.05,0.23-0.02,0.48,0.1,0.68c0,0,0.01,0.01,0.01,0.02c0,0.02-0.04,0.02-0.12,0.03
		c-0.1,0.01-0.39-0.23-0.44-0.26c-0.01,0-0.01-0.01-0.02-0.02c-0.03-0.08-0.05-0.15-0.05-0.23c-0.01-0.11-0.04-0.21-0.09-0.31
		c-0.02-0.05-0.06-0.1-0.09-0.15c-0.01-0.01-0.02-0.02-0.04-0.03c-0.03-0.02-0.05-0.04-0.08-0.06c-0.01-0.01-0.01-0.02-0.01-0.03
		l0.01-0.01c0.04-0.03,0.09-0.05,0.14-0.03c0.03,0.01,0.06,0.03,0.08,0.05l0.01,0.02l0.01,0.01l0,0c-0.01-0.1-0.05-0.2-0.1-0.28l0,0
		l-0.01-0.01c-0.03-0.03-0.07-0.06-0.11-0.07c-0.2-0.02-0.4,0.11-0.45,0.31C80,50.07,79.99,50.13,80,50.18
		c0.01,0.13,0.05,0.25,0.11,0.36c0.04,0.11,0.07,0.23,0.08,0.34c0.01,0.11,0.05,0.13,0.05,0.14c0.06,0.05,0.14,0.07,0.23,0.06l0,0
		c0.01,0.01,0.01,0.02,0,0.05c-0.02,0.07-0.11,0.19-0.19,0.17c-0.02-0.01-0.03-0.02-0.04-0.04c-0.09-0.1-0.2-0.17-0.32-0.22
		c-0.17-0.09-0.37-0.08-0.53,0.01c-0.03,0.03-0.03,0-0.01,0.13c0.02,0.14,0,0.28-0.04,0.41c-0.04,0.09-0.04,0.19-0.01,0.29
		c0.09,0.23,0.23,0.44,0.42,0.6c0.22,0.23,0.46,0.44,0.73,0.62c0.15,0.07,0.25-0.31,0.26-0.34c0-0.01,0-0.02-0.01-0.02
		c-0.05-0.02-0.2,0.02-0.28,0.01c-0.05-0.01-0.05-0.05-0.02-0.09l0.01-0.01c0.09-0.08,0.19-0.14,0.29-0.18c0.01,0,0.01,0,0.02,0.01
		c0.02,0.01,0.12,0.09,0.13,0.11c0.07,0.07,0.19,0.19,0.33,0.32l0.02,0.02c0.15,0.14,0.31,0.26,0.49,0.36l0.01,0.01
		c0.19,0.09,0.55,0.24,0.75,0.1c0.07-0.06,0.12-0.14,0.13-0.23c0.04-0.08,0.09-0.16,0.14-0.23c0.02-0.04-0.16,0.06-0.23,0.19
		c-0.02,0.04-0.07,0.13-0.16,0.13c-0.05-0.01-0.1-0.03-0.14-0.06c0.01-0.02,0.03-0.05,0.03-0.07c0.01-0.03,0.01-0.07,0.01-0.1
		c0-0.13,0.02-0.25,0.08-0.36c0.04-0.04,0.07-0.08,0.07-0.08c0.02-0.04,0.04-0.08,0.04-0.13c0.01-0.06,0.03-0.12,0.07-0.17
		c0.02-0.02,0.05-0.05,0.07-0.07c0.03-0.04,0.05-0.08,0.07-0.12c0.03-0.1,0.05-0.19,0.11-0.21c0.06-0.01,0.12-0.01,0.18,0
		c0.07,0,0.13-0.04,0.15-0.1c0.03-0.14,0.04-0.27,0.04-0.41C83.16,51.17,83.15,50.99,83.11,50.82 M81.69,51.76
		c-0.09,0.06-0.09,0.15-0.16,0.14l-0.02-0.01c-0.03-0.02-0.06-0.19,0.03-0.24c0.1-0.04,0.21-0.05,0.31-0.01l0.01,0
		C81.92,51.67,81.77,51.7,81.69,51.76"/>
	<path class="st0" d="M85.73,63.36c-0.16,0.02-0.32,0.04-0.48,0.08c-0.13,0.05-0.25,0.13-0.21,0.21c0.05,0.08,0.18,0.07,0.44-0.05
		C85.74,63.48,85.85,63.37,85.73,63.36"/>
	<path class="st0" d="M83.44,57.53c0.02-0.23-0.36-0.16-0.29-0.01c0.04,0.09,0.05,0.19,0.04,0.29
		C83.32,57.77,83.42,57.66,83.44,57.53"/>
	<path class="st0" d="M82.89,56.64c0.06,0.17,0.08,0.23,0.08,0.23c0.1,0.03,0.21-0.02,0.24-0.12c0.01-0.02,0.01-0.04,0.01-0.06
		C83.26,56.45,82.83,56.48,82.89,56.64"/>
	<path class="st0" d="M79.95,48.82c0,0-0.06,0.12-0.36,0.11c-0.3-0.02-0.46,0-0.54,0.33c-0.05,0.25-0.03,0.51,0.08,0.75
		c0.06,0.18,0.08,0.36-0.03,0.44c-0.11,0.08-0.22,0.02-0.21,0.13c0.02,0.07,0.08,0.13,0.16,0.14c0.11,0.01,0.21-0.01,0.31-0.06
		c0.12-0.03,0.24-0.01,0.34,0.04c0.15,0.07,0.06-0.13-0.16-0.37c-0.21-0.28-0.29-0.64-0.2-0.97c0.11-0.36,0.45-0.26,0.57-0.35
		C80.03,48.92,80.01,48.76,79.95,48.82"/>
	<path class="st0" d="M78.88,48.43c0.08,0.07,0.17,0.11,0.26,0.14c0.11,0.04,0.23,0.07,0.34,0.08c0.28,0.04,0.39,0,0.7,0.02
		c0.23,0.02,0.46,0.06,0.68,0.14c0.58,0.24,1.1,0.6,1.54,1.05c0.2,0.21,0.63,0.53,0.66,0.43c-0.08-0.1-0.17-0.2-0.26-0.3
		c-0.16-0.21-0.31-0.48-0.44-0.63c-0.13-0.16-0.29-0.3-0.46-0.42c-0.06-0.04-0.17-0.13-0.18-0.14c-0.09-0.11,0.14-0.04,0.25,0
		c0.27,0.12,0.53,0.27,0.77,0.45c0.17,0.12,0.32,0.26,0.45,0.42c0.2,0.26,0.32,0.52,0.5,0.73c0.11,0.13,0.25,0.23,0.4,0.3
		c0.36,0.18,0.77,0.24,1.17,0.19c0.29-0.08,0.39-0.17,0.37-0.26c0.02,0.03,0.05,0.06,0.08,0.08c0.04,0.04,0.08,0.08,0.13,0.11
		c0.02,0.01,0.03,0.02,0.05,0.02c0.07,0.03,0.13,0,0.15,0.03c0.01,0.04-0.01,0.07-0.03,0.1c0,0.01,0.01,0.03,0.03,0.08
		c0.02,0.05,0.22,0.07,0.22,0.07s0.25,0.02,0.23-0.01c0,0,0.02-0.05-0.18-0.37c-0.21-0.18-0.42-0.35-0.65-0.51
		c-0.1-0.07-0.19,0.01-0.17,0.11c0.01,0.06,0.03,0.12,0.07,0.18c-0.14-0.09-0.29-0.15-0.45-0.18c-0.26-0.02-0.51-0.14-0.7-0.32
		c-0.04-0.03-0.03-0.07-0.03-0.07c0.23-0.4,0.5-0.78,0.8-1.13c0.34-0.34,0.68-0.57,0.74-0.79c-0.16-0.96-0.78-1.77-1.66-2.18
		c-0.79-0.52-1.73-0.75-2.67-0.65c-0.35,0.09-0.41,0.27-0.42,0.47c-0.02,0.34-0.06,0.68-0.12,1.02c-0.06,0.19-0.1,0.39-0.12,0.59
		c0.01,0.08,0.06,0.16,0.12,0.22c0.09,0.1,0.19,0.2,0.29,0.28c0.21,0.16,0.4,0.35,0.57,0.56c0.13,0.19-0.08,0.13-0.21,0.04
		c-0.28-0.2-0.59-0.37-0.91-0.5c-0.14-0.05-0.32-0.12-0.44-0.15c-0.49-0.2-1.04-0.17-1.5,0.09C78.6,48,78.71,48.27,78.88,48.43"/>
	<path class="st0" d="M66.27,92.2v-0.61l-0.34,0.52l-0.34-0.52v0.61h-0.15v-0.87h0.15l0.34,0.54l0.34-0.54h0.14v0.87L66.27,92.2z
		 M64.95,91.45v0.76h-0.14v-0.76h-0.33v-0.12h0.79v0.12L64.95,91.45z"/>
</g>
</svg>
