<?xml version="1.0" encoding="utf-8"?>
<!-- Generator: Adobe Illustrator 25.1.0, SVG Export Plug-In . SVG Version: 6.00 Build 0)  -->
<svg version="1.1" id="Layer_1" xmlns="http://www.w3.org/2000/svg" xmlns:xlink="http://www.w3.org/1999/xlink" x="0px" y="0px"
	 viewBox="0 0 161.6 97.6" style="enable-background:new 0 0 161.6 97.6;" xml:space="preserve">
<style type="text/css">
	.st0{fill:#062256;}
	.st1{clip-path:url(#SVGID_4_);}
	.st2{clip-path:url(#SVGID_8_);}
	.st3{clip-path:url(#SVGID_12_);}
	.st4{clip-path:url(#SVGID_14_);}
	.st5{clip-path:url(#SVGID_16_);}
	.st6{clip-path:url(#SVGID_18_);}
</style>
<g>
	<path class="st0" d="M125.6,56.1c-0.4,0-0.7-0.3-0.7-0.8c0-0.4,0.3-0.7,0.8-0.7c0.4,0,0.7,0.3,0.7,0.7
		C126.3,55.8,125.9,56.2,125.6,56.1 M125.6,54.5c-0.5,0-0.9,0.4-0.9,0.9s0.4,0.9,0.9,0.9c0.5,0,0.9-0.4,0.9-0.9
		C126.5,54.9,126.1,54.5,125.6,54.5"/>
	<path class="st0" d="M72.1,49.1c-0.1,0-0.1,0-0.2,0v-0.3c0.1,0,0.1,0,0.2,0h0.2c0.1,0,0.1,0,0.2,0v0.3c-0.1,0-0.1,0-0.2,0H72.1"/>
	<path class="st0" d="M125.5,55.4h-0.2v-0.3h0.2c0.1,0,0.2,0,0.2,0.1C125.8,55.4,125.6,55.4,125.5,55.4 M126,55.2
		c0-0.1,0-0.2-0.1-0.2c-0.1,0-0.2,0-0.2,0h-0.4v0.9h0.1v-0.4h0.2l0.3,0.4h0.2l-0.3-0.4C125.8,55.5,126,55.4,126,55.2"/>
	<path class="st0" d="M48.6,61.2h-4.4v0.3c0,0,1.1,0.1,1.1,2.1v5.5l0,0c-0.7,0.4-1.5,0.6-2.2,0.4c-2.7-0.4-4.4-3.4-4.6-8.1
		c-0.1-3.1,0.5-5.5,1.8-6.9c0.9-1,2.3-1.5,3.6-1.4c1,0.1,2,0.6,2.7,1.4l0,0c0.3,0.5,0.6,1,0.8,1.5h0.3v0h0v-3.8l0-0.1h-0.3
		c0,0,0,0.1-0.7,0v0c-0.1,0-0.2,0-0.3-0.1c-1-0.3-2-0.4-3-0.4c-2.2-0.1-4.3,0.7-5.8,2.3c-1.8,2.1-2.7,4.8-2.5,7.6
		c0,2.5,0.7,4.9,2.2,6.9c1.4,1.8,3.5,2.8,5.7,2.7c1.8-0.1,3.5-0.5,5-1.4c0,0,0.3-0.2,0.4-0.2c0-0.1,0-6.7,0-6.7c0-0.2,0-0.3,0-0.4
		c0-1,0.2-1.1,0.2-1.1L48.6,61.2L48.6,61.2L48.6,61.2"/>
	<path class="st0" d="M58.5,54.9v0.3c0.2,0.1,0.4,0.2,0.5,0.4c0,0.1,0.1,0.1,0.1,0.2c0.1,0.3,0.2,0.6,0.2,0.9v8.8
		c0.1,0.9-0.1,1.9-0.6,2.7c-0.5,0.6-1.2,0.9-1.9,0.9c-0.7,0.1-1.4-0.3-1.9-0.8c-0.5-0.8-0.8-1.8-0.7-2.7V54.9h-3.8v0.3
		c0.2,0.1,0.3,0.2,0.4,0.3c0,0.1,0.1,0.2,0.1,0.2c0.1,0.3,0.2,0.7,0.2,1v8.6c0,2,0.4,3.2,1.2,4.1c1,1,2.4,1.5,3.8,1.4
		c1.3,0,2.6-0.5,3.5-1.5c0.9-1.1,1.1-2.3,1.1-4.6v-10H58.5"/>
	<path class="st0" d="M110.7,61.6c-0.8-0.6-1.5-1-1.9-1.4c-0.8-0.6-1.4-1.2-1.4-2.2c0-1,0.9-1.9,2.5-1.8c0.6,0.1,1.2,0.3,1.7,0.7
		c0.1,0,0.1,0.1,0.2,0.1c0,0,0,0,0.1,0c0.1,0,0.1,0.1,0.1,0.1c0.3,0.3,0.5,0.7,0.5,1.1h0.3v-3.1c-1.1-0.2-2.2-0.4-3.3-0.5
		c-2.9-0.1-4.7,1.7-4.6,4.3c0,0.9,0.3,1.8,0.9,2.5c0.7,0.8,1.5,1.5,2.4,2c1,0.5,1.8,1.2,2.6,2c0.4,0.6,0.6,1.4,0.5,2.1
		c-0.3,1.2-1.5,1.9-2.7,1.6c-1.2-0.1-2.2-0.7-2.9-1.6c-0.2-0.3-0.3-0.6-0.4-0.9h-0.3v3.4c0.4,0.1,1.1,0.2,1.3,0.3
		c0.8,0.2,1.5,0.4,2.3,0.4c3.3,0.2,5.3-1.8,5.3-4.4C113.9,64.3,113.1,63.3,110.7,61.6"/>
	<path class="st0" d="M120.7,61.6c-0.8-0.6-1.4-1-1.9-1.4c-0.8-0.6-1.4-1.2-1.4-2.2c0-1,0.9-1.9,2.5-1.8c0.6,0.1,1.2,0.3,1.7,0.7
		c0.1,0,0.1,0.1,0.2,0.1c0,0,0,0,0.1,0c0.1,0,0.1,0.1,0.2,0.1c0.3,0.3,0.5,0.7,0.5,1.1h0.3v-3.1c-1.1-0.2-2.2-0.4-3.3-0.5
		c-2.9-0.1-4.7,1.7-4.6,4.3c0,0.9,0.3,1.8,0.9,2.5c0.7,0.8,1.5,1.5,2.4,2c1,0.5,1.8,1.2,2.6,2c0.4,0.6,0.6,1.4,0.5,2.1
		c-0.3,1.2-1.5,1.9-2.7,1.6c-1.2-0.1-2.2-0.7-2.9-1.6c-0.2-0.3-0.3-0.6-0.4-0.9h-0.3v3.4c0.4,0.1,1.1,0.2,1.3,0.3
		c0.8,0.2,1.5,0.4,2.3,0.4c3.3,0.2,5.3-1.8,5.3-4.4C123.9,64.3,123.1,63.3,120.7,61.6"/>
	<path class="st0" d="M66.4,69.6c0-0.2,0-0.4,0-0.6V54.9h-3.7v0.3c0.2,0.1,0.3,0.2,0.5,0.4c0,0.1,0.1,0.1,0.1,0.2
		c0.1,0.3,0.2,0.7,0.2,1v12.4c0,1.1-0.2,1.2-0.2,1.2v0.3h3.4v-0.3C66.7,70.5,66.5,70.4,66.4,69.6"/>
	<path class="st0" d="M70.8,69.8c0-0.3-0.1-0.6-0.1-1v-7.7l-1.6-2.9v11c0,1-0.2,1.2-0.2,1.2v0.3h2v-0.3C71,70.5,70.8,70.4,70.8,69.8
		"/>
	<path class="st0" d="M77.1,54.9v0.3c0,0,0.6,0.2,0.6,1.3v8.6c-0.9-1.7-1.9-3.6-2.9-5.5c-0.8-1.5-1.8-3.3-2.7-4.8h-4v0.3
		c0,0,0.6,0.1,1.2,1.2c1,1.8,8.1,14.4,8.1,14.4h1.9V54.9L77.1,54.9"/>
	<path class="st0" d="M83.7,69.8c0-0.3-0.1-0.6-0.1-1v-7.7L82,58.3v10.7c0,0.1,0,0.2,0,0.2c0,1.1-0.2,1.2-0.2,1.2v0.3h2v-0.3
		C83.9,70.5,83.7,70.4,83.7,69.8"/>
	<path class="st0" d="M89.9,54.9v0.3c0,0,0.5,0.2,0.6,1.3v8.6c-0.9-1.7-1.9-3.6-2.9-5.5c-0.8-1.5-1.8-3.3-2.7-4.8h-4v0.3
		c0,0,0.6,0.1,1.2,1.2c1,1.8,8.1,14.4,8.1,14.4h1.9V54.9L89.9,54.9"/>
	<path class="st0" d="M103,68.3h-0.3c-0.1,0.3-0.4,0.6-0.8,0.7c-0.1,0-0.1,0-0.1,0c0,0,0,0-0.1,0c-0.2,0-0.4,0.1-0.5,0.1l-3.3,0
		v-5.6h2.8c1.1,0,1.2,0.2,1.2,0.2h0.3v-2.1H102c0,0-0.1,0.3-1.3,0.3h-2.8v-5.4h3.3c1.1,0.1,1.3,0.6,1.3,0.6h0.3v-2.2h-8.6v0.2
		c0.2,0.1,0.3,0.2,0.4,0.4c0.1,0.2,0.2,0.4,0.2,0.6c0.1,0.2,0.1,0.5,0.1,0.7l0,0v12.3c0,0.1,0,0.2,0,0.2c0,1-0.2,1.2-0.2,1.2v0.3
		h8.3L103,68.3L103,68.3L103,68.3"/>
	<path class="st0" d="M64.8,47.2c0-0.1,0-0.2,0-0.3H66v0.3c-0.1,0-0.2,0-0.2,0h-0.5v0.7h0.4c0.1,0,0.2,0,0.2,0v0.3
		c-0.1,0-0.2,0-0.2,0h-0.4v0.8h0.6c0.1,0,0.2,0,0.2,0v0.3h-1.3c0-0.1,0-0.2,0-0.3V47.2"/>
	<path class="st0" d="M67.6,47.1c-0.2,0-0.4,0.1-0.4,0.3c0,0,0,0,0,0c0,0.2,0.2,0.3,0.5,0.4c0.4,0.2,0.6,0.4,0.6,0.7
		c0,0.4-0.3,0.7-0.7,0.7c0,0-0.1,0-0.1,0c-0.2,0-0.4-0.1-0.5-0.2v-0.4c0.1,0.2,0.3,0.3,0.6,0.4c0.2,0,0.4-0.1,0.4-0.3
		c0.1-0.2-0.1-0.4-0.5-0.5c-0.1,0-0.2-0.1-0.4-0.2c-0.2-0.2-0.2-0.4-0.2-0.6c0.1-0.3,0.4-0.5,0.7-0.5c0.2,0,0.3,0,0.5,0.1v0.4
		C68,47.2,67.8,47.1,67.6,47.1"/>
	<path class="st0" d="M69.5,47.2h-0.4c-0.1,0-0.1,0-0.2,0v-0.3h1.7v0.3c-0.1,0-0.1,0-0.2,0h-0.4v1.8c0,0.1,0,0.1,0,0.2h-0.5
		c0-0.1,0-0.1,0-0.2L69.5,47.2"/>
	<path class="st0" d="M71.4,48.3c0,0,0,0.1,0,0.1h0.7c0.4,0,0.7-0.3,0.8-0.7c0,0,0,0,0-0.1c0-0.5-0.3-0.7-0.8-0.7h-0.6
		c0,0,0,0.1,0,0.1L71.4,48.3 M71.8,47.5v-0.4c0.1,0,0.1,0,0.2,0c0.2,0,0.4,0.2,0.4,0.5c0,0.4-0.2,0.6-0.4,0.6c-0.1,0-0.1,0-0.2,0
		L71.8,47.5"/>
	<path class="st0" d="M86.5,46.9v2.1c0,0.1,0,0.1,0,0.2H86c0-0.1,0-0.1,0-0.2v-1.5c0-0.1-0.1-0.2-0.2-0.2L86.5,46.9"/>
	<path class="st0" d="M87.8,49.1h-0.3l1.1-1.8h-0.8c-0.1,0-0.2,0-0.2,0v-0.4h1.4L87.8,49.1"/>
	<path class="st0" d="M89.5,48.1l0.1-1.2h1.1v0.4c-0.1,0-0.2-0.1-0.3-0.1h-0.6l-0.1,0.6c0.1,0,0.2-0.1,0.4-0.1
		c0.4,0,0.7,0.2,0.7,0.6c0,0,0,0,0,0.1c0,0.4-0.4,0.8-0.8,0.8c0,0-0.1,0-0.1,0c-0.2,0-0.3,0-0.5-0.1v-0.3c0.1,0.1,0.3,0.2,0.4,0.2
		c0.3,0,0.5-0.2,0.5-0.5c0,0,0,0,0-0.1c0-0.2-0.2-0.4-0.4-0.4c0,0-0.1,0-0.1,0C89.8,48,89.6,48,89.5,48.1"/>
	<polygon class="st0" points="90.1,29.8 90.1,30 89.8,30 89.8,31 89.6,31 89.6,30 89.3,30 89.3,29.8 	"/>
	<polygon class="st0" points="91.1,29.8 90.9,30.6 90.8,30.6 90.6,29.8 90.3,29.8 90.3,31 90.5,31 90.5,30 90.5,30 90.8,31 90.9,31 
		91.2,30 91.2,30 91.2,31 91.4,31 91.4,29.8 	"/>
	<g>
		<g>
			<polygon id="SVGID_1_" class="st0" points="91.1,29.8 90.9,30.6 90.8,30.6 90.6,29.8 90.3,29.8 90.3,31 90.5,31 90.5,30 90.5,30 
				90.8,31 90.9,31 91.2,30 91.2,30 91.2,31 91.4,31 91.4,29.8 			"/>
		</g>
		<g>
			<defs>
				<polygon id="SVGID_2_" points="91.1,29.8 90.9,30.6 90.8,30.6 90.6,29.8 90.3,29.8 90.3,31 90.5,31 90.5,30 90.5,30 90.8,31 
					90.9,31 91.2,30 91.2,30 91.2,31 91.4,31 91.4,29.8 				"/>
			</defs>
			<use xlink:href="#SVGID_2_"  style="overflow:visible;fill:#062256;"/>
			<clipPath id="SVGID_4_">
				<use xlink:href="#SVGID_2_"  style="overflow:visible;"/>
			</clipPath>
			<g class="st1">
				<rect x="90.3" y="29.8" class="st0" width="1.1" height="1.3"/>
			</g>
		</g>
	</g>
	<polygon class="st0" points="89.3,29.8 89.3,30 89.6,30 89.6,31 89.8,31 89.8,30 90.1,30 90.1,29.8 	"/>
	<g>
		<g>
			<polygon id="SVGID_3_" class="st0" points="89.3,29.8 89.3,30 89.6,30 89.6,31 89.8,31 89.8,30 90.1,30 90.1,29.8 			"/>
		</g>
		<g>
			<defs>
				<polygon id="SVGID_6_" points="89.3,29.8 89.3,30 89.6,30 89.6,31 89.8,31 89.8,30 90.1,30 90.1,29.8 				"/>
			</defs>
			<use xlink:href="#SVGID_6_"  style="overflow:visible;fill:#062256;"/>
			<clipPath id="SVGID_8_">
				<use xlink:href="#SVGID_6_"  style="overflow:visible;"/>
			</clipPath>
			<g class="st2">
				<rect x="89.3" y="29.8" class="st0" width="0.8" height="1.3"/>
			</g>
		</g>
	</g>
	<path class="st0" d="M85.8,30.4c0.6,7.5-2.7,13.7-8.8,18.6l-5.7-17.4c-0.1-0.3-0.3-0.4-0.5-0.3c-0.2,0.1-0.3,0.2-0.2,0.5
		c0,0.1,5.4,18.5,5.4,18.5h4.5c6.5-5.5,9.2-12.8,7.8-20.9C87.6,29.9,86.7,30.3,85.8,30.4"/>
	<g>
		<g>
			<path id="SVGID_5_" class="st0" d="M85.8,30.4c0.6,7.5-2.7,13.7-8.8,18.6l-5.7-17.4c-0.1-0.3-0.3-0.4-0.5-0.3
				c-0.2,0.1-0.3,0.2-0.2,0.5c0,0.1,5.4,18.5,5.4,18.5h4.5c6.5-5.5,9.2-12.8,7.8-20.9C87.6,29.9,86.7,30.3,85.8,30.4"/>
		</g>
		<g>
			<defs>
				<path id="SVGID_10_" d="M85.8,30.4c0.6,7.5-2.7,13.7-8.8,18.6l-5.7-17.4c-0.1-0.3-0.3-0.4-0.5-0.3c-0.2,0.1-0.3,0.2-0.2,0.5
					c0,0.1,5.4,18.5,5.4,18.5h4.5c6.5-5.5,9.2-12.8,7.8-20.9C87.6,29.9,86.7,30.3,85.8,30.4"/>
			</defs>
			<use xlink:href="#SVGID_10_"  style="overflow:visible;fill:#062256;"/>
			<clipPath id="SVGID_12_">
				<use xlink:href="#SVGID_10_"  style="overflow:visible;"/>
			</clipPath>
			<g class="st3">
				
					<rect x="70.5" y="29.4" transform="matrix(1 -7.113024e-03 7.113024e-03 1 -0.2821 0.5716)" class="st0" width="19.4" height="21"/>
			</g>
		</g>
	</g>
	<path class="st0" d="M84.9,30c-0.1,0.1-1,1.2-3.1,5.6c-1.1,2.1-1.9,4.2-2.4,6.5c-0.2-0.5-0.5-1.2-0.9-1.9c1.1-1.6,2.1-3.3,2.8-5
		c0.8-1.6,1.4-3.3,1.8-5c0.1,0,0.3,0,0.4,0C84,30.1,84.5,30.1,84.9,30 M77.8,38.4c0.9-1.4,1.8-2.9,2.5-4.4c0.7-1.3,1.2-2.7,1.4-4.1
		c0.5,0.1,1,0.2,1.5,0.2c-0.1,0-0.7,0.5-2.5,4.4c-0.9,1.8-1.7,3.7-2.2,5.7C78.3,39.6,78,39.1,77.8,38.4 M76.3,35.1
		c0.7-1,1.3-2.1,1.8-3.2c0.5-0.9,0.8-1.9,1-2.9c0.1,0,0.2,0.1,0.3,0.1c0.3,0.1,0.7,0.3,1,0.4c0.4,0.1,0.9,0.3,1.4,0.4
		c-0.1,0-0.5,0.3-2,3.6c-0.8,1.6-1.4,3.3-1.9,5c-0.2-0.5-0.5-1.1-0.8-1.7c0.8-1.2,1.5-2.5,2.2-3.8c0.6-1.1,1-2.2,1.2-3.4
		c0,0-0.3,0-1.7,2.9c-0.7,1.4-1.2,2.8-1.6,4.3C76.8,36.2,76.5,35.7,76.3,35.1 M75.5,33.5c0.6-0.8,1.1-1.7,1.5-2.7
		c0.4-0.7,0.7-1.5,0.8-2.3c0.4,0.2,0.8,0.4,1.3,0.6c-0.1,0-0.4,0.2-1.4,2.5c-0.6,1.2-1.1,2.4-1.4,3.7C76,34.6,75.7,34,75.5,33.5
		 M74.8,31.9c0.5-0.6,0.8-1.3,1.2-2c0.3-0.6,0.6-1.3,0.7-2c0.3,0.2,0.7,0.3,1.1,0.5c-0.1,0-0.3,0.2-1.1,2c-0.5,1-0.9,2-1.1,3
		C75.2,32.9,75,32.4,74.8,31.9 M69.7,28.5c0-0.5,0.4-0.9,0.9-1c0,0,0,0,0,0c0.5,0,1,0.4,1,1c0,0.5-0.4,0.9-0.9,1c0,0,0,0,0,0
		C70.1,29.5,69.7,29.1,69.7,28.5 M74,30.3c0.4-0.4,0.7-0.9,0.9-1.4c0.3-0.5,0.4-1,0.5-1.6c0.3,0.2,0.7,0.4,1.2,0.6
		c0,0-0.2,0.1-0.9,1.7c-0.4,0.7-0.7,1.5-0.9,2.3C74.5,31.3,74.3,30.8,74,30.3 M72.9,27.8c-0.2-0.5-0.5-0.9-0.9-1.2
		c1.2-0.3,2.4,0,3.4,0.6c0,0-0.2,0.2-0.8,1.3c-0.3,0.5-0.5,1.1-0.6,1.7C73.5,29.1,73.1,28.3,72.9,27.8 M77.8,25.2
		c-6.4-2.4-9.7,0.2-9.6,3c-0.1,1.4,0.9,2.6,2.4,2.8c0.1,0,0.1,0,0.2,0c0.3,0,0.7-0.1,1-0.2l6,16.6c1.1-1,2.2-2.1,3.1-3.3
		c-0.4-0.1-0.7-0.4-0.8-0.7c-0.1-0.1-0.3-0.6-0.6-1.2c1.2-1.8,2.3-3.8,3.2-5.8c1-2,1.7-4.2,2.3-6.3c1.8-0.3,3.4-1,4.8-2.1
		c0,0-1.2-3.1-1.3-3.5C86,26.2,82.3,26.9,77.8,25.2"/>
	<g>
		<g>
			<path id="SVGID_7_" class="st0" d="M84.9,30c-0.1,0.1-1,1.2-3.1,5.6c-1.1,2.1-1.9,4.2-2.4,6.5c-0.2-0.5-0.5-1.2-0.9-1.9
				c1.1-1.6,2.1-3.3,2.8-5c0.8-1.6,1.4-3.3,1.8-5c0.1,0,0.3,0,0.4,0C84,30.1,84.5,30.1,84.9,30 M77.8,38.4c0.9-1.4,1.8-2.9,2.5-4.4
				c0.7-1.3,1.2-2.7,1.4-4.1c0.5,0.1,1,0.2,1.5,0.2c-0.1,0-0.7,0.5-2.5,4.4c-0.9,1.8-1.7,3.7-2.2,5.7C78.3,39.6,78,39.1,77.8,38.4
				 M76.3,35.1c0.7-1,1.3-2.1,1.8-3.2c0.5-0.9,0.8-1.9,1-2.9c0.1,0,0.2,0.1,0.3,0.1c0.3,0.1,0.7,0.3,1,0.4c0.4,0.1,0.9,0.3,1.4,0.4
				c-0.1,0-0.5,0.3-2,3.6c-0.8,1.6-1.4,3.3-1.9,5c-0.2-0.5-0.5-1.1-0.8-1.7c0.8-1.2,1.5-2.5,2.2-3.8c0.6-1.1,1-2.2,1.2-3.4
				c0,0-0.3,0-1.7,2.9c-0.7,1.4-1.2,2.8-1.6,4.3C76.8,36.2,76.5,35.7,76.3,35.1 M75.5,33.5c0.6-0.8,1.1-1.7,1.5-2.7
				c0.4-0.7,0.7-1.5,0.8-2.3c0.4,0.2,0.8,0.4,1.3,0.6c-0.1,0-0.4,0.2-1.4,2.5c-0.6,1.2-1.1,2.4-1.4,3.7C76,34.6,75.7,34,75.5,33.5
				 M74.8,31.9c0.5-0.6,0.8-1.3,1.2-2c0.3-0.6,0.6-1.3,0.7-2c0.3,0.2,0.7,0.3,1.1,0.5c-0.1,0-0.3,0.2-1.1,2c-0.5,1-0.9,2-1.1,3
				C75.2,32.9,75,32.4,74.8,31.9 M69.7,28.5c0-0.5,0.4-0.9,0.9-1c0,0,0,0,0,0c0.5,0,1,0.4,1,1c0,0.5-0.4,0.9-0.9,1c0,0,0,0,0,0
				C70.1,29.5,69.7,29.1,69.7,28.5 M74,30.3c0.4-0.4,0.7-0.9,0.9-1.4c0.3-0.5,0.4-1,0.5-1.6c0.3,0.2,0.7,0.4,1.2,0.6
				c0,0-0.2,0.1-0.9,1.7c-0.4,0.7-0.7,1.5-0.9,2.3C74.5,31.3,74.3,30.8,74,30.3 M72.9,27.8c-0.2-0.5-0.5-0.9-0.9-1.2
				c1.2-0.3,2.4,0,3.4,0.6c0,0-0.2,0.2-0.8,1.3c-0.3,0.5-0.5,1.1-0.6,1.7C73.5,29.1,73.1,28.3,72.9,27.8 M77.8,25.2
				c-6.4-2.4-9.7,0.2-9.6,3c-0.1,1.4,0.9,2.6,2.4,2.8c0.1,0,0.1,0,0.2,0c0.3,0,0.7-0.1,1-0.2l6,16.6c1.1-1,2.2-2.1,3.1-3.3
				c-0.4-0.1-0.7-0.4-0.8-0.7c-0.1-0.1-0.3-0.6-0.6-1.2c1.2-1.8,2.3-3.8,3.2-5.8c1-2,1.7-4.2,2.3-6.3c1.8-0.3,3.4-1,4.8-2.1
				c0,0-1.2-3.1-1.3-3.5C86,26.2,82.3,26.9,77.8,25.2"/>
		</g>
		<g>
			<defs>
				<path id="SVGID_13_" d="M84.9,30c-0.1,0.1-1,1.2-3.1,5.6c-1.1,2.1-1.9,4.2-2.4,6.5c-0.2-0.5-0.5-1.2-0.9-1.9
					c1.1-1.6,2.1-3.3,2.8-5c0.8-1.6,1.4-3.3,1.8-5c0.1,0,0.3,0,0.4,0C84,30.1,84.5,30.1,84.9,30 M77.8,38.4c0.9-1.4,1.8-2.9,2.5-4.4
					c0.7-1.3,1.2-2.7,1.4-4.1c0.5,0.1,1,0.2,1.5,0.2c-0.1,0-0.7,0.5-2.5,4.4c-0.9,1.8-1.7,3.7-2.2,5.7C78.3,39.6,78,39.1,77.8,38.4
					 M76.3,35.1c0.7-1,1.3-2.1,1.8-3.2c0.5-0.9,0.8-1.9,1-2.9c0.1,0,0.2,0.1,0.3,0.1c0.3,0.1,0.7,0.3,1,0.4c0.4,0.1,0.9,0.3,1.4,0.4
					c-0.1,0-0.5,0.3-2,3.6c-0.8,1.6-1.4,3.3-1.9,5c-0.2-0.5-0.5-1.1-0.8-1.7c0.8-1.2,1.5-2.5,2.2-3.8c0.6-1.1,1-2.2,1.2-3.4
					c0,0-0.3,0-1.7,2.9c-0.7,1.4-1.2,2.8-1.6,4.3C76.8,36.2,76.5,35.7,76.3,35.1 M75.5,33.5c0.6-0.8,1.1-1.7,1.5-2.7
					c0.4-0.7,0.7-1.5,0.8-2.3c0.4,0.2,0.8,0.4,1.3,0.6c-0.1,0-0.4,0.2-1.4,2.5c-0.6,1.2-1.1,2.4-1.4,3.7C76,34.6,75.7,34,75.5,33.5
					 M74.8,31.9c0.5-0.6,0.8-1.3,1.2-2c0.3-0.6,0.6-1.3,0.7-2c0.3,0.2,0.7,0.3,1.1,0.5c-0.1,0-0.3,0.2-1.1,2c-0.5,1-0.9,2-1.1,3
					C75.2,32.9,75,32.4,74.8,31.9 M69.7,28.5c0-0.5,0.4-0.9,0.9-1c0,0,0,0,0,0c0.5,0,1,0.4,1,1c0,0.5-0.4,0.9-0.9,1c0,0,0,0,0,0
					C70.1,29.5,69.7,29.1,69.7,28.5 M74,30.3c0.4-0.4,0.7-0.9,0.9-1.4c0.3-0.5,0.4-1,0.5-1.6c0.3,0.2,0.7,0.4,1.2,0.6
					c0,0-0.2,0.1-0.9,1.7c-0.4,0.7-0.7,1.5-0.9,2.3C74.5,31.3,74.3,30.8,74,30.3 M72.9,27.8c-0.2-0.5-0.5-0.9-0.9-1.2
					c1.2-0.3,2.4,0,3.4,0.6c0,0-0.2,0.2-0.8,1.3c-0.3,0.5-0.5,1.1-0.6,1.7C73.5,29.1,73.1,28.3,72.9,27.8 M77.8,25.2
					c-6.4-2.4-9.7,0.2-9.6,3c-0.1,1.4,0.9,2.6,2.4,2.8c0.1,0,0.1,0,0.2,0c0.3,0,0.7-0.1,1-0.2l6,16.6c1.1-1,2.2-2.1,3.1-3.3
					c-0.4-0.1-0.7-0.4-0.8-0.7c-0.1-0.1-0.3-0.6-0.6-1.2c1.2-1.8,2.3-3.8,3.2-5.8c1-2,1.7-4.2,2.3-6.3c1.8-0.3,3.4-1,4.8-2.1
					c0,0-1.2-3.1-1.3-3.5C86,26.2,82.3,26.9,77.8,25.2"/>
			</defs>
			<use xlink:href="#SVGID_13_"  style="overflow:visible;fill:#062256;"/>
			<clipPath id="SVGID_14_">
				<use xlink:href="#SVGID_13_"  style="overflow:visible;"/>
			</clipPath>
			<g class="st4">
				<rect x="68.1" y="22.8" class="st0" width="21.6" height="24.5"/>
			</g>
		</g>
	</g>
	<path class="st0" d="M84.9,30c-0.1,0.1-1,1.2-3.1,5.6c-1.1,2.1-1.9,4.2-2.4,6.5c-0.2-0.5-0.5-1.2-0.9-1.9c1.1-1.6,2.1-3.3,2.8-5
		c0.8-1.6,1.4-3.3,1.8-5c0.1,0,0.3,0,0.4,0C84,30.1,84.5,30.1,84.9,30 M77.8,38.4c0.9-1.4,1.8-2.9,2.5-4.4c0.7-1.3,1.2-2.7,1.4-4.1
		c0.5,0.1,1,0.2,1.5,0.2c-0.1,0-0.7,0.5-2.5,4.4c-0.9,1.8-1.7,3.7-2.2,5.7C78.3,39.6,78,39.1,77.8,38.4 M76.3,35.1
		c0.7-1,1.3-2.1,1.8-3.2c0.5-0.9,0.8-1.9,1-2.9c0.1,0,0.2,0.1,0.3,0.1c0.3,0.1,0.7,0.3,1,0.4c0.4,0.1,0.9,0.3,1.4,0.4
		c-0.1,0-0.5,0.3-2,3.6c-0.8,1.6-1.4,3.3-1.9,5c-0.2-0.5-0.5-1.1-0.8-1.7c0.8-1.2,1.5-2.5,2.2-3.8c0.6-1.1,1-2.2,1.2-3.4
		c0,0-0.3,0-1.7,2.9c-0.7,1.4-1.2,2.8-1.6,4.3C76.8,36.2,76.5,35.7,76.3,35.1 M75.5,33.5c0.6-0.8,1.1-1.7,1.5-2.7
		c0.4-0.7,0.7-1.5,0.8-2.3c0.4,0.2,0.8,0.4,1.3,0.6c-0.1,0-0.4,0.2-1.4,2.5c-0.6,1.2-1.1,2.4-1.4,3.7C76,34.6,75.7,34,75.5,33.5
		 M74.8,31.9c0.5-0.6,0.8-1.3,1.2-2c0.3-0.6,0.6-1.3,0.7-2c0.3,0.2,0.7,0.3,1.1,0.5c-0.1,0-0.3,0.2-1.1,2c-0.5,1-0.9,2-1.1,3
		C75.2,32.9,75,32.4,74.8,31.9 M69.7,28.5c0-0.5,0.4-0.9,0.9-1c0,0,0,0,0,0c0.5,0,1,0.4,1,1c0,0.5-0.4,0.9-0.9,1c0,0,0,0,0,0
		C70.1,29.5,69.7,29.1,69.7,28.5 M74,30.3c0.4-0.4,0.7-0.9,0.9-1.4c0.3-0.5,0.4-1,0.5-1.6c0.3,0.2,0.7,0.4,1.2,0.6
		c0,0-0.2,0.1-0.9,1.7c-0.4,0.7-0.7,1.5-0.9,2.3C74.5,31.3,74.3,30.8,74,30.3 M72.9,27.8c-0.2-0.5-0.5-0.9-0.9-1.2
		c1.2-0.3,2.4,0,3.4,0.6c0,0-0.2,0.2-0.8,1.3c-0.3,0.5-0.5,1.1-0.6,1.7C73.5,29.1,73.1,28.3,72.9,27.8 M77.8,25.2
		c-6.4-2.4-9.7,0.2-9.6,3c-0.1,1.4,0.9,2.6,2.4,2.8c0.1,0,0.1,0,0.2,0c0.3,0,0.7-0.1,1-0.2l6,16.6c1.1-1,2.2-2.1,3.1-3.3
		c-0.4-0.1-0.7-0.4-0.8-0.7c-0.1-0.1-0.3-0.6-0.6-1.2c1.2-1.8,2.3-3.8,3.2-5.8c1-2,1.7-4.2,2.3-6.3c1.8-0.3,3.4-1,4.8-2.1
		c0,0-1.2-3.1-1.3-3.5C86,26.2,82.3,26.9,77.8,25.2"/>
	<g>
		<g>
			<path id="SVGID_9_" class="st0" d="M84.9,30c-0.1,0.1-1,1.2-3.1,5.6c-1.1,2.1-1.9,4.2-2.4,6.5c-0.2-0.5-0.5-1.2-0.9-1.9
				c1.1-1.6,2.1-3.3,2.8-5c0.8-1.6,1.4-3.3,1.8-5c0.1,0,0.3,0,0.4,0C84,30.1,84.5,30.1,84.9,30 M77.8,38.4c0.9-1.4,1.8-2.9,2.5-4.4
				c0.7-1.3,1.2-2.7,1.4-4.1c0.5,0.1,1,0.2,1.5,0.2c-0.1,0-0.7,0.5-2.5,4.4c-0.9,1.8-1.7,3.7-2.2,5.7C78.3,39.6,78,39.1,77.8,38.4
				 M76.3,35.1c0.7-1,1.3-2.1,1.8-3.2c0.5-0.9,0.8-1.9,1-2.9c0.1,0,0.2,0.1,0.3,0.1c0.3,0.1,0.7,0.3,1,0.4c0.4,0.1,0.9,0.3,1.4,0.4
				c-0.1,0-0.5,0.3-2,3.6c-0.8,1.6-1.4,3.3-1.9,5c-0.2-0.5-0.5-1.1-0.8-1.7c0.8-1.2,1.5-2.5,2.2-3.8c0.6-1.1,1-2.2,1.2-3.4
				c0,0-0.3,0-1.7,2.9c-0.7,1.4-1.2,2.8-1.6,4.3C76.8,36.2,76.5,35.7,76.3,35.1 M75.5,33.5c0.6-0.8,1.1-1.7,1.5-2.7
				c0.4-0.7,0.7-1.5,0.8-2.3c0.4,0.2,0.8,0.4,1.3,0.6c-0.1,0-0.4,0.2-1.4,2.5c-0.6,1.2-1.1,2.4-1.4,3.7C76,34.6,75.7,34,75.5,33.5
				 M74.8,31.9c0.5-0.6,0.8-1.3,1.2-2c0.3-0.6,0.6-1.3,0.7-2c0.3,0.2,0.7,0.3,1.1,0.5c-0.1,0-0.3,0.2-1.1,2c-0.5,1-0.9,2-1.1,3
				C75.2,32.9,75,32.4,74.8,31.9 M69.7,28.5c0-0.5,0.4-0.9,0.9-1c0,0,0,0,0,0c0.5,0,1,0.4,1,1c0,0.5-0.4,0.9-0.9,1c0,0,0,0,0,0
				C70.1,29.5,69.7,29.1,69.7,28.5 M74,30.3c0.4-0.4,0.7-0.9,0.9-1.4c0.3-0.5,0.4-1,0.5-1.6c0.3,0.2,0.7,0.4,1.2,0.6
				c0,0-0.2,0.1-0.9,1.7c-0.4,0.7-0.7,1.5-0.9,2.3C74.5,31.3,74.3,30.8,74,30.3 M72.9,27.8c-0.2-0.5-0.5-0.9-0.9-1.2
				c1.2-0.3,2.4,0,3.4,0.6c0,0-0.2,0.2-0.8,1.3c-0.3,0.5-0.5,1.1-0.6,1.7C73.5,29.1,73.1,28.3,72.9,27.8 M77.8,25.2
				c-6.4-2.4-9.7,0.2-9.6,3c-0.1,1.4,0.9,2.6,2.4,2.8c0.1,0,0.1,0,0.2,0c0.3,0,0.7-0.1,1-0.2l6,16.6c1.1-1,2.2-2.1,3.1-3.3
				c-0.4-0.1-0.7-0.4-0.8-0.7c-0.1-0.1-0.3-0.6-0.6-1.2c1.2-1.8,2.3-3.8,3.2-5.8c1-2,1.7-4.2,2.3-6.3c1.8-0.3,3.4-1,4.8-2.1
				c0,0-1.2-3.1-1.3-3.5C86,26.2,82.3,26.9,77.8,25.2"/>
		</g>
		<g>
			<defs>
				<path id="SVGID_15_" d="M84.9,30c-0.1,0.1-1,1.2-3.1,5.6c-1.1,2.1-1.9,4.2-2.4,6.5c-0.2-0.5-0.5-1.2-0.9-1.9
					c1.1-1.6,2.1-3.3,2.8-5c0.8-1.6,1.4-3.3,1.8-5c0.1,0,0.3,0,0.4,0C84,30.1,84.5,30.1,84.9,30 M77.8,38.4c0.9-1.4,1.8-2.9,2.5-4.4
					c0.7-1.3,1.2-2.7,1.4-4.1c0.5,0.1,1,0.2,1.5,0.2c-0.1,0-0.7,0.5-2.5,4.4c-0.9,1.8-1.7,3.7-2.2,5.7C78.3,39.6,78,39.1,77.8,38.4
					 M76.3,35.1c0.7-1,1.3-2.1,1.8-3.2c0.5-0.9,0.8-1.9,1-2.9c0.1,0,0.2,0.1,0.3,0.1c0.3,0.1,0.7,0.3,1,0.4c0.4,0.1,0.9,0.3,1.4,0.4
					c-0.1,0-0.5,0.3-2,3.6c-0.8,1.6-1.4,3.3-1.9,5c-0.2-0.5-0.5-1.1-0.8-1.7c0.8-1.2,1.5-2.5,2.2-3.8c0.6-1.1,1-2.2,1.2-3.4
					c0,0-0.3,0-1.7,2.9c-0.7,1.4-1.2,2.8-1.6,4.3C76.8,36.2,76.5,35.7,76.3,35.1 M75.5,33.5c0.6-0.8,1.1-1.7,1.5-2.7
					c0.4-0.7,0.7-1.5,0.8-2.3c0.4,0.2,0.8,0.4,1.3,0.6c-0.1,0-0.4,0.2-1.4,2.5c-0.6,1.2-1.1,2.4-1.4,3.7C76,34.6,75.7,34,75.5,33.5
					 M74.8,31.9c0.5-0.6,0.8-1.3,1.2-2c0.3-0.6,0.6-1.3,0.7-2c0.3,0.2,0.7,0.3,1.1,0.5c-0.1,0-0.3,0.2-1.1,2c-0.5,1-0.9,2-1.1,3
					C75.2,32.9,75,32.4,74.8,31.9 M69.7,28.5c0-0.5,0.4-0.9,0.9-1c0,0,0,0,0,0c0.5,0,1,0.4,1,1c0,0.5-0.4,0.9-0.9,1c0,0,0,0,0,0
					C70.1,29.5,69.7,29.1,69.7,28.5 M74,30.3c0.4-0.4,0.7-0.9,0.9-1.4c0.3-0.5,0.4-1,0.5-1.6c0.3,0.2,0.7,0.4,1.2,0.6
					c0,0-0.2,0.1-0.9,1.7c-0.4,0.7-0.7,1.5-0.9,2.3C74.5,31.3,74.3,30.8,74,30.3 M72.9,27.8c-0.2-0.5-0.5-0.9-0.9-1.2
					c1.2-0.3,2.4,0,3.4,0.6c0,0-0.2,0.2-0.8,1.3c-0.3,0.5-0.5,1.1-0.6,1.7C73.5,29.1,73.1,28.3,72.9,27.8 M77.8,25.2
					c-6.4-2.4-9.7,0.2-9.6,3c-0.1,1.4,0.9,2.6,2.4,2.8c0.1,0,0.1,0,0.2,0c0.3,0,0.7-0.1,1-0.2l6,16.6c1.1-1,2.2-2.1,3.1-3.3
					c-0.4-0.1-0.7-0.4-0.8-0.7c-0.1-0.1-0.3-0.6-0.6-1.2c1.2-1.8,2.3-3.8,3.2-5.8c1-2,1.7-4.2,2.3-6.3c1.8-0.3,3.4-1,4.8-2.1
					c0,0-1.2-3.1-1.3-3.5C86,26.2,82.3,26.9,77.8,25.2"/>
			</defs>
			<use xlink:href="#SVGID_15_"  style="overflow:visible;fill:#062256;"/>
			<clipPath id="SVGID_16_">
				<use xlink:href="#SVGID_15_"  style="overflow:visible;"/>
			</clipPath>
			<g class="st5">
				<rect x="68.1" y="22.8" class="st0" width="21.6" height="24.5"/>
			</g>
		</g>
	</g>
	<path class="st0" d="M84.9,30c-0.1,0.1-1,1.2-3.1,5.6c-1.1,2.1-1.9,4.2-2.4,6.5c-0.2-0.5-0.5-1.2-0.9-1.9c1.1-1.6,2.1-3.3,2.8-5
		c0.8-1.6,1.4-3.3,1.8-5c0.1,0,0.3,0,0.4,0C84,30.1,84.5,30.1,84.9,30 M77.8,38.4c0.9-1.4,1.8-2.9,2.5-4.4c0.7-1.3,1.2-2.7,1.4-4.1
		c0.5,0.1,1,0.2,1.5,0.2c-0.1,0-0.7,0.5-2.5,4.4c-0.9,1.8-1.7,3.7-2.2,5.7C78.3,39.6,78,39.1,77.8,38.4 M76.3,35.1
		c0.7-1,1.3-2.1,1.8-3.2c0.5-0.9,0.8-1.9,1-2.9c0.1,0,0.2,0.1,0.3,0.1c0.3,0.1,0.7,0.3,1,0.4c0.4,0.1,0.9,0.3,1.4,0.4
		c-0.1,0-0.5,0.3-2,3.6c-0.8,1.6-1.4,3.3-1.9,5c-0.2-0.5-0.5-1.1-0.8-1.7c0.8-1.2,1.5-2.5,2.2-3.8c0.6-1.1,1-2.2,1.2-3.4
		c0,0-0.3,0-1.7,2.9c-0.7,1.4-1.2,2.8-1.6,4.3C76.8,36.2,76.5,35.7,76.3,35.1 M75.5,33.5c0.6-0.8,1.1-1.7,1.5-2.7
		c0.4-0.7,0.7-1.5,0.8-2.3c0.4,0.2,0.8,0.4,1.3,0.6c-0.1,0-0.4,0.2-1.4,2.5c-0.6,1.2-1.1,2.4-1.4,3.7C76,34.6,75.7,34,75.5,33.5
		 M74.8,31.9c0.5-0.6,0.8-1.3,1.2-2c0.3-0.6,0.6-1.3,0.7-2c0.3,0.2,0.7,0.3,1.1,0.5c-0.1,0-0.3,0.2-1.1,2c-0.5,1-0.9,2-1.1,3
		C75.2,32.9,75,32.4,74.8,31.9 M69.7,28.5c0-0.5,0.4-0.9,0.9-1c0,0,0,0,0,0c0.5,0,1,0.4,1,1c0,0.5-0.4,0.9-0.9,1c0,0,0,0,0,0
		C70.1,29.5,69.7,29.1,69.7,28.5 M74,30.3c0.4-0.4,0.7-0.9,0.9-1.4c0.3-0.5,0.4-1,0.5-1.6c0.3,0.2,0.7,0.4,1.2,0.6
		c0,0-0.2,0.1-0.9,1.7c-0.4,0.7-0.7,1.5-0.9,2.3C74.5,31.3,74.3,30.8,74,30.3 M72.9,27.8c-0.2-0.5-0.5-0.9-0.9-1.2
		c1.2-0.3,2.4,0,3.4,0.6c0,0-0.2,0.2-0.8,1.3c-0.3,0.5-0.5,1.1-0.6,1.7C73.5,29.1,73.1,28.3,72.9,27.8 M77.8,25.2
		c-6.4-2.4-9.7,0.2-9.6,3c-0.1,1.4,0.9,2.6,2.4,2.8c0.1,0,0.1,0,0.2,0c0.3,0,0.7-0.1,1-0.2l6,16.6c1.1-1,2.2-2.1,3.1-3.3
		c-0.4-0.1-0.7-0.4-0.8-0.7c-0.1-0.1-0.3-0.6-0.6-1.2c1.2-1.8,2.3-3.8,3.2-5.8c1-2,1.7-4.2,2.3-6.3c1.8-0.3,3.4-1,4.8-2.1
		c0,0-1.2-3.1-1.3-3.5C86,26.2,82.3,26.9,77.8,25.2"/>
	<g>
		<g>
			<path id="SVGID_11_" class="st0" d="M84.9,30c-0.1,0.1-1,1.2-3.1,5.6c-1.1,2.1-1.9,4.2-2.4,6.5c-0.2-0.5-0.5-1.2-0.9-1.9
				c1.1-1.6,2.1-3.3,2.8-5c0.8-1.6,1.4-3.3,1.8-5c0.1,0,0.3,0,0.4,0C84,30.1,84.5,30.1,84.9,30 M77.8,38.4c0.9-1.4,1.8-2.9,2.5-4.4
				c0.7-1.3,1.2-2.7,1.4-4.1c0.5,0.1,1,0.2,1.5,0.2c-0.1,0-0.7,0.5-2.5,4.4c-0.9,1.8-1.7,3.7-2.2,5.7C78.3,39.6,78,39.1,77.8,38.4
				 M76.3,35.1c0.7-1,1.3-2.1,1.8-3.2c0.5-0.9,0.8-1.9,1-2.9c0.1,0,0.2,0.1,0.3,0.1c0.3,0.1,0.7,0.3,1,0.4c0.4,0.1,0.9,0.3,1.4,0.4
				c-0.1,0-0.5,0.3-2,3.6c-0.8,1.6-1.4,3.3-1.9,5c-0.2-0.5-0.5-1.1-0.8-1.7c0.8-1.2,1.5-2.5,2.2-3.8c0.6-1.1,1-2.2,1.2-3.4
				c0,0-0.3,0-1.7,2.9c-0.7,1.4-1.2,2.8-1.6,4.3C76.8,36.2,76.5,35.7,76.3,35.1 M75.5,33.5c0.6-0.8,1.1-1.7,1.5-2.7
				c0.4-0.7,0.7-1.5,0.8-2.3c0.4,0.2,0.8,0.4,1.3,0.6c-0.1,0-0.4,0.2-1.4,2.5c-0.6,1.2-1.1,2.4-1.4,3.7C76,34.6,75.7,34,75.5,33.5
				 M74.8,31.9c0.5-0.6,0.8-1.3,1.2-2c0.3-0.6,0.6-1.3,0.7-2c0.3,0.2,0.7,0.3,1.1,0.5c-0.1,0-0.3,0.2-1.1,2c-0.5,1-0.9,2-1.1,3
				C75.2,32.9,75,32.4,74.8,31.9 M69.7,28.5c0-0.5,0.4-0.9,0.9-1c0,0,0,0,0,0c0.5,0,1,0.4,1,1c0,0.5-0.4,0.9-0.9,1c0,0,0,0,0,0
				C70.1,29.5,69.7,29.1,69.7,28.5 M74,30.3c0.4-0.4,0.7-0.9,0.9-1.4c0.3-0.5,0.4-1,0.5-1.6c0.3,0.2,0.7,0.4,1.2,0.6
				c0,0-0.2,0.1-0.9,1.7c-0.4,0.7-0.7,1.5-0.9,2.3C74.5,31.3,74.3,30.8,74,30.3 M72.9,27.8c-0.2-0.5-0.5-0.9-0.9-1.2
				c1.2-0.3,2.4,0,3.4,0.6c0,0-0.2,0.2-0.8,1.3c-0.3,0.5-0.5,1.1-0.6,1.7C73.5,29.1,73.1,28.3,72.9,27.8 M77.8,25.2
				c-6.4-2.4-9.7,0.2-9.6,3c-0.1,1.4,0.9,2.6,2.4,2.8c0.1,0,0.1,0,0.2,0c0.3,0,0.7-0.1,1-0.2l6,16.6c1.1-1,2.2-2.1,3.1-3.3
				c-0.4-0.1-0.7-0.4-0.8-0.7c-0.1-0.1-0.3-0.6-0.6-1.2c1.2-1.8,2.3-3.8,3.2-5.8c1-2,1.7-4.2,2.3-6.3c1.8-0.3,3.4-1,4.8-2.1
				c0,0-1.2-3.1-1.3-3.5C86,26.2,82.3,26.9,77.8,25.2"/>
		</g>
		<g>
			<defs>
				<path id="SVGID_17_" d="M84.9,30c-0.1,0.1-1,1.2-3.1,5.6c-1.1,2.1-1.9,4.2-2.4,6.5c-0.2-0.5-0.5-1.2-0.9-1.9
					c1.1-1.6,2.1-3.3,2.8-5c0.8-1.6,1.4-3.3,1.8-5c0.1,0,0.3,0,0.4,0C84,30.1,84.5,30.1,84.9,30 M77.8,38.4c0.9-1.4,1.8-2.9,2.5-4.4
					c0.7-1.3,1.2-2.7,1.4-4.1c0.5,0.1,1,0.2,1.5,0.2c-0.1,0-0.7,0.5-2.5,4.4c-0.9,1.8-1.7,3.7-2.2,5.7C78.3,39.6,78,39.1,77.8,38.4
					 M76.3,35.1c0.7-1,1.3-2.1,1.8-3.2c0.5-0.9,0.8-1.9,1-2.9c0.1,0,0.2,0.1,0.3,0.1c0.3,0.1,0.7,0.3,1,0.4c0.4,0.1,0.9,0.3,1.4,0.4
					c-0.1,0-0.5,0.3-2,3.6c-0.8,1.6-1.4,3.3-1.9,5c-0.2-0.5-0.5-1.1-0.8-1.7c0.8-1.2,1.5-2.5,2.2-3.8c0.6-1.1,1-2.2,1.2-3.4
					c0,0-0.3,0-1.7,2.9c-0.7,1.4-1.2,2.8-1.6,4.3C76.8,36.2,76.5,35.7,76.3,35.1 M75.5,33.5c0.6-0.8,1.1-1.7,1.5-2.7
					c0.4-0.7,0.7-1.5,0.8-2.3c0.4,0.2,0.8,0.4,1.3,0.6c-0.1,0-0.4,0.2-1.4,2.5c-0.6,1.2-1.1,2.4-1.4,3.7C76,34.6,75.7,34,75.5,33.5
					 M74.8,31.9c0.5-0.6,0.8-1.3,1.2-2c0.3-0.6,0.6-1.3,0.7-2c0.3,0.2,0.7,0.3,1.1,0.5c-0.1,0-0.3,0.2-1.1,2c-0.5,1-0.9,2-1.1,3
					C75.2,32.9,75,32.4,74.8,31.9 M69.7,28.5c0-0.5,0.4-0.9,0.9-1c0,0,0,0,0,0c0.5,0,1,0.4,1,1c0,0.5-0.4,0.9-0.9,1c0,0,0,0,0,0
					C70.1,29.5,69.7,29.1,69.7,28.5 M74,30.3c0.4-0.4,0.7-0.9,0.9-1.4c0.3-0.5,0.4-1,0.5-1.6c0.3,0.2,0.7,0.4,1.2,0.6
					c0,0-0.2,0.1-0.9,1.7c-0.4,0.7-0.7,1.5-0.9,2.3C74.5,31.3,74.3,30.8,74,30.3 M72.9,27.8c-0.2-0.5-0.5-0.9-0.9-1.2
					c1.2-0.3,2.4,0,3.4,0.6c0,0-0.2,0.2-0.8,1.3c-0.3,0.5-0.5,1.1-0.6,1.7C73.5,29.1,73.1,28.3,72.9,27.8 M77.8,25.2
					c-6.4-2.4-9.7,0.2-9.6,3c-0.1,1.4,0.9,2.6,2.4,2.8c0.1,0,0.1,0,0.2,0c0.3,0,0.7-0.1,1-0.2l6,16.6c1.1-1,2.2-2.1,3.1-3.3
					c-0.4-0.1-0.7-0.4-0.8-0.7c-0.1-0.1-0.3-0.6-0.6-1.2c1.2-1.8,2.3-3.8,3.2-5.8c1-2,1.7-4.2,2.3-6.3c1.8-0.3,3.4-1,4.8-2.1
					c0,0-1.2-3.1-1.3-3.5C86,26.2,82.3,26.9,77.8,25.2"/>
			</defs>
			<use xlink:href="#SVGID_17_"  style="overflow:visible;fill:#062256;"/>
			<clipPath id="SVGID_18_">
				<use xlink:href="#SVGID_17_"  style="overflow:visible;"/>
			</clipPath>
			<g class="st6">
				<rect x="68.1" y="22.8" class="st0" width="21.6" height="24.5"/>
			</g>
		</g>
	</g>
	<path class="st0" d="M92.2,46.8c-0.4,0-0.8,0.3-0.8,0.7c0,0,0,0,0,0c0,0.4,0.2,0.7,0.6,0.7c0,0,0,0,0.1,0c0.2,0,0.3,0,0.4-0.2
		c0,0.2,0,0.9-0.5,0.9c-0.2,0-0.4-0.1-0.5-0.2v0.3c0.1,0.1,0.3,0.1,0.4,0.1c0.6,0,1-0.5,1-1.3c0-0.2-0.1-0.5-0.2-0.7
		C92.8,46.9,92.5,46.8,92.2,46.8 M92.2,48.1c-0.2,0-0.3-0.2-0.3-0.6c0-0.1,0-0.5,0.3-0.5s0.3,0.4,0.3,0.5
		C92.6,47.6,92.6,48.1,92.2,48.1"/>
</g>
</svg>
