<?xml version="1.0" encoding="utf-8"?>
<!-- Generator: Adobe Illustrator 25.1.0, SVG Export Plug-In . SVG Version: 6.00 Build 0)  -->
<svg version="1.1" id="Layer_1" xmlns="http://www.w3.org/2000/svg" xmlns:xlink="http://www.w3.org/1999/xlink" x="0px" y="0px"
	 viewBox="0 0 161.55 161.55" style="enable-background:new 0 0 161.55 161.55;" xml:space="preserve">
<style type="text/css">
	.st0{fill:#666666;}
	.st1{clip-path:url(#SVGID_2_);}
	.st2{clip-path:url(#SVGID_4_);}
	.st3{clip-path:url(#SVGID_6_);}
	.st4{clip-path:url(#SVGID_8_);}
	.st5{clip-path:url(#SVGID_10_);}
	.st6{clip-path:url(#SVGID_12_);}
	.st7{opacity:0;fill:#666666;}
	.st8{opacity:0;fill:#666666;stroke:#009DE2;stroke-width:0.1121;}
	.st9{opacity:0;}
</style>
<g>
	<path class="st0" d="M125.59,75.74c-1.77,2.25-5.96,6.4-7.15,6.39c-0.6-0.01-0.72-0.92,0.18-2.01c1.94-2.33,5.81-7,5.81-7h-2.84
		c0,0-2.5,3.04-3.75,4.57c-0.01,0.01-0.01,0.01-0.01,0.02c-1.76,2.25-4.2,4.5-5.72,4.49c-0.64,0-0.59-0.75,0.42-2.02
		c1.85-2.34,3.71-4.72,5.56-7.05h-2.72c-0.85,1.15-1.7,2.3-2.56,3.44c1.04-1.64,1.61-3.69,0.29-3.69c-1.97-0.01-4.98,1.69-6.6,3.72
		c-2.52,3.17-1.75,5.93,0.01,5.94c1.95,0.01,3.64-2.5,5.4-4.74c-1.48,2-1.8,4.73,0.02,4.73c1.55,0,3.68-1.72,5.35-4.03
		c-1.05,1.89-0.71,3.97,0.87,3.98c1.51,0.01,4.49-3.06,6.37-5.35c-1.07,1.38-2.14,2.77-3.21,4.15c-1.99,2.58-4.24,5.52-5.69,7
		c0.06,0.05,0.11,0.1,0.17,0.15c1.09-0.59,5.66-1.07,8.73-3.28c2.94-2.09,4.79-5.59,3.4-7.6c0.89,2.23-1.18,5.3-2.8,6.67
		c-1.77,1.48-3.88,2.52-6.13,3c0.39-0.41,0.76-0.84,1.11-1.29c3.38-4.25,10.13-12.8,10.13-12.8h-2.63
		C127.61,73.12,126.26,74.88,125.59,75.74z M111.69,77.8c-1.26,1.59-3.43,4.41-5.1,4.4c-1.97-0.01,1.95-4.52,4-7.13
		c0.68-0.87,1.68-1.88,2.55-1.87C114.31,73.2,113.22,75.9,111.69,77.8L111.69,77.8z"/>
	<path class="st0" d="M105.55,76c1.96-0.01,3.34-3.13,1.58-3.13c-1.35,0-4.31,2.98-8.46,8.17c0.27-0.42,0.54-0.84,0.83-1.26
		c1.71-2.22,3.42-4.45,5.13-6.67h-2.56c-0.51,0.68-1.02,1.36-1.53,2.03c0.02-0.03,0.05-0.06,0.05-0.06c0.01,0-5.96,7.11-9.17,7.12
		c-0.44,0-0.69-0.18-0.7-0.61c0-1.08,1.28-2.62,2.51-4.22c0.69-0.87,1.37-1.75,2.06-2.63c1.57-2.02,2.38-1.86,2.39-1.13
		c0,0.72-1.17,2.44-2.53,3.63c-1.02,0.83-2.14,1.52-3.35,2.05c0,0,6.45-2.25,6.43-5.38c-0.01-0.62-0.38-1.09-1.22-1.09
		c-1.31,0.01-4.32,1.76-6,3.65c-0.13,0.14-0.24,0.29-0.36,0.44c-0.08,0.09-0.14,0.19-0.22,0.3c-2.71,3.35-4.95,4.98-6.05,4.98
		c-0.72,0-0.25-1.11,0.76-2.39c1.8-2.31,5.2-6.68,5.2-6.68H87.6c0,0-1.44,1.92-2.17,2.89c-3.32,4.13-5.72,6.2-6.77,6.2
		c-0.85,0-0.44-1.03,0.56-2.3c1.77-2.26,3.55-4.52,5.32-6.79h-2.73c0,0-2.34,2.96-3.5,4.43c-1.68,2.15-1.9,5.03,0.07,5.03
		c1.17,0,2.64-0.89,5.28-4.21c-1.28,1.94-1.17,4.17,0.57,4.17c1.14,0,2.71-0.62,5.91-4.87c-1.37,2.36-0.78,4.8,1.1,4.79
		c3.45-0.01,7.95-5.54,9.08-7.01c-1.7,2.25-3.39,4.5-5.09,6.76h2.69c1.03-1.54,6.25-7.42,7.54-8.02
		C105.01,74.52,104.48,76,105.55,76z"/>
	<path class="st0" d="M71.68,84.8c-1.35,1.19-2.96,2.03-4.71,2.46c0.5-0.31,0.93-0.72,1.28-1.19c3.35-4.31,6.69-8.63,10.01-12.95
		h-2.77c-0.77,1.06-1.53,2.13-2.29,3.19c0.99-1.62,1.6-3.44-0.1-3.44c-1.97,0-5.2,1.66-6.81,3.69c-2.53,3.18-1.93,5.94-0.16,5.94
		c1.62,0.02,3.83-2.16,5.64-4.3c-4.46,5.72-7.08,9.11-8.06,10.16c0.8-0.28,1.92-0.38,2.89-0.61c3.96-0.93,6.74-3.25,11.48-9.87
		C76.15,80.37,74.01,82.69,71.68,84.8z M66.29,82.1c-0.44,0-0.76-0.55,0.39-2.01c1.35-1.7,2.7-3.4,4.03-5.1
		c0.69-0.86,1.56-1.8,2.43-1.8c1.68,0,0.4,2.5-1.2,4.5C70.31,79.71,67.62,82.12,66.29,82.1L66.29,82.1z"/>
	<path class="st0" d="M59.83,82.19c-0.27,0-0.5-0.1-0.5-0.44c0-1.05,4.89-4.47,4.87-7.34c0-0.79-0.35-1.61-1.36-1.61
		c-1.71,0.01-6.06,5.06-8.27,7.67c0.81-1.06,1.61-2.11,2.41-3.16c2.38-3.11,3.31-4.2,3.31-4.2h-2.62c-0.98,1.29-1.97,2.58-2.96,3.87
		c-3.33,4.01-5.84,5.18-6.97,5.18c-0.71,0-0.78-0.87,0.31-2.31c1.74-2.32,3.39-4.42,5.13-6.74h-2.69c-0.65,0.9-1.2,1.61-1.85,2.51
		c0.77-1.4,1.07-2.76-0.38-2.75c-1.86,0-4.95,1.58-6.54,3.6c-2.52,3.19-1.65,6,0.11,6c1.64,0,3.27-2.11,4.89-4.19
		c-1.42,2.01-1.26,4.24,0.65,4.24c0.97-0.01,3.17-0.35,6.4-4.31c-1.02,1.33-2.03,2.65-3.05,3.98h2.55c1-1.37,7.77-9.02,9.44-9.03
		c0.21-0.01,0.38,0.15,0.39,0.36c0.01,1.12-4.97,4.48-4.96,7.09c0,0.9,0.36,1.93,1.41,1.92c2.66,0,5.6-4.2,6.33-5.44
		C65.25,78.11,61.94,82.18,59.83,82.19z M41.96,82.16c-1.06,0-0.31-1.52,0.84-3.13c1.01-1.39,2.23-2.89,3.19-4.05
		c0.71-0.86,1.67-1.8,2.46-1.8c1.24,0,0.22,2.46-1.38,4.46C45.46,79.66,43.43,82.16,41.96,82.16z"/>
	<path class="st0" d="M32.01,84.06c-0.48,0-0.96,0.03-1.44,0.11c1.9-0.33,3.58-1.41,4.68-2.99c2.26-3.14,4.76-6.28,7.02-9.42
		c1.44-2.02,3.13-3.51,4.44-3.73c5-0.03,8.97-1.3,9.27-2.43c-0.08,0.01-0.17,0.02-0.26,0.02c0,0-0.2,0.71-2.56,0.74
		c-4.17,0.04-8.13-1.19-12.57-1.17c-4.54,0.02-9.97,2.9-9.97,7.15c0.01,0.62,0.3,0.63,0.41,0.63c0.24-0.01,0.49-0.03,0.72-0.04
		c0,0-0.5-0.15-0.5-1.45c0.27-2.55,2.4-4.49,4.96-4.54c3.88-0.01,6.24,1.03,9.93,1.11c-2.73,0.2-6.31,2.44-8.51,5.51
		c0.02,0-6.48,8.6-7.1,9.55c-0.41,0.61-0.92,1.16-1.5,1.6c2.53-0.9,4.35,0.03,5.5,0.02c0.43,0.05,0.85-0.14,1.11-0.49
		C34.89,84.53,33.66,84.06,32.01,84.06z"/>
	<path class="st0" d="M128.73,84.65c-0.44,0-0.8,0.36-0.8,0.8s0.36,0.8,0.8,0.8c0.44,0,0.8-0.36,0.8-0.8c0,0,0,0,0,0
		c0.01-0.44-0.34-0.79-0.78-0.8C128.75,84.65,128.74,84.65,128.73,84.65z M128.73,86.1c-0.36-0.01-0.64-0.3-0.63-0.66
		s0.3-0.64,0.66-0.63c0.35,0.01,0.63,0.29,0.63,0.64C129.38,85.81,129.09,86.1,128.73,86.1L128.73,86.1z"/>
	<path class="st0" d="M128.83,85.51c0.13,0,0.23-0.11,0.23-0.24c0-0.15-0.11-0.23-0.29-0.23c-0.14,0-0.27,0-0.4,0v0.85h0.17v-0.35
		h0.04c0.11,0,0.16,0.04,0.25,0.21c0.03,0.04,0.05,0.09,0.07,0.14h0.21c-0.02-0.06-0.06-0.12-0.09-0.17
		C128.92,85.56,128.9,85.54,128.83,85.51z M128.68,85.4h-0.14v-0.23h0.16c0.12,0,0.18,0.04,0.18,0.12
		C128.88,85.36,128.82,85.4,128.68,85.4L128.68,85.4z"/>
</g>
</svg>
