<?xml version="1.0" encoding="utf-8"?>
<!-- Generator: Adobe Illustrator 25.1.0, SVG Export Plug-In . SVG Version: 6.00 Build 0)  -->
<svg version="1.1" id="Layer_1" xmlns="http://www.w3.org/2000/svg" xmlns:xlink="http://www.w3.org/1999/xlink" x="0px" y="0px"
	 viewBox="0 0 161.6 97.6" style="enable-background:new 0 0 161.6 97.6;" xml:space="preserve">
<style type="text/css">
	.st0{fill:#062256;}
</style>
<g>
	<path class="st0" d="M76.7,41.6L76.7,41.6c-0.5,0-1.3,0-1.8,0v4.5c0,0,1.2-1.2,1.7-1.8c0.3-0.2,0.4-0.6,0.4-0.9v-1.5
		C77,41.7,77,41.6,76.7,41.6z"/>
	<path class="st0" d="M94.9,49.7c0.5,0,1.3,0.1,1.8,0.1h0c0.1,0,0.1,0,0.1-0.1c0,0,0.1-0.1,0.1-0.1v-7.2c0-0.1-0.1-0.2-0.2-0.2
		c-0.5,0-1.3-0.1-1.8-0.2h0c-0.1,0-0.2,0.1-0.2,0.2v7.2C94.7,49.5,94.8,49.6,94.9,49.7z"/>
	<path class="st0" d="M38.4,40.5v19.3c27.6-6.4,56.3-6.4,83.8,0V40.5C94.7,34.1,66,34.1,38.4,40.5z M51.7,51.8
		c0,0.4-0.1,0.8-0.4,1.2c-0.2,0.3-0.6,0.5-0.9,0.6c-1.4,0.2-2.1,0.3-3.5,0.6c-0.1,0-0.1,0-0.2,0c-0.3,0-0.6-0.1-0.8-0.3
		c-0.3-0.3-0.4-0.7-0.4-1.1v-1.6l0,0c0,0,2.1-0.4,2.1-0.4v0.9c0,0.3,0,0.3,0.2,0.3c0,0,1.5-0.3,1.6-0.3c0.2,0,0.3-0.1,0.3-0.4v-2.2
		c0-0.3-0.2-0.3-0.2-0.3h0l-0.1,0c0,0-2.4,0.4-2.4,0.4c-0.1,0-0.2,0-0.2,0c-0.3,0-0.6-0.1-0.8-0.3c-0.2-0.2-0.4-0.6-0.4-0.9v-3.7
		c0-0.9,0.6-1.7,1.5-1.8c1.1-0.2,2.2-0.4,3.2-0.6c0.1,0,0.2,0,0.2,0c0.3,0,0.6,0.1,0.9,0.3c0.3,0.3,0.5,0.7,0.4,1.1V45
		c-0.7,0.1-1.4,0.2-2.2,0.3v-1c0-0.1-0.1-0.2-0.2-0.2h0c0,0,0,0,0,0c-0.4,0.1-1.2,0.2-1.5,0.3c-0.1,0-0.2,0.1-0.2,0.3v2.1
		c0,0.2,0.1,0.3,0.2,0.3c0,0,0,0,0.1,0c0,0,1.7-0.3,2.5-0.4c0.1,0,0.1,0,0.2,0c0.3,0,0.6,0.1,0.8,0.3c0.3,0.3,0.5,0.7,0.5,1.1
		L51.7,51.8z M65,51.7c-0.7,0.1-1.3,0.1-2,0.2l-0.1,0L61.8,45l-1.2,7.1l-0.1,0c-0.7,0.1-1.3,0.2-2,0.2l-0.1,0l-1.2-6.9L56,52.7
		l-0.1,0c-0.7,0.1-1.3,0.2-2,0.3l-0.2,0l0-0.2c0.8-3.9,1.5-7.7,2.3-11.6l0-0.1l0.1,0c0.7-0.1,1.3-0.2,2-0.2l0.1,0l1.2,6.8l1.2-7.1
		l0.1,0c0.7-0.1,1.3-0.1,2-0.2l0.1,0l2.3,11.3L65,51.7z M69.6,51.4l-0.1,0c-0.7,0-1.3,0.1-2,0.1l-0.1,0V40l0.1,0
		c0.7,0,1.3-0.1,2-0.1l0.1,0L69.6,51.4L69.6,51.4z M79.9,51.1c-0.7,0-1.5,0-2.2,0h-0.1l0-0.1c-0.5-1.2-1-2.4-1.4-3.6
		c-0.4,0.4-0.8,0.8-1.3,1.2v2.6h-0.1c-0.7,0-1.3,0-2,0.1l-0.1,0V39.7l0.1,0c1.7-0.1,3.1-0.1,4.8-0.1c0.8-0.1,1.6,0.6,1.7,1.4
		c0,0,0,0.1,0,0.1v2.4c0.1,0.5-0.1,1-0.5,1.4l-0.9,0.9c0.8,1.7,1.5,3.4,2.2,5.1l0.1,0.2L79.9,51.1z M116.2,54.1c0,0.5-0.4,1-1,1
		s-1-0.4-1-1s0.4-1,1-1S116.2,53.6,116.2,54.1L116.2,54.1z M109.9,41.9l0.1,0c1.7,0.3,3.5,0.6,5.2,0.9l0.1,0v2l-0.1,0
		c-1-0.2-2-0.4-3.1-0.6v2.7c0.8,0.1,1.6,0.3,2.4,0.4l0.1,0v2l-0.1,0c-0.8-0.1-1.6-0.3-2.3-0.4v4.9l-0.1,0c-0.7-0.1-1.3-0.2-1.9-0.3
		l-0.1,0L109.9,41.9L109.9,41.9z M101.9,40.8l0.1,0c1.7,0.2,3.5,0.4,5.2,0.7l0.1,0v2l-0.1,0c-1-0.2-2.1-0.3-3.1-0.4v2.7
		c0.8,0.1,1.6,0.2,2.4,0.3l0.1,0v2l-0.1,0c-0.8-0.1-1.6-0.2-2.3-0.3v4.9l-0.1,0c-0.7-0.1-1.3-0.2-2-0.2l-0.1,0L101.9,40.8z
		 M92.4,41.5c-0.1-0.8,0.5-1.4,1.3-1.5c0.1,0,0.1,0,0.2,0h0c1.2,0.1,2.4,0.2,3.6,0.3c0.9,0.1,1.5,0.8,1.5,1.7v8.4
		c0,0.4-0.1,0.8-0.4,1.1c-0.3,0.3-0.7,0.4-1,0.4c-0.1,0-0.1,0-0.2,0c-1.4-0.1-2.1-0.2-3.5-0.3c-0.9,0-1.6-0.7-1.5-1.6c0,0,0,0,0,0
		L92.4,41.5z M82.5,39.6h0.1c0.7,0,1.5,0,2.2,0H85l0,0.1c0.8,2.3,1.7,4.6,2.5,6.8v-6.8h0.1c0.6,0,1.2,0,1.9,0.1h0.1v11.5l-0.1,0
		c-0.8,0-1.5-0.1-2.3-0.1h-0.1l0-0.1c-0.8-2.3-1.7-4.5-2.5-6.8v6.8h-0.1c-0.6,0-1.2,0-1.9,0h-0.1V39.6z"/>
	<path class="st0" d="M114.5,54.1c0,0.4,0.3,0.8,0.8,0.8c0.4,0,0.8-0.3,0.8-0.8c0-0.4-0.3-0.8-0.8-0.8l0,0
		C114.8,53.4,114.5,53.7,114.5,54.1z M115.7,53.9c0,0.1-0.1,0.3-0.2,0.3l0.3,0.4h-0.3l-0.2-0.4h-0.1v0.4h-0.3v-1h0.4
		C115.6,53.6,115.7,53.7,115.7,53.9z"/>
	<path class="st0" d="M115.3,54C115.3,54,115.3,54,115.3,54c0.1,0,0.1-0.1,0.1-0.1c0,0,0,0,0-0.1s0,0,0-0.1s0,0-0.1,0c0,0,0,0-0.1,0
		c0,0-0.1,0-0.1,0h-0.1V54L115.3,54C115.2,54,115.2,54,115.3,54z"/>
</g>
</svg>
