<?xml version="1.0" encoding="utf-8"?>
<!-- Generator: Adobe Illustrator 25.1.0, SVG Export Plug-In . SVG Version: 6.00 Build 0)  -->
<svg version="1.1" id="Layer_1" xmlns="http://www.w3.org/2000/svg" xmlns:xlink="http://www.w3.org/1999/xlink" x="0px" y="0px"
	 viewBox="0 0 161.6 97.6" style="enable-background:new 0 0 161.6 97.6;" xml:space="preserve">
<style type="text/css">
	.st0{fill:#062256;fill-opacity:0;}
	.st1{fill:#062256;}
</style>
<g>
	<g>
		<path class="st0" d="M25.4,39c-5.7,0-9.2,4.1-9.2,10.2c0,6.2,3.5,10.2,9.2,10.2s9.2-4.1,9.2-10.2C34.6,43,31.1,39,25.4,39z
			 M25.4,57.7c-4.2,0-5.1-4.6-5.1-8.5c0-4,0.9-8.5,5.1-8.5c4.2,0,5.1,4.6,5.1,8.5S29.6,57.7,25.4,57.7z"/>
		<path class="st0" d="M142.4,39c-5.7,0-9.2,4.1-9.2,10.2c0,6.2,3.6,10.2,9.2,10.2s9.2-4.1,9.2-10.2C151.6,43,148.1,39,142.4,39z
			 M142.4,57.7c-4.2,0-5.1-4.6-5.1-8.5c0-4,0.9-8.5,5.1-8.5c4.2,0,5.1,4.6,5.1,8.5C147.5,53.2,146.6,57.7,142.4,57.7z"/>
		<path class="st0" d="M39.3,16.3c-5.7,0-9.2,4.1-9.2,10.2c0,6.2,3.5,10.2,9.2,10.2s9.2-4.1,9.2-10.2C48.6,20.3,45,16.3,39.3,16.3z
			 M39.3,35c-4.2,0-5.1-4.6-5.1-8.5c0-4,0.9-8.5,5.1-8.5c4.2,0,5.1,4.6,5.1,8.5C44.4,30.5,43.5,35,39.3,35z"/>
		<path class="st0" d="M71.3,58.8c-5.7,0-9.2,4.1-9.2,10.2c0,6.2,3.6,10.2,9.2,10.2s9.2-4.1,9.2-10.2C80.6,62.9,77,58.8,71.3,58.8z
			 M71.3,77.6c-4.2,0-5.1-4.6-5.1-8.5c0-4,0.9-8.5,5.1-8.5c4.2,0,5.1,4.6,5.1,8.5C76.4,73,75.5,77.6,71.3,77.6z"/>
	</g>
	<g>
		<g>
			<path class="st1" d="M95.6,39c-5.7,0-9.2,4.1-9.2,10.2c0,6.2,3.6,10.2,9.2,10.2s9.2-4.1,9.2-10.2C104.8,43,101.3,39,95.6,39z
				 M95.6,57.7c-4.2,0-5.1-4.6-5.1-8.5c0-4,0.9-8.5,5.1-8.5c4.2,0,5.1,4.6,5.1,8.5C100.7,53.2,99.8,57.7,95.6,57.7z"/>
			<path class="st1" d="M62.5,57.2c-0.3,0-5.9,0-5.9,0V50c1.3,0,3.2,0,3.2,0c1.7,0,2.4,1.9,2.4,1.9h0.4v-5.5h-0.4
				c0,0-0.7,1.9-2.4,1.9c-0.1,0-1.9,0-3.2,0v-7.2c0,0,5.3,0,5.6,0c2,0,2.9,2.6,2.9,2.6h0.4l-0.7-4.3H51.5V40c0,0,1.3,1.1,1.3,3.2
				c0,0.1,0,11.9,0,12c0,2.1-1.3,3.2-1.3,3.2v0.4h13.6l0.7-4.2h-0.4C65.4,54.6,64.2,57.2,62.5,57.2z"/>
			<path class="st1" d="M39.8,58.8v-0.4c0,0-1.3-1.2-1.3-3.2c0-0.3,0-16.8,0-16.8l2.7,0c2.3,0,4.3,0.9,4.3,5c0,3.6-1.8,5-4.1,5h-1.8
				v0.4c0.8,0.8,2,1.2,3.4,1.2c3.8,0,6.6-2.6,6.6-6.7c0-4-2.7-6.6-6.6-6.6h-9.8v0.4c0,0,1.3,1.2,1.3,3.2c0,0.3,0,14.6,0,14.8
				c0,2-1.3,3.2-1.3,3.2v0.4L39.8,58.8L39.8,58.8z"/>
			<path class="st1" d="M68,39.5V40c0,0,1.3,1.1,1.3,3.2c0,0.1,0,11.9,0,12c0,2.1-1.3,3.2-1.3,3.2v0.4h6.3v-0.4c0,0-1.3-1.1-1.3-3.2
				c0,0,0-10.5,0-14h3.1c1.5,0,3.3,0.7,3.3,3.8c0,2.6-1.6,3.8-3.3,3.8h-1.9v0.5c0.2,0.5,1.1,0.8,2.3,2.6s4,6.2,4.4,6.9h5.6v-0.5
				c0,0-1.4-0.2-2.3-1.5c-0.8-1.2-1.1-1.7-1.9-3c-1-1.6-1.9-3.1-3-3.8v0c2.6-0.3,4.4-2.3,4.4-5.2c0-3.2-2-5.2-5.1-5.2L68,39.5
				L68,39.5z"/>
			<path class="st1" d="M128.3,55.2c0,2.1-1.3,3.2-1.3,3.2v0.4h6.3v-0.4c0,0-1.2-1.1-1.2-3.2c0,0,0-12,0-12c0-2.1,1.3-3.2,1.3-3.2
				v-0.4h-6.3V40c0,0,1.3,1.1,1.3,3.2C128.3,43.2,128.3,55.2,128.3,55.2z"/>
			<path class="st1" d="M119.8,58.8h4.3v-0.4c0,0-1.3-1.1-1.3-3.2c0-0.1,0-12,0-12c0-2.1,1.3-3.2,1.3-3.2v-0.4h-4.2V40
				c0,0,1.3,1.1,1.3,3.2c0,0,0,6.6,0,10.6h0L112,39.5h-4.8V40c0,0,1.3,1.1,1.3,3.2c0,0.1,0,12,0,12c0,2.1-1.3,3.2-1.3,3.2v0.4h4.2
				v-0.4c0,0-1.3-1.1-1.3-3.2c0,0,0-7.3,0-11.3h0L119.8,58.8z"/>
		</g>
		<g>
			<path class="st1" d="M63.8,65h0.9v5.4h-0.8C63.8,70.4,63.8,65,63.8,65z M70.2,65.6h-1.9V65H73v0.6H71v4.8h-0.8L70.2,65.6
				L70.2,65.6z M77.7,65h0.9l2.3,5.4h-0.9l-0.7-1.6h-2.4l-0.7,1.6h-0.9L77.7,65z M78.2,65.9L78.2,65.9l-1,2.2h1.9L78.2,65.9z
				 M84.4,65h0.8v4.8h3.2v0.6h-4.1V65z M92.3,65h0.8v5.4h-0.8V65z M99.1,65h0.9l2.3,5.4h-0.9l-0.7-1.6h-2.4l-0.7,1.6h-0.9L99.1,65z
				 M99.6,65.9L99.6,65.9l-1,2.2h1.9L99.6,65.9z"/>
			<path class="st1" d="M63.8,65h0.9v5.4h-0.8C63.8,70.4,63.8,65,63.8,65z M70.2,65.6h-1.9V65H73v0.6H71v4.8h-0.8L70.2,65.6
				L70.2,65.6z M77.7,65h0.9l2.3,5.4h-0.9l-0.7-1.6h-2.4l-0.7,1.6h-0.9L77.7,65z M78.2,65.9L78.2,65.9l-1,2.2h1.9L78.2,65.9z
				 M84.4,65h0.8v4.8h3.2v0.6h-4.1V65z M92.3,65h0.8v5.4h-0.8V65z M99.1,65h0.9l2.3,5.4h-0.9l-0.7-1.6h-2.4l-0.7,1.6h-0.9L99.1,65z
				 M99.6,65.9L99.6,65.9l-1,2.2h1.9L99.6,65.9z"/>
		</g>
	</g>
</g>
</svg>
