<?xml version="1.0" encoding="utf-8"?>
<!-- Generator: Adobe Illustrator 25.1.0, SVG Export Plug-In . SVG Version: 6.00 Build 0)  -->
<svg version="1.1" id="Layer_1" xmlns="http://www.w3.org/2000/svg" xmlns:xlink="http://www.w3.org/1999/xlink" x="0px" y="0px"
	 viewBox="0 0 161.55 161.55" style="enable-background:new 0 0 161.55 161.55;" xml:space="preserve">
<style type="text/css">
	.st0{fill:#666666;}
	.st1{clip-path:url(#SVGID_2_);}
	.st2{clip-path:url(#SVGID_4_);}
	.st3{clip-path:url(#SVGID_6_);}
	.st4{clip-path:url(#SVGID_8_);}
	.st5{clip-path:url(#SVGID_10_);}
	.st6{clip-path:url(#SVGID_12_);}
	.st7{opacity:0;fill:#666666;}
	.st8{opacity:0;fill:#666666;stroke:#009DE2;stroke-width:0.1121;}
	.st9{opacity:0;}
</style>
<g>
	<path class="st8" d="M21.66,30.18v101.18l118.24,0V30.19L21.66,30.18z"/>
	<path class="st8" d="M32.81,41.34v78.88h95.93l0-78.88L32.81,41.34z"/>
	<path class="st8" d="M43.96,52.55v56.53l73.63-0.06V52.49L43.96,52.55z"/>
	<path class="st0" d="M73.93,109.06v-1.96h-4.97v-2.03h4.97v-1.72h-5.52v-2.03h2.83l-0.41-1.92h-1.61v-2.03h4.74V96h1.99v1.36h4.74
		v2.03h-1.61l-0.41,1.92h2.83v2.03h-5.52v1.72h4.97v2.03h-4.97v1.96H73.93z M76.5,101.32l0.41-1.92H73l0.41,1.92H76.5z"/>
	<g>
		<g>
			<path class="st0" d="M79.58,52.45c-0.06,0.1-0.13,0.11-0.23,0.1c-0.09-0.01-0.17-0.03-0.25-0.05c-0.12-0.03-0.25-0.06-0.43-0.06
				c-0.24,0-0.47,0.09-0.61,0.24c-0.1,0.11-0.16,0.24-0.16,0.37c0,0.19,0.09,0.35,0.27,0.52c0.02,0.02,0.09,0.07,0.16,0.13
				c0.1,0.08,0.2,0.16,0.23,0.18c0.19,0.18,0.19,0.28,0.18,0.37l0,0.04c0,0.07-0.03,0.14-0.09,0.2c-0.09,0.09-0.24,0.15-0.38,0.15
				c-0.36,0-0.58-0.24-0.64-0.7h-0.07l-0.2,0.84h0.07c0.07-0.09,0.15-0.12,0.25-0.1c0.06,0.01,0.12,0.03,0.19,0.04
				c0.14,0.04,0.3,0.08,0.5,0.08c0.53,0,0.92-0.29,0.92-0.68c0-0.18-0.09-0.33-0.3-0.52c-0.03-0.03-0.12-0.1-0.2-0.17
				c-0.08-0.07-0.17-0.14-0.2-0.17c-0.15-0.13-0.19-0.21-0.19-0.32c0-0.18,0.17-0.32,0.4-0.32c0.31,0,0.54,0.22,0.61,0.59h0.05
				l0.19-0.74H79.58z"/>
			<path class="st0" d="M81.73,52.49l-0.02,0.06c0.18,0.04,0.3,0.11,0.26,0.31l-0.01,0.05l-0.01,0.07l-0.32,1.05
				c-0.11,0.35-0.37,0.55-0.74,0.55c-0.13,0-0.25-0.05-0.33-0.13c-0.06-0.06-0.09-0.14-0.09-0.23c0-0.1,0.03-0.2,0.07-0.35l0.3-0.96
				c0.09-0.28,0.18-0.32,0.43-0.36l0.02-0.06h-1.2l-0.02,0.06c0.11,0.01,0.2,0.05,0.24,0.11l0.02,0.14l-0.01,0.04l-0.03,0.11
				L80,53.92c-0.03,0.11-0.05,0.23-0.05,0.3c0,0.11,0.05,0.22,0.14,0.31c0.15,0.15,0.39,0.24,0.65,0.24c0.32,0,0.55-0.06,0.73-0.19
				c0.15-0.12,0.26-0.29,0.34-0.56l0.35-1.11c0.09-0.3,0.21-0.33,0.38-0.37l0.02-0.05H81.73z"/>
			<path class="st0" d="M83.89,53.32c-0.07,0.11-0.19,0.23-0.39,0.23c-0.05,0-0.09,0-0.15-0.02l-0.01,0l0-0.01l0.26-0.86l0-0.01
				l0.01,0c0.13,0,0.25,0,0.33,0.08c0.05,0.05,0.07,0.13,0.07,0.23C84.01,53.04,83.97,53.2,83.89,53.32 M84.44,52.65
				c-0.1-0.11-0.27-0.16-0.51-0.16h-1.15l-0.01,0.06c0.19,0.03,0.27,0.1,0.27,0.23c0,0.04,0,0.05-0.03,0.15l-0.42,1.36
				c-0.06,0.2-0.14,0.4-0.35,0.42l-0.01,0.04h1.13l0.01-0.04c-0.25-0.06-0.3-0.18-0.3-0.27c0-0.04,0.01-0.09,0.03-0.16l0.18-0.58
				l0-0.01l0.01,0c0.11,0.01,0.18,0.02,0.28,0.02c0.63,0,0.98-0.36,0.98-0.69C84.56,52.86,84.52,52.74,84.44,52.65"/>
			<path class="st0" d="M84.95,52.49l-0.02,0.06c0.11,0,0.18,0.02,0.22,0.07l0.03,0.12l-0.04,0.17l-0.49,1.49
				c-0.07,0.23-0.13,0.29-0.32,0.31l0,0.04h1.88l0.24-0.55l-0.05-0.02c-0.41,0.35-0.73,0.4-1.02,0.4c-0.08,0-0.15-0.02-0.19-0.07
				l-0.04-0.09l0.02-0.08l0.02-0.05l0.22-0.67l0-0.01h0.27c0.11,0,0.2,0.04,0.26,0.12c0.05,0.06,0.06,0.14,0.05,0.22h0.04l0.25-0.76
				h-0.04c-0.21,0.27-0.31,0.32-0.63,0.32h-0.16l0.01-0.02l0.27-0.85l0-0.01h0.27c0.35,0,0.59,0.15,0.61,0.39h0.04l0.16-0.53H84.95z
				"/>
			<path class="st0" d="M87.99,53.5l-0.12-0.01l-0.01,0l0-0.01l0.26-0.81l0-0.01l0.01,0l0.08-0.01c0.1,0,0.19,0.04,0.25,0.1
				c0.05,0.05,0.07,0.12,0.07,0.21C88.52,53.33,88.24,53.5,87.99,53.5 M88.72,54.41l-0.03-0.07l-0.27-0.7l-0.01-0.01l0.02,0
				c0.45-0.07,0.66-0.37,0.67-0.64c0-0.12-0.03-0.22-0.11-0.3c-0.11-0.12-0.3-0.18-0.53-0.18h-1.14l-0.02,0.06
				c0.13,0.02,0.21,0.05,0.24,0.1l0.02,0.12c-0.01,0.03-0.01,0.06-0.04,0.14l-0.46,1.37l-0.01,0.01c-0.08,0.2-0.16,0.39-0.38,0.42
				l-0.01,0.04h1.1l0.01-0.04c-0.16-0.03-0.24-0.12-0.23-0.28l0.03-0.16l0.2-0.61l0-0.01h0.12l0,0.01l0.39,1.08h0.65l0.01-0.04
				C88.82,54.66,88.77,54.56,88.72,54.41"/>
			<path class="st0" d="M76.51,60.89c-0.34,0.33-0.79,0.48-1.44,0.47c-0.41,0-0.54-0.06-0.54-0.25c0-0.06,0.03-0.17,0.07-0.32
				l1.41-4.26l0-0.01h0.01c0.45-0.02,0.84,0.13,1.13,0.42c0.3,0.3,0.47,0.75,0.46,1.25C77.61,59.2,77.19,60.23,76.51,60.89
				 M78.53,56.94c-0.48-0.51-1.19-0.77-2.08-0.77h-2.49l-0.06,0.23c0.3,0.02,0.49,0.08,0.57,0.19c0.07,0.09,0.06,0.2,0.04,0.31
				l-0.01,0.05c-0.02,0.08-0.03,0.19-0.09,0.34l-1.19,3.58c-0.18,0.53-0.28,0.62-0.83,0.68l-0.08,0.2h2.69
				c0.78,0,1.37-0.09,1.85-0.28c0.46-0.18,0.82-0.45,1.22-0.8c0.35-0.31,0.61-0.67,0.78-1.08c0.14-0.34,0.22-0.72,0.23-1.14
				C79.11,57.88,78.91,57.35,78.53,56.94"/>
			<path class="st0" d="M84.14,58.36c-0.27,0.26-0.65,0.4-1.01,0.38l-0.04,0c-0.09,0-0.14-0.01-0.22-0.02l-0.01,0l0.01-0.01
				l0.7-2.12l0-0.01l0.01,0l0.02,0c0.04-0.01,0.06-0.01,0.14-0.01c0.29,0,0.51,0.07,0.66,0.23c0.14,0.15,0.2,0.36,0.19,0.64
				C84.54,57.88,84.32,58.19,84.14,58.36 M84.96,60.87l-0.67-1.81l0-0.01l0.01,0c1.09-0.25,1.66-0.8,1.67-1.65
				c0.01-0.33-0.09-0.6-0.28-0.81c-0.27-0.28-0.72-0.42-1.34-0.41h-2.91l-0.06,0.2c0.3,0.01,0.5,0.07,0.6,0.19
				c0.06,0.07,0.09,0.17,0.07,0.28c-0.01,0.1-0.05,0.23-0.11,0.43l-1.17,3.55l0,0.01c-0.17,0.5-0.21,0.64-0.82,0.69l-0.08,0.23h2.83
				l0.07-0.2c-0.35-0.04-0.55-0.11-0.63-0.24c-0.09-0.13-0.03-0.31,0.03-0.49c0.02-0.06,0.04-0.13,0.06-0.2l0.51-1.51l0-0.01l0.01,0
				l0.26,0.02l0.01,0l0,0.01l0.92,2.62h1.76l0.06-0.2C85.23,61.49,85.11,61.31,84.96,60.87"/>
			<path class="st0" d="M91.95,56.17l-0.08,0.21c0.22,0.03,0.56,0.12,0.55,0.38c0,0.12-0.1,0.28-0.26,0.46l-1.48,1.6l-0.01,0.01
				l-0.01-0.02l-0.54-1.57c-0.06-0.17-0.1-0.32-0.1-0.44c0-0.36,0.33-0.41,0.65-0.41l0.09-0.23h-2.84l-0.05,0.22
				c0.53,0.06,0.62,0.21,0.88,0.79l0.74,2.01l0,0l0,0l-0.52,1.63c-0.2,0.59-0.36,0.71-1.03,0.72l-0.08,0.21h3.11l0.06-0.19
				c-0.51-0.03-0.74-0.14-0.74-0.37c0-0.06,0.03-0.19,0.05-0.3l0.01-0.06l0.44-1.52l0,0l0,0l2.21-2.41c0.29-0.3,0.64-0.51,0.87-0.52
				l0.07-0.21H91.95z"/>
			<path class="st0" d="M95.48,56.04c-0.29,0-0.54,0.18-0.66,0.47c-0.07,0.19-0.05,0.47,0.09,0.63h0v0
				c0.06,0.08,0.15,0.14,0.23,0.19c0.07,0.05,0.15,0.09,0.21,0.16l0,0v0c0.06,0.12,0,0.22-0.06,0.31l-0.04,0.06l0,0
				c-0.15,0.2-0.37,0.34-0.58,0.48c-0.07,0.04-0.14,0.09-0.2,0.13l0.06,0.14l0.03,0.05l0.12,0.03c0.6-0.3,1.03-0.63,1.31-1.01
				c0.3-0.43,0.37-0.9,0.19-1.25C96.04,56.17,95.78,56.03,95.48,56.04"/>
			<path class="st0" d="M98.12,56.43c-0.14-0.26-0.41-0.41-0.7-0.39c-0.29,0-0.54,0.18-0.66,0.47c-0.07,0.19-0.06,0.47,0.09,0.63h0
				l0,0c0.06,0.08,0.15,0.14,0.23,0.19c0.07,0.05,0.15,0.09,0.21,0.16v0l0,0c0.06,0.12-0.01,0.22-0.06,0.31l-0.04,0.06h0v0
				c-0.15,0.2-0.37,0.34-0.57,0.48c-0.07,0.05-0.14,0.09-0.2,0.13l0.06,0.14l0.03,0.05l0.12,0.03c0.6-0.3,1.03-0.63,1.31-1.01
				C98.23,57.26,98.3,56.79,98.12,56.43"/>
			<path class="st0" d="M69.45,56.08c-0.37-0.06-0.72,0.1-0.98,0.44l0,0h0c-0.46,0.49-0.34,1.31-0.23,1.75l0.05,0.17
				c0.03,0.11,0.05,0.22,0.12,0.31c0.1,0,0.19-0.02,0.26-0.08c0-0.12-0.02-0.23-0.04-0.36c-0.02-0.13-0.04-0.25-0.04-0.39
				c0-0.16,0.01-0.32,0.08-0.45l0,0l0,0c0.05-0.05,0.1-0.09,0.19-0.09l0,0h0l0.08,0.02c0.16,0.04,0.32,0.09,0.5,0.06
				c0.29-0.06,0.54-0.27,0.61-0.52c0.05-0.18,0.02-0.38-0.09-0.53C69.85,56.24,69.67,56.12,69.45,56.08"/>
			<path class="st0" d="M72.23,56.42c-0.12-0.18-0.3-0.3-0.52-0.34c-0.37-0.06-0.73,0.1-0.98,0.44v0c-0.46,0.49-0.34,1.31-0.23,1.75
				l0.05,0.17c0.03,0.11,0.05,0.22,0.13,0.31c0.1,0,0.19-0.02,0.26-0.08c0-0.12-0.02-0.23-0.04-0.36c-0.02-0.12-0.04-0.25-0.04-0.39
				c0-0.16,0.01-0.32,0.09-0.45l0,0l0,0c0.05-0.05,0.11-0.09,0.19-0.09l0,0h0l0.08,0.02c0.16,0.04,0.32,0.09,0.5,0.06
				c0.29-0.06,0.54-0.27,0.61-0.52C72.36,56.77,72.33,56.57,72.23,56.42"/>
		</g>
		<path class="st0" d="M51.92,75.39c-2.12,2.49-1.77,4.73-0.12,4.75h4.67c0,0,0.85,0.06,0.19,0.74l-8.89,8.97
			c-0.63,0.59-1.18,0.55-1.99-0.06c-2.76-2.48-2.59-7.67,2.01-12.44l16.15-16.47c0.52-0.48,1.03-0.36,1.03,0.25v22.29l-6.46,6.57
			c-0.5,0.55-1.05,0.44-1.05-0.25V69.58L51.92,75.39z M75.2,75.4l3.31-3.38c0.46-0.52,0.51-0.86-0.11-1.47
			c-2.32-2.06-5.68-2.08-7.78-0.02l-3.27,3.32c-1.95,2.06-1.38,3.44,0.01,4.71l7.01,7.18c0.79,0.76,0.31,2-1.2,2.82
			c-2.02,1.01-2.83,0.46-2.83-1.49v-4.12c-0.04-0.65-0.29-0.65-0.66-0.23l-4.05,4.2c-0.79,0.94,0.05,2.16,1.29,2.65
			c4.03,1.37,6.31,0.34,8.22-1.45l2.61-2.73c2.08-2.58,0.15-4.33,0.15-4.33c-0.99-1.07-6.79-6.89-6.79-6.89
			c-1.44-1.22-1.04-2.39,1.07-3.68c0.81-0.5,1.58-0.15,1.58,0.65v4.39C73.77,76.45,74.25,76.39,75.2,75.4 M95.51,65.69v23.49
			c0,1.26,0.64,1.28,1.32,0.63l4.64-4.75l-0.02-7.65l2.01-2.08v13.97c0,1.07,0.55,1.15,1.32,0.42l4.42-4.54v-15.5
			c0-0.88-0.55-1.07-1.18-0.31l-6.55,6.64v-14.5c0-1.2-0.66-1.13-1.21-0.54L95.51,65.69z M116.6,60.74l-4.71,4.7v5.21
			c0,0.82,0.5,0.9,1.12,0.29l4.54-4.66v-5.31C117.52,60.32,117.04,60.3,116.6,60.74 M116.56,69.22l-4.6,4.69v15.61
			c0.02,0.78,0.5,0.88,1.1,0.25l4.53-4.64V69.6C117.59,68.85,117.09,68.66,116.56,69.22 M83.55,81.93c0.02-1.96,0.81-3.66,2.15-4.99
			l1.61-1.61v8.76l-1.49,1.33C84.9,86.11,83.55,84.66,83.55,81.93 M92.99,69.75c0.02-1.01-0.5-1.07-1.23-0.31l-9.23,9.39
			c-2.31,2.4-4.88,7.83-1.43,10.88c0.88,0.69,1.21,0.57,1.88,0l4.3-4.31v4.1c0,0.74,0.57,0.84,1.18,0.25
			c0.84-0.82,4.54-4.51,4.54-4.51V69.75"/>
		<path class="st0" d="M83.7,97.37h11.96v11.09H83.7V97.37z M85.96,106.33h7.44V99.5h-7.44V106.33z M73.93,109.06v-1.96h-4.97v-2.03
			h4.97v-1.72h-5.52v-2.03h2.83l-0.41-1.92h-1.61v-2.03h4.74V96h1.99v1.36h4.74v2.03h-1.61l-0.41,1.92h2.83v2.03h-5.52v1.72h4.97
			v2.03h-4.97v1.96H73.93z M76.5,101.32l0.41-1.92H73l0.41,1.92H76.5z"/>
	</g>
	<g class="st9">
		<path class="st0" d="M73.19,117.03h20.63c0.7,0,0.82-0.59,0.25-1.11l-6.72-6.86H64.53c-0.63,0-0.74,0.55-0.25,1.09l16.86,17.15
			c4.88,4.88,10.2,5.06,12.74,2.13c0.63-0.86,0.66-1.44,0.06-2.11l-9.18-9.44c-0.7-0.7-0.76,0.2-0.76,0.2v4.96
			c-0.02,1.76-2.31,2.13-4.86-0.13L73.19,117.03z"/>
		<path class="st0" d="M125.56,81.07V60.44c0-0.7-0.59-0.82-1.11-0.25l-6.86,6.72v22.82c0,0.63,0.55,0.74,1.09,0.25l17.15-16.86
			c4.88-4.88,5.06-10.2,2.13-12.74c-0.86-0.63-1.44-0.66-2.11-0.06l-9.44,9.18c-0.7,0.7,0.2,0.76,0.2,0.76h4.96
			c1.76,0.02,2.13,2.31-0.13,4.86L125.56,81.07z"/>
		<path class="st0" d="M85.51,44.52H64.88c-0.7,0-0.82,0.59-0.25,1.11l6.72,6.86h22.82c0.63,0,0.74-0.55,0.25-1.09L77.56,34.25
			c-4.88-4.88-10.2-5.06-12.74-2.13c-0.63,0.86-0.66,1.44-0.06,2.11l9.18,9.44c0.7,0.7,0.76-0.2,0.76-0.2V38.5
			c0.02-1.76,2.31-2.13,4.86,0.13L85.51,44.52z"/>
		<path class="st0" d="M35.99,69.04v20.63c0,0.7,0.59,0.82,1.11,0.25l6.86-6.72V60.38c0-0.63-0.55-0.74-1.09-0.25L25.72,76.99
			c-4.88,4.88-5.06,10.2-2.13,12.74c0.86,0.63,1.44,0.66,2.11,0.06l9.44-9.18c0.7-0.7-0.2-0.76-0.2-0.76h-4.96
			c-1.76-0.02-2.13-2.31,0.13-4.86L35.99,69.04z"/>
	</g>
</g>
</svg>
