<?xml version="1.0" encoding="utf-8"?>
<!-- Generator: Adobe Illustrator 25.1.0, SVG Export Plug-In . SVG Version: 6.00 Build 0)  -->
<svg version="1.1" id="Layer_1" xmlns="http://www.w3.org/2000/svg" xmlns:xlink="http://www.w3.org/1999/xlink" x="0px" y="0px"
	 viewBox="0 0 161.6 97.6" style="enable-background:new 0 0 161.6 97.6;" xml:space="preserve">
<style type="text/css">
	.st0{fill:#062256;}
</style>
<g>
	<path class="st0" d="M79.9,34.2c-0.2,0.3-0.3,0.7-0.7,1.3c0.5-0.2,0.7-0.3,0.9-0.5c-0.1,0.8,0.3,1,0.9,1.4c0.9,0.5,1.6,1.3,2.4,1.8
		c0.5,0.3,0.8,0.6,1.4,0.9c-0.3,0.7-0.8,1.5-1.4,2.4c0.2,0.2,0.6,0.5,0.9,0.8c-0.5,0.6-0.9,1-1.4,1.6c-2.5-1.5-5-1.5-7.6,0
		c-0.5-0.5-0.9-1-1.4-1.5c0.3-0.3,0.6-0.6,1-0.9c-0.3-0.3-0.7-0.7-0.9-1c-0.5-0.5-0.2-1.4,0.5-1.6c0.1,0,0.2-0.2,0.3-0.3
		c0.6-1,1.5-1.7,2.6-2.2c0.7-0.2,1-0.6,0.8-1.4c0.3,0.2,0.6,0.3,1,0.6c-0.3-0.6-0.5-0.9-0.6-1.3C79.1,34.2,79.5,34.2,79.9,34.2z
		 M79.1,37.5c-0.5-0.2-0.9-0.6-1.3-0.5c-1.3,0.3-2.4,1.1-3,2.4c0.1,0,0.2,0,0.2,0c0,0.5,0,1,0,1.7c0.5-0.1,0.9-0.2,1.6-0.5
		c-1.5-0.7,0-1-0.1-1.7c0.3,0.5,0.7,0.8,1,1.3c0,0.1-0.1,0.2-0.1,0.3c0.5-0.2,0.9-0.3,1.3-0.5c-0.5-0.5-0.8-0.7-1-1
		c-0.1-0.2,0-0.7,0.1-0.9C78.2,37.9,78.6,37.8,79.1,37.5z M81.9,39c0,0.6,1.1,1-0.2,1.7c0.8,0.1,1.3,0.2,1.5,0.3
		c0-0.7,0.1-1.1,0.1-1.7c-0.2-1-1-1.6-2.1-2.2c-1-0.5-1-0.5-1.6,0.3c0.3,0.1,0.8,0.3,0.8,0.5c0.1,0.6,0,1.1-0.1,1.8
		c-0.3-0.1-0.6-0.1-0.8-0.2c0,0.1-0.1,0.2-0.1,0.3c0.5,0.1,1,0.3,1.5,0.5C80.4,39.2,81.9,39.6,81.9,39z M75.9,42.1
		c0.1,0.2,0.1,0.3,0.2,0.6c0.6-0.2,1.1-0.3,1.6-0.6c0-0.1-0.1-0.3-0.1-0.5C77,41.8,76.4,41.9,75.9,42.1z M82.5,42.7
		c0-0.1,0.1-0.2,0.1-0.3c-0.5-0.7-0.9-0.9-1.7-0.2C81.4,42.3,82,42.5,82.5,42.7z"/>
	<path class="st0" d="M19.8,55.8c0.3-0.2,0.6-0.6,0.9-0.7c0.8-0.2,1-0.7,0.9-1.5c0-0.5,0-0.8,0-1.3c0-0.7,0.1-1.4-0.6-1.7
		C21,50.5,21,50.3,20.9,50c0.3,0,0.6,0,0.8,0c-0.1-1.4,0.5-2.9-0.7-4.2c1.4,0,2.4-0.1,3.6,0c1.4,0.1,2.3,0.9,2.5,2
		c0.2,1.1-0.2,1.8-1.3,2.5c0.5,0.6,1.1,1.1,1.4,2c0.5,1.5-0.7,2.9-2.4,3.1c-0.9,0.1-1.7,0-2.6,0.1c-0.3,0-0.7,0.3-0.9,0.6
		c0.2,0.2,0.5,0.5,0.8,0.8c-0.3,0.8-1,0.8-2.1-0.1C19.8,56.5,19.8,56.1,19.8,55.8z M23.5,54.5c0.1,0.1,0.1,0.2,0.2,0.3
		c0.5-0.2,1.3-0.5,1.4-0.8c0.2-0.8,0.2-1.6,0-2.4c-0.1-0.3-0.9-0.6-1.6-1C23.5,52.2,23.5,53.4,23.5,54.5z M23.4,50
		c0.9,0.2,1.6-0.1,1.8-1c0.3-0.9,0-2.1-0.7-2.5c-0.7-0.5-1.1-0.2-1.1,0.7C23.4,48.2,23.4,49.1,23.4,50z"/>
	<path class="st0" d="M140.8,56.7c-1,0.9-1.6,0.9-2.2,0.1c0.2-0.3,0.6-0.6,0.8-0.8c-0.3-0.1-0.7-0.5-1.1-0.5c-1.3-0.1-2.5,0-3.8,0
		c0.8-1.8,1-3.7-0.3-5.4c0.3,0,0.6,0,1,0c-0.1-1.4-0.2-2.8-0.5-4.2c1.4,0,3,0,4.7,0c0.1,0.7,0.2,1.4,0.3,2.1
		c-0.1,0.1-0.1,0.1-0.2,0.2c-0.2-0.2-0.5-0.3-0.7-0.6c-0.3-0.2-0.5-0.7-0.8-0.9c-0.8-0.5-1.3-0.1-1.3,0.7c0,0.9,0,1.7,0,2.5
		c1,0.7,1.4-0.5,2.2-0.9c0,1,0,1.8,0,2.6c-0.7-0.3-1.3-0.7-2.1-1c0,1.6,0,2.8,0,4c1,0.3,1.6-0.2,2.2-0.9c0.2-0.3,0.6-0.5,0.9-0.7
		c0.1,0.1,0.1,0.1,0.2,0.2c-0.1,0.5-0.3,1-0.5,1.5c0.5,0.3,0.8,0.8,1.3,1.1C140.8,56.1,140.8,56.5,140.8,56.7z"/>
	<path class="st0" d="M78.2,59.6c0-0.7,0.1-1.4,0.1-2.2c0.6,0,1,0,1.7,0c0.1,0.7,0.1,1.5,0.2,2.2C79.7,59.6,78.9,59.6,78.2,59.6z"/>
	<path class="st0" d="M77.6,55c0-0.2,0-0.5,0.1-0.6c0.3-0.6,0.1-0.9-0.2-1.4c-0.3-0.3-0.5-0.9-0.6-1.4c-0.1-0.8,0-1.6,0-2.4
		c0-0.9,0.1-1.6,0.7-2.3c0.2-0.2,0-1,0-1.6c-0.1,0-0.2,0-0.2,0c-0.6,0.7-1.1,1.3-1.7,2c-0.5-0.2-0.8-0.3-1.4-0.6
		c0.9-0.9,1.6-1.8,2.6-2.9c0.3,1.8,1.5,1.3,2.4,1.4c0.9,0,2,0.5,2.3-1.3c0.9,1,1.7,1.8,2.4,2.6c-0.1,0.2-0.1,0.3-0.2,0.3
		c-1.3,0.5-1.4,1.4-1.3,2.5c0.1,0.9,0,1.8,0.2,2.8c0.5-1.5,1-2.9,1.6-4.6c0.8,2.8,0.5,5-1.1,7.2c-0.3-0.2-0.6-0.3-0.8-0.6
		c-0.8,0.6-1.5,1.4-2.3,1.6C79.2,56.1,78.2,55.9,77.6,55L77.6,55z M81.3,50.1c0-0.5,0-0.9,0-1.4c0-1.4-0.6-1.8-2-1.8
		c-1.3,0-2,0.6-2,2c0,0.7,0.1,1.5,0,2.2c-0.2,1.5,0.7,2.5,2.3,2.3c0.9-0.1,1.5-0.7,1.6-1.6C81.4,51.1,81.3,50.6,81.3,50.1z"/>
	<path class="st0" d="M40.8,55.4c-0.7-2.1-1.4-4-2.1-6.1c-0.1,0-0.1,0-0.2,0c0.3,2-0.5,4,0.7,6c-0.8,0-1.4,0-2.2,0
		c0.8-1.8,1-3.7-0.3-5.4c0.5,0,0.7,0,0.9,0c-0.1-1.4,0.5-2.9-0.7-4.2c1.1,0,2.1,0,3.2,0c-0.8,1-0.2,1.8,0.1,2.6c0.3,1,0.7,2,1.1,3.2
		c0.7-1.7,1.3-3.2,1.7-4.7c0.1-0.3-0.2-0.7-0.3-1.1c1,0,2,0,2.9,0c-1,2.3-0.3,4.6-0.5,6.9c0,0.9,0.2,1.7,0.3,2.8c-0.8,0-1.6,0-2.6,0
		c1.1-1.8,0.5-3.7,0.6-5.5c0-0.2,0-0.5-0.2-0.7c-0.7,2.1-1.5,4.1-2.2,6.2C41,55.4,40.9,55.4,40.8,55.4z"/>
	<path class="st0" d="M51.7,50.4c1.6,0.9,2,1.6,1.7,2.9c-0.2,1.3-1.3,2.1-2.9,2.2c-1,0.1-2.1,0-3.2,0c0.8-1.8,1-3.7-0.5-5.4
		c0.5,0,0.7,0,1,0c-0.1-1.4-0.2-2.8-0.3-4.1c1,0,2.3-0.1,3.6,0c1.3,0.1,2,1,2.1,2C53.4,49,53,49.7,51.7,50.4z M49.5,54.5
		c0.1,0.1,0.1,0.2,0.2,0.3c0.5-0.2,1-0.5,1.4-0.8c0.6-0.7,0.5-1.6,0.1-2.4c-0.3-0.6-0.9-0.8-1.7-0.6C49.5,52.2,49.5,53.4,49.5,54.5z
		 M49.5,50c1,0.2,1.6-0.1,1.8-1c0.3-0.9,0-2.1-0.7-2.5c-0.6-0.3-1.1-0.2-1.1,0.3C49.5,48,49.5,49,49.5,50z"/>
	<path class="st0" d="M131.7,50.7c0.7,1.6,1.3,3.1,2,4.6c-0.8,0-1.7,0-2.8,0c0.8-1.6-0.3-2.8-0.7-4.1c0-0.1-0.2-0.2-0.5-0.2
		c-0.1,0.2-0.2,0.3-0.2,0.6c0.1,1.3-0.3,2.6,0.7,3.8c-1,0-2,0-2.9,0c0.7-1.8,1.1-3.6-0.5-5.3c0.5,0,0.7,0,1,0c0-0.8,0.1-1.5,0-2.2
		c-0.1-0.7-0.3-1.3-0.5-2.1c0.9,0,2,0,3,0c1.4,0.1,2.3,0.7,2.6,1.6C133.4,48.8,133,49.7,131.7,50.7z M129.6,50.5
		c0.6-0.3,1.1-0.6,1.5-0.9c0.5-0.8,0.5-1.7,0-2.5c-0.2-0.3-0.8-0.5-1.4-0.8C129.6,47.7,129.6,49,129.6,50.5z"/>
	<path class="st0" d="M118.7,55.4c-1.1,0-2,0-2.9,0c0.8-1.8,1-3.6-0.3-5.3c0.5,0,0.7,0,1,0c-0.1-1.4-0.2-2.8-0.5-4.2
		c0.6,0,1.5,0,2.2,0c-0.1,1.4-0.3,2.8-0.5,4.2c0.8,0,1.4,0,2.1,0c-0.1-1.4,0.5-2.9-0.8-4.2c1,0,2,0,2.8,0c0,0.1,0.1,0.2,0.1,0.2
		c-0.9,1.1-0.5,2.4-0.6,3.7c0,0.8,0,1.6,0,2.4c0.1,1,0.2,2.1,0.3,3.2c-0.7,0-1.5,0-2.2,0c0.1-1.4,0.3-2.9,0.5-4.4
		c-0.8,0-1.4,0-2.1,0C118.1,52.6,117.6,54,118.7,55.4z"/>
	<path class="st0" d="M28.2,50c0.2,0,0.5,0,0.7,0c0.2-0.8,0.3-1.6,0.6-2.3c0.5-1.3,1.4-2.1,2.8-2.1s2.3,0.7,2.8,1.8c0.8,2,0.9,4,0,6
		c-0.6,1.3-1.4,2.1-2.9,2.1c-1.4,0-2.2-0.9-2.8-2.1c-0.1-0.2-0.2-0.5-0.2-0.7c-0.2-0.8-0.1-1.7-0.9-2.2C28.2,50.5,28.2,50.3,28.2,50
		z M33.9,50.1c-0.1-0.9-0.2-1.8-0.5-2.5c-0.2-0.5-0.7-0.8-1.1-1.3c-0.3,0.5-0.9,0.8-1,1.3c-0.6,2-0.6,3.9,0,5.9
		c0.1,0.3,0.2,0.6,0.3,0.8c0.5,0.7,1.1,0.7,1.5,0c0.3-0.6,0.5-1.3,0.7-1.8c0.1-0.7,0.3-1.4-0.5-1.7c-0.1-0.1-0.1-0.5-0.2-0.7
		C33.2,50,33.5,50,33.9,50.1z"/>
	<path class="st0" d="M56,55.4c-0.8,0-1.5,0-2.3,0c1-1.7,2.3-3.2,1.1-5.4c0.3,0,0.6,0,1,0.1c0.3-1.3,0.7-2.6,0.9-3.9
		c-0.1,0-0.1-0.1-0.2-0.1c0.2-0.1,0.3-0.2,0.6-0.2c0.7-0.3,1-0.2,1.3,0.6c0.6,2.4,1.3,4.7,1.8,7c0.2,0.7,0.6,1.3,0.9,1.8
		c-1,0-2,0-3.1,0c0.2-0.3,0.3-0.5,0.5-0.7c0.3-0.7-0.1-1.5-0.9-1.6c-0.2,0-0.6,0-0.8,0c-1.3,0-1.6,0.7-1,1.7
		C56,55.1,56,55.2,56,55.4z M57.3,48.8c-0.1,0-0.1,0-0.2-0.1c-0.3,1.1-0.7,2.3-1,3.6c0.8,0,1.4,0,2.1,0
		C57.9,50.9,57.6,49.8,57.3,48.8z"/>
	<path class="st0" d="M106.5,55.4c-1,0-2,0-2.9,0c0.8-1.8,1-3.6-0.3-5.3c0.5,0,0.7,0,0.9,0c-0.1-1.5,0.3-2.9-0.8-4.4
		c1.4,0.1,2.5,0,3.7,0.2c1.5,0.2,2.3,1.4,2.2,2.8c-0.1,1.4-1.1,2.3-2.6,2.4c-0.2,0-0.5,0-0.8,0C106,52.6,105.4,54,106.5,55.4z
		 M105.9,50.6c0.6-0.5,1.1-0.6,1.4-0.9c0.5-0.8,0.5-1.8-0.1-2.6c-0.2-0.3-0.7-0.5-1.3-0.8C105.9,47.9,105.9,49.1,105.9,50.6z"/>
	<path class="st0" d="M98.3,55.5c-0.2,0-0.6,0-0.9,0s-0.7,0-1.1,0c0.9-1.8,2.1-3.3,0.9-5.5c1,0.2,1.1-0.3,1.3-1
		c0.2-0.9,0.5-1.8,0.6-2.8c-0.1,0-0.1-0.1-0.2-0.1c0.2-0.1,0.3-0.2,0.6-0.3c0.7-0.3,1-0.2,1.3,0.6c0.5,2.2,1,4.2,1.6,6.4
		c0.2,0.8,0.6,1.6,0.9,2.4c-0.8,0-1.7,0-2.5,0c0.1-0.7,0.1-1.4,0.2-2.3c-1,0.1-1.8,0-2.4,0.3C98.1,53.6,98.3,54.6,98.3,55.5z
		 M99.7,48.8h-0.1c-0.3,1.1-0.6,2.3-0.9,3.4c0.7,0,1.3,0,1.8,0C100.1,51.1,99.9,49.9,99.7,48.8z"/>
	<path class="st0" d="M111.8,51.2c0.1,1.5,0.2,2.9,0.3,4.2c-0.7,0-1.5,0-2.5,0c0.8-1.8,1-3.6-0.5-5.3c0.2,0,0.5,0,0.6,0
		c0.1,0,0.2,0,0.6,0c-0.1-1.4-0.2-2.8-0.5-4.2c1.1,0,2.6-0.2,3.9,0.3c1,0.5,1.6,1.5,1.4,2.8c-0.1,1-0.9,2-2.1,2.2
		C112.9,51.1,112.5,51.1,111.8,51.2z M111.9,50.4c1.1,0.1,1.5-0.5,1.6-1.3c0.2-1.1-0.1-2.3-0.9-2.5c-0.5-0.1-0.8-0.1-0.8,0.6
		C111.9,48.1,111.9,49.2,111.9,50.4z"/>
	<path class="st0" d="M95.9,45.8c0,0.9,0,1.8,0,2.8c-0.1,0-0.1,0.1-0.2,0.1c-0.2-0.2-0.5-0.5-0.6-0.7C95,47.7,95,47.3,94.8,47
		c-0.3-0.3-0.8-0.7-1-0.6c-0.3,0.1-0.8,0.7-0.7,1c0.1,0.6,0.5,1.1,0.8,1.6c0.6,0.8,1.3,1.5,1.8,2.4c0.7,1,0.8,2.1,0,3.1
		c-0.7,0.9-1.6,1.1-2.8,0.9c-0.3-0.1-0.8,0-1.4,0.1c0-0.9,0-1.8,0-3.1c0.3,0.3,0.6,0.6,0.8,0.8c0.1,0.3,0.1,0.7,0.3,0.9
		c0.3,0.3,0.8,0.8,1.1,0.7c0.3-0.1,0.8-0.6,0.8-1c0.2-0.9-0.9-2.4-1.8-2.8c-0.5-0.1-0.8-0.5-1.3-0.7c0-0.1,0.1-0.1,0.1-0.2
		c0.2,0,0.3-0.1,0.7-0.1c0-0.1-0.1-0.2-0.1-0.3c-0.6-0.7-0.8-1.4-0.6-2.3c0.2-1,1.3-1.7,2.3-1.7C94.5,45.8,95.2,45.8,95.9,45.8z"/>
	<path class="st0" d="M60.2,45.8c1,0,2,0,3,0c-0.8,1.7,0.6,2.5,1.1,3.8c0.3-1.3,1.7-2.3,0.8-3.8c0.8,0,1.5,0,2.3,0
		c-1.8,3-4,5.9-2.3,9.6c-0.9,0-1.8,0-2.5,0c0.1-1.1,0.2-2.2,0.3-3.2c0-0.6,0-1.1-0.7-1.4c-0.2-0.1-0.2-0.5-0.3-0.7
		c0.2,0,0.3-0.1,0.7-0.2C61.9,48.5,61.1,47.3,60.2,45.8z"/>
	<path class="st0" d="M125.9,55.4c-0.8,0-1.6,0-2.5,0c0.7-1.8,1.1-3.6-0.5-5.3c0.5,0,0.7,0,1.1-0.1c-0.1-1.5-0.3-2.8-0.5-4.2
		c0.7,0,1.5,0,2.3,0C125.4,49.1,125.4,52.2,125.9,55.4z"/>
	<path class="st0" d="M75.3,52.8c-2.2-1.5-2.3-3.8,0-5.5C75.3,49.1,75.3,50.9,75.3,52.8z"/>
	<path class="st0" d="M71.1,47c0.8,0.2,1.4,0.5,2.1,0.7c-0.1,0.6-0.2,1-0.2,1.6c-0.7,0-1.4,0-2.3,0C70.8,48.7,71,47.9,71.1,47z"/>
	<path class="st0" d="M87.5,47c0.1,0.8,0.2,1.6,0.5,2.4c-0.8,0-1.5,0-2.3,0c-0.1-0.6-0.2-1-0.2-1.6C86,47.5,86.7,47.3,87.5,47z"/>
	<path class="st0" d="M73.1,56.8c-0.5-0.7-0.8-1.3-1.4-2c0.7-0.3,1.4-0.7,2.1-1c0.3,0.5,0.6,0.9,0.9,1.4
		C74.2,55.7,73.7,56.2,73.1,56.8z"/>
	<path class="st0" d="M85.4,56.8c-0.6-0.6-1.1-1-1.7-1.6c0.3-0.5,0.6-0.9,0.9-1.4c0.7,0.3,1.3,0.6,2.1,1
		C86.4,55.5,85.9,56.1,85.4,56.8z"/>
	<path class="st0" d="M77.6,55c-0.2,0.3-0.5,0.7-0.9,1.1c-0.8-0.8-1.5-1.6-2.4-2.5c0.5-0.2,0.8-0.3,1-0.5C76.1,53.7,77,54.3,77.6,55
		L77.6,55z"/>
	<path class="st0" d="M84.4,56.6c-0.5,0.3-0.9,0.7-1.4,1.1c-0.2-0.5-0.5-0.7-0.7-1.1c0.3-0.3,0.7-0.6,1-0.9
		C83.7,55.9,83.9,56.2,84.4,56.6z"/>
	<path class="st0" d="M77.8,58.6c-0.6-0.2-1.1-0.5-1.6-0.7c0.2-0.5,0.5-0.8,0.6-1.1c0.5,0.1,0.8,0.3,1.4,0.5
		C77.9,57.7,77.9,58.1,77.8,58.6z"/>
	<path class="st0" d="M75.2,55.8c0.2,0.2,0.6,0.5,0.9,0.8c-0.2,0.3-0.5,0.7-0.7,1.1c-0.5-0.3-0.9-0.7-1.4-1.1
		C74.5,56.2,74.9,56,75.2,55.8z"/>
	<path class="st0" d="M72.9,50c0,0.5,0,0.9,0.1,1.4c-0.3,0.1-0.7,0.2-1.1,0.3c-0.1-0.6-0.1-1.1-0.2-1.7C72.1,50,72.5,50,72.9,50z"/>
	<path class="st0" d="M80.5,57.3c0.5-0.2,0.9-0.3,1.4-0.6c0.2,0.3,0.3,0.7,0.6,1.1c-0.6,0.2-1,0.5-1.7,0.7
		C80.7,58.1,80.6,57.7,80.5,57.3z"/>
	<path class="st0" d="M85.6,51.4c0-0.5,0.1-0.9,0.1-1.4c0.3,0,0.7,0,1.3,0c0,0.6-0.1,1-0.1,1.6C86.4,51.6,85.9,51.5,85.6,51.4z"/>
	<path class="st0" d="M86.1,53.9c-0.5-0.2-0.7-0.3-1.1-0.6c0.1-0.5,0.2-0.8,0.5-1.4c0.3,0.1,0.7,0.2,1.3,0.3
		C86.5,52.9,86.2,53.4,86.1,53.9z"/>
	<path class="st0" d="M72.9,45.2c0.5,0.2,0.7,0.5,1,0.6c-0.2,0.5-0.3,0.8-0.6,1.3c-0.3-0.1-0.7-0.2-1.1-0.3
		C72.5,46.4,72.7,45.8,72.9,45.2z"/>
	<path class="st0" d="M84.5,45.9c0.3-0.2,0.7-0.3,1-0.6c0.2,0.6,0.5,1,0.7,1.6c-0.5,0.1-0.8,0.2-1.1,0.3
		C85,46.7,84.8,46.4,84.5,45.9z"/>
	<path class="st0" d="M73.2,52c0.1,0.5,0.3,0.8,0.5,1.4c-0.3,0.2-0.7,0.3-1.1,0.6c-0.2-0.6-0.3-1-0.6-1.6
		C72.4,52.2,72.7,52.1,73.2,52z"/>
	<path class="st0" d="M75,44.5c-0.2,0.3-0.5,0.6-0.8,0.9c-0.3-0.2-0.7-0.3-1-0.7c0.3-0.5,0.7-0.8,1-1.3C74.5,44,74.8,44.2,75,44.5z"
		/>
	<path class="st0" d="M85.3,44.8c-0.3,0.2-0.7,0.5-1,0.7c-0.2-0.3-0.6-0.6-0.8-0.9c0.2-0.2,0.5-0.6,0.8-0.9
		C84.6,44,85,44.3,85.3,44.8z"/>
</g>
</svg>
