<?xml version="1.0" encoding="utf-8"?>
<!-- Generator: Adobe Illustrator 25.1.0, SVG Export Plug-In . SVG Version: 6.00 Build 0)  -->
<svg version="1.1" id="Layer_1" xmlns="http://www.w3.org/2000/svg" xmlns:xlink="http://www.w3.org/1999/xlink" x="0px" y="0px"
	 viewBox="0 0 161.6 97.6" style="enable-background:new 0 0 161.6 97.6;" xml:space="preserve">
<style type="text/css">
	.st0{fill:#062256;}
</style>
<g>
	<path class="st0" d="M58.3,43.2C58.3,43.2,58.3,43.2,58.3,43.2c-0.2-0.1-0.2-0.1-0.3-0.2c-0.7-0.3-1.4-0.6-2.2-0.7
		c-0.7-0.1-1.3-0.1-2,0c0,0-0.1,0-0.1,0c0,0-0.1,0-0.1,0c-0.2,0-0.4,0.1-0.6,0.1c-0.2,0-0.3,0.1-0.4,0.1c-0.4,0.1-0.8,0.3-1.2,0.5
		c-0.3,0.2-0.6,0.4-0.9,0.5c0,0-0.1,0-0.1,0c0,0,0,0-0.1-0.1c0-0.1,0-0.2,0-0.2c-0.1-0.4-0.3-0.5-0.8-0.5c-0.7,0-1.4,0-2.1,0
		c-0.2,0-0.4,0-0.6,0c-0.1,0-0.1,0-0.2,0c0,0,0,0.1,0,0.2c0,1.8,0,3.5,0,5.3c0,0.5,0,1,0,1.4c0,3.6,0,7.1,0,10.7c0,0.1,0,0.2,0,0.2
		c0,0,0,0,0,0c0,0,0,0,0,0c0,0,0,0,0,0.1c0,0,0,0,0,0c0,0,0,0,0,0.1c0,0,0,0,0,0.1c0,0,0,0.1,0,0.1c0,0,0,0,0,0
		c0.1,0.1,0.2,0.3,0.3,0.3c0,0,0,0,0.1,0c0.1,0,0.1,0.1,0.2,0.1h2.3c0.1,0,0.2,0,0.3-0.1l0,0l0,0c0.1,0,0.1-0.1,0.2-0.2l0,0
		c0,0,0.1,0,0.1-0.1l0,0c0,0,0,0,0,0c0,0,0,0,0,0c0,0,0,0,0-0.1c0,0,0,0,0-0.1c0-0.1,0-0.1,0-0.2c0,0,0,0,0-0.1v-2.2
		c0-0.8,0-1.6,0-2.4c0-0.1,0-0.1,0-0.2c0,0,0,0,0,0c0-0.3,0-0.5,0-0.8v-4.6c0-0.7,0-1.4,0.3-2.1c0.3-0.9,0.7-1.6,1.5-2.1
		c0.4-0.2,0.8-0.4,1.2-0.4c0.5-0.1,1.1-0.1,1.7,0c0.3,0.1,0.7,0.1,1,0.1c0.1,0,0.1,0,0.2,0c0,0,0.1,0,0.1,0c0.5-0.1,0.9-0.3,1.2-0.6
		c0.1-0.1,0.2-0.3,0.3-0.4c0.2-0.4,0.4-0.9,0.6-1.3C58.3,43.3,58.3,43.3,58.3,43.2C58.3,43.3,58.3,43.3,58.3,43.2z"/>
	<path class="st0" d="M98.1,41.1c0,0,0.1,0.1,0.1,0.1c0.1,0,0.1,0,0.1,0c0.3,0,0.7-0.1,1-0.2c0.5-0.1,0.9-0.2,1.4-0.4
		c1-0.4,2-1,2.7-1.9c0.4-0.5,0.7-1.2,0.8-1.8c0.1-0.2,0.1-0.5,0.1-0.8c0-0.8-0.3-1.6-0.6-2.4c0-0.1,0-0.1-0.1-0.1
		c-0.1-0.2-0.2-0.2-0.5-0.2c-0.2,0.1-0.5,0.2-0.7,0.2c-0.4,0.1-0.8,0.3-1.2,0.5c-0.1,0.1-0.3,0.1-0.4,0.2c-0.3,0.2-0.6,0.4-0.8,0.6
		c-0.3,0.3-0.6,0.7-0.8,1c-0.3,0.4-0.5,0.9-0.6,1.4c-0.2,0.6-0.3,1.2-0.4,1.9c-0.1,0.5-0.1,1-0.1,1.4c0,0,0,0.1,0,0.1
		S98.1,41,98.1,41.1C98.1,41.1,98.1,41.1,98.1,41.1z"/>
	<path class="st0" d="M130.4,60.2c-0.2-0.4-0.7-0.5-1.1-0.4c-0.4,0.2-0.6,0.6-0.5,1.1c0.1,0.3,0.4,0.6,0.7,0.6
		c0.4,0,0.7-0.1,0.9-0.4c0,0,0-0.1,0.1-0.1c0-0.2,0-0.4,0-0.7C130.4,60.4,130.5,60.3,130.4,60.2z"/>
	<path class="st0" d="M128.4,60.8c0-0.1,0-0.2,0-0.3c-0.2-0.4-0.3-0.9-0.5-1.3c0-0.1-0.1-0.2-0.2-0.2c0,0,0,0-0.1,0c0,0,0,0,0,0
		c0,0,0,0-0.1,0l0,0c-0.1,0-0.2,0-0.2,0c0,0-0.1,0-0.1,0c-0.1,0-0.1,0-0.1,0c0,0-0.1,0-0.1,0c-0.1,0-0.1,0-0.2,0.1c0,0,0,0,0,0
		s0,0,0,0c0,0-0.1,0-0.1,0c-0.1,0-0.1,0-0.1,0c-0.1,0-0.2,0-0.4,0c-0.1,0-0.3,0-0.4,0c0,0-0.1,0-0.1,0c0,0-0.1-0.1-0.1-0.1
		c0,0,0,0,0,0c-0.1,0-0.1,0-0.2-0.1c-0.2-0.2-0.3-0.4-0.4-0.6c0-0.1,0-0.1,0-0.2c0,0,0-0.1,0-0.1c0-0.1,0-0.1,0-0.2
		c0-0.1,0-0.2,0-0.3c0-0.1,0-0.1,0-0.2c0-1.9,0-3.9,0-5.8c0-2.1,0-4.3,0-6.4c0-0.2,0-0.5-0.1-0.7c0-0.2-0.1-0.3-0.1-0.5
		c-0.2-0.6-0.7-0.9-1.2-1.1c-0.2,0-0.4-0.1-0.6-0.1c-0.5,0-1,0-1.5,0c0,0,0,0-0.1,0c-0.1,0-0.1,0-0.1,0.1c0,0,0,0,0,0.1
		c0,0.4,0,0.8,0,1.1c0,0,0,0.1,0,0.1c0,0,0,0,0,0c0,0,0,0.1,0,0.1c-0.1,0-0.1,0-0.1-0.1c0,0-0.1,0-0.1-0.1c0,0-0.1-0.1-0.1-0.1
		c-0.8-0.5-1.6-1-2.5-1.3c-0.3-0.1-0.6-0.2-1-0.3c-0.3-0.1-0.5-0.1-0.8-0.2c-0.1,0-0.2,0-0.4,0c-0.3,0-0.5-0.1-0.8-0.1
		c-0.9,0-1.8,0-2.7,0.2c-0.5,0.1-1,0.2-1.4,0.4c-0.3,0.1-0.6,0.2-0.8,0.3c-1.5,0.7-2.7,1.8-3.7,3.1c-0.2,0.2-0.3,0.5-0.5,0.7
		c-0.2,0.4-0.4,0.8-0.6,1.2c-0.4,0.9-0.6,1.8-0.7,2.7c0,0.2-0.1,0.4-0.1,0.7s0,0.4,0,0.7c0,0.3,0,0.7,0.1,1c0,0.2,0.1,0.4,0.1,0.7
		c0.2,1.1,0.6,2.2,1.1,3.2c0,0.1,0.1,0.2,0.1,0.2c0.1,0.2,0.2,0.4,0.4,0.5c0,0,0.1,0.1,0.1,0.1c0,0,0,0.1,0.1,0.1l0,0c0,0,0,0,0,0
		c0,0,0,0.1,0.1,0.1l0,0c0.2,0.3,0.4,0.5,0.6,0.7c0,0,0,0,0,0c0,0.1,0,0.1,0.1,0.1c0,0,0,0,0,0l0,0c0,0,0.1,0.1,0.1,0.1
		c0,0,0.1,0.1,0.1,0.1l0,0c0,0.1,0.1,0.2,0.2,0.2c0.1,0.1,0.1,0.1,0.2,0.2c0,0.1,0.1,0.1,0.1,0.1c0,0,0,0,0,0l0,0
		c0,0,0.1,0.1,0.1,0.1l0,0l0,0l0,0l0,0l0,0l0,0l0,0c0,0,0.1,0.1,0.1,0.1c0,0,0,0,0,0c0,0,0,0,0.1,0c0,0,0,0,0.1,0c0,0,0,0,0,0
		c0,0,0,0,0,0c0,0,0,0,0,0s0,0,0,0c0,0,0.1,0,0.1,0l0,0h0c0,0,0.1,0.1,0.1,0.1l0,0l0,0l0,0l0,0c0,0,0.1,0.1,0.1,0.1
		c0,0,0.1,0,0.1,0.1c0.1,0.1,0.1,0.1,0.2,0.1c0,0,0,0,0,0c0,0,0,0,0,0c0,0,0.1,0,0.1,0c0,0,0,0,0,0c0,0,0,0,0,0
		c0,0.1,0.1,0.1,0.2,0.1l0,0c0,0,0.1,0,0.1,0c0,0,0,0,0.1,0c0.1,0,0.1,0.1,0.2,0.1c0,0,0,0,0,0c0,0,0.1,0,0.1,0c0,0,0,0,0,0
		c0,0,0,0,0.1,0c0,0,0,0,0,0c0,0,0,0,0.1,0c0,0,0,0,0.1,0c0.1,0,0.1,0.1,0.2,0.1c0,0,0.1,0,0.1,0c0,0,0,0,0,0
		c0.1,0.1,0.1,0.1,0.2,0.1c0,0,0.1,0,0.1,0c0,0,0,0,0.1,0c0,0,0.1,0,0.1,0c0,0,0,0,0.1,0c0,0,0.1,0,0.1,0c0.2,0.1,0.3,0.2,0.5,0.2
		c0,0,0.1,0,0.1,0c0,0,0.1,0.1,0.1,0c0,0,0,0,0,0s0,0,0,0c0,0,0.1,0,0.1,0h0c0.1,0,0.1,0,0.2,0c0,0,0,0,0,0c0,0,0,0,0.1,0
		c0,0,0,0,0.1,0c0.1,0,0.2,0.1,0.2,0.1c0.1,0,0.2,0,0.2,0c0,0,0.1,0,0.1,0l0,0c0.1,0,0.2,0.1,0.3,0.1c0,0,0.1,0,0.1,0c0,0,0,0,0.1,0
		c0.1,0,0.2,0,0.2,0.1c0.1,0,0.2,0,0.2,0c0.1,0,0.1,0,0.2,0c0,0,0.1,0,0.1,0c0,0,0.1,0,0.1,0h0.1h0c0.3,0.1,0.6,0.1,0.9,0h0.1
		c0,0,0.1,0,0.1,0c0,0,0.1,0,0.1,0c0.1,0,0.1,0,0.2,0c0.1,0,0.1,0,0.2,0c0.1,0,0.2,0,0.3-0.1c0.1,0,0.1,0,0.1,0c0.1,0,0.1,0,0.2,0
		c0.1,0,0.1,0,0.2,0c0,0,0,0,0,0c0,0,0,0,0,0c0.2,0,0.3,0,0.5-0.1c0,0,0.1,0,0.1,0c0.2,0,0.3-0.1,0.5-0.2c0.2-0.1,0.4-0.1,0.6-0.2
		c0.2-0.1,0.5-0.2,0.7-0.3c0,0,0,0,0,0c0,0,0,0,0.1,0l0,0c0,0,0,0,0,0c0.1,0,0.2-0.1,0.3-0.1c0,0,0,0,0,0c0,0,0,0,0,0
		c0.1,0,0.1,0,0.2-0.1c0.1,0,0.1-0.1,0.1-0.1c0,0,0,0,0,0c0,0,0,0,0,0s0,0,0,0c0,0,0.1,0,0.1,0c0,0,0,0,0,0c0,0,0,0,0,0c0,0,0,0,0,0
		c0.2-0.1,0.3-0.2,0.5-0.3c0,0,0,0,0,0c0,0,0,0,0,0c0,0,0-0.1,0.1-0.1c0,0,0,0,0,0c0.1-0.1,0.2-0.1,0.3-0.2c0,0,0,0,0,0l0,0
		c0.1-0.1,0.2-0.2,0.3-0.2c0,0,0.1-0.1,0.1-0.1c0,0,0,0,0,0c0.1,0,0.1-0.1,0.2-0.1c0,0,0.1,0,0.1,0c0,0.1,0.1,0.1,0.1,0.2l0,0
		c0,0,0,0.1,0.1,0.1c0.1,0.3,0.3,0.5,0.5,0.7c0,0,0,0.1,0.1,0.1l0,0l0,0c0,0,0,0,0.1,0c0.1,0.1,0.2,0.2,0.2,0.2
		c0,0.1,0.1,0.1,0.1,0.1c0.1,0.1,0.2,0.1,0.3,0.2c0.1,0.1,0.2,0.2,0.4,0.2c0.1,0.1,0.2,0.1,0.4,0.2c0.1,0,0.2,0.1,0.3,0.1
		c0.7,0.2,1.3,0.3,2.1,0.2c0.1,0,0.2,0,0.3,0c0.6-0.1,1.1-0.2,1.6-0.4c0.2-0.1,0.3-0.2,0.4-0.4C128.4,61.1,128.4,61,128.4,60.8z
		 M119.8,56.4L119.8,56.4L119.8,56.4C119.8,56.4,119.8,56.4,119.8,56.4c-0.1,0-0.1,0.1-0.1,0.1l0,0c0,0,0,0,0,0c0,0-0.1,0-0.1,0.1
		c-0.4,0.5-0.9,1-1.5,1.3c-0.2,0.1-0.3,0.2-0.5,0.3c0,0,0,0,0,0c0,0,0,0-0.1,0c0,0-0.1,0-0.1,0c0,0,0,0-0.1,0c0,0-0.1,0-0.1,0.1
		c0,0,0,0,0,0c-0.1,0-0.1,0-0.2,0.1l0,0l0,0l0,0c0,0,0,0,0,0c0,0,0,0-0.1,0c0,0,0,0,0,0s0,0,0,0c0,0-0.1,0-0.1,0h0c0,0,0,0,0,0
		c0,0,0,0-0.1,0s0,0,0,0c0,0,0,0,0,0c0,0-0.1,0-0.1,0c-0.1,0-0.1,0-0.2,0c0,0-0.1,0-0.1,0c-0.1,0-0.1,0-0.2,0c0,0-0.1,0-0.1,0
		c0,0-0.1,0-0.1,0s-0.1,0-0.1,0c-0.1,0-0.1,0-0.1,0c-0.1,0-0.1,0-0.2,0c-0.1,0-0.2,0-0.2,0c-0.2,0-0.3,0-0.5,0h-0.6
		c-0.1,0-0.1,0-0.2,0c-0.1,0-0.3-0.1-0.4-0.1c0,0,0,0-0.1,0c0,0-0.1,0-0.1,0c0,0,0,0-0.1,0c0,0,0,0-0.1,0c0,0-0.1,0-0.1,0
		c0,0-0.1,0-0.1,0c-0.1-0.1-0.2-0.1-0.4-0.1c0,0,0,0-0.1,0c-0.1,0-0.1,0-0.2-0.1c0,0,0,0,0,0s0,0,0,0c-0.1,0-0.2-0.1-0.2-0.1
		c0,0,0,0-0.1,0c0,0,0,0-0.1,0c-0.1,0-0.1,0-0.2-0.1c0,0,0,0,0,0c0,0,0,0,0,0c0,0-0.1,0-0.1,0c0,0,0,0,0,0c0,0,0,0-0.1,0
		c0,0-0.1-0.1-0.1-0.1c0,0,0,0,0,0c-0.1,0-0.2-0.1-0.2-0.1c-0.1,0-0.1,0-0.1-0.1c0,0,0,0,0,0c0,0-0.1-0.1-0.1-0.1l0,0l0,0l0,0l0,0
		c0,0,0,0,0,0c0,0-0.1-0.1-0.1-0.1c0,0,0,0-0.1,0c0,0,0,0,0,0c0,0-0.1-0.1-0.1-0.1c0,0,0,0,0,0c0,0,0,0,0,0c0-0.1-0.1-0.1-0.2-0.1
		c0,0-0.1,0-0.1-0.1c0,0,0,0,0,0c0,0,0-0.1-0.1-0.1c0,0-0.1-0.1-0.1-0.1c0,0-0.1-0.1-0.1-0.1c0,0,0,0-0.1-0.1c0,0,0-0.1-0.1-0.1
		c0,0,0,0-0.1-0.1c0,0,0,0,0,0c0,0,0,0,0,0c0,0,0,0,0,0c-0.1-0.2-0.2-0.3-0.3-0.5c0,0,0,0-0.1-0.1c0,0,0,0,0,0c0,0,0-0.1,0-0.1l0,0
		c0,0,0-0.1-0.1-0.1c0,0,0,0,0,0c0,0,0,0,0-0.1c0,0,0-0.1-0.1-0.1c0,0,0,0,0,0c0,0,0,0,0-0.1c0,0,0-0.1,0-0.1c0,0,0-0.1,0-0.1
		c0,0,0,0,0,0c0,0,0,0,0,0l0,0c-0.1-0.3-0.2-0.6-0.3-0.9c-0.1-0.2-0.1-0.4-0.1-0.5c-0.2-0.9-0.2-1.8-0.1-2.7
		c0.1-0.8,0.3-1.5,0.6-2.2c0.1-0.2,0.2-0.4,0.3-0.7c0.7-1.1,1.6-1.9,2.7-2.3c0.3-0.1,0.5-0.2,0.8-0.3c1-0.2,1.9-0.3,2.9-0.1
		c0.1,0,0.1,0,0.2,0c0,0,0.1,0,0.1,0c0.6,0.2,1.2,0.3,1.7,0.6c0,0,0,0,0,0c0,0,0,0,0.1,0c0.9,0.5,1.6,1.2,2.2,2.2
		c0.1,0.2,0.2,0.5,0.3,0.7c0.2,0.6,0.4,1.2,0.4,1.8c0.1,0.5,0.1,1,0,1.5c0,0.2,0,0.5-0.1,0.8c-0.1,0.8-0.3,1.5-0.7,2.2
		C120.1,55.8,120,56.1,119.8,56.4C119.8,56.3,119.8,56.3,119.8,56.4C119.8,56.3,119.8,56.3,119.8,56.4
		C119.8,56.4,119.8,56.3,119.8,56.4C119.8,56.3,119.8,56.3,119.8,56.4C119.8,56.3,119.8,56.4,119.8,56.4z"/>
	<path class="st0" d="M96.6,42.9c0,0-0.1,0-0.2,0h-1.1c-0.3,0-0.6,0-0.9,0c-0.3,0-0.6,0-0.8,0.1c-0.9,0.2-1.5,0.7-1.8,1.5
		c-0.2,0.4-0.3,0.8-0.5,1.2c-0.2,0.5-0.4,1.1-0.7,1.6c-0.1,0.2-0.2,0.4-0.3,0.7c-0.3,0.8-0.6,1.5-0.9,2.3c-0.5,1.3-1.1,2.6-1.6,3.9
		c0,0,0,0.1-0.1,0.1c-0.1,0.3-0.2,0.6-0.3,0.9c0,0,0,0,0,0.1c0,0,0,0.1-0.1,0.1c-0.1,0.2-0.1,0.3-0.2,0.5c0,0,0,0.1,0,0.1
		c-0.2,0.3-0.3,0.6-0.4,0.9c0,0,0,0,0,0.1v0c-0.1,0-0.1,0-0.1-0.1c0-0.1,0-0.2-0.1-0.2c0,0,0,0,0-0.1c0,0,0,0,0-0.1
		c0-0.1-0.1-0.2-0.1-0.3c0-0.1-0.1-0.2-0.1-0.3c0-0.1-0.1-0.2-0.1-0.3v0c0,0,0-0.1,0-0.1l0,0c0-0.1,0-0.1-0.1-0.1c0,0,0,0,0,0
		c0,0,0-0.1,0-0.1c0,0,0,0,0-0.1c0,0,0,0,0,0c0,0,0-0.1,0-0.1c0,0,0,0,0-0.1c0,0,0,0,0,0c-0.2-0.5-0.4-1-0.6-1.6
		c-0.3-0.7-0.6-1.4-0.9-2.1c-0.2-0.6-0.5-1.2-0.8-1.8c-0.1-0.3-0.3-0.7-0.4-1c-0.2-0.5-0.4-1-0.6-1.4c-0.3-0.8-0.7-1.7-1-2.5
		c-0.1-0.1-0.1-0.2-0.2-0.4c-0.2-0.3-0.4-0.6-0.8-0.8c-0.6-0.3-1.1-0.4-1.8-0.4c-0.6,0-1.3,0-1.9,0c-0.1,0-0.2,0-0.2,0
		c0,0,0,0.1,0,0.2c0.2,0.5,0.4,0.9,0.6,1.4c0.4,0.9,0.8,1.9,1.2,2.8c0.2,0.5,0.4,1,0.6,1.6c0.5,1.2,1,2.3,1.4,3.5
		c0.2,0.4,0.4,0.9,0.5,1.3c0,0,0,0.1,0.1,0.2c0.1,0.2,0.2,0.4,0.2,0.5c0,0,0,0.1,0,0.1c0,0,0,0,0,0c0,0,0,0,0,0c0,0,0,0,0,0
		c0,0,0,0,0,0c0,0,0,0.1,0.1,0.1l0,0v0c0,0,0,0.1,0,0.1c0,0,0,0.1,0.1,0.1c0,0,0,0.1,0,0.1c0,0.2,0.1,0.3,0.2,0.4c0,0,0,0.1,0,0.1
		c0,0,0,0,0,0c0,0,0,0,0,0c0.1,0.4,0.3,0.7,0.4,1.1c0.2,0.5,0.4,1,0.6,1.5c0.3,0.8,0.7,1.6,1,2.4c0.2,0.5,0.6,0.8,1.1,1
		c0.1,0,0.2,0,0.3,0c0.8,0,1.6,0,2.4,0c0.2,0,0.4-0.1,0.6-0.2c0.2-0.1,0.4-0.3,0.6-0.5c0.1-0.1,0.1-0.2,0.2-0.3
		c0.1-0.3,0.2-0.6,0.4-0.9c0,0,0-0.1,0-0.1c0.3-0.8,0.7-1.6,1-2.5c0,0,0,0,0,0c0,0,0,0,0-0.1c0,0,0-0.1,0-0.1c0,0,0,0,0,0
		c0,0,0,0,0,0c0,0,0-0.1,0-0.1c0,0,0,0,0,0c0,0,0,0,0,0c0-0.1,0.1-0.2,0.1-0.2c0,0,0,0,0-0.1c0,0,0,0,0,0c0,0,0,0,0-0.1
		c0,0,0.1-0.1,0.1-0.2c0,0,0,0,0,0c0,0,0,0,0,0c0-0.1,0.1-0.2,0.1-0.3c0.1,0,0.1-0.1,0.1-0.2c0,0,0,0,0-0.1c0,0,0.1-0.1,0.1-0.1
		c0.2-0.5,0.4-1.1,0.7-1.6c0.5-1.2,1-2.4,1.5-3.5c0.6-1.4,1.1-2.7,1.7-4.1c0,0,0,0,0-0.1c0.4-1.1,0.9-2.1,1.3-3.2
		C96.6,43,96.6,43,96.6,42.9C96.6,43,96.6,42.9,96.6,42.9z"/>
	<path class="st0" d="M75.2,53.7c0-3.5,0-7,0-10.6c0-0.2-0.1-0.2-0.2-0.2c-0.2,0-0.3,0-0.5,0c-0.4,0-0.7,0-1.1,0
		c-0.2,0-0.3,0-0.5,0.1c-0.8,0.2-1.3,0.7-1.4,1.6c0,0,0,0.1,0,0.1c0,3.2,0,6.5,0,9.7c0,0.1,0,0.3,0,0.4c0,0,0,0.1,0,0.2
		c0,0,0,0,0,0.1c0,0,0,0.1,0,0.1v0c0,0,0,0.1,0,0.2c0,0,0,0,0,0.1c-0.1,0-0.1,0.1,0,0.2v0c0,0,0,0,0,0c0,0,0,0.1,0,0.1
		c0,0,0,0.1,0,0.2v0c0,0,0,0,0,0c-0.1,0-0.1,0.1-0.1,0.2c0,0,0,0,0,0c0,0,0,0,0,0c0,0-0.1,0.1-0.1,0.2c0,0,0,0,0,0c0,0,0,0,0,0l0,0
		c0,0,0,0,0,0.1c0,0,0,0,0,0s0,0,0,0c0,0-0.1,0.1-0.1,0.1c0,0,0,0,0,0s0,0,0,0l0,0C71,56.8,71,56.9,70.9,57l0,0c0,0,0,0-0.1,0.1l0,0
		c0,0,0,0,0,0c0,0,0,0,0,0v0l0,0c0,0,0,0,0,0s0,0,0,0.1c-0.1,0.2-0.3,0.3-0.4,0.5c-0.2,0.3-0.5,0.5-0.8,0.7
		c-0.3,0.2-0.6,0.3-0.9,0.4c-0.9,0.3-1.8,0.2-2.7,0c-1-0.3-1.8-1-2.2-1.9c-0.1-0.2-0.2-0.5-0.3-0.7c-0.1-0.4-0.2-0.8-0.2-1.2
		c0,0,0,0,0-0.1c0,0,0,0,0,0v-0.1c0,0,0,0,0,0c0-3.4,0-6.7,0-10.1c0-0.3-0.1-0.6-0.2-0.8c-0.1-0.1-0.2-0.2-0.3-0.3
		c-0.2-0.2-0.5-0.3-0.8-0.4c-0.1,0-0.3-0.1-0.4-0.1c-0.2,0-0.4,0-0.6,0c-0.4,0-0.8,0-1.2,0c-0.1,0-0.1,0-0.2,0c0,0,0,0.1,0,0.2
		c0,3.9,0,7.7,0,11.6c0,0.1,0,0.1,0,0.2c0,0.1,0,0.3,0,0.5c0,0,0,0,0,0c0,0,0,0.1,0,0.1c0,0.1,0,0.2,0,0.2c0,0,0,0.1,0,0.1
		c0,0,0,0.1,0,0.1c0,0,0,0,0,0.1c0,0.1,0,0.2,0,0.3c0,0,0,0.1,0,0.1c0,0.2,0.1,0.5,0.2,0.7c0.1,0.3,0.2,0.7,0.4,1
		c0.1,0.2,0.2,0.3,0.3,0.5c0.6,1.1,1.5,2,2.6,2.5c0.5,0.2,0.9,0.4,1.4,0.6c0.3,0.1,0.7,0.2,1,0.2c0.2,0,0.3,0.1,0.5,0.1
		c0.8,0.1,1.5,0.1,2.3,0c0.7-0.1,1.3-0.2,2-0.4h0l0,0l0,0c1.5-0.5,2.8-1.4,3.6-2.8c0.5-0.7,0.8-1.5,0.9-2.4l0,0c0,0,0,0,0-0.1l0,0
		c0,0,0-0.1,0-0.1c0-0.1,0-0.1,0-0.2c0,0,0,0,0-0.1c0,0,0,0,0,0c0,0,0-0.1,0-0.1c0,0,0-0.1,0-0.1c0.1-0.1,0.1-0.2,0.1-0.3
		c0-0.1,0-0.1,0-0.2c0,0,0,0,0,0c0-0.1,0-0.1,0-0.2c0,0,0,0,0-0.1c0,0,0,0,0,0l0,0c0,0,0-0.1,0-0.1C75.2,54.5,75.2,54.1,75.2,53.7z"
		/>
	<path class="st0" d="M44.5,59.6c0-0.1,0-0.2-0.1-0.2c0-0.1,0-0.1-0.1-0.2c0-0.1-0.1-0.2-0.2-0.2c0,0-0.1-0.1-0.1-0.1c0,0,0,0,0,0
		c0-0.1-0.1-0.2-0.2-0.2c0,0,0,0,0,0c0,0,0,0-0.1-0.1c0-0.1-0.1-0.2-0.2-0.2l0,0c0,0,0,0,0,0c-0.2-0.2-0.5-0.3-0.8-0.1
		c0,0-0.1,0-0.1,0l0,0c0,0-0.1,0-0.1,0.1c0,0-0.1,0-0.1,0.1v0c-0.1,0-0.1,0.1-0.1,0.1c0,0,0,0-0.1,0.1c0,0-0.1,0-0.1,0.1l0,0
		c0,0,0,0,0,0c0,0,0,0,0,0c0,0,0,0,0,0c0,0,0,0,0,0l0,0c-0.1,0-0.1,0.1-0.2,0.1c0,0,0,0,0,0C41.3,59,40.9,59,40.5,59c0,0,0,0-0.1,0
		l0,0c-0.1-0.1-0.3-0.1-0.4-0.2l0,0c0,0-0.1,0-0.1-0.1c0,0,0-0.1-0.1-0.1c0,0-0.1-0.1-0.1-0.1c0,0-0.1,0-0.1-0.1
		c0-0.1-0.1-0.1-0.1-0.2c0,0,0-0.1,0-0.1c0-0.1,0-0.1-0.1-0.2c0-0.2-0.1-0.3-0.1-0.5c0-0.3-0.1-0.6-0.1-0.9c0-0.3,0-0.7,0-1
		c0-0.5,0-0.9,0-1.4c0-0.1,0-0.2,0-0.2c0-0.5,0-1,0-1.4c0-2.1,0-4.2,0-6.3c0-0.2,0-0.2,0.2-0.2h2.3c0.4,0,0.8-0.1,1.1-0.5
		c0,0,0,0,0-0.1c0.2-0.3,0.4-0.6,0.5-0.9c0-0.1,0-0.2,0-0.4c0-0.4,0-0.8,0-1.1c0-0.1,0-0.1,0-0.1c0,0-0.1-0.1-0.2-0.1c-1,0-2,0-3,0
		h-0.8c-0.1,0-0.2,0-0.2,0c0,0,0-0.1,0-0.2c0-1.2,0-2.4,0-3.6c0-0.2,0-0.3-0.1-0.4c0,0,0,0,0-0.1c-0.1-0.1-0.2-0.2-0.3-0.2
		c-0.2-0.1-0.3-0.1-0.5-0.1c-0.8,0-1.7,0-2.5,0c-0.1,0-0.2,0-0.2,0c0,0,0,0,0,0c0,0,0,0.1,0,0.2c0,0.7,0,1.4,0,2.1v2.1
		c0,0.1,0,0.2,0,0.2h0c0,0-0.1,0-0.2,0c-0.4,0-0.8,0-1.2,0c-0.1,0-0.2,0-0.3,0c0,0-0.1,0-0.2,0.1c-0.7,0.3-0.9,0.9-1,1.6
		c0,0.4,0,0.9,0,1.3c0,0,0,0.1,0,0.1c0,0,0,0,0,0.1c0,0,0.1,0,0.1,0c0.8,0,1.7,0,2.5,0c0.2,0,0.2,0,0.2,0.2c0,0.8,0,1.5,0,2.3
		c0,1.6,0,3.2,0,4.7c0,0.1,0,0.1,0,0.2c0,0,0,0,0,0.1c0,0.6,0,1.2,0,1.7c0,0.6,0,1.2,0,1.9c0,0.1,0,0.2,0,0.3c0,0,0,0.1,0,0.1
		c0,0,0,0.1,0,0.1c0,0,0,0.1,0,0.1c0,0,0,0,0,0.1c0,0.1,0,0.1,0,0.2v0c0,0,0,0,0,0.1v0c0,0,0,0.1,0,0.2c0,0.1,0,0.1,0,0.2
		c0,0,0,0.1,0,0.1c0.1,0.4,0.2,0.8,0.4,1.2c0.1,0.2,0.3,0.5,0.4,0.7c0.1,0.1,0.2,0.2,0.3,0.4c0.4,0.5,1,0.8,1.6,1
		c0.1,0,0.1,0.1,0.2,0.1c0,0,0.1,0,0.1,0c0,0,0,0,0.1,0h0c0,0,0.1,0,0.1,0c0,0,0.1,0,0.1,0c0,0,0,0,0,0c0.1,0,0.1,0.1,0.2,0h0
		c0.1,0,0.2,0,0.2,0c0,0,0.1,0,0.2,0c0.1,0,0.1,0,0.2,0c0.1,0,0.3,0,0.4,0c0.1,0,0.2,0,0.3,0c0.1,0,0.2,0,0.3,0c0,0,0,0,0,0
		c0,0,0,0,0,0c0.1,0,0.2,0,0.2,0c0.1,0,0.2,0,0.2,0c0,0,0,0,0.1,0c0,0,0.1,0,0.1,0h0c0.1,0,0.1,0,0.2-0.1c0,0,0,0,0,0c0,0,0,0,0.1,0
		c0.1,0,0.1,0,0.2-0.1c0,0,0,0,0.1,0c0,0,0.1,0,0.1,0h0c0,0,0.1,0,0.1,0c0,0,0.1,0,0.1,0c0,0,0,0,0,0c0.1,0,0.1,0,0.2-0.1h0
		c0,0,0,0,0,0c0,0,0,0,0.1,0c0,0,0.1,0,0.1,0c0,0,0,0,0,0c0,0,0,0,0.1,0h0c0,0,0,0,0,0c0,0,0,0,0,0c0,0,0.1,0,0.1,0c0,0,0,0,0.1,0h0
		c0,0,0.1,0,0.1,0c0,0,0,0,0,0c0,0,0,0,0,0c0,0,0,0,0,0c0.1-0.1,0.2-0.1,0.2-0.2c0,0,0,0,0,0c0,0,0,0,0.1,0c0.1,0,0.1-0.1,0.1-0.1
		c0,0,0,0,0,0c0,0,0,0,0,0c0.1-0.1,0.2-0.2,0.3-0.3c0.1,0,0.1-0.1,0.1-0.2c0.1-0.1,0.1-0.2,0.1-0.3C44.5,59.9,44.5,59.8,44.5,59.6
		C44.5,59.7,44.5,59.7,44.5,59.6C44.5,59.7,44.5,59.7,44.5,59.6z"/>
	<path class="st0" d="M105.1,59.6c-0.1-0.1-0.1-0.3-0.2-0.4c-0.1-0.2-0.3-0.3-0.5-0.3c-0.2,0-0.4,0-0.6,0.1c-0.1,0-0.3,0.1-0.4,0.1
		c-0.2,0-0.4,0-0.6,0c-0.2,0-0.3-0.2-0.4-0.3c-0.2-0.2-0.3-0.3-0.4-0.5c0,0-0.1-0.1-0.1-0.1c-0.1-0.4-0.1-0.9-0.1-1.3
		c0-0.1,0-0.2,0-0.3c0-2,0-4,0-6V47c0-0.6,0-1.1,0-1.7c0-0.3,0-0.6,0-0.9c0-0.2-0.1-0.4-0.1-0.6c-0.2-0.5-0.8-0.9-1.4-0.9
		c-0.2,0-0.5,0-0.7,0c-0.4,0-0.8,0-1.2,0c-0.2,0-0.2,0-0.2,0.2c0,3.7,0,7.4,0,11.1c0,0.4,0,0.7,0,1.1c0,0,0,0.1,0,0.1
		c0,0,0,0.1,0,0.1c0,0,0,0.1,0,0.2c0,0.4,0,0.7,0,1.1c0,0.1,0,0.1,0,0.2c0,0.8,0.1,1.5,0.3,2.3c0.3,0.9,0.8,1.6,1.5,2.1
		c0.3,0.2,0.6,0.4,1,0.5c0.1,0,0.2,0.1,0.4,0.1s0.2,0.1,0.4,0.1c0.4,0.1,0.8,0.1,1.2,0.1c0,0,0.1,0,0.1,0c0.3,0,0.7,0,1-0.1
		c0,0,0,0,0,0c0.3-0.1,0.6-0.2,0.9-0.3l0,0l0,0c0.1,0,0.1-0.1,0.2-0.1c0,0,0.1,0,0.1-0.1c0.2-0.2,0.3-0.4,0.2-0.8
		C105.3,60.3,105.2,59.9,105.1,59.6z"/>
</g>
</svg>
