<?xml version="1.0" encoding="utf-8"?>
<!-- Generator: Adobe Illustrator 25.1.0, SVG Export Plug-In . SVG Version: 6.00 Build 0)  -->
<svg version="1.1" id="Layer_1" xmlns="http://www.w3.org/2000/svg" xmlns:xlink="http://www.w3.org/1999/xlink" x="0px" y="0px"
	 viewBox="0 0 161.6 97.6" style="enable-background:new 0 0 161.6 97.6;" xml:space="preserve">
<style type="text/css">
	.st0{fill:#062256;}
</style>
<g>
	<path class="st0" d="M66.2,66.4l0.8,0.6c0,0.5,0,1.1,0,1.8c0,0.6,0,1.3,0,2c-0.5-0.6-0.9-1.2-1.3-1.6c-0.4-0.5-0.7-0.9-1-1.3
		c-0.3-0.4-0.6-0.7-0.8-0.9c-0.2-0.2-0.3-0.4-0.4-0.6h-1.7v0.1l0.8,0.6c0.1,1.8,0.1,3.3,0,4.5L62,72V72h2V72l-0.7-0.6l0,0
		c0-1.3-0.1-2.7-0.1-4l3.4,4.3c0,0.1,0.1,0.1,0.2,0.2c0,0,0.1,0.1,0.1,0.2h0.8c0-0.7-0.1-1.5-0.1-2.4c0-0.8,0-1.8,0-2.8l0.7-0.6
		v-0.1L66.2,66.4L66.2,66.4z"/>
	<path class="st0" d="M71.6,66.8l0.7-0.5v0h-2.3v0.1l0.7,0.5c0,1.5,0,3.1,0,4.7L69.9,72V72h2.4V72l-0.7-0.5
		C71.6,70,71.6,68.4,71.6,66.8"/>
	<path class="st0" d="M78.1,71.5c-0.8,0-1.6,0-2.3,0c0-0.8,0-1.5,0-2.2c0.4,0,1,0,1.8,0l0.4,0.7H78v-1.8H78l-0.4,0.7
		c-1,0-1.6,0-1.8,0c0-0.3,0-0.7,0-1s0-0.7,0-1c0.4,0,0.7,0,1.1,0c0.4,0,0.8,0,1.2,0l0.5,0.7h0.1v-1.1h-4.5v0.1l0.7,0.5
		c0,1.3,0,2.9,0,4.7L74.1,72V72h4.6v-1.3h-0.1L78.1,71.5z"/>
	<path class="st0" d="M58.3,66.4l0.8,0.6c0,0.5,0,1.1,0,1.8c0,0.6,0,1.3,0,2c-0.5-0.6-0.9-1.2-1.3-1.6c-0.4-0.5-0.7-0.9-1-1.3
		c-0.3-0.4-0.5-0.7-0.7-0.9c-0.2-0.2-0.3-0.4-0.4-0.6h-1.7v0.1l0.8,0.6c0.1,1.8,0.1,3.3,0,4.5L54.1,72V72h2V72l-0.7-0.6l0,0
		c0-1.3-0.1-2.7-0.1-4l3.4,4.3c0,0.1,0.1,0.1,0.2,0.2c0,0,0.1,0.1,0.1,0.2h0.8c0-0.7-0.1-1.5-0.1-2.4c0-0.8,0-1.8,0-2.8l0.7-0.6
		v-0.1L58.3,66.4L58.3,66.4L58.3,66.4z"/>
	<path class="st0" d="M92.5,64.9c0.1,0.1,0.2,0.2,0.3,0.2c0.1,0.1,0.2,0.2,0.3,0.2c-0.2,0.8-0.4,1.4-0.6,2c-0.2,0.6-0.3,1.1-0.5,1.6
		s-0.2,0.8-0.3,1.1c-0.1,0.3-0.1,0.5-0.2,0.6l-1.6-5.2c0.1-0.1,0.2-0.2,0.3-0.3c0.1-0.1,0.2-0.2,0.3-0.2v-0.1h-2.5v0.1l0.6,0.5
		c-0.2,0.6-0.3,1.1-0.5,1.6c-0.1,0.5-0.3,0.9-0.4,1.4c-0.1,0.4-0.2,0.8-0.3,1.2c-0.1,0.4-0.2,0.7-0.3,1.1l-1.5-5.2l0.6-0.5v-0.1
		h-2.4v0.1c0.1,0.1,0.2,0.2,0.3,0.2c0.1,0.1,0.1,0.1,0.2,0.2c0,0,0.1,0.1,0.1,0.1c0,0,0.1,0.1,0.1,0.1c0.1,0.2,0.2,0.6,0.3,1.1
		c0.2,0.5,0.3,1,0.5,1.6c0.2,0.6,0.4,1.2,0.6,1.9c0.2,0.7,0.4,1.4,0.7,2.2h0.8c0,0,0-0.1,0-0.1c0-0.1,0-0.1,0-0.1c0,0,0-0.1,0-0.2
		c0,0,0-0.1,0.1-0.1c0.1-0.2,0.1-0.5,0.2-0.8c0.1-0.3,0.2-0.6,0.2-0.9s0.2-0.7,0.3-1c0.1-0.3,0.2-0.7,0.3-1c0.1-0.3,0.2-0.6,0.3-0.9
		c0.1-0.3,0.2-0.6,0.2-0.9l1.9,6.1h0.8c0-0.1,0.1-0.4,0.2-0.7c0.1-0.4,0.2-0.8,0.4-1.4c0.2-0.6,0.4-1.2,0.6-2
		c0.2-0.8,0.5-1.7,0.8-2.6c0.2-0.2,0.3-0.3,0.4-0.4c0.1-0.1,0.2-0.2,0.2-0.2v-0.1L92.5,64.9L92.5,64.9L92.5,64.9z"/>
	<path class="st0" d="M33.8,64.8l0.9,0.6l0.1,6.2c0,0.2,0,0.5,0,0.7c0,0.2,0,0.3,0,0.5c0,0.2-0.1,0.3-0.1,0.4s-0.2,0.3-0.3,0.4
		c-0.1,0.2-0.3,0.3-0.5,0.4c-0.2,0.1-0.4,0.1-0.6,0.1c0,0,0-0.1,0.1-0.1c0,0,0-0.1,0-0.1c0-0.1,0-0.1,0-0.2c0-0.1,0-0.1,0-0.2
		c0-0.1-0.1-0.1-0.1-0.2c0-0.1-0.1-0.1-0.2-0.1s-0.1-0.1-0.2-0.1c-0.2,0-0.3,0.1-0.4,0.2c-0.1,0.1-0.1,0.1-0.1,0.2
		c0,0.1,0,0.2-0.1,0.2c0,0.1,0,0.2,0.1,0.3c0.1,0.1,0.1,0.2,0.2,0.2c0.1,0.1,0.2,0.1,0.3,0.1s0.2,0.1,0.3,0.1c0.2,0,0.4,0,0.6-0.1
		s0.4-0.2,0.6-0.3c0.2-0.1,0.3-0.3,0.5-0.4c0.2-0.2,0.3-0.4,0.4-0.6c0.1-0.2,0.2-0.4,0.3-0.5c0.1-0.2,0.2-0.4,0.2-0.6
		c0.1-0.2,0.1-0.4,0.1-0.6c0-0.3,0-0.5,0-0.8c0-0.3,0-0.6,0-1c0-0.3,0-0.7,0-1.1c0-0.4,0-0.9,0-1.4c0-0.5,0-1.1,0-1.8l0.7-0.5v-0.1
		L33.8,64.8L33.8,64.8L33.8,64.8z"/>
	<path class="st0" d="M43.1,70.3c-0.1,0.3-0.2,0.6-0.5,0.8c-0.2,0.2-0.4,0.4-0.6,0.5c-0.2,0.1-0.5,0.2-0.7,0.2
		c-0.3,0-0.5-0.1-0.8-0.2c-0.2-0.1-0.5-0.3-0.7-0.5c-0.2-0.2-0.4-0.5-0.5-0.8c-0.1-0.4-0.2-0.7-0.2-1.1c0-0.4,0-0.7,0.1-1.1
		c0.1-0.3,0.2-0.6,0.4-0.8c0.2-0.2,0.4-0.4,0.6-0.6c0.3-0.1,0.6-0.2,0.8-0.2c0.3,0,0.6,0.1,0.9,0.2c0.3,0.1,0.5,0.3,0.7,0.6
		c0.2,0.2,0.3,0.5,0.4,0.8c0.1,0.3,0.2,0.7,0.1,1.1C43.3,69.6,43.3,69.9,43.1,70.3 M44,67.6c-0.1-0.2-0.3-0.4-0.5-0.6
		c-0.2-0.2-0.4-0.4-0.6-0.5c-0.2-0.1-0.5-0.2-0.7-0.3c-0.2-0.1-0.5-0.1-0.8-0.1c-0.4,0-0.9,0.1-1.3,0.2c-0.8,0.3-1.4,0.9-1.7,1.7
		c-0.2,0.4-0.2,0.8-0.2,1.2c0,0.4,0.1,0.8,0.2,1.2c0.2,0.4,0.4,0.7,0.7,1c0.3,0.3,0.6,0.5,1,0.7c0.4,0.2,0.8,0.2,1.2,0.2
		c0.4,0,0.8-0.1,1.2-0.2c0.4-0.2,0.7-0.4,1-0.7c0.3-0.3,0.5-0.6,0.7-1c0.3-0.7,0.3-1.4,0.1-2C44.2,68.1,44.1,67.8,44,67.6"/>
	<path class="st0" d="M49.9,66.4l0.7,0.5v1.9c-1,0-2,0-3,0v-1.9l0.7-0.5v-0.1h-2.3v0.1l0.6,0.5v4.7L45.9,72V72h2.3V72l-0.7-0.5v-2.2
		c1,0,2,0,3,0v2.2L49.9,72V72h2.3V72l-0.7-0.5c0-1.5,0-3,0-4.7l0.7-0.5v-0.1L49.9,66.4L49.9,66.4z"/>
	<path class="st0" d="M96.3,69.5l0.9-2.4l0.9,2.4H96.3z M97.8,66.2H97l-2,5.2L94.4,72v0.1h1.9V72l-0.7-0.6l0.6-1.5
		c0.8,0,1.5,0,2.2,0l0.6,1.5L98.1,72v0.1h2.5V72l-0.7-0.6L97.8,66.2z"/>
	<path class="st0" d="M119.1,71.6c-0.8,0-1.6,0-2.3,0c0-0.8,0-1.5,0-2.2c0.4,0,1,0,1.8,0l0.4,0.7h0.1v-1.8H119l-0.4,0.7
		c-1,0-1.6,0-1.8,0c0-0.3,0-0.7,0-1c0-0.3,0-0.7,0-1c0.3,0,0.7,0,1.1,0s0.8,0,1.2,0l0.5,0.7h0.1v-1.1h-4.5v0.1l0.7,0.5
		c0,1.3,0,2.9,0,4.7l-0.7,0.5v0.1h4.6v-1.3h-0.1L119.1,71.6z"/>
	<path class="st0" d="M124,69.2h-0.3c-0.1,0-0.1,0-0.2,0s-0.1,0-0.2,0l0-2.4c0.1,0,0.2,0,0.3,0c0.1,0,0.2,0,0.3,0c0.1,0,0.2,0,0.2,0
		h0.1c0.2,0,0.3,0,0.5,0.1c0.2,0.1,0.3,0.2,0.4,0.3c0.1,0.1,0.2,0.2,0.2,0.4s0.1,0.3,0.1,0.4c0,0.3-0.1,0.7-0.4,0.9
		C124.8,69.1,124.4,69.2,124,69.2 M126.9,71.9c-0.1-0.1-0.1-0.1-0.2-0.2c-0.1-0.1-0.1-0.2-0.2-0.2c-0.1-0.1-0.1-0.1-0.1-0.2
		l-0.9-1.4c-0.1-0.2-0.2-0.3-0.3-0.4c-0.2-0.1-0.3-0.1-0.5-0.2c0.2,0,0.5-0.1,0.8-0.1c0.2-0.1,0.4-0.2,0.6-0.3
		c0.2-0.1,0.3-0.3,0.4-0.5s0.1-0.4,0.2-0.6c0-0.2-0.1-0.4-0.2-0.6c-0.1-0.2-0.3-0.4-0.5-0.5c-0.2-0.2-0.5-0.3-0.7-0.3
		c-0.3-0.1-0.6-0.1-0.9-0.1h-2.7v0.1l0.7,0.5v4.6l-0.7,0.5V72h2.3V72l-0.7-0.4l0-2c0.1,0,0.3,0,0.4,0h0.2c0.1,0,0.2,0,0.3,0.1
		c0.1,0.1,0.2,0.1,0.2,0.2l1.3,2.3h1.3V72C127,71.9,127,71.9,126.9,71.9"/>
	<path class="st0" d="M110.6,68.7c0.5-0.5,0.9-0.9,1.3-1.2c0.3-0.3,0.6-0.6,0.8-0.7l0.9-0.4v-0.1h-1.9v0.1l0.3,0.4
		c-0.2,0.2-0.4,0.4-0.6,0.6c-0.2,0.2-0.4,0.4-0.6,0.6c-0.2,0.2-0.4,0.4-0.6,0.5s-0.4,0.3-0.5,0.5c0.7,0.7,1.4,1.5,2.3,2.5l-0.2,0.4
		v0.1h2.1V72l-0.4-0.4C112,70.2,111.1,69.3,110.6,68.7"/>
	<path class="st0" d="M109.5,66.9l0.7-0.5v-0.1h-2.3v0.1l0.7,0.5c0,1.5,0,3.1,0,4.7l-0.7,0.5v0.1h2.4V72l-0.7-0.5
		C109.5,69.9,109.5,68.4,109.5,66.9"/>
	<path class="st0" d="M105.8,71.5h-1.1c-0.4,0-0.7,0-1,0c0-1.6,0-3.1,0-4.7l0.7-0.4v-0.1H102v0.1l0.7,0.4c0,1.5,0,3.1,0,4.7L102,72
		v0.1h4.4v-1.3h-0.1L105.8,71.5z"/>
	<path class="st0" d="M128.9,71.2c0,0.1-0.1,0.1-0.1,0.1h-0.2V71h0.2C128.8,71,128.9,71.1,128.9,71.2 M129.1,71.1
		c0-0.2-0.1-0.3-0.3-0.3h-0.4v0.8h0.2v-0.3h0.1l0.2,0.3h0.2l-0.2-0.3C129,71.4,129.1,71.3,129.1,71.1 M129.4,71.3
		c0,0.4-0.3,0.7-0.7,0.7s-0.7-0.3-0.7-0.7c0-0.4,0.3-0.7,0.7-0.7C129.1,70.6,129.4,70.9,129.4,71.3L129.4,71.3 M129.4,71.3
		c0-0.4-0.3-0.8-0.8-0.8s-0.8,0.3-0.8,0.8c0,0.4,0.3,0.8,0.8,0.8S129.4,71.7,129.4,71.3C129.4,71.3,129.4,71.3,129.4,71.3"/>
	<path class="st0" d="M111.3,82.8v-1.7h-1.7v0.6h1v0.7c-0.3,0.2-0.6,0.3-0.9,0.3c-0.8,0-1.4-0.7-1.3-1.5c0-0.7,0.6-1.3,1.3-1.3
		c0.4,0,0.8,0.1,1.1,0.4l0.4-0.5c-0.4-0.4-1-0.6-1.5-0.5c-1.1,0-2,0.9-2,2c0,0,0,0,0,0.1c0,1.1,0.8,2,1.9,2c0.1,0,0.1,0,0.2,0
		C110.3,83.4,110.8,83.2,111.3,82.8 M104.6,82.1l-2.1-2.7h-0.6v3.9h0.7v-2.8l2.2,2.8h0.6v-3.9h-0.7V82.1z M98.3,83.3H99v-3.9h-0.7
		V83.3z M94.1,81.1l1.6-1.7h-0.8l-1.9,2v-2h-0.7v3.9H93v-1.2l0.6-0.6l1.3,1.8h0.8L94.1,81.1z M87.2,83.3h2.8v-0.6h-2.1v-3.3h-0.7
		L87.2,83.3z M83.4,81.7h-1.4l0.7-1.6L83.4,81.7z M83.1,79.3h-0.6l-1.7,4h0.7l0.4-0.9h1.9l0.4,0.9h0.7L83.1,79.3z M74.9,82.3
		L74,79.3h-0.8l1.4,4h0.6l1-2.8l1,2.8h0.6l1.4-4h-0.7l-0.9,2.9l-1-2.9h-0.6L74.9,82.3z M67,80.7c0,0.4-0.3,0.7-0.8,0.7h-0.8V80h0.8
		C66.7,80,67,80.2,67,80.7 M67.7,80.7c0-0.7-0.6-1.3-1.3-1.3c-0.1,0-0.1,0-0.2,0h-1.6v3.9h0.7V82h0.8c0.8,0.1,1.5-0.4,1.6-1.2
		C67.7,80.8,67.7,80.7,67.7,80.7 M62.1,79.3h-2.9v3.9h3v-0.6h-2.3v-1.1h2V81h-2v-1h2.2L62.1,79.3z M56.6,79.3h-2.9v3.9h3v-0.6h-2.3
		v-1.1h2V81h-2v-1h2.2V79.3z M49.6,81.1l1.6-1.7h-0.8l-1.9,2v-2h-0.7v3.9h0.7v-1.2l0.6-0.6l1.3,1.8h0.8L49.6,81.1z"/>
	<path class="st0" d="M113.4,82.4c0,0.1-0.1,0.1-0.1,0.1h-0.2v-0.2h0.2C113.3,82.3,113.4,82.3,113.4,82.4 M113.6,82.4
		c0-0.2-0.1-0.3-0.3-0.3h-0.4V83h0.2v-0.3h0.1l0.2,0.3h0.2l-0.2-0.3C113.5,82.6,113.6,82.5,113.6,82.4 M113.9,82.6
		c0,0.4-0.3,0.7-0.7,0.7c-0.4,0-0.7-0.3-0.7-0.7c0-0.4,0.3-0.7,0.7-0.7S113.9,82.2,113.9,82.6L113.9,82.6 M113.9,82.6
		c0-0.4-0.3-0.8-0.8-0.8s-0.8,0.3-0.8,0.8c0,0.4,0.3,0.8,0.8,0.8S113.9,83,113.9,82.6C113.9,82.6,113.9,82.6,113.9,82.6"/>
	<path class="st0" d="M82.4,21.1C82.4,21,82.3,21,82.4,21.1C82.3,21,82.3,21,82.2,21c-0.1-0.1-0.2,0.1-0.4,0
		c-0.1-0.1-0.1-0.1-0.2-0.2c-0.1-0.1-0.1-0.1-0.2-0.2c-0.1,0-0.3-0.2-0.3-0.1c0,0.1,0,0.1,0,0.2c0,0.1,0,0.2,0,0.3
		c0,0.2,0.1,0.4,0.2,0.6l0,0c0.1,0.2,0.2,0,0.4,0c0.1,0,0.1,0,0.2,0c0,0,0.1,0,0.1,0.1c0,0,0.1,0.1,0.2,0.1c0.1,0,0.2,0,0.2,0
		c0,0,0.1,0,0.1-0.1c0,0,0,0,0.1,0c0.1,0.1,0.2,0.1,0.3,0.2c0,0,0.1,0,0.1,0c0,0,0-0.1,0-0.1c0-0.1-0.1-0.2-0.1-0.3
		c0-0.2,0-0.4,0.1-0.5c0,0,0.1-0.2,0.1-0.2c0,0-0.1,0-0.2,0c-0.1,0-0.2,0.1-0.3,0.2C82.4,20.9,82.4,20.9,82.4,21.1
		C82.4,21,82.5,21.1,82.4,21.1 M71.9,49.1c-0.5,0-1,0-1.5,0c-0.3,0-0.6-0.1-0.9-0.2c-0.1,0-0.2-0.1-0.2,0.1
		c-0.1,0.2-0.7,1.4-0.9,1.9s-0.6,1.5-0.7,1.8c-0.1,0.3-0.3,0.8-0.2-0.1c0.2-1,0.5-1.9,0.9-2.9c0.2-0.4,0.4-0.7,0.6-1.1
		c0-0.1-0.1-0.2-0.2-0.2c-0.1,0-0.1-0.1-0.1-0.1c-0.1-0.1,0-0.2-0.1-0.1c-0.4,0.5-0.7,1.1-0.9,1.7c-0.2,0.5-0.5,1.7-0.7,2.3
		c-0.1,0.3-0.2,0.6-0.2,0.9c-0.1,0.1-0.1,0.2-0.2,0.3c0,0-0.1,0.1-0.2,0.2c0,0,0,0,0,0c0.1,0,0.3,0,0.4,0c0.1,0.1,0.1,0.2-0.1,0.3
		c-0.1,0.1-0.2,0.2-0.3,0.4c-0.1,0.1-0.3,0-0.3-0.2c0,0,0,0,0,0c-0.1,0.2-0.2,0.5-0.1,0.7l0,0.1c-0.1,0.3-0.1,0.7,0,1
		c0.1,0.2,0.2,0.4,0.3,0.6l0.4,0c0,0,0.2,0.6,0.5,1.3c0.2,0.5,0.6,0.9,1.2,1.1c0.6,0.2,1.1,0.3,1.7,0.3c0.4,0,0.5,0,0.5-0.1
		c0.1-0.2,0-0.3,0-0.3c0.1-0.2,0.1-0.4-0.1-0.6c-0.2-0.2-0.5-0.4-0.8-0.6c-0.2-0.3-0.4-0.7-0.6-1.1c-0.2-0.5-0.2-1-0.2-1.5
		c0,0,0,0,0,0c0.1,0,0.2-0.2,0.2-0.3c0,0-0.1-0.1-0.1-0.2c0,0,0,0,0,0c0,0,0,0.1-0.1,0.1c-0.1,0.1-0.2-0.1-0.3-0.1
		c-0.2,0-0.2-0.1-0.1-0.2c0.1-0.1,0.2-0.1,0.3,0c0,0,0.1,0,0.1,0.1c0,0,0,0,0,0c0,0,0,0,0,0c0.1-0.4,0.2-0.7,0.3-1
		c0.6-1.1,1.3-2.2,2.1-3.1c0.4-0.5,0.6-0.8,0.7-0.9C72.1,49.2,72.2,49.1,71.9,49.1 M67.4,57.1c-0.2,0.2-0.4-0.4-0.5-0.6
		c-0.1-0.2-0.4-0.5-0.4-0.8c0-0.3,0.1-0.4,0.1-0.4c0.2-0.1,0.2,0.1,0.2,0.3c0,0.2,0.2,0.4,0.4,0.7C67.5,56.5,67.6,56.9,67.4,57.1
		 M68.7,57.8c0.1,0.1,0.1,0.2,0.2,0.3c0.1,0,0.2,0.1,0.2,0.1c0,0,0.2,0.1,0.1,0.1c-0.1,0-0.1,0-0.2,0c-0.1,0-0.2,0-0.3-0.1
		c-0.2-0.1-0.4-0.2-0.6-0.3c-0.2-0.1,0.1-0.3,0.3-0.3C68.6,57.7,68.7,57.8,68.7,57.8 M68.2,57.6c-0.2,0-0.2,0.1-0.4,0.1
		c-0.1,0-0.1-0.1,0-0.3c0.1-0.1,0.3-0.2,0.5-0.1C68.6,57.4,68.5,57.6,68.2,57.6 M83.7,18.1c0,0.1-0.1,0.3-0.1,0.5
		c-0.1,0.2-0.2,0.5-0.3,0.7c-0.1,0.2-0.1,0.2-0.1,0.2c0.2-0.2,0.4-0.4,0.6-0.7c0.1-0.1,0.1-0.3,0.1-0.4c0.1-0.6-0.1-0.4-0.1-0.3
		C83.7,18,83.7,18,83.7,18.1 M85.3,47.8c0.1-0.4,0.3-0.7,0.6-1c0-0.1-0.1-0.3-0.1-0.4c0,0,0,0,0-0.1c0,0-0.1,0-0.1,0
		c0,0-0.1,0-0.1,0c0.1-0.2,0.1-0.3,0.1-0.5c0-0.3,0-0.6-0.1-0.9c-0.1-0.2-0.1-0.3-0.2-0.3c-0.1,0,0,0.1,0,0.3c0,0.3,0,0.6-0.2,0.8
		c-0.2,0.3-0.3,0.6-0.4,0.7c-0.1,0.2,0,0.3,0.1,0.3l0,0c0.1,0,0.1,0,0.1,0.1c0,0.2,0,0.5-0.6,1.1c-0.2,0.2-0.5,0.5-0.7,0.7
		c0,0.1,0,0.2,0,0.3c0,0.1-0.1,0.3-0.1,0.4c0,0-0.1,0-0.1,0.1c-0.3,0.2,0,0.5,0,0.5c0.3-0.2,0.6-0.3,0.9-0.5
		C84.9,48.9,85.2,48.4,85.3,47.8 M93.6,54.7c-0.1,0-0.1,0-0.2,0.1c-0.2-0.1-0.4-0.2-0.7,0c-0.1,0.1-0.2,0.2-0.2,0.4
		c0,0.2-0.1,0.5-0.1,0.5c0,0-0.1,0-0.1,0c-0.2-0.1-0.2,0-0.4,0.1c-0.3,0.2-0.7,0.2-1.1,0c0,0-0.1-0.1,0-0.1c0.4,0,0.7-0.1,1-0.3
		c0,0,0.1-0.1,0.1-0.1c0,0,0.1,0,0,0c0,0-0.1,0-0.1,0c-0.7,0.1-1.4,0.1-2-0.2c-0.2,0-0.3-0.1-0.5-0.2c0-0.1,0-0.2-0.1-0.2
		c-0.1,0-0.2-0.1-0.3-0.1c-0.1-0.1-0.2-0.2-0.2-0.3c-0.5-1-0.9-2-1.3-3c-0.4-1.1-0.8-2.2-1.1-3.4l0,0c0,0,0-0.1-0.1-0.2c0,0,0,0,0,0
		l0,0c0-0.1-0.1-0.2-0.1-0.3c0,0,0,0,0,0c-0.1-0.1-0.1,0.3-0.1,0.6c-0.1,0.2-0.2,0.3-0.2,0.5c-0.1,0.5-0.3,0.9-0.7,1.3
		c-0.3,0.2-0.5,0.3-0.5,0.3c0,0,0,0,0.1,0.1c0,0,0.1,0,0.1,0.1c0,0.1,0.1,0.2,0.1,0.2c0,0,0,0,0,0.1c0.3,1,0.7,1.9,1.3,2.7
		c0.4,0.7,1,1.5,0.7,1.2c-0.6-0.5-1.1-1.1-1.5-1.7c-0.3-0.4-0.5-0.8-0.7-1.3c-0.1-0.4-0.2-0.7-0.2-0.8c0,0,0-0.1,0-0.1
		c0,0,0-0.1-0.1-0.2c-0.1-0.1-0.2-0.2-0.2-0.2c-0.1,0-0.3,0.2-0.3,0.2c0.2,0.7,0.6,1.4,1,2c0.5,0.8,1,1.5,1.6,2.1
		c0.1,0.1,0.1,0.1,0.1,0.2c0.1,0.1,0.2,0.2,0.2,0.3c0,0.1,0,0.3,0.1,0.4c0,0,0.1,0,0.1,0.1c0.1,0,0.2,0,0.2,0.3c0,0,0,0.1-0.1,0.1
		c0,0.1,0,0.2,0,0.2c0.1,0.1,0.2,0.2,0.2,0.3c0,0.1,0,0.2,0.1,0.5c0,0.1,0,0.1,0.1,0.2c0,0.1,0.1,0.2,0.1,0.3
		c0.2,0.3,0.4,0.6,0.7,0.8l0.4,0.4c0.2-0.1,0.5-0.2,0.7-0.3c0.2-0.1,0.4-0.2,0.6-0.4L90,57.6l0.3-0.1c0.7-0.2,1.4-0.4,2-0.6
		c0.7-0.5,1.2-1.1,1.5-1.9C93.8,54.8,93.6,54.7,93.6,54.7 M88.1,57.2c-0.1,0-0.3,0-0.5-0.3c-0.1-0.2-0.1-0.3-0.1-0.5
		c0-0.1,0.3-0.2,0.4-0.1c0.1,0.1,0.1,0.3,0.1,0.3C88,57.1,88.1,57.2,88.1,57.2 M90.3,57.1c-0.2,0.1-0.5,0.2-0.7,0.2
		c-0.3,0.1-0.5,0.2-0.7,0.3c-0.3,0.2-0.2-0.3-0.1-0.4c0.3-0.2,0.6-0.2,0.9-0.2c0.2,0,0.5-0.1,0.7-0.1C90.5,56.9,90.5,57,90.3,57.1
		 M87.3,29.5c0.1,0,0.2,0,0.3,0.1l0.1-0.2c0.4,0,0.7-0.4,0.6-0.7c0-0.4-0.3-0.6-0.7-0.6c-0.2,0-0.3,0-0.4,0.1c0,0,0,0,0,0
		c0.1,0,0.1,0,0.2,0l0,0c0.1,0.1-0.1,0.1-0.1,0.3c0,0,0,0.1-0.1,0.1c-0.1,0-0.1,0-0.2,0c0,0-0.1-0.1-0.1-0.1c0,0,0,0,0,0
		C87,28.4,87,28.6,87,28.7c0,0.1,0,0.3,0.1,0.4c-0.1,0.2-0.2,0.5-0.3,0.6C86.8,29.8,87.1,29.5,87.3,29.5 M88.2,30
		c0,0,0.1,0.1,0.1,0.1c0.1,0,0.2-0.1,0.2-0.2c0-0.1-0.1-0.2-0.3-0.2c-0.2,0-0.3-0.1-0.4-0.1c-0.1,0-0.2,0-0.2,0.1c0,0,0,0,0.1,0
		C87.8,29.7,88,29.8,88.2,30 M79.6,39.1c0.3-0.3,0.5-0.5,0.8-0.8c0.2-0.2,0-0.1-0.8,0.4c-0.4,0.3-0.7,0.6-0.9,1
		c-0.6,0.9-1.1,1.9-1.6,2.9c-0.2,0.5-0.6,1-1,1.4c-0.5,0.4-1,0.6-1.3,0.8c0,0-0.1,0.1-0.1,0.1s-0.1,0.1-0.1,0.1
		c0,0.1-0.1,0.2-0.1,0.2c0,0.1,0,0.3-0.1,0.4c-0.2,0.1-0.3,0.2-0.5,0.3c0,0-0.1,0-0.1,0c-0.1,0-0.2,0.1-0.3,0.1
		c-0.2,0-0.3,0.1-0.2,0.2c0.1,0,0.1,0.1,0.2,0.1c0.2,0,0.2,0.1,0.2,0.2c0,0.1-0.1,0.3-0.6,0.4c-0.5,0.1-1.1,0.2-1.7,0.2
		c-0.3,0-0.5,0-0.8,0c-0.1,0-0.1,0.1,0.2,0.2c0.2,0,0.6,0.1,0.8,0.2c0.1,0,0.1,0.1-0.1,0.2c-0.4,0-0.9,0-1.3-0.1c0,0-0.2,0-0.2-0.1
		c-0.2-0.1-0.3-0.2-0.4-0.4c0-0.1-0.1-0.2-0.1-0.2l-0.3,0.4c0,0,0,0.1,0.2,0.4c0,0,0-0.1,0.1-0.2c0-0.1,0.1-0.1,0.2,0
		c0.1,0.1,0.1,0.2,0,0.3c0,0,0,0.1,0,0.1c0,0,0,0,0,0c0.2,0.2,0.5,0.3,0.8,0.3c0.6,0.1,1.1,0.1,1.7,0c0.1,0,0.3-0.1,0.3,0
		c0,0.1,0,0.2-0.1,0.2c-0.1,0.1-0.1,0.2-0.1,0.2c0,0.1,0,0.1,0,0.1c0.1,0,0.2-0.1,0.2-0.2c0.1-0.1,0.3-0.3,0.4-0.4
		c0.2-0.2,0.3-0.3,0.3-0.4c0,0,0,0,0-0.1c0,0,0-0.1,0-0.1c0-0.2,0.1-0.3,0.3-0.5c0.2-0.1,0.5-0.3,0.7-0.5c0.2-0.2,0.1-0.5,0.3-0.7
		c0.2-0.2,0.5-0.3,0.6-0.5c0.2-0.2,0.2-0.3,0.3-0.6c0.3-0.4,0.7-0.8,1-1.2c0.5-0.7,1-1.5,1.4-2.3C78.4,40.7,78.9,39.9,79.6,39.1
		 M71.9,37.3C71.9,37.3,71.9,37.3,71.9,37.3c-0.6,0.5-0.8,1.2-0.3,1.8c0.1,0.1,0.2,0.2,0.3,0.3c0.2,0.2,0-0.1,1.1-1.5
		c0.4-0.4,0.8-0.8,1.2-1.1c-0.1,0-0.5,0.1-1.1,0.2C72.7,37.1,72.3,37.1,71.9,37.3 M86.9,31.9c0.2-0.1,0.3-0.1,0.4-0.2
		c0.1-0.1,0.2-0.2,0.2-0.3c0-0.1,0-0.1,0.2-0.2c0.1,0,0.2-0.1,0.2-0.2c0-0.1,0.1-0.2,0.1-0.2s0-0.1,0.2-0.1s0.3-0.1,0.3-0.3
		c0-0.1,0-0.2-0.1-0.3v0l0,0v0c-0.1,0.1-0.2,0.1-0.3,0.1c-0.2-0.1-0.4-0.2-0.5-0.2c-0.1,0-0.3,0-0.2,0.1s0.1,0.2,0,0.3
		c0,0-0.1,0.1-0.1,0.1C87,30.6,87,30.7,87,30.8c0,0.1,0,0.2-0.1,0.2c-0.1,0.1-0.2,0.1-0.2,0.2s0,0.1-0.1,0.2s-0.2,0.1-0.6,0.1
		c-0.2,0-0.4,0-0.6-0.1c-0.1,0-0.2,0-0.2,0.1c0,0,0,0,0,0c0,0.1,0,0.1,0.1,0.1s0.1,0.1,0,0.1c-0.1,0,0.1,0.2,0.3,0.2
		c0,0,0.1,0,0.1,0c-0.6,1.3-8.1,16.2-8.2,16.4c0,0,0,0.1,0,0.1c0,0,0.1,0,0.1,0c0.1-0.1,8.7-16.5,8.7-16.5
		C86.5,32,86.7,32,86.9,31.9 M68.5,41.2c0.3,0.3-1-1.4,2.7-3.9c-2.2,0.4-2.5,1.1-2.7,1.4c-0.1,0.1-0.2,0.4-0.2,0.4
		c-0.1-0.8,0.7-1.4,1-1.5c1.1-0.6,2.3-0.6,4.5-1.3c0.1,0,0.6-0.2,0.7-0.2c0.5-0.2,0.9-0.4,1.4-0.7c0.6-0.4,1.2-0.9,1.6-1.4
		c0.1,0,0.1-0.1,0.1-0.2c0.1-0.1-0.1,0-0.2,0c-0.3,0.1-0.7,0.3-1.1,0.4c-0.3,0.1-0.6,0.2-0.9,0.3c-0.5,0.1-0.9,0-0.3-0.2
		c1.1-0.5,2.2-0.9,3.3-1.3c0.1,0,0.2,0,0.3-0.1c0.1,0,0.1,0,0.2,0c0.3-0.1,0.7-0.1,1-0.1c0.3,0,0.7,0,1,0.1c0.2-0.2,0.4-0.4,0.6-0.7
		c0,0,0.1-0.1,0.1-0.2c0,0,0-0.1,0-0.1l0,0c0.1,0.3,0.6,1.2,0.8,1c0.2-0.4,0.3-0.9,0.3-1.3c-0.3-0.1-0.8-0.4-0.7-0.4
		c0.1,0,0.3,0.1,0.4,0l0,0c0,0,0.1,0,0.1-0.1c0.1,0,0.1,0,0.2,0.1c0,0,0,0,0,0c0,0,0,0.1,0.1,0.1c0,0.1,0,0.1,0.1,0.2
		c0.2,0.2,0.1,0.1,0.6,0.3c0,0,0.1,0,0.1,0c-0.1-0.1-0.1-0.1-0.2-0.2c-0.2-0.3,0.2-0.3,0.4-0.1c0.3,0.2,0.1,0.3,0.1,0.5
		c0.2,0,0.3,0.1,0.5,0.1c0.2,0,0.3-0.1,0.3-0.2c0.1-0.2-0.3-0.1-0.4-0.6c-0.1-0.4,0-0.8,0.4-1.1c0.1-0.1,0.3-0.2,0.4-0.3
		c0.1,0,0.2-0.1,0.3-0.1c0.1,0,0.1,0,0.2-0.1c0.1,0,0.1-0.1,0.2-0.1c0,0,0.1-0.1,0-0.1c0,0-0.1,0-0.1,0c-0.1,0-0.3,0-0.4,0
		s-0.3,0-0.5,0c-0.1,0-0.2,0-0.2,0c-0.1,0-0.1,0-0.3,0c-0.2,0-0.4-0.1-0.6-0.1c-0.4-0.1-0.8-0.3-1.2-0.4l-0.1,0c-0.3,0-0.6,0-0.9,0
		c-0.3,0.1-0.6,0.1-0.9,0.1c-0.2,0-0.3,0-0.5-0.1c-0.1,0-0.2-0.1-0.3-0.1c0,0-0.2-0.1,0.4-0.2c0.4-0.1,0.9-0.1,1.3-0.1
		c0.4,0,0.8,0.1,1.1,0.2c0.2,0,0.2,0.1,0.3,0.1c0.1,0,0.1,0,0.2,0c0.1,0,0.1,0,0.1,0c0.1-0.4,0.4-1.5,0.6-2.1
		c0.2-0.7,0.3-1.5,0.4-2.2c0.8,0.2,1.7,0.4,2.6,0.5c1.1,0.2,2.2,0.2,3.3,0.1c0.2-0.1,0.8-0.4,0.8-0.6c0.1-0.5-0.6-1.5-1.2-2.3
		c-0.3-0.3-0.5-0.7-0.7-1.1c0,0,0-0.1,0-0.1c0-0.2,0-0.4-0.3-0.4c-0.1,0-0.1,0-0.1,0s-0.1,0-0.1-0.1c0,0,0,0,0,0l0,0
		c0,0-0.1-0.1-0.1-0.1c0,0-0.1,0-0.1,0c-0.1,0-0.1-0.1-0.1-0.2c0-0.1-0.1-0.2-0.1-0.2c-0.1-0.1-0.1-0.2-0.2-0.2
		c-0.1-0.1-0.1-0.2-0.2-0.3c-0.1-0.2-0.2-0.5-0.2-0.7c0-0.1-0.1-0.1-0.2-0.2c0,0-0.1,0-0.1,0c-0.2,0-0.3-0.1-0.2-0.1
		c0.1,0,0.2,0,0.3,0c0,0-0.1-0.1-0.1-0.2c0-0.1-0.1-0.2-0.2-0.2c-0.1,0-0.6,0-0.6,0.1l0,0c0,0,0.1,0,0.1,0c0.1,0,0.1,0.1,0.2,0.2
		c0,0.1,0,0.1,0,0.2c0,0,0.1,0,0.2,0.1c0,0.1,0,0.2,0,0.2c0,0,0.1-0.1,0.2,0c0,0,0,0,0,0.1c0,0,0,0.1,0,0.2c0,0,0,0.1,0,0.1
		c0,0,0,0-0.1,0.1c0,0,0,0.1,0,0.1c0,0.1,0,0.1-0.1,0.2c0,0-0.1,0-0.1,0c0,0-0.1,0-0.1-0.1c0,0-0.1,0.2-0.2,0.2
		c-0.1,0-0.1-0.1-0.1-0.1c0,0-0.1-0.4-0.1-0.6c0,0,0-0.1,0-0.1c0,0,0,0,0,0c0,0,0-0.1,0-0.1c0-0.1,0-0.2,0-0.2c0,0,0,0,0,0
		c-0.1,0.1-0.1,0.3-0.2,0.4c0,0.1,0,0.1,0,0.1c0,0.1,0,0.1,0,0.2c0,0,0,0,0,0c0-0.1-0.1-0.1-0.1-0.2c-0.1-0.1-0.3-0.2-0.4-0.1
		c-0.1,0.1,0.1,0.2,0.1,0.3c0.1,0.1,0.2,0.3,0.2,0.5c0,0.1,0.1,0.3,0.2,0.4c0.2,0.1,0.4,0.3,0.6,0.4c0.2,0.1,0.4,0.2,0.6,0.3
		c0,0,0.1,0.1,0.1,0.1c0,0,0.1,0.1,0.1,0.1c0,0,0.1,0,0.1,0c0.1,0,0.2,0,0.3,0c0,0,0.1,0,0.1,0c0.1,0,0,0.1,0,0.1
		c0,0-0.1,0.1-0.1,0.1c0,0-0.1,0-0.1,0c0,0-0.1,0-0.1,0c-0.1,0-0.1,0-0.2,0h0c0,0-0.1,0-0.1,0c0,0-0.1,0-0.1,0
		c-0.1,0-0.1-0.1-0.2-0.2c0,0,0,0,0,0c0,0-0.1-0.1-0.1,0c-0.1,0-0.2,0.1-0.2,0.1c0,0,0,0,0,0c0.1,0.2,0.1,0.3,0.1,0.5
		c0,0.2,0,0.5,0.2,0.2c0.1-0.2,0.5,0.3,0.3,0.4c-0.2,0.1-0.4,0-0.2,0.2s0.2,0.1,0.5,0.3l0,0c0,0,0,0,0.1,0c0,0,0.1,0,0.1,0
		c0,0,0,0,0,0c0.1,0,0.1,0,0.1,0c0.1,0,0.2,0,0.3,0c0,0,0,0.1,0,0.1c-0.1,0-0.1,0.1-0.2,0.1c0,0.1,0.1,0.2,0.2,0.4
		c0,0.1,0.1,0.2,0.1,0.2c0.2,0.3,0.6,0.6,0.9,0.8c0.1,0,0,0.1-0.2,0c-0.3-0.1-0.7-0.3-0.9-0.5c0,0-0.1-0.1-0.1-0.1
		c-0.1-0.1-0.1-0.2-0.2-0.3c0,0-0.1-0.1-0.1-0.2c0,0,0-0.1-0.1-0.1c-0.1,0-0.2,0-0.2,0.2c0,0.1,0,0.2,0,0.3c0,0,0,0,0,0.1
		c0,0.1-0.1,0.1-0.1,0.1c-0.1-0.1-0.2-0.3-0.2-0.5c0,0,0-0.1,0-0.1c0-0.1,0-0.3,0.1-0.4c-0.1-0.1-0.2-0.2-0.3-0.3
		c-0.2-0.3-0.5-0.4-0.8-0.4c-0.5,0-0.7-0.4-1-0.6c-0.3-0.2-0.6-0.3-1-0.3c-0.3,0-0.6,0.1-0.7,0c0,0-0.1,0.1,0.1,0.4
		c0.1,0.2,0.4,0.2,0.4,0.6c0,0.4-0.2,0.7,0,1c0,0,0,0,0,0.1c0.2,0.2,0.2,0.5,0.2,0.8c-0.1,1.2-0.5,2.5-1,3.6c-0.2,0.3-0.2,0-0.2,0
		c0-1.1-0.2-2.2-0.6-3.3c-0.4-1.4-1.1-2.6-2-3.8c-0.5-0.7-1-1.3-1.6-1.9c-0.1,0.1,0,0.4-0.2,0.7c-0.1,0.1-0.2,0.2-0.4,0.3
		c-0.1,0.1,0.2,0,0.5,0.1c0.3,0.1,0.6,0.3,0.2,0.2c-0.3-0.1-1-0.1-0.9,0s0.6,0.2,0.9,0.5c0.2,0.2,0.6,0.5,0,0.4
		c-0.5-0.1-1.1-0.3-1.6-0.3c-0.6,0-1.2,0.2-1.1,0.3c0,0,0,0,0,0l0,0l0,0c0.2,0,0.3,0.1,0.4,0.2c0.2,0.1,0.3,0.2,0.5,0.4
		c0,0,0,0-0.1,0c-0.1,0-0.2,0-0.2-0.1c-0.2-0.1-0.4-0.2-0.7-0.2l0,0c-0.1,0-0.1,0,0,0.1c0.1,0,0.2,0.1,0.2,0.1
		c0.3,0.2,0.6,0.4,0.7,0.7c0.2,0.3,0.3,0.6,0.4,0.9c0.1,0.2,0.1,0.3,0.1,0.5c0,0.2,0,0.2,0,0.1c0,0-0.1-0.1-0.1-0.2
		c0-0.1-0.1-0.2-0.2-0.3c-0.1-0.1-0.2-0.3-0.3-0.5c-0.2-0.3-0.4-0.6-0.6-0.6c-0.1,0,0,0.4,0.1,0.7c0.2,0.3,0.5,0.6,0.8,0.9
		c0.1,0,0.1,0.1,0.2,0.2c0,0,0.1,0.1,0.1,0.1c0.3,0.4,0.6,0.9,0.9,1.3c0.2,0.4,0.4,0.8,0.6,1.3c0.1,0.2,0.2,0.4,0.4,0.4
		c0.4,0.2,0.4,0.3,0.4,0.4c0.1,0.1,0.2,0.2,0.4,0.2c0.1,0,0.2,0.1,0.2,0.1c0.1,0,0.3,0.1,0.3,0.2c0,0,0,0.1,0,0.1
		c-0.1,0-0.2,0-0.4,0c-0.3,0-0.6,0-0.9,0.1c-0.1,0-0.6,0.1-0.7,0.1c-0.3,0-0.6,0-0.9-0.1c-0.2-0.1-0.4-0.3-0.6-0.5l0,0
		c-0.1-0.1-0.2-0.4,0.2-0.2c0.3,0.2,0.6,0.3,0.9,0.3c0.1,0,0.1,0,0.2,0c0.2,0,0.5,0,0.8,0c0.1,0,0.3,0,0.4,0c0,0,0,0-0.1-0.1
		c-0.1-0.1-0.3-0.1-0.4-0.2c-0.4-0.1-1.2-0.1-1.6-0.7c-0.2-0.3,0.2-0.1,0.5,0c0.2,0-0.1-0.4-0.3-0.6c-0.2-0.2-0.4-0.4-1.1-1
		c-0.5-0.5-0.9-1-1.3-1.5c-0.3-0.4-0.5-0.8-0.6-1.3c0-0.3,0.1-0.6,0.2-0.9c0-0.1,0.1-0.2,0-0.2c-0.1,0.1-0.3,0.2-0.3,0.3
		c-0.1,0.1-0.2,0.3-0.2,0.5c-0.1,0.7,0,1.5,0.2,2.2c0,0,0.2,0.5,0.4,1.2c0.2,0.5,0.4,0.9,0.7,1.4c0.2,0.4,0.5,0.8,0.8,1.2
		c0.2,0.3,0.5,0.7,0.5,0.7c0.1,0.1,0.2,0.3,0.4,0.4c0.2,0.1,0.3,0.2,0.5,0.3c0.3,0.1,0.7,0.3,1,0.4c0.4,0.1,1.4,0.5,1.6,0.6
		c0.5,0.2-0.7,0-1.6-0.2c-0.4-0.1-0.8-0.2-1.2-0.4c-0.2-0.1-0.4-0.2-0.6-0.4c0,0,0,0,0,0c0,0,0,0,0,0c0,0,0,0.1,0,0.2
		c0,0.1,0,0.2-0.1,0.2c-0.2,0.6-0.5,1.2-1,1.7c0-0.2-0.1-0.4-0.3-0.2c-0.6,0.5-1.4,0.8-2.2,0.8c-0.6,0-0.9-0.4-0.9-0.2
		c0,0,0,0.1,0,0.1c0.1,0.3,0.3,0.6,0.6,0.7c0.3,0.1,0.6,0.2,0.9,0.2c-0.9,0.2-1.9,0.4-2.8,0.9c-2,1-3.3,3-3.3,5.3
		C67.9,40.2,68.1,40.8,68.5,41.2 M81.4,26.2c-0.1,0.1-0.3,0-0.4-0.1c-0.1-0.1,0-0.3,0.1-0.4c0.1-0.1,0.3,0,0.4,0.1c0,0,0,0,0,0
		C81.6,26,81.5,26.1,81.4,26.2 M82,27.4c0,0.1-0.1,0.2-0.2,0.3c-0.1,0-0.2-0.1-0.3-0.2c0-0.1,0.1-0.2,0.2-0.3
		C81.9,27.1,82,27.2,82,27.4 M78.8,22.5c0.3-0.2,0.6-0.3,0.8-0.4c0.2,0-0.3,0.4-0.2,0.5c0,0.1,0.5,0.4,1.1,1
		c0.3,0.3,0.6,0.7,0.8,1.1c0.1,0.1,0.1,0.2,0.1,0.4c0,0.1-0.2-0.3-0.7-0.8C79.9,23.3,78.8,22.6,78.8,22.5 M86.2,19
		c0-0.1,0.1-0.2,0-0.2c0,0-0.1,0-0.1,0.1c0,0.1,0,0.2,0,0.2C86.1,19.2,86.2,19.1,86.2,19"/>
	<path class="st0" d="M83.1,17.8C83.1,17.8,83.1,17.8,83.1,17.8c-0.1-0.1-0.2-0.1-0.3-0.1c0,0-0.1,0-0.1,0c-0.2,0-0.3,0-0.5-0.1
		c0,0,0,0-0.1,0c0,0-0.1,0-0.1-0.1c0,0,0,0,0-0.1c0,0,0,0,0,0l0,0c0,0-0.1-0.1-0.1-0.1l0,0l0,0c0,0,0,0,0,0c0,0,0,0,0,0l0,0
		c0,0,0,0,0,0c0,0,0,0,0,0c0,0,0,0-0.1,0c0,0-0.1,0-0.1-0.1c-0.1,0-0.2-0.1-0.2-0.1c-0.1,0-0.2,0-0.2,0.1c0,0,0,0.1,0,0.1
		c0,0.1,0,0.1-0.1,0.2c-0.1,0.2,0,0.5,0.1,0.7c0,0,0,0,0,0c0,0,0,0-0.1,0c-0.1,0-0.4-0.2-0.4-0.3c0,0,0,0,0,0c0-0.1-0.1-0.1-0.1-0.2
		c0-0.1,0-0.2-0.1-0.3c0,0-0.1-0.1-0.1-0.1c0,0,0,0,0,0c0,0-0.1,0-0.1-0.1c0,0,0,0,0,0l0,0c0,0,0.1,0,0.1,0c0,0,0.1,0,0.1,0l0,0l0,0
		l0,0c0-0.1-0.1-0.2-0.1-0.3l0,0l0,0c0,0-0.1-0.1-0.1-0.1c-0.2,0-0.4,0.1-0.4,0.3c0,0,0,0.1,0,0.1c0,0.1,0.1,0.2,0.1,0.4
		c0,0.1,0.1,0.2,0.1,0.3s0.1,0.1,0.1,0.1c0.1,0,0.1,0.1,0.2,0.1l0,0c0,0,0,0,0,0c0,0.1-0.1,0.2-0.2,0.2c0,0,0,0,0,0
		c-0.1-0.1-0.2-0.2-0.3-0.2c-0.2-0.1-0.4-0.1-0.5,0c0,0,0,0,0,0.1c0,0.1,0,0.3,0,0.4c0,0.1,0,0.2,0,0.3c0.1,0.2,0.2,0.4,0.4,0.6
		c0.2,0.2,0.5,0.4,0.7,0.6c0.2,0.1,0.2-0.3,0.3-0.3c0,0,0,0,0,0c-0.1,0-0.2,0-0.3,0c-0.1,0-0.1,0,0-0.1l0,0c0.1-0.1,0.2-0.1,0.3-0.2
		c0,0,0,0,0,0c0,0,0.1,0.1,0.1,0.1c0.1,0.1,0.2,0.2,0.3,0.3l0,0c0.2,0.1,0.3,0.3,0.5,0.4l0,0c0.2,0.1,0.6,0.2,0.8,0.1
		c0.1-0.1,0.1-0.1,0.1-0.2c0-0.1,0.1-0.2,0.1-0.2c0,0-0.2,0.1-0.2,0.2c0,0-0.1,0.1-0.2,0.1c-0.1,0-0.1,0-0.1-0.1c0,0,0,0,0-0.1
		c0,0,0-0.1,0-0.1c0-0.1,0-0.2,0.1-0.4c0,0,0.1-0.1,0.1-0.1c0,0,0-0.1,0-0.1c0-0.1,0-0.1,0.1-0.2c0,0,0.1,0,0.1-0.1
		c0,0,0.1-0.1,0.1-0.1c0-0.1,0.1-0.2,0.1-0.2c0.1,0,0.1,0,0.2,0c0.1,0,0.1,0,0.2-0.1c0-0.1,0-0.3,0-0.4C83.2,18.2,83.2,18,83.1,17.8
		 M81.7,18.8c-0.1,0.1-0.1,0.1-0.2,0.1l0,0c0,0-0.1-0.2,0-0.2c0.1,0,0.2,0,0.3,0h0C81.9,18.7,81.8,18.7,81.7,18.8"/>
	<path class="st0" d="M85.7,30.4c-0.2,0-0.3,0-0.5,0.1c-0.1,0-0.2,0.1-0.2,0.2c0.1,0.1,0.2,0.1,0.4,0C85.7,30.5,85.8,30.4,85.7,30.4
		"/>
	<path class="st0" d="M83.4,24.5c0-0.2-0.4-0.2-0.3,0c0,0.1,0.1,0.2,0,0.3C83.3,24.8,83.4,24.7,83.4,24.5"/>
	<path class="st0" d="M82.9,23.6c0.1,0.2,0.1,0.2,0.1,0.2c0.1,0,0.2,0,0.2-0.1c0,0,0,0,0-0.1C83.3,23.4,82.8,23.5,82.9,23.6"/>
	<path class="st0" d="M79.9,15.8c0,0-0.1,0.1-0.4,0.1c-0.3,0-0.5,0-0.5,0.3c-0.1,0.2,0,0.5,0.1,0.8c0.1,0.2,0.1,0.4,0,0.4
		s-0.2,0-0.2,0.1c0,0.1,0.1,0.1,0.2,0.1c0.1,0,0.2,0,0.3-0.1c0.1,0,0.2,0,0.3,0c0.2,0.1,0.1-0.1-0.2-0.4c-0.2-0.3-0.3-0.6-0.2-1
		c0.1-0.4,0.4-0.3,0.6-0.4S80,15.8,79.9,15.8"/>
	<path class="st0" d="M78.9,15.4c0.1,0.1,0.2,0.1,0.3,0.1c0.1,0,0.2,0.1,0.3,0.1c0.3,0,0.4,0,0.7,0c0.2,0,0.5,0.1,0.7,0.1
		c0.6,0.2,1.1,0.6,1.5,1c0.2,0.2,0.6,0.5,0.7,0.4c-0.1-0.1-0.2-0.2-0.3-0.3c-0.2-0.2-0.3-0.5-0.4-0.6c-0.1-0.2-0.3-0.3-0.5-0.4
		c-0.1,0-0.2-0.1-0.2-0.1c-0.1-0.1,0.1,0,0.2,0c0.3,0.1,0.5,0.3,0.8,0.4c0.2,0.1,0.3,0.3,0.4,0.4c0.2,0.3,0.3,0.5,0.5,0.7
		c0.1,0.1,0.2,0.2,0.4,0.3c0.4,0.2,0.8,0.2,1.2,0.2c0.3-0.1,0.4-0.2,0.4-0.3c0,0,0.1,0.1,0.1,0.1c0,0,0.1,0.1,0.1,0.1c0,0,0,0,0.1,0
		c0.1,0,0.1,0,0.2,0c0,0,0,0.1,0,0.1c0,0,0,0,0,0.1s0.2,0.1,0.2,0.1s0.2,0,0.2,0c0,0,0,0-0.2-0.4c-0.2-0.2-0.4-0.4-0.7-0.5
		c-0.1-0.1-0.2,0-0.2,0.1c0,0.1,0,0.1,0.1,0.2c-0.1-0.1-0.3-0.1-0.4-0.2c-0.3,0-0.5-0.1-0.7-0.3c0,0,0-0.1,0-0.1
		c0.2-0.4,0.5-0.8,0.8-1.1c0.3-0.3,0.7-0.6,0.7-0.8c-0.2-1-0.8-1.8-1.7-2.2c-0.8-0.5-1.7-0.8-2.7-0.6c-0.3,0.1-0.4,0.3-0.4,0.5
		c0,0.3-0.1,0.7-0.1,1c-0.1,0.2-0.1,0.4-0.1,0.6c0,0.1,0.1,0.2,0.1,0.2c0.1,0.1,0.2,0.2,0.3,0.3c0.2,0.2,0.4,0.4,0.6,0.6
		c0.1,0.2-0.1,0.1-0.2,0c-0.3-0.2-0.6-0.4-0.9-0.5c-0.1-0.1-0.3-0.1-0.4-0.1c-0.5-0.2-1-0.2-1.5,0.1C78.6,15,78.7,15.3,78.9,15.4"/>
	<path class="st0" d="M66.3,59.2v-0.6l-0.3,0.5l-0.3-0.5v0.6h-0.2v-0.9h0.2l0.3,0.5l0.3-0.5h0.1v0.9H66.3z M64.9,58.4v0.8h-0.1v-0.8
		h-0.3v-0.1h0.8v0.1H64.9z"/>
</g>
</svg>
