<?xml version="1.0" encoding="utf-8"?>
<!-- Generator: Adobe Illustrator 25.1.0, SVG Export Plug-In . SVG Version: 6.00 Build 0)  -->
<svg version="1.1" id="Layer_1" xmlns="http://www.w3.org/2000/svg" xmlns:xlink="http://www.w3.org/1999/xlink" x="0px" y="0px"
	 viewBox="0 0 161.6 97.6" style="enable-background:new 0 0 161.6 97.6;" xml:space="preserve">
<style type="text/css">
	.st0{fill:#062256;}
</style>
<g id="XMLID_44_">
	<g id="XMLID_28_">
		<path id="XMLID_1581_" class="st0" d="M66.4,69.4c0-0.8,0.4-1,1-1c0.6,0,1,0.2,1,1v1.1c0,0.8-0.4,1-1,1c-0.6,0-1-0.2-1-1V69.4z
			 M67,70.6c0,0.3,0.2,0.4,0.4,0.4c0.2,0,0.4-0.1,0.4-0.4v-1.2c0-0.3-0.2-0.4-0.4-0.4c-0.2,0-0.4,0.1-0.4,0.4V70.6z"/>
		<path id="XMLID_1578_" class="st0" d="M70.9,71.2L70.4,70l-0.3,0v1.2l-0.6,0.1v-3l0.8-0.1c0.7-0.1,1,0.2,1,0.8
			c0,0.4-0.1,0.7-0.4,0.8l0.6,1.3L70.9,71.2z M70.2,69.6l0.3,0c0.2,0,0.4-0.2,0.4-0.5s-0.2-0.4-0.4-0.4l-0.3,0V69.6z"/>
		<path id="XMLID_1576_" class="st0" d="M72.7,71v-3l0.6-0.1v3L72.7,71z"/>
		<path id="XMLID_1574_" class="st0" d="M76,70c-0.2,0.2-0.3,0.4-0.5,0.4c-0.6,0.1-0.9,0-0.9-0.8v-1.1c0-0.8,0.4-1.1,0.9-1.2
			c0.6-0.1,0.9,0.1,0.9,0.8l-0.6,0.1c0-0.4-0.1-0.5-0.3-0.4c-0.2,0.1-0.4,0.2-0.4,0.5v1.2c0,0.3,0.1,0.4,0.4,0.3
			c0.2-0.1,0.3-0.2,0.3-0.5v-0.2l-0.4,0.1v-0.5l1-0.2v1.6l-0.3,0.1L76,70z"/>
		<path id="XMLID_1572_" class="st0" d="M77.7,69.8v-3l0.6-0.2v3L77.7,69.8z"/>
		<path id="XMLID_1570_" class="st0" d="M79.7,69.2v-3l0.6-0.2l0.8,1.6h0v-1.8l0.5-0.2v3L81,68.8l-0.8-1.7h0v2L79.7,69.2z"/>
		<path id="XMLID_1567_" class="st0" d="M82.6,68.2l0.7-3.3l0.7-0.2l0.7,2.8l-0.5,0.2L84,67.1l-0.8,0.2l-0.2,0.7L82.6,68.2z
			 M83.4,66.8l0.6-0.2l-0.3-1.1h0L83.4,66.8z"/>
		<path id="XMLID_1565_" class="st0" d="M85.7,67.2v-3l0.6-0.2v2.5l0.9-0.3v0.5L85.7,67.2z"/>
		<path id="XMLID_1562_" class="st0" d="M88.7,66.3l0.7-3.2l0.7-0.2l0.7,2.9l-0.5,0.1l-0.1-0.6l-0.8,0.2l-0.2,0.7L88.7,66.3z
			 M89.4,65l0.6-0.1l-0.3-1.2h0L89.4,65z"/>
		<path id="XMLID_1560_" class="st0" d="M91.9,65.6v-3l0.6-0.1V65l0.9-0.2v0.5L91.9,65.6z"/>
		<path id="XMLID_1558_" class="st0" d="M94.3,65.2v-3l1.6-0.2v0.5l-1,0.1v0.7l0.8-0.1v0.5l-0.8,0.1v0.8l1.1-0.1V65L94.3,65.2z"/>
		<path id="XMLID_1557_" class="st0" d="M81.9,47.3h-2.7c0.2,0.2,0.3,0.5,0.3,1.3v5.7c0,0.8-0.2,1.1-0.3,1.3h2.7
			c-0.2-0.2-0.3-0.5-0.3-1.3v-5.7C81.6,47.8,81.8,47.5,81.9,47.3z"/>
		<path id="XMLID_1556_" class="st0" d="M100.2,48.7c0.7,0,1,0.1,1.3,0.2l-0.3-1.7h-6.7c0.2,0.2,0.3,0.5,0.3,1.3v5.7
			c0,0.8-0.2,1.1-0.3,1.3h6.7l0.3-1.7c-0.3,0.2-0.6,0.2-1.3,0.2h-3.3v-2.1h2.3c0.7,0,1,0.1,1.3,0.2v-1.6h-3.6v-2L100.2,48.7
			L100.2,48.7z"/>
		<path id="XMLID_1553_" class="st0" d="M88,47.3c-0.3,0-3.7,0-3.7,0c0.2,0.2,0.3,0.5,0.3,1.3v5.7c0,0.8-0.2,1.1-0.3,1.3
			c0,0,3.6,0,3.9,0c3.1,0,4.6-1.5,4.6-4.2C92.7,48.8,90.9,47.3,88,47.3z M88,54.2c-0.3,0-0.9,0-1.3,0v-5.5c0.3,0,0.7,0,1.2,0
			c1.6,0,2.8,0.8,2.8,2.8C90.7,53.4,89.7,54.2,88,54.2z"/>
		<path id="XMLID_1550_" class="st0" d="M64.2,47.3c-0.3,0-3.9,0-3.9,0c0.2,0.2,0.3,0.5,0.3,1.3v5.7c0,0.8-0.2,1.1-0.3,1.3h2.7
			c-0.2-0.2-0.3-0.5-0.3-1.3V53c0.6,0,1.2,0,1.6,0c2.5,0,3.7-1,3.7-2.9C67.8,48.2,66.6,47.3,64.2,47.3z M63.7,51.6
			c-0.3,0-0.8,0-1.1,0v-2.9c0.3,0,0.7,0,1.1,0c0.9,0,2.1,0.1,2.1,1.4C65.8,51.5,64.7,51.6,63.7,51.6z"/>
		<path id="XMLID_1547_" class="st0" d="M77.2,50.1c0-1.9-1.4-2.8-3.8-2.8c-0.3,0-3.8,0-3.8,0c0.2,0.2,0.3,0.5,0.3,1.3v5.7
			c0,0.8-0.2,1.1-0.3,1.3h2.7c-0.2-0.2-0.3-0.5-0.3-1.3v-1.5c0.6,0,1.4,0,1.7,0l1.8,2.8h2.3l-2.1-3.2C76.6,52.1,77.2,51.3,77.2,50.1
			z M73.1,51.4c-0.3,0-0.8,0-1.2,0v-2.7c0.3,0,0.7,0,1.2,0c0.7,0,2.1,0,2.1,1.4C75.1,51.4,73.9,51.4,73.1,51.4z"/>
		<path id="XMLID_1546_" class="st0" d="M54.1,43v-5.5c0-0.8,0.2-1.1,0.3-1.3h-2.7c0.2,0.2,0.3,0.5,0.3,1.3v5.7
			c0,0.8-0.2,1.1-0.3,1.3h6.8l0.3-1.8C58.5,43,57.7,43,56.5,43C56.4,43,54.2,43,54.1,43z"/>
		<path id="XMLID_1543_" class="st0" d="M64.1,36c-2.5,0-4.4,1.8-4.4,4.4c0,2.5,1.9,4.4,4.4,4.4c2.6,0,4.4-1.8,4.4-4.4
			C68.5,37.8,66.7,36,64.1,36z M64.1,43.2c-1.4,0-2.4-1.2-2.4-2.9s1-2.9,2.4-2.9c1.4,0,2.4,1.2,2.4,2.9C66.5,42,65.5,43.2,64.1,43.2
			z"/>
		<path id="XMLID_1540_" class="st0" d="M95.2,44.7c2.6,0,4.4-1.8,4.4-4.4c0-2.5-1.9-4.4-4.4-4.4s-4.4,1.8-4.4,4.4
			C90.8,42.9,92.7,44.7,95.2,44.7z M95.2,37.5c1.4,0,2.4,1.2,2.4,2.9s-1,2.9-2.4,2.9c-1.4,0-2.4-1.2-2.4-2.9S93.8,37.5,95.2,37.5z"
			/>
		<path id="XMLID_1537_" class="st0" d="M84.7,44.5c3.1,0,4.6-1.5,4.6-4.2s-1.9-4.2-4.7-4.2c-0.3,0-3.7,0-3.7,0
			c0.2,0.2,0.3,0.5,0.3,1.3v5.7c0,0.8-0.2,1.1-0.3,1.3C80.8,44.5,84.4,44.5,84.7,44.5z M83.2,37.6c0.3,0,0.7,0,1.2,0
			c1.6,0,2.8,0.8,2.8,2.8c0,2-1,2.8-2.7,2.8c-0.3,0-0.9,0-1.3,0V37.6z"/>
		<path id="XMLID_1536_" class="st0" d="M76.9,37.5v4l-4.3-5.4l0,0l0,0l0,0l0,0h-2.4c0.2,0.2,0.3,0.5,0.3,1.3v5.7
			c0,0.8-0.2,1.1-0.3,1.3h2.3c-0.2-0.2-0.3-0.5-0.3-1.3v-4.3l4.5,5.6l0,0h1.9v-7c0-0.8,0.2-1.1,0.3-1.3h-2.3
			C76.7,36.4,76.9,36.7,76.9,37.5z"/>
		<path id="XMLID_1535_" class="st0" d="M107.6,36.2c0.2,0.2,0.3,0.5,0.3,1.3v4l-4.3-5.4l0,0l0,0l0,0l0,0h-2.4
			c0.2,0.2,0.3,0.5,0.3,1.3v5.7c0,0.8-0.2,1.1-0.3,1.3h2.3c-0.2-0.2-0.3-0.5-0.3-1.3v-4.3l4.5,5.6l0,0h1.9v-7c0-0.8,0.2-1.1,0.3-1.3
			H107.6z"/>
		<path id="XMLID_1237_" class="st0" d="M87.2,19.6h3.9c4.9,0,6.8-2,7.4-2.7l1.6-1.8l1.7,1.7l9,9l1.6,1.6l-1.6,1.6l-2.6,2.7h-3.1
			c0.2-0.2,0.3-0.4,0.5-0.6l3.5-3.8l-9-9c-1.5,1.6-4.1,3.4-9.1,3.4h-2.5L87.2,19.6z M105.4,59.8c0.1,0.8,0.1,1.6,0.1,2.3
			c0,8.7-6.5,10.1-14.1,13.1c-4.4,1.7-8.3,3.9-10.7,6.5c-2.4-2.6-6.3-4.8-10.7-6.5c-7.6-3-14.1-4.4-14.1-13.1c0-0.7,0-1.5,0.1-2.3
			h-2.3c-0.1,0.8-0.1,1.5-0.1,2.3c0,4.3,1.4,7.5,4.2,9.9c2.4,2,5.6,3.2,9,4.5c0.8,0.3,1.6,0.6,2.4,0.9c4.5,1.8,7.9,3.8,9.8,5.9
			l1.7,1.8l1.7-1.8c2-2.1,5.4-4.1,9.8-5.9c0.8-0.3,1.6-0.6,2.4-0.9c3.4-1.3,6.6-2.5,9-4.5c2.8-2.4,4.2-5.6,4.2-9.9
			c0-0.7,0-1.5-0.1-2.3C107.8,59.8,105.4,59.8,105.4,59.8z M53.2,31.9h3.1c-0.2-0.2-0.3-0.4-0.5-0.6l-3.5-3.8l9-9
			c1.5,1.6,4.1,3.4,9.1,3.4h2.1l1.4-2.3h-3.4c-4.9,0-6.8-2-7.4-2.7l-1.6-1.8l-1.7,1.7l-9,9l-1.6,1.6l1.5,1.6L53.2,31.9z M63.3,66.9
			c1,0.2,2.2,0.3,3.6,0.3c5.1,0,9.8-1.6,14.8-3.2c4.9-1.6,10-3.3,15.6-3.3c0.8,0,1.5,0.1,2.2,0.2c0-0.2,0-0.4,0.1-0.5
			c-0.7-0.1-1.4-0.2-2.2-0.2c-5.6,0-10.8,1.7-15.8,3.3c-4.9,1.6-9.6,3.2-14.6,3.2c-0.8,0-2-0.1-3.2-0.2
			C63.5,66.6,63.4,66.8,63.3,66.9z M98.9,66.3c-0.3-0.1-0.7-0.1-1.1-0.1c-1,0-2.2,0.1-3.3,0.2c-1.2,0.2-2.4,0.4-3.6,0.7
			c-2.5,0.6-5.1,1.5-7.6,2.3c-1.3,0.4-2.6,0.8-3.8,1.2c-1.3,0.4-2.5,0.7-3.8,1c-0.5,0.1-1,0.2-1.4,0.3c0.4,0.1,0.8,0.1,1.2,0.2
			c0.1,0,0.2-0.1,0.4-0.1c2.5-0.6,5.1-1.4,7.7-2.2c2.6-0.8,5.1-1.7,7.6-2.3c1.2-0.3,2.4-0.5,3.6-0.7s2.2-0.2,3.2-0.2
			c0.2,0,0.4,0,0.6,0C98.5,66.6,98.7,66.4,98.9,66.3z M84,72.8c0,0-0.2-0.1-0.3,0.4l0,0c0,0.3-0.3,0.6-0.8,0.7c0,0,0,0-0.1,0
			c-0.3,0-0.8-0.2-0.7-0.8c0,0,0.2,0.2,0.5,0.2c0.7-0.1,0.5-1.2-0.4-1c-1.8,0.2-2.7,3.4-1.8,6.4c0,0.1,0.1,0.3,0.1,0.4c0,0,0,0,0,0
			c0,0,0,0,0,0c0,0.1,0.1,0.3,0.1,0.4l0,0.5l0,0v0.3c-2.1-4.2-6.8-2.9-6.8-5.5c0-0.6,0.5-1.1,1.2-1.1c0.6,0,1,0.4,1,0.9
			c0,0.3-0.2,0.7-0.7,0.6c0.2,0,0.4-0.2,0.4-0.6c0-0.3-0.2-0.5-0.6-0.5c-0.3,0-0.6,0.3-0.6,0.7c0,2.1,3.9,1.3,5.8,4.4
			c-0.2-0.6-0.4-1.2-0.7-1.7l0,0c-1.3-2.6-3.2-2.1-3.2-1.4c-0.4-0.7,0.8-1.3,2-0.5c-1.2-1.5-2.7-2.6-4.5-2.8l-0.6,0c0,0,0,0-0.1,0
			c-0.2,0-0.4,0-0.6,0c-1.4,0.2-0.9,1.4-0.2,1.4c0.4,0,0.6-0.2,0.7-0.4c0.3,0.5,0,1.2-0.8,1.2c-1.1,0-1.4-1.1-0.8-1.8
			c-0.6,0.2-1.1,0.5-2,0.5c-0.9,0-1.6-0.5-1.6-1.1c0-0.1,0-0.3,0.1-0.4c0,0,0,1.1,1.5,1.1c1.3,0,1.8-0.7,3.3-0.8c0.1,0,0.2,0,0.3,0
			c0,0,0.1,0,0.1,0c0,0,0.1,0,0.1,0c0.1,0,0.2,0,0.2,0c2.4,0.2,4.7,1.9,6.1,4.8c-0.4-2.4,0.5-5,2.4-5.2c0,0,0.1,0,0.1,0
			C83.3,71.9,83.9,72.3,84,72.8z M71.9,73.2c-0.3,0.5-0.1,0.9-0.1,1.1c0,0,0,0,0,0c0,0,0,0,0,0s0,0,0,0v0l0,0
			c0.1,0.1,0.3,0.3,0.6,0.3c0.6,0.1,0.8-0.3,0.8-0.3c-0.3,0.2-0.7,0.2-1,0.2c0.4,0,0.5-0.1,0.5-0.1C72.2,74.5,71.6,74.2,71.9,73.2z
			 M74.9,75.9c-0.8-0.6-0.7-1.9,0.2-2.1C73.7,73.9,74.1,75.7,74.9,75.9z M82.9,73.3c0,0-0.3,0.2-0.6,0
			C82.5,73.6,82.8,73.6,82.9,73.3z M83.8,72.7c-0.3-0.4-0.8-0.5-0.8-0.5c0.2,0.1,0.4,0.3,0.5,0.7s-0.2,0.7-0.6,0.8
			c0.3,0,0.6-0.1,0.7-0.4C83.6,73,83.5,72.8,83.8,72.7z M100.7,68.8c-0.3,0.6-0.9,0.8-1.5,0.7c-0.3-0.1-0.5-0.2-0.7-0.4c0,0,0,0,0,0
			c0,0.8-0.5,1.4-1.3,1.4c-0.5,0-0.9-0.2-1-0.6c-0.3-0.7-0.7-1.7-1.9-1.4c0.6-0.5,1.6-0.1,1.9,0.7c0.1-0.2,0.4-0.4,0.7-0.4
			c0.5,0,0.6,0.4,0.5,0.5c0-0.1-0.1-0.2-0.3-0.2c-0.3,0-0.4,0.2-0.4,0.5c0,0.2,0.2,0.5,0.6,0.5c0.6,0,0.9-0.3,0.9-0.9
			c0-0.2,0-0.5-0.4-0.8c-0.5-0.4-1.6-0.8-4.2-0.3c-3,0.5-6,1.5-9.4,2.6c-0.2,0.1-0.4,0.1-0.7,0.2c0.8,0.2,1.2,0.8,1.3,1.5
			c0,0.2,0,0.4-0.1,0.5c0,0-0.1-0.7-0.6-0.7c0,0,0.3-0.4,0-0.7l0,0C83.8,71.1,83.5,71,83,71c-0.2,0-0.3,0-0.5,0.1
			c-1.3,0.4-2.8,0.8-3,0.7c1.4-0.4,3.3-1,4.6-1.5c3.4-1.1,6.4-2.1,9.4-2.6c2.1-0.4,3.6-0.2,4.4,0.4c0.1,0.1,0.2,0.2,0.3,0.4l0,0
			c0.2,0.4,0.6,0.7,1,0.8c0.4,0.1,1,0,1.2-0.5c0.2-0.4,0-0.8-0.4-0.9c-0.4-0.1-0.7,0.2-0.7,0.5c-0.1-0.1-0.1-0.3-0.1-0.4
			c0.1-0.2,0.4-0.5,0.8-0.4C100.6,67.7,100.9,68.2,100.7,68.8z M84.3,71.4c0,0,0.2,0.3,0,0.5c0.1,0,0.2,0.1,0.2,0.3
			C84.6,72.2,84.6,71.7,84.3,71.4z M97.8,70.1c-0.7,0.4-1.4,0-1.4-0.6c0-0.2,0.1-0.4,0.2-0.4c-0.3,0.2-0.2,0.5-0.2,0.5
			c-0.1-0.2-0.2-0.4-0.2-0.4c0.2,0.3,0.2,0.6,0.4,0.8c0.2,0.2,0.4,0.4,0.8,0.4C97.6,70.4,97.8,70.2,97.8,70.1z M85.3,61.8
			c1.6-0.5,4.1-1.3,7.1-1.7c-1.1-0.1-3.6,0.5-3.7,0.5c-0.2,0-0.4,0.1-0.6,0.1C86.6,61.1,85.6,61.5,85.3,61.8z M82.2,62.9L81.6,63
			c-3.7,1.2-7.2,2.4-10.9,2.9c-3.1,0.4-6.6,0.4-6.6-1.9l0,0c0-0.6,0.2-0.8,0.2-1.3c0-0.3-0.2-0.6-0.5-0.6c-0.2,0-0.4,0.2-0.4,0.4
			c0,0.1,0,0.2,0.1,0.3c-0.2,0.1-0.3-0.2-0.3-0.3c0-0.3,0.2-0.6,0.6-0.6c0.4,0,0.8,0.2,0.8,0.8c0,0.1,0,0.2,0,0.2
			c0.2-0.1,0.4-0.2,0.6-0.2c0.8,0,1.1,0.6,1.1,0.9s-0.2,0.8-0.7,0.7c0,0,0.2-0.2,0.2-0.4c0-0.4-0.2-0.7-0.6-0.7
			c-0.4,0-0.8,0.3-0.8,0.8c0,2.2,3.9,2,6.3,1.7l0,0c1.3-0.2,2.5-0.4,3.8-0.7c-1.7,0.1-2.8-0.5-2.8-2c0-0.1,0-0.2,0-0.3l0,0
			c0.3-1.3-0.4-2.3-1.6-2.3c-0.8,0-1.2,0.5-1.4,1c-0.2-0.7,0.6-1.3,1.4-1.3c0.7,0,1.8,0.3,1.9,1.8c0.3-0.4,0.8-0.7,1.3-0.7
			c0.4,0,0.8,0.1,1.1,0.3c1,0.6,1.6,2,3,2c0.6,0,0.9-0.4,0.9-0.4c0.1,0.2-0.2,0.7-0.9,0.7c-1.3,0-1.9-0.8-2.5-1.4
			c0.2,1-0.1,1.6-0.7,1.8c0-0.3-0.5-0.3-0.5-0.3c-0.6,0-1-0.4-1-0.9c0-0.4,0.3-0.7,0.6-0.7c0.2,0,0.3,0,0.4,0.2
			c-0.3,0-0.5,0.2-0.5,0.5c0,0.2,0.2,0.5,0.5,0.5c0.5,0,0.8-0.4,0.8-0.9c0-0.5-0.4-0.9-1-1c0,0-0.1,0-0.1,0c-0.8,0-1.4,0.6-1.4,1.5
			c0,2,2.2,2,4.2,1.6c0.7-0.2,1.4-0.4,2.1-0.6C78.7,63.7,81.9,62.7,82.2,62.9z M74.9,62.9c-0.2,0.6-0.4,0.6-0.6,0.6
			c0.2-0.1,0.3-0.3,0.3-0.4c-0.1,0.2-0.3,0.4-0.7,0.4c-0.5,0-0.7-0.3-0.7-0.6c0-0.2,0-0.4,0.2-0.5c-0.1,0-0.3,0.1-0.3,0.5
			c0,0.6,0.6,0.7,1,0.7c0.2,0,0.4,0,0.5,0.2C74.8,63.5,74.9,63,74.9,62.9z M74.5,61.6c0,0,0.4,0.4,0.2,1.2c0.1-0.2,0.2-0.5,0.2-0.6
			c0-0.1,0.1-0.1,0.1-0.1c0.1,0,0.1,0.1,0.1,0.1C74.8,61.8,74.5,61.6,74.5,61.6z M64.6,63.2c0,0,0.2-0.2,0.6-0.2
			c0.8,0,0.9,0.8,0.7,1.2c0,0,0.2-0.1,0.2-0.5c0-0.4-0.4-0.8-0.9-0.8C65,62.9,64.7,63,64.6,63.2z M80.6,61.2c0,1-0.4,1.6-1.5,1.6
			c-1.8,0-3.7-2.4-5.5-2.4c-0.2,0-0.7,0-0.9,0.2c0-0.3,0.6-0.5,0.9-0.5c2,0,3.9,2.4,5.5,2.4c0.9,0,1.2-0.5,1.2-1.2
			c0-0.4-0.2-0.7-0.7-0.7c-0.3,0-0.5,0.2-0.5,0.5c0,0.2,0.1,0.3,0.2,0.4c-0.3,0.1-0.6-0.2-0.6-0.5c0-0.1,0-0.2,0-0.2l0,0
			c0.1-0.3-0.2-0.3-0.4-0.2c-0.4,0.2-0.8,0.5-1.3,0.5c-0.7,0-1-0.6-0.6-1c-0.1,0.6,0.7,0.6,0.8,0.2c0.1,0.2,0.4,0.3,0.8,0.1
			c0.3-0.2,0.7-0.4,1.2-0.4c0.5,0,1.1,0.2,1.2,0.7c0,0,0,0,0,0c0,0,0,0.1,0,0.2c0,0,0,0,0,0C80.6,61,80.6,61.1,80.6,61.2z M78,60.7
			c-0.4,0.2-0.7,0-0.7-0.1c0,0.1,0.1,0.2,0.1,0.2c-0.5,0.1-0.7,0-0.9-0.2C76.6,61.1,77.6,61,78,60.7z M80.3,60.7
			c-0.3-0.6-1.4-0.6-1.6-0.3c0.3-0.1,0.6,0,0.6,0c-0.4,0.2-0.4,0.7-0.3,0.9c-0.1-0.6,0.2-0.9,0.7-0.9C80,60.4,80.2,60.6,80.3,60.7z
			 M88.5,60.4c-0.2,0-0.3,0-0.4,0c-1.8,0-3.7,2.3-5.5,2.3c-1.1,0-1.5-0.5-1.5-1.5c0-0.1,0-0.1,0-0.2c0,0,0,0,0,0c0-0.1,0-0.1,0-0.2
			c0,0,0,0,0,0c0.2-0.6,0.8-0.7,1.2-0.7c0.5,0,0.8,0.2,1.2,0.4c0.4,0.2,0.8,0.1,0.8-0.1c0.2,0.4,0.9,0.3,0.8-0.2
			c0.4,0.4,0.1,1-0.6,1c-0.6,0-0.9-0.3-1.3-0.5c-0.2-0.1-0.4-0.1-0.4,0.2l0,0c0,0.1,0,0.2,0,0.2c0,0.4-0.3,0.6-0.6,0.5
			c0.1-0.1,0.2-0.2,0.2-0.4c0-0.3-0.2-0.5-0.5-0.5c-0.4,0-0.7,0.3-0.7,0.7c0,0.6,0.3,1,1.2,1c1.6,0,3.5-2.2,5.5-2.2
			C88.3,60.1,88.5,60.3,88.5,60.4z M83.6,60.7c0.4,0.3,1.4,0.5,1.6-0.1c-0.1,0.2-0.4,0.3-0.9,0.2c0,0,0.1,0,0.1-0.2
			C84.3,60.7,84.1,60.9,83.6,60.7z M81.3,60.7c0.1-0.1,0.3-0.3,0.7-0.3c0.5,0,0.7,0.3,0.7,0.9c0.1-0.2,0.2-0.7-0.3-0.9
			c0,0,0.2-0.1,0.6,0C82.7,60.1,81.6,60.1,81.3,60.7z M71.3,64.1c-0.1,0.3-0.9,0.7-1.7,0.5c-0.1,0.6-0.7,1-1.2,1
			c-0.3,0-0.7-0.6-0.6-1.2c-0.4,0.2-1,0.1-1.2-0.3c-0.1-0.2,0.2-0.8,0.7-1c-0.4-0.2-0.8-0.4-1.1-0.6l0,0c-1-0.7-2.2-1.4-3.7-1.4
			c-1.2,0-2.1,0.4-2.7,1c0,0,0,0,0,0c-0.2,0.2-0.3,0.4-0.4,0.6c-0.1,0.3-0.2,0.6-0.2,0.9c0,0.8,0.5,1.3,1.3,1.2
			c-0.1,0.1-0.2,0.2-0.2,0.3c0,0.3,0.2,0.4,0.5,0.4c0.1,0,0.2,0,0.2,0c0.3-0.1,0.6-0.4,0.6-0.8c0-0.4-0.2-0.7-0.5-0.9
			c0.5-0.1,1,0.4,1,1c0,0.7-0.5,1.3-1.5,1.3c-1,0-2-0.7-2-2.3c0-0.4,0.1-0.9,0.5-1.4c-0.2,0.1-0.5,0.1-0.8,0.1c-0.2,0-0.3,0-0.4,0
			c-0.2,0.5-0.3,1-0.3,1.6c0,2,1.7,3.1,3.1,3.1c1.6,0,2.6-1.1,2.6-2.4c0-1-0.6-2-1.8-2c-0.7,0-1.1,0.5-1.1,0.8c0,0.1,0,0.2,0,0.2
			c-0.2-0.1-0.2-0.3-0.2-0.4c0-0.5,0.5-1,1.2-1c0.1,0,0.1,0,0.2,0c-0.1-0.2-0.1-0.5,0.1-0.7c0,0-0.3,0.5,0.5,0.9l0,0
			c0.8,0.3,1.3,1.2,1.3,2.1c0,1.5-1.2,2.7-2.9,2.7c-0.2,0-0.3,0-0.5,0c0.5,0.5,0.5,1.1,0.2,1.3c0.2-0.5-0.2-1.1-1.3-1.6h0
			c-0.5-0.2-0.9-0.5-1.2-1c0.7,2,2.3,3.7,4.3,3.6l0,0l0,0c0.8,0,1.3-0.5,1.3-1.1c0-0.5-0.2-0.8-0.8-0.8c-0.4,0-0.7,0.3-0.7,0.7
			c0,0.2,0,0.3,0.2,0.5c-0.3,0.1-0.5-0.2-0.5-0.6c0-0.6,0.5-1,1.1-1c0.8,0,1.3,0.6,1.3,1.2c0,0.9-0.9,1.6-1.9,1.6
			c-0.2,0-0.5,0-0.7-0.1c0.2,0.1,0.4,0.2,0.6,0.3c0.3,0.2,0.8,0.3,1.2,0.3c0.7,0,0.9-0.5,0.9-0.5c0.2,0.5-0.4,0.8-0.9,0.8
			c0,0,0,0,0,0c1,0.6,1.8,0.9,1.7,1.1c-1.7-0.8-2.8-1-5.2-2.8c0,0-0.1-0.1-0.2-0.1c0,0,0,0,0,0l0,0c-1.5-1.1-2.4-3.2-2.4-5.2
			c0-0.6,0.1-1.2,0.3-1.7c-1.1-0.5-1-2.3,0.3-2.3c0.4,0,0.7,0.3,0.5,0.6c-0.1-0.1-0.2-0.2-0.4-0.2c-0.9,0-1.1,1.2-0.3,1.6
			c0.7-1.3,2.1-2,3.8-2c1.2,0,2.3,0.5,3.3,1.1c0-0.1,0-0.2,0-0.2c0-0.5,0.3-1,1-1c0.2,0,0.4,0.1,0.6,0.2l0,0
			c0.7,0.5,1.4,0.6,1.8,0.1c-0.1,0.7-0.9,0.7-1.5,0.4c0,0,0,0.1,0,0.2c0,0.2-0.2,0.5-0.5,0.5c0.2,0,0.3-0.2,0.3-0.4
			c0-0.3-0.2-0.6-0.6-0.6c-0.4,0-0.7,0.2-0.7,0.8c0,0.3,0.1,0.5,0.3,0.6c0.1,0,0.1,0.1,0.2,0.1c0,0,0,0,0,0l0,0
			c0.2,0.1,0.3,0.2,0.4,0.3c0.4,0.3,0.7,0.5,1.2,0.8c-0.4-0.4-0.3-1.1-0.2-1.3c0.2-0.2,1.3-0.1,1.4,0.7c-0.3-0.6-1.1-0.7-1.3-0.6
			c-0.2,0.2-0.1,1.1,0.9,1.2c0.1-0.2,0.3-0.2,0.5-0.3c-0.1-1.1,0.7-1.4,0.9-1.3c-0.3,0.1-0.8,0.5-0.8,1.3c0.2,0,0.5,0.1,0.6,0.3h0
			c0.1,0,0.1,0,0.2,0c0.7-0.5,0.8-1.4,0.6-1.5c-0.1-0.1-0.2-0.1-0.4-0.1c0.1-0.1,0.3-0.1,0.5,0c0.3,0.2,0.4,0.9-0.2,1.5
			c0.2,0.1,0.4,0.2,0.4,0.3c-0.4-0.2-0.8-0.2-1-0.1l0,0c0.1,0.2,0,0.3-0.1,0.6c-0.1,0.1-0.1,0.2-0.2,0.2c0.4,0.9,1.7,0.5,1.8,0.2
			c0.1-0.2,0-0.5-0.3-0.8C71,63.2,71.4,63.8,71.3,64.1z M57.4,61.8c-0.3-0.7,0-1.5,0.9-1.5c0.2,0,0.3,0.1,0.3,0.1
			c-0.1-0.1-0.2-0.2-0.5-0.2c-0.5,0-0.9,0.4-0.9,0.9C57.2,61.4,57.2,61.7,57.4,61.8z M64,68.7c0,0,0,0.2-0.1,0.4
			c0.1-0.1,0.2-0.3,0.2-0.4c0-0.8-0.5-1.1-1.1-1.1c-0.5,0-1,0.3-0.9,1c0-0.5,0.3-0.8,0.9-0.8C63.5,67.7,64,68,64,68.7z M68.6,63.4
			c0.3,0.2,0.7-0.2,0.4-0.4c0.2-0.1,0.4,0,0.4,0.2c0.2-0.2-0.1-0.5-0.6-0.5C68.4,62.8,68.4,63.2,68.6,63.4z M68.3,63.3
			c0,0.6,1,0.6,1.1,0C69.1,63.7,68.5,63.7,68.3,63.3z M59.3,62.9C59.3,62.9,59.3,62.9,59.3,62.9c-0.2,0.4-0.2,0.8-0.2,1
			s0,2.1,1.8,2.1c0.9,0,1.3-0.8,1.3-1.1c-0.2,0.7-0.8,0.9-1.2,0.9c-0.4,0-0.8-0.1-1-0.3c0.1,0,0.2,0.1,0.3,0.1c0.1,0,0.2,0,0.2-0.1
			c-0.3,0.1-0.9-0.3-1-0.6c-0.1-0.3-0.2-0.6-0.2-0.9c0,0.7,0.5,1.1,1,1.1c0.2,0,0.3,0,0.3-0.1C59.2,64.9,59.1,63.5,59.3,62.9z
			 M62.8,60.9c0.6,0,1.1,0.1,1.5,0.2c-0.8-0.4-1.6-0.7-2.6-0.7c-1.5,0-2.8,0.7-3.5,1.9c0.1,0,0.2,0,0.3,0c0.7,0,1.1-0.3,1.5-0.6l0,0
			c0,0,0,0,0,0c0,0,0.1-0.1,0.2-0.1c0,0,0,0,0,0C60.9,61.1,61.7,60.9,62.8,60.9z M68.1,64c0.1-0.1,0.2-0.2,0.3-0.3
			c-0.1-0.1-0.2-0.2-0.2-0.4c0,0,0-0.1,0-0.2c-0.8-0.1-1.4,0.7-1.3,0.9C67,64.3,67.7,64.3,68.1,64z M69.1,63.9
			c-0.2,0.1-0.5,0-0.7-0.1c0,0,0,0,0,0c-0.6,0.4-0.4,1.5,0,1.6C68.8,65.4,69.7,64.4,69.1,63.9z M104.7,63.1
			c-0.1,0.1-0.4,0.3-0.7,0.4c0.2,0.7,0.2,2.8-0.7,3.8c0.5-1.2,0.6-2.5,0.2-3.8c-0.1,0-0.3-0.1-0.4-0.1c0,0.1-0.1,0.2-0.2,0.3
			c0.2,0.5,0.3,1,0.3,1.6c0,3.3-3.1,6-6.8,6c-0.2,0-0.4,0-0.6,0c0,0.1,0,0.1,0,0.2c-0.1,0.4-0.7,0.6-1.1,0.4
			c0.2,0.6-0.1,1.2-0.4,1.2c-0.3,0.1-0.7-0.1-0.9-0.3c-0.1,0.5-0.8,0.9-1.6,0.9c-0.9,0-1.4-0.3-2-0.5c0.6,0.8,0.2,1.9-0.8,1.8
			c-0.8,0-1-0.7-0.8-1.2c0.1,0.2,0.3,0.4,0.7,0.4c0.7,0,1.1-1.2-0.3-1.4c-0.2,0-0.3,0-0.5,0c-0.3,0-0.6,0-0.6,0
			c-1.8,0.2-3.4,1.3-4.6,2.8c1.2-0.8,2.4-0.2,2,0.5c0-0.7-1.9-1.2-3.2,1.3c-0.3,0.6-0.5,1.2-0.7,1.8c2-3.1,5.8-2.3,5.8-4.4
			c0-0.4-0.3-0.7-0.6-0.7c-0.4,0-0.6,0.3-0.6,0.5c0,0.3,0.2,0.5,0.4,0.6c-0.4,0.1-0.7-0.3-0.7-0.6c0-0.5,0.5-0.9,1-0.9
			c0.6,0,1.2,0.5,1.2,1.1c0,2.6-4.7,1.3-6.8,5.5v-0.3l0-0.5c0-0.2,0.1-0.3,0.1-0.4c0,0,0,0,0,0s0,0,0,0c0-0.1,0.1-0.3,0.1-0.4
			c0.9-3,0.1-6.2-1.8-6.4c-0.8-0.1-1.1,1-0.4,1c0.3,0,0.5-0.2,0.5-0.2c0.1,0.6-0.4,0.8-0.7,0.8c-0.5-0.1-0.8-0.3-0.8-0.7l0,0
			c0-0.5-0.3-0.4-0.3-0.4c0.2-0.4,0.7-0.9,1.6-0.8c0,0,0.1,0,0.1,0c1.9,0.2,2.7,2.8,2.4,5.2c1.4-2.8,3.6-4.6,6.1-4.8
			c0.1,0,0.2,0,0.3,0c0,0,0.1,0,0.2,0c0.1,0,0.2,0,0.3,0c1.6,0.1,2,0.8,3.4,0.8c0.9,0,1.2-0.4,1.4-0.7c-0.1-0.1-0.1-0.2-0.2-0.3
			c-0.8,0.3-1.6,0-1.7-0.3c-0.2-0.3,0.1-0.9,0.4-0.9c-0.3,0.3-0.3,0.6-0.2,0.8c0.1,0.3,1.5,0.5,1.8-0.4c-0.1-0.1-0.2-0.1-0.2-0.2
			c-0.2-0.2-0.2-0.4-0.2-0.6l0,0c-0.2,0-0.6,0-0.9,0.2h0h0c-0.4-0.1-0.7-0.2-1.1-0.3c-0.1,0.8-0.8,1.1-1.6,1.1c-1,0-1.6-0.7-2.4-0.7
			c-0.4,0-0.8,0.2-0.9,0.6c0,0,0,0.1,0,0.1l0,0c0,0.1,0,0.1,0,0.1l0,0c0,0.1,0,0.1,0,0.1c0,0.1,0,0.2,0,0.3c-0.1,0-0.2-0.1-0.2-0.4
			c0-1,0.7-1.9,2.8-2c0.7,0,1.3,0.1,1.8,0.2c-0.1-0.3-0.2-0.6-0.6-0.7c0.4-0.2,1.1,0.3,1.1,0.8c0.4,0.1,0.8,0.2,1.3,0.3
			c0,0,0.1,0,0.1,0c-0.7-0.6-0.7-1.3-0.4-1.5c0.2-0.1,0.4-0.1,0.5-0.1c-0.2,0-0.3,0-0.4,0.1c-0.2,0.1,0,1,0.7,1.4c0.1,0,0.1,0,0.2,0
			c0,0,0,0,0,0c0.1-0.2,0.3-0.3,0.6-0.3c-0.1-0.9-0.6-1.1-0.9-1.2c0.2-0.1,1,0.2,1,1.2l0,0c0.2,0,0.4,0.1,0.6,0.2
			c0.9-0.2,0.9-1.2,0.8-1.3c-0.2-0.1-1,0-1.2,0.7c0.1-0.8,1.1-1,1.3-0.8c0.2,0.2,0.4,1.1-0.3,1.4c0.4,0,0.8,0.3,0.9,0.5
			c0.2,0,0.5,0,0.8,0c1.8,0,3.5-0.8,4.7-1.8c0.8-0.8,0-2.2-1.1-2.2c-1.1,0-1.3,0.7-1.2,1.2c-0.4-0.6,0.1-1.7,1.3-1.7
			c0.4,0,0.8,0.2,1.1,0.5c0,0,0-0.1,0-0.1c0-0.7,0.7-0.8,0.9-0.6c-0.2-0.1-0.6,0-0.6,0.6c0,0.2,0,0.4,0.1,0.6c0,0,0,0.1,0.1,0.1
			c0,0,0,0,0,0l0,0c0.1,0.3,0.2,0.7,0.1,1.1c0.4-0.5,0.8-1.1,1-1.7c0.1-0.4,0.1-0.8-0.1-1.1l0,0c-0.2-0.4-0.7-0.2-0.7-0.2
			c0.1-0.5-0.5-0.7-0.5-0.7c0.2,0,0.4,0,0.5,0.1c0.4,0.1,0.8,0.4,1,0.8c0-0.1,0-0.2,0-0.3c0-0.5-0.1-1-0.2-1.4
			c-0.3,0.2-0.6,0.3-0.8,0.3c-0.3-0.1-0.6-0.7-0.4-1.2c-0.5,0.2-1,0-1.1-0.4c0,0,0,0,0,0c-0.1,0-0.2,0-0.3,0.1l0,0
			c-0.7,0.3-0.6,1.4,0.2,1.4c0.4,0,0.5-0.3,0.5-0.4c0.2,0.3-0.2,0.7-0.6,0.7c-0.7,0-1-0.6-0.9-1.1c-0.2,0.2-0.2,0.5-0.2,0.8
			c0,1.3,1.3,1.3,1.8,0.9c0,0.7-0.7,1-1.1,1c-0.8,0-1.6-0.5-1.6-1.4c0-0.2,0-0.5,0.1-0.7c0,0,0,0,0,0c0.1-0.2-0.2-0.2-0.2-0.2
			s0.6-1.3,2.4-1.4c0-0.1,0.1-0.1,0.1-0.2l0,0c-0.1-0.1-0.2-0.1-0.3-0.2c-0.6-0.4-1.3-0.1-1.3-0.1c0.2-0.3,0.6-0.4,1-0.3
			c-0.3-0.7,0.1-1.5,0.5-1.4c-0.3,0.2-0.7,1.4,0.4,1.8c0.2-0.1,0.4-0.2,0.6-0.2c-0.7-0.4-0.4-1.3-0.2-1.5c0.2-0.2,1.3,0,1.3,0.8
			c-0.2-0.7-1-0.9-1.2-0.7c-0.2,0.1-0.2,1,0.7,1.3c0.2-0.1,0.4-0.2,0.6-0.2l0,0c0.1-1,0.8-1.3,1.1-1.2c-0.3,0.1-0.8,0.3-0.9,1.2
			c0.2,0,0.4,0.2,0.5,0.3c0,0,0,0,0,0c0.1,0,0.1,0,0.2,0c0.8-0.4,0.9-1.3,0.8-1.4c-0.1-0.1-0.2-0.1-0.4-0.1c0.1,0,0.3,0,0.5,0.1
			c0.2,0.2,0.3,1-0.4,1.5c0.2,0.1,0.4,0.2,0.4,0.3c-0.4-0.3-0.7-0.3-0.9-0.2l0,0c0,0.2,0,0.3-0.2,0.6c-0.1,0.1-0.2,0.2-0.2,0.2
			c0.2,0.9,1.6,0.7,1.8,0.5c0.1-0.2,0-0.5-0.2-0.8C104.6,62.1,104.9,62.7,104.7,63.1z M99.7,62.4c0,0-0.9,0.1-1.5,1
			c0,0,0.4-0.4,0.7-0.5c-0.2,0.2-0.6,0.7-0.6,1.4c0,0.8,0.6,1.4,1.3,1.4c0.4,0,0.8-0.2,0.9-0.5c-0.3,0.3-0.7,0.3-0.9,0.3
			c-0.5,0-1.4-0.6-1-1.8c-0.2,1.4,0.8,1.7,1.1,1.6c-0.9-0.1-1-0.9-0.9-1.4C98.8,63.2,99.1,62.7,99.7,62.4z M102.2,62
			c0.2,0.2,0.7-0.1,0.4-0.3c0.2,0,0.4,0,0.4,0.3c0.2-0.2,0-0.5-0.5-0.5C102.1,61.4,102,61.8,102.2,62z M101.9,61.9
			c-0.1,0.6,0.9,0.7,1.1,0.1C102.6,62.3,102,62.3,101.9,61.9z M101.6,62.6c0.1-0.1,0.2-0.2,0.3-0.3c-0.1-0.1-0.1-0.3-0.1-0.4
			c0,0,0-0.1,0.1-0.2c-0.8-0.2-1.5,0.5-1.4,0.8C100.5,62.7,101.1,62.7,101.6,62.6z M102.6,62.6c-0.2,0-0.5,0-0.6-0.2h0
			c-0.7,0.3-0.6,1.4-0.2,1.5C102.2,64.1,103.1,63.1,102.6,62.6z M102.5,65.4c-0.2-0.4-0.7-0.5-0.7-0.5c0.2,0.1,0.2,0.2,0.2,0.3
			C102.3,65.2,102.5,65.4,102.5,65.4z M101.4,67.6c-0.3-0.9-1.1-1-1.4-1s-0.9,0.1-1.1,0.6c0,0,0.3-0.4,1.1-0.4
			C100.8,66.7,101.2,67.2,101.4,67.6z M90.3,70.4c-0.6-0.2-1.2-0.2-1.9-0.2s-1.3,0.2-1.8,0.5c0,0,0.1,0,0.1,0c1.1,0,1.4,0.7,2.5,0.7
			C89.8,71.4,90.3,71,90.3,70.4z M90.2,69.6c0.3,0.3,0.5,1.2-0.2,1.7C90.8,70.9,90.8,70,90.2,69.6z M78.6,73.3
			c0.1,0.3,0.4,0.3,0.6,0C79,73.5,78.6,73.3,78.6,73.3z M78.6,72.1c0,0-0.5,0.1-0.8,0.5C78,72.8,78,73,78,73.3
			c0.1,0.2,0.3,0.4,0.7,0.4c-0.4-0.1-0.6-0.4-0.6-0.8S78.4,72.2,78.6,72.1z M86.7,75.9c0.8-0.2,1.2-2-0.2-2.1
			C87.3,74,87.4,75.3,86.7,75.9z M89.7,73.2c0.3,1-0.4,1.3-0.9,1.2c0,0,0.1,0.1,0.5,0.1c-0.3,0.1-0.7,0-1-0.2c0,0,0.3,0.4,0.8,0.3
			c0.3-0.1,0.5-0.2,0.6-0.3l0,0c0,0,0,0,0,0s0,0,0,0c0,0,0,0,0,0c0,0,0,0,0,0C89.8,74.1,89.9,73.7,89.7,73.2z M93.4,70.5
			c-0.2,0.3,0.2,0.6,0.4,0.3c0.2-0.2,0.1-0.6-0.3-0.6c-0.5,0-0.7,0.3-0.5,0.5C93,70.6,93.2,70.5,93.4,70.5z M94.1,70.8
			c-0.1,0.4-0.7,0.4-1.1,0.1C93.2,71.4,94.2,71.4,94.1,70.8z M94.1,71.3L94.1,71.3c-0.2,0.1-0.4,0.2-0.7,0.2
			c-0.5,0.5,0.4,1.5,0.8,1.4C94.7,72.7,94.7,71.6,94.1,71.3z M94.3,70.6c0,0.1,0.1,0.1,0.1,0.2c0,0.2,0,0.3-0.1,0.4
			c0.1,0.1,0.2,0.2,0.3,0.3c0.4,0.2,1.1,0.1,1.2-0.1C95.7,71.1,95.1,70.4,94.3,70.6z M67.8,23.2c-1.3,0-2-0.6-2.8-0.8
			c0.1,0.1,0.1,0.2,0.1,0.4c0,0.2-0.3,0.6-0.6,0.5c0.2-0.1,0.3-0.3,0.3-0.5c0-0.3-0.2-0.5-0.6-0.5c0,0,0,0-0.1,0
			C64.1,22.5,63.7,23,63,23c0.2,0.2,0.2,0.4,0.2,0.5c-0.2-0.4-0.5-0.6-0.7-0.7l0,0c-0.1,0.1-0.2,0.3-0.5,0.4c-0.1,0-0.2,0-0.3,0
			c-0.2,0.9,1.1,1.4,1.3,1.3c0.2-0.1,0.3-0.5,0.2-0.9c0.2,0.1,0.2,0.8-0.1,1c-0.2,0.1-1,0.1-1.5-0.5c-0.3,0.6-0.7,1.2-1.2,1.7
			c0.5-0.1,0.9-0.1,1-0.1c0.2,0,0.3,0,0.5,0h0c0.1,0,0.1,0,0.2,0c1.4,0.2,2-0.2,2.2-1c0.2,0.7-0.3,1.3-1.2,1.4
			c0.1,0.1,0.2,0.2,0.3,0.3l0,0c0.6,0.4,1,1.3,1,2.4c0,2.6-2.1,3-2.9,3l0,0l0,0c-0.5,0-0.8-0.1-1.2-0.2l0,0c-1-0.4-1.4-0.7-2.1-0.7
			c-0.5,0-0.6,0.3-0.6,0.5c0,0.2,0.1,0.4,0.2,0.5c-0.3,0-0.5-0.3-0.5-0.5c0-0.5,0.4-0.8,0.9-0.8c0.4,0,0.7,0.1,1,0.2
			c-0.1-0.2-0.2-0.4-0.3-0.7l0,0c-0.2-0.8-0.7-1.6-1.5-1.5c-0.1,0-0.2,0.1-0.3,0.1c-0.3,0.2-0.2,0.6,0.1,0.6c0.1,0,0.2-0.1,0.2-0.1
			c0.1,0.2-0.2,0.4-0.2,0.4c0.1,0.1,0.5,0,0.5-0.1c0.1,0.4-0.3,0.6-0.6,0.7c-0.2,0-0.5-0.1-0.6-0.2c-0.1,0.1-0.2,0.3-0.5,0.2
			c0.2-0.2,0.3-0.4,0.3-0.8c0-0.5,0.3-1,1-1.1c0.6,0,1.1,0.2,1.4,0.9c0-1.5,1.2-2.4,2.1-2.4c1,0,1.5,0.6,1.5,1.3
			c0,0.6-0.5,1.1-1.1,1.1c-0.6,0-0.8-0.5-0.8-0.8c0,0,0.1,0.1,0.5,0.1c0.4,0,0.7-0.4,0.7-0.7c0-0.4-0.3-0.7-0.7-0.7
			c-0.7,0-0.8,0.7-0.7,0.9c-0.5-0.2-1.1,0.1-1.1,1.3c0,1.3,1.1,2.1,2.3,2.1c1.1,0,2.6-0.7,2.6-2.6c0-0.4,0-0.9-0.2-1.3
			c0,0.2,0.1,0.4,0.1,0.6c0,1.2-0.9,2.5-2.3,2.5c-1.1,0-1.4-0.6-1.3-0.8c0.2,0.3,0.6,0.5,1.3,0.5c1.2,0,2-1.1,2-2.1
			c0-1.1-0.7-2.2-2.3-2.2c-1.1,0-1.8,0.3-2.5,0.7c-0.8,0.4-1.9,1.2-3.2,1.2c-0.1,0-0.2,0-0.2,0c0.4,0.4,0.5,1,0.2,1.4
			c0,0,0.3-1.1-1-1.6l0,0c-0.3-0.1-0.6-0.2-0.7-0.3l0.3-0.4c0.2,0.1,0.5,0.4,1.2,0.5c0.7,0,1.1-0.4,1.1-0.8c0-0.5-0.3-0.7-0.6-0.7
			c-0.3,0-0.5,0.2-0.5,0.6c0,0,0,0.1,0,0.1c-0.2-0.1-0.2-0.3-0.2-0.4c0-0.3,0.3-0.6,0.7-0.6c0.5,0,0.9,0.3,0.9,0.8
			c0,0.3,0,0.6-0.3,0.9c0.5-0.2,1.1-0.5,1.5-0.7c0.7-0.4,0.9-0.9,0.7-1.4s-0.7-0.8-1.2-0.6c-0.4,0.2-0.5,0.6-0.3,0.8
			c-0.2,0-0.4-0.2-0.5-0.4c-0.2-0.4,0.2-1,0.7-1.2c0.1,0,0.2-0.1,0.3-0.1c0.4-0.1,0.5-0.4,0.3-0.6c1,0.2,1.5,1.8,1.2,2.7
			c0,0.1-0.1,0.2-0.1,0.3c0.9-0.4,1.5-1.2,2-2c-0.4,0.1-0.9,0.1-1.2-0.1c-0.2-0.2-0.2-0.9,0.3-1.3c-0.5-0.1-0.9-0.6-0.8-0.9
			c0.1-0.3,0.8-0.7,1.5-0.3c-0.4-0.7,0.2-1.3,0.5-1.4c0.3-0.1,1.1,0.7,0.7,1.4c0.1-0.7-0.5-1.3-0.7-1.2c-0.2,0-0.7,0.8,0,1.5
			c0.2,0,0.4,0,0.6,0.1l0,0c0.6-0.9,1.4-0.7,1.5-0.5c-0.3-0.1-0.9-0.1-1.4,0.6c0.2,0.2,0.3,0.4,0.3,0.6l0,0c0.1,0,0.1,0,0.2,0.1
			c0.9,0,1.5-0.6,1.4-0.8c-0.1-0.1-0.1-0.2-0.3-0.3c0.1,0,0.2,0.1,0.3,0.2c0,0,0.1,0,0.1,0l0,0c1.3,0,2.1,1.1,3.6,1.1
			c0.3,0,0.6,0,0.9-0.2C68.7,23,68.2,23.2,67.8,23.2z M61.2,27.1c0,0,0.7,0.2,0.7,0.9c0,0.6-0.5,1-1.1,0.9c0.2,0.2,1,0.1,1.2-0.7
			c0,0,0.1,0.5-0.4,0.9c0,0,0.5-0.2,0.5-0.8C62.2,27.6,61.8,27.2,61.2,27.1z M59.2,28.2c0.3-0.3,0.6-0.4,0.8-0.3
			c0-0.2-0.3-0.1-0.3-0.1c0.1-0.3,0.7-0.6,1-0.6C60.2,27.1,59.6,27.5,59.2,28.2z M56.8,28.8c-0.2,0.2-0.4,0.6-0.2,0.9
			c0.2,0.3,0.5,0.4,0.9,0.1c-0.2,0.1-0.6,0-0.8-0.3c0,0,0.2,0.1,0.4,0C56.8,29.6,56.6,29.2,56.8,28.8z M59,25.8
			c0.3-0.7-0.1-1.6-0.5-2c0,0.4-0.5,0.5-0.7,0.5c-0.4,0-0.9,0.5-0.8,0.9c0.1-0.4,0.2-0.6,0.6-0.7c0.5-0.2,0.9,0,1.1,0.3
			c0-0.1,0-0.2-0.1-0.5C59.1,24.7,59,25.8,59,25.8z M60.5,22.7c0.1,0,0.3-0.1,0.4-0.1c0-0.1,0-0.3,0.1-0.4c0,0,0.1-0.1,0.1-0.1
			c-0.6-0.6-1.5-0.3-1.6,0C59.5,22.2,60,22.6,60.5,22.7z M61.4,23.2c-0.2-0.1-0.4-0.3-0.5-0.5l0,0c-0.7-0.1-1.2,1-0.9,1.3
			C60.3,24.3,61.6,23.9,61.4,23.2z M62,22.9c-0.5,0.1-1-0.3-0.9-0.6C60.8,22.8,61.7,23.4,62,22.9z M61.9,22.2
			c-0.3-0.2-0.7,0.1-0.6,0.3c0.1,0.3,0.6,0.3,0.5-0.1c0.2,0.1,0.3,0.2,0.2,0.4C62.4,22.8,62.3,22.4,61.9,22.2z M92.9,22.7
			c0.3,0.2,0.6,0.2,0.9,0.2c1.5,0,2.3-1.1,3.6-1.1l0,0c0,0,0.1,0,0.1,0c0.1-0.1,0.2-0.2,0.3-0.2c-0.1,0.1-0.2,0.2-0.3,0.3
			c-0.1,0.2,0.5,0.9,1.4,0.8c0.1,0,0.1-0.1,0.2-0.1c0,0,0,0,0,0c0-0.2,0.1-0.4,0.3-0.6c-0.5-0.7-1.1-0.7-1.4-0.6
			c0.1-0.2,0.9-0.4,1.5,0.5l0,0c0.2-0.1,0.4-0.1,0.6-0.1c0.7-0.7,0.2-1.5,0-1.5c-0.2,0-0.8,0.5-0.7,1.2c-0.4-0.7,0.4-1.5,0.7-1.4
			c0.3,0,0.9,0.7,0.5,1.4c0.7-0.4,1.4,0,1.5,0.3c0.1,0.4-0.3,0.9-0.8,0.9c0.5,0.4,0.5,1.1,0.3,1.3c-0.3,0.2-0.8,0.3-1.2,0.1
			c0.5,0.8,1,1.5,1.9,2c-0.1-0.1-0.1-0.2-0.1-0.3c-0.2-0.9,0.2-2.4,1.2-2.7c-0.2,0.2-0.1,0.6,0.3,0.6c0.1,0,0.2,0,0.3,0.1
			c0.5,0.2,0.8,0.8,0.7,1.2c-0.1,0.2-0.2,0.4-0.4,0.4c0.2-0.2,0.1-0.6-0.3-0.8c-0.5-0.2-1,0-1.2,0.6c-0.2,0.6,0,1,0.7,1.4
			c0.5,0.3,1,0.5,1.5,0.7c-0.2-0.3-0.3-0.6-0.3-0.9c0.1-0.5,0.5-0.8,0.9-0.8c0.4,0,0.7,0.3,0.7,0.6c0,0.1,0,0.3-0.2,0.4
			c0,0,0-0.1,0-0.1c0-0.4-0.3-0.6-0.6-0.6c-0.3,0-0.6,0.2-0.6,0.7c0,0.4,0.4,0.8,1.1,0.8c0.7-0.1,1-0.3,1.2-0.5l0.3,0.4
			c-0.1,0.1-0.4,0.2-0.7,0.3l0,0c-1.3,0.5-1,1.6-1,1.6c-0.3-0.4-0.3-1,0.2-1.4c-0.1,0-0.2,0-0.2,0c-1.3,0-2.4-0.9-3.2-1.2
			c-0.7-0.4-1.4-0.7-2.5-0.7c-1.6,0-2.3,1.1-2.3,2.2c0,1,0.8,2.1,2,2.1c0.7,0,1.1-0.2,1.3-0.5c0.1,0.1-0.2,0.8-1.3,0.8
			c-1.4,0-2.3-1.2-2.3-2.5c0-0.2,0-0.4,0.1-0.6c-0.2,0.4-0.2,0.9-0.2,1.3c0,1.9,1.5,2.6,2.6,2.6c1.2,0,2.3-0.8,2.3-2.1
			c0-1.2-0.6-1.5-1.1-1.3c0.1-0.2,0-0.9-0.7-0.9c-0.5,0-0.7,0.4-0.7,0.7c0,0.4,0.3,0.7,0.7,0.7c0.4,0,0.4-0.1,0.4-0.1
			c0,0.3-0.2,0.8-0.8,0.8c-0.6,0-1.1-0.5-1.1-1.1c0-0.7,0.5-1.3,1.5-1.3c1,0,2.1,0.9,2.1,2.4c0.3-0.7,0.8-1,1.4-0.9
			c0.7,0.1,1,0.6,1,1.1c0,0.4,0.1,0.6,0.3,0.8c-0.3,0.1-0.4-0.1-0.5-0.2c-0.1,0.1-0.3,0.2-0.6,0.2c-0.3,0-0.7-0.3-0.6-0.7
			c0.1,0.1,0.4,0.2,0.6,0.1c0,0-0.3-0.2-0.2-0.4c0,0,0,0.1,0.2,0.1c0.3,0,0.4-0.4,0.1-0.6c-0.1-0.1-0.2-0.1-0.3-0.1
			c-0.8-0.1-1.2,0.7-1.4,1.5l0,0c-0.1,0.2-0.2,0.5-0.3,0.7c0.3-0.1,0.7-0.2,1-0.2c0.5,0,0.9,0.2,0.9,0.8c0,0.2-0.2,0.5-0.5,0.5
			c0.1-0.1,0.2-0.2,0.2-0.5c0-0.2-0.1-0.5-0.6-0.5c-0.7,0-1.1,0.3-2.1,0.7l0,0c-0.3,0.1-0.7,0.2-1.2,0.2l0,0l0,0
			c-0.8,0-2.9-0.5-2.9-3c0-1.1,0.5-1.9,1-2.4l0,0c0.1-0.1,0.2-0.2,0.3-0.3c-0.9-0.1-1.4-0.7-1.2-1.4c0.1,0.8,0.8,1.2,2.2,1
			c0.1,0,0.1,0,0.2,0h0c0.2,0,0.3,0,0.5,0c0.1,0,0.5,0,1,0.1c-0.5-0.5-0.9-1.1-1.2-1.7c-0.5,0.6-1.3,0.7-1.5,0.5
			c-0.3-0.2-0.4-0.9-0.1-1c-0.1,0.4,0,0.7,0.2,0.9c0.2,0.2,1.6-0.4,1.3-1.3c-0.1,0-0.2,0-0.3,0c-0.3-0.1-0.4-0.2-0.5-0.4l0,0
			c-0.2,0.1-0.5,0.2-0.7,0.7c-0.1-0.1,0-0.3,0.2-0.5c-0.7-0.1-1.1-0.6-1.2-0.9c0,0,0,0-0.1,0c-0.4,0-0.6,0.2-0.6,0.5
			c0,0.2,0.1,0.4,0.3,0.5c-0.3,0.1-0.6-0.3-0.6-0.5c0-0.1,0-0.3,0.1-0.4c-0.8,0.3-1.5,0.8-2.8,0.8C93.4,23.2,92.8,23,92.9,22.7z
			 M99.4,28.2c0,0.7,0.5,0.8,0.5,0.8c-0.5-0.4-0.4-0.9-0.4-0.9c0.2,0.8,1,0.9,1.2,0.7c-0.6,0.2-1.1-0.3-1.1-0.9
			c0-0.6,0.7-0.9,0.7-0.9C99.8,27.2,99.4,27.6,99.4,28.2z M100.9,27.1c0.3,0.1,0.8,0.4,0.9,0.6c0,0-0.3-0.1-0.3,0.1
			c0.2-0.1,0.5,0,0.8,0.3C101.9,27.5,101.4,27.1,100.9,27.1z M104.5,29.5c0.2,0.1,0.4,0,0.4,0c-0.2,0.4-0.6,0.4-0.8,0.3
			c0.3,0.3,0.7,0.2,0.9-0.1c0.2-0.3,0.1-0.7-0.2-0.9C105,29.2,104.8,29.6,104.5,29.5z M103.1,24.3c-0.1,0.2-0.1,0.4-0.1,0.5
			c0.3-0.3,0.7-0.5,1.1-0.3c0.4,0.2,0.5,0.4,0.6,0.7c0.1-0.5-0.3-0.9-0.8-0.9c-0.2,0-0.8-0.1-0.7-0.5c-0.5,0.4-0.8,1.3-0.5,2
			C102.6,25.8,102.5,24.7,103.1,24.3z M102,22c-0.1-0.2-1-0.6-1.6,0c0.1,0,0.1,0.1,0.1,0.1c0.1,0.1,0.1,0.3,0.1,0.4
			c0.2,0,0.3,0.1,0.4,0.1C101.5,22.6,102.1,22.2,102,22z M101.5,24c0.3-0.4-0.2-1.4-0.9-1.3l0,0c-0.1,0.2-0.2,0.4-0.5,0.5
			C100,23.9,101.3,24.3,101.5,24z M100.4,22.3c0.1,0.4-0.4,0.8-0.9,0.6C99.9,23.4,100.8,22.8,100.4,22.3z M99.4,22.9
			c-0.1-0.2,0-0.4,0.2-0.4c-0.1,0.4,0.4,0.4,0.6,0.1c0.1-0.2-0.2-0.6-0.6-0.3C99.2,22.4,99.2,22.8,99.4,22.9z M75.5,31H86v1.5H75.5
			V31z M84.4,32.1h0.2v-0.3l0.3,0.3h0.2l-0.4-0.5l0.4-0.4h-0.2l-0.3,0.3v-0.3h-0.2L84.4,32.1L84.4,32.1z M83.2,31.7
			c0,0.3,0.2,0.4,0.5,0.4c0.1,0,0.2,0,0.2-0.1v-0.2C83.8,32,83.7,32,83.6,32c-0.2,0-0.3-0.1-0.3-0.3c0-0.2,0.1-0.3,0.3-0.3
			c0.1,0,0.2,0,0.2,0.1v-0.2c-0.1,0-0.1-0.1-0.2-0.1C83.3,31.2,83.2,31.4,83.2,31.7z M82.4,32.1h0.2v-0.9h-0.2V32.1z M80.7,31.2
			l0.4,0.9l0.2-0.6l0.2,0.6l0.4-0.9h-0.2l-0.2,0.5l-0.2-0.6l-0.2,0.6l-0.2-0.5H80.7z M80.1,31.9c0,0,0,0.1-0.1,0.1c0,0,0,0-0.1,0
			c-0.1,0-0.1,0-0.2-0.1L79.7,32c0,0,0.1,0.1,0.1,0.1c0.1,0,0.1,0,0.2,0c0.1,0,0.2,0,0.2-0.1c0.1,0,0.1-0.1,0.1-0.2
			c0-0.1,0-0.1-0.1-0.2s-0.1-0.1-0.2-0.1c-0.1,0-0.1,0-0.2-0.1c0,0,0,0,0-0.1c0,0,0,0,0.1,0c0.1,0,0.1,0,0.2,0.1l0.1-0.1
			c-0.1-0.1-0.2-0.1-0.2-0.1c0,0-0.1,0-0.1,0c-0.1,0-0.2,0.1-0.2,0.2c0,0.1,0,0.2,0.1,0.2c0.1,0,0.1,0,0.1,0
			C80.1,31.8,80.1,31.8,80.1,31.9z M79,32.1h0.2v-0.9H79V32.1z M77.7,32.1h0.2v-0.4h0.3v0.4h0.2v-0.9h-0.2v0.3h-0.3v-0.3h-0.2V32.1z
			 M76.5,31.7c0,0.3,0.2,0.4,0.5,0.4c0.1,0,0.2,0,0.2-0.1v-0.2C77.2,32,77,32,77,32c-0.2,0-0.3-0.1-0.3-0.3c0-0.2,0.1-0.3,0.3-0.3
			c0.1,0,0.2,0,0.2,0.1v-0.2c-0.1,0-0.1-0.1-0.2-0.1C76.7,31.2,76.5,31.4,76.5,31.7z M74.4,23.4c1.9-0.6,4.1-0.9,6.4-0.9
			c2.3,0,4.5,0.3,6.4,0.9L86.7,25c-1.7-0.5-3.7-0.8-5.9-0.8s-4.2,0.3-5.9,0.8L74.4,23.4z M86,24l-0.1,0.3l0.1,0l0.1-0.3l0.3-0.4
			l-0.1,0l-0.2,0.2l0-0.3l-0.1,0L86,24z M85.1,24.1l0.1,0l0.1-0.3h0l0.1,0.4l0.1,0l-0.1-0.4c0,0,0.1,0,0.1-0.1
			c0.1-0.1,0.1-0.2,0.1-0.2c0-0.1-0.1-0.1-0.1-0.1c-0.1,0-0.1,0-0.2,0h0L85.1,24.1z M84.3,24l0.3,0.1l0-0.1l-0.2,0l0-0.2l0.2,0
			l0-0.1l-0.2,0l0-0.2l0.2,0l0-0.1l-0.3,0L84.3,24z M83.3,23l0.1,0.8h0l0.2-0.4l0.1,0.4v0h0l0.3-0.8l-0.1,0l-0.1,0.4l-0.1-0.4h0
			l-0.2,0.4l0-0.4L83.3,23z M82.5,23.8l0.3,0l0-0.1l-0.2,0l0-0.2l0.2,0l0-0.1l-0.2,0l0-0.2l0.2,0l0-0.1l-0.3,0L82.5,23.8z
			 M81.7,23.7l0.1,0l0-0.3h0l0.1,0.3l0.2,0L82,23.4c0,0,0.1,0,0.1-0.1c0-0.1,0-0.2,0-0.3c0-0.1-0.1-0.1-0.1-0.1c-0.1,0-0.2,0-0.2,0
			h0L81.7,23.7z M80.9,23.7L80.9,23.7c0.1,0,0.1,0,0.1,0h0c0.1,0,0.1,0,0.2,0c0.1,0,0.1-0.2,0.1-0.2c0,0,0-0.1-0.1-0.1c0,0,0,0,0,0
			c0.1-0.1,0.1-0.2,0-0.2c0,0-0.1-0.1-0.1-0.1c-0.1,0-0.1,0-0.2,0c0,0-0.1,0-0.1,0h0L80.9,23.7z M79.5,22.9l0,0.8l0.1,0l0-0.4
			l0.3,0.4H80l0-0.8h-0.1l0,0.4L79.5,22.9L79.5,22.9z M78.9,23l0.1,0.8l0.1,0L79.1,23L78.9,23z M78.2,23l0.1,0.8l0.1,0l0-0.4l0.2,0
			l0-0.1l-0.2,0l0-0.2l0.2,0l0-0.1l-0.2,0L78.2,23z M77.3,23.1l0.1,0.8l0.1,0l-0.1-0.3l0.2,0l0-0.1l-0.2,0l0-0.2l0.2,0l0-0.1
			L77.3,23.1L77.3,23.1z M76.8,23.2l0.1,0.8l0.1,0l-0.1-0.8L76.8,23.2z M76,23.4l0.2,0.8l0.1,0l-0.1-0.3h0c0.1,0.1,0.2,0.3,0.2,0.3
			l0.2,0l-0.2-0.3c0,0,0.1,0,0.1-0.1c0-0.1,0-0.2,0-0.2c0,0-0.1-0.1-0.2-0.1C76.1,23.4,76,23.4,76,23.4z M75.2,24
			c0,0.1,0.1,0.3,0.2,0.3c0,0,0.1,0,0.1,0c0.1,0,0.1,0,0.2-0.1c0.1-0.1,0.1-0.2,0-0.4v0l-0.1,0c-0.1,0-0.1,0-0.2,0h0l0,0.1h0
			c0,0,0,0,0.1,0l0,0c0,0.1,0,0.2,0,0.2c0,0,0,0-0.1,0h0c-0.1,0-0.1-0.1-0.2-0.2c0-0.2,0-0.3,0-0.3c0,0,0,0,0.1,0c0,0,0.1,0,0.1,0.1
			l0,0l0.1-0.1l0,0c0,0-0.1-0.1-0.1-0.1c0,0-0.1,0-0.1,0c0,0,0,0,0,0c0,0-0.1,0-0.1,0C75.2,23.6,75.1,23.8,75.2,24z M97.8,31.9H86.3
			v-0.4h11L97.8,31.9z M81.9,23.3C81.9,23.3,81.9,23.3,81.9,23.3l-0.1-0.2c0,0,0.1,0,0.1,0s0,0,0,0.1C82,23.2,82,23.2,81.9,23.3z
			 M87.4,23.2l-1-0.9c0.6,0.1,1.2,0.3,1.8,0.5l-0.3,1h9.8l-0.2,0.4h-9.8l-0.1,0.2c-0.2-0.1-0.4-0.1-0.6-0.2L87.4,23.2z M85.3,23.7
			l0.1-0.2c0,0,0.1,0,0.1,0s0,0,0,0.1C85.4,23.6,85.4,23.7,85.3,23.7C85.3,23.7,85.3,23.7,85.3,23.7z M81.1,23.6
			C81,23.6,81,23.6,81.1,23.6l0-0.2c0,0,0.1,0,0.1,0C81.2,23.4,81.2,23.5,81.1,23.6C81.1,23.5,81.1,23.6,81.1,23.6
			C81.1,23.6,81.1,23.6,81.1,23.6z M85.6,22.7l-0.1,0c0.1-0.1,0.1-0.2,0.2-0.3s0.2-0.2,0.2-0.3l1.1,0.9C86.5,23,86.1,22.8,85.6,22.7
			z M81.1,23.2C81,23.2,81,23.2,81.1,23.2l0-0.2c0,0,0,0,0,0c0,0,0,0,0,0c0,0,0.1,0,0.1,0.1C81.1,23.2,81.1,23.2,81.1,23.2
			L81.1,23.2z M63.9,23.8h9.7l-0.3-1c0.6-0.2,1.2-0.4,1.8-0.5l-1,0.9l0.3,1.1c-0.2,0.1-0.4,0.1-0.6,0.2l-0.1-0.2h-9.6L63.9,23.8z
			 M76.2,23.7l-0.1-0.2c0,0,0.1,0,0.1,0c0,0,0,0,0.1,0.1C76.3,23.6,76.3,23.6,76.2,23.7C76.2,23.7,76.2,23.7,76.2,23.7z M64.2,31.5
			h11v0.4H63.8L64.2,31.5z M74.5,23.1l0.8-0.7c0.1,0.1,0.2,0.3,0.3,0.4C75.2,22.9,74.9,23,74.5,23.1z M95.6,26.8v-0.9
			c-0.2,0.1-0.3,0.1-0.5,0c-0.3-0.1-0.4-0.1-0.7-0.1c-0.6,0-1.1,0.4-1.1,1.1c0,0.3,0.1,0.5,0.3,0.7c0.3,0.3,1,0.5,1.3,0.8
			c0.2,0.2,0.3,0.4,0.2,0.7c-0.1,0.2-0.3,0.4-0.6,0.4c-0.4,0-0.8-0.2-1.2-0.5v0.9c0.2-0.1,0.3-0.1,0.5,0c0.3,0.1,0.4,0.1,0.8,0.1
			c0.7,0,1.2-0.5,1.2-1.2c0-0.4-0.1-0.6-0.3-0.9c-0.4-0.4-1.1-0.6-1.3-0.8c-0.2-0.1-0.2-0.4-0.1-0.5s0.2-0.3,0.5-0.2
			C94.8,26.4,95.2,26.5,95.6,26.8z M76.1,29.3v-3c0-0.1,0-0.3,0.1-0.4h-0.8c0,0.1,0.1,0.2,0.1,0.3v3.1c0,0.1,0,0.3-0.1,0.5h2.2
			c0.1-0.2,0.2-0.5,0.2-0.6c-0.2,0.1-0.3,0.1-0.5,0.1L76.1,29.3L76.1,29.3z M80.2,29.3v-3c0-0.1,0-0.3,0.1-0.4h-0.8
			c0,0.1,0.1,0.2,0.1,0.3v3.1c0,0.1,0,0.3-0.1,0.5h2.2c0.1-0.2,0.2-0.5,0.2-0.6c-0.2,0.1-0.3,0.1-0.5,0.1L80.2,29.3L80.2,29.3z
			 M71.7,29.4c-0.4,0-0.7-0.2-0.7-0.6v-2.5c0-0.2,0-0.3,0.1-0.4h-0.8c0,0.1,0.1,0.2,0.1,0.4v2.6c0,0.6,0.5,1.1,1.3,1.1
			c0.9,0,1.4-0.5,1.4-1.1v-2.6c0-0.1,0-0.2,0.1-0.4h-0.8c0.1,0.1,0.1,0.2,0.1,0.4v2.6C72.4,29.3,72.1,29.4,71.7,29.4z M65.9,25.4
			v4.1c0,0.1-0.1,0.3-0.1,0.4h1c-0.1-0.1-0.2-0.3-0.2-0.5v-2h1.2c0.2,0,0.2,0,0.4,0.1c0,0,0,0,0,0l0.3-0.7h-1.8v-1.3H68
			c0.1,0,0.3,0,0.4,0.1c0,0,0,0,0,0l0.3-0.8h-2.9C65.8,25.1,65.9,25.2,65.9,25.4z M91.7,30.4c-0.1,0.1-0.2,0.1-0.4,0.1
			c-0.5-0.1-1-0.4-1.3-1c-0.3-0.4-0.5-0.9-0.6-1.4h-0.4v0.1c0,0,0,1.1,0,1.4c0,0.2,0,0.3,0.1,0.4h-0.9c0.1-0.2,0.1-0.4,0.1-0.5v-3.1
			c0-0.1-0.1-0.2-0.1-0.3h1.7c0.5,0,0.9,0.3,0.9,1c0,0.5-0.2,0.9-0.7,1C90.3,29.1,90.9,30,91.7,30.4z M90,26.9
			c0-0.2-0.1-0.3-0.2-0.4c-0.1-0.1-0.2-0.1-0.4-0.1c-0.2,0-0.6,0-0.6,0v1h0.5c0.2,0,0.3,0,0.5-0.1C90,27.3,90,27.1,90,26.9z
			 M85.5,26.5c0.1,0,0.2,0,0.3,0.1l0.2-0.6h-2.6c0,0.1,0.1,0.2,0.1,0.3v3.1c0,0.1,0,0.3-0.1,0.5h2.3c0,0,0.2-0.4,0.2-0.6
			c-0.2,0.1-0.3,0.1-0.5,0.1h-1.3V28H85c0.1,0,0.2,0,0.3,0.1l0.2-0.6h-1.2v-1L85.5,26.5z M92.3,25.1c0-0.2-0.2-0.4-0.4-0.4
			c-0.2,0-0.4,0.1-0.4,0.3c0,0.1,0.1,0.3,0.2,0.3c0,0.1,0,0.2-0.1,0.3C92,25.8,92.3,25.5,92.3,25.1z M79,13.1c0.1,0,0.1,0,0.2,0
			c0.1,0,0.2,0,0.2,0c0,0-0.1,0.1-0.2,0.1c-0.2,0-0.2,0-0.2,0l0,0c0,0,0.1,0.1,0.3,0.1c0.1,0,0.1,0,0.2-0.1c0,0,0,0,0,0s0,0,0,0.1
			c0,0,0,0.1,0,0.1c0,0,0-0.2,0-0.3c0-0.1,0.1-0.3,0.3-0.4c0,0,0.3,0,0.4-0.2c0,0-0.1,0-0.3,0.1c0,0-0.1,0-0.1,0c0,0,0-0.1,0-0.1
			c0-0.2-0.1-0.5-0.2-0.5c0,0-0.1,0.2-0.1,0.3c0,0,0.1-0.1,0.1-0.1c0-0.1,0-0.1,0-0.1c0,0.1,0,0.4-0.1,0.6c-0.1,0.1-0.2,0.2-0.3,0.2
			c0,0-0.1,0-0.1-0.1c-0.1-0.1,0-0.2,0.1-0.3c0-0.1,0.1-0.2,0.1-0.2c0,0-0.1,0.1-0.2,0.2C79,12.8,79,13,79,13.1c0-0.1-0.2-0.1-0.4,0
			C78.6,13.1,78.8,13.1,79,13.1z M87.1,14.6c0.3-0.2,0.3-0.5,0.3-0.6c0,0,0,0,0,0c0,0.5-0.8,0.6-0.8,0.6l0,0
			C86.7,14.8,87,14.7,87.1,14.6z M79.3,18.1C79.3,18.1,79.3,18.1,79.3,18.1C79.2,18.1,79.2,18.1,79.3,18.1l-0.1,0
			c0,0.1,0.1,0.2,0.1,0.2l0,0c0.1,0,0.2-0.2,0.3-0.5C79.5,17.8,79.4,18,79.3,18.1L79.3,18.1z M85.3,14.7c0.1-0.1,0.4-0.1,0.4-0.1
			c0.1,0,0.2,0,0.3,0c0,0-0.2-0.1-0.4-0.1c-0.2,0-0.4,0-0.5,0.1c-0.2,0.1-0.4,0.4-0.4,0.6s0.2,0.6,0.5,0.7c0.5,0.4,1,0.6,1.1,1
			c0,0.2-0.1,0.4-0.3,0.6c0,0,0.1,0,0.2-0.1c0.1-0.1,0.2-0.3,0.1-0.7c0,0,0.1,0.1,0.1,0.3c0,0,0,0,0,0c0-0.1,0.1-0.4-0.4-0.8
			c-0.4-0.3-0.5-0.5-0.7-0.6c-0.1-0.1-0.2-0.1-0.2-0.2c-0.1-0.1-0.1-0.1-0.1-0.1l0,0c-0.1,0,0.2,0.3,0.3,0.4c0,0-0.4-0.1-0.5-0.5
			c0,0,0-0.1,0-0.2c0,0,0-0.1,0.1-0.1c0,0,0,0,0,0c0.1,0.1,0.1,0.1,0.1,0.1C85,15.3,84.9,14.9,85.3,14.7z M77.3,14.1
			c0-0.4,0.1-0.6,0.4-0.7c0,0,0,0,0,0c0,0,0.2-0.1,0.4-0.1c-0.1,0.1-0.3,0.1-0.3,0.1c0,0,0,0,0,0.1l0,0c0,0-0.3,0-0.3,0.3v0
			c0,0,0,0,0,0.1l0,0c0,0,0.1,0,0.1,0c0,0,0.1,0,0.1,0c0.1,0,0.2-0.1,0.1-0.2c0,0,0.1,0,0.1,0.2c0,0.1,0,0.1,0.1,0.1
			c0.1,0.1,0.1,0.1,0.2,0.1c0,0,0,0,0,0c0.1,0,0.1,0,0.1,0c0,0,0.1,0,0.1,0c0.1,0,0.1,0,0.2,0c0.1,0,0.2,0.1,0.3,0.1
			c0.2,0,0.2,0,0.4-0.2c0,0,0,0.1-0.1,0.1c-0.1,0.1-0.2,0.2-0.6,0.3c-0.1,0-0.3,0-0.4,0c-0.2,0-0.3,0-0.3,0s0.1,0,0.1,0
			c0,0,0.1-0.1-0.2-0.1c0,0-0.1-0.1-0.1-0.1c0,0,0-0.1-0.1-0.1c0,0-0.1,0-0.2,0C77.5,14.1,77.5,14.1,77.3,14.1
			C77.4,14.2,77.3,14.2,77.3,14.1z M78.3,13.3c-0.1,0-0.1,0-0.1,0H78.3c0-0.1,0.1-0.1,0.1-0.1c0.2,0,0.4,0.3,0.4,0.3
			c0.1,0,0.1,0,0.2,0c0.1,0,0.2,0,0.3,0.1c0.1,0.1,0.2,0.1,0.3,0.1s0.1,0,0.1,0c-0.1-0.6,0.6-0.9,0.6-0.9c0.1-0.1,0.2-0.2,0.2-0.3
			c0,0,0-0.1,0-0.1c0,0.1-0.1,0.2-0.1,0.2c0.1-0.1,0.1-0.2,0.1-0.2c0.1,0,0.1,0.3,0.1,0.3c0.1,0.9-0.4,1.3-0.4,1.3
			c0.2,0.1,0.2,0.3,0.2,0.5c0,0.3,0.1,0.4,0.1,0.4c0,0,0,0-0.1,0c-0.1,0-0.1,0-0.1,0c0,0,0.2,0.2,0.1,0.6c0,0.2,0,0.4,0,0.4
			c0,0-0.1,0-0.1,0c-0.1,0-0.1-0.1-0.1-0.1c-0.1,0.4,0.1,0.5,0.1,0.5c0,0,0,0-0.1,0c-0.1,0-0.1,0-0.1,0c0,0.1,0,0.2,0,0.2
			s0,0.1,0.1,0.1c0,0,0,0,0,0c0.1,0,0.2-0.4,0.2-0.9c0-0.2,0.1-0.4,0.1-0.6c0.1-0.5,0.4-1,0.9-1.4c0.4-0.4,0.9-1.1,0.9-1.1
			c0,0.3-0.6,1-1,1.4c-0.4,0.4-0.5,0.7-0.5,0.9c0,0,0,0.1,0,0.1l0,0c0,0,0,0,0-0.1c0.1-0.3,0.2-0.5,0.5-0.7c0.5-0.4,0.8-0.9,1.2-1.4
			c0.3-0.4,0.4-1.1,0.4-1.5c0-0.1,0-0.2,0-0.2c0,0,0,0,0,0h0c-0.2,1-0.5,1.2-0.5,1.2c0.1-0.3,0.4-1.2,0.4-1.3c0-0.1,0.1-0.2,0.1-0.2
			h0c0.2,0.2,0.2,1,0.2,1c0.2-0.2,0.3-0.4,0.3-0.4c0,0,0,0,0,0.1c0.1,0.3-0.1,0.9-0.1,0.9c0.2-0.1,0.2-0.2,0.2-0.2c0,0,0,0,0,0
			c0.1,0.1-0.1,0.9-0.1,0.9c0.5-0.2,1.1-0.6,1.1-0.6c-0.2,0.4-1.1,0.9-1.7,1.1c-0.4,0.2-0.9,0.4-1.1,0.6c-0.2,0.2-0.4,0.5-0.6,0.9
			c-0.2,0.7-0.2,1.2-0.2,1.2s-0.1-0.3-0.1-0.2c-0.1,0.2-0.1,0.4-0.2,0.5c-0.1,0.2-0.2,0.3-0.3,0.3c-0.2,0-0.4-0.3-0.4-0.3
			c0,0.5,0.3,0.7,0.4,0.7c0,0,0,0,0,0c0,0,0,0,0,0c0,0,0,0-0.1,0c-0.1,0-0.2,0-0.3-0.1c-0.4-0.3-0.5-1-0.5-1s-0.1,0.1-0.2,0.2v0
			c0,0,0,0,0,0c0,0,0,0,0,0C79,16.1,79,15.8,79,15.8c0,0-0.3,0.3-0.4,0.3h0c0,0,0,0,0,0c0,0,0,0,0,0c0-0.1,0-0.2,0-0.2
			c-0.2,0.2-0.4,0.4-0.4,0.4h0c0,0-0.1-0.1-0.1-0.1s-0.2,0.4-0.2,0.4c0,0,0,0,0,0c0,0-0.1,0-0.1,0v0c0,0,0,0,0,0l0,0
			c0,0,0.1,0,0.1-0.1l0,0c0,0,0.2-0.4,0.2-0.5c0,0,0,0,0,0s0,0,0,0c0.1,0.2,0.1,0.2,0.1,0.2c0.1-0.1,0.3-0.4,0.4-0.4l0,0l0,0
			c0,0.1,0,0.3,0,0.3c0,0,0,0,0,0s0,0,0,0c0.2-0.1,0.3-0.3,0.4-0.4c0,0,0,0,0,0c0,0,0,0,0,0.1l0,0c-0.1,0.2,0,0.4,0.1,0.4
			c0,0,0.1,0,0.1,0h0c0,0,0.1-0.1,0.3-0.3c0.2-0.2,0.3-0.7,0.2-1.1c-0.1-0.2-0.1-0.3,0-0.4c0,0,0,0,0,0c0,0,0,0,0-0.1
			c0-0.1,0.1-0.1,0.1-0.2c0-0.1,0-0.1-0.1-0.2c0,0-0.1,0-0.1,0c0,0,0,0,0,0s0,0-0.1,0c-0.1,0-0.2-0.1-0.2-0.1c0,0.1-0.1,0.1-0.2,0.1
			c-0.1,0-0.1,0-0.1-0.1c0,0,0,0,0,0c0,0,0,0,0,0c0-0.1,0-0.1,0-0.1c0,0.1,0.1,0.1,0.1,0.1c0,0,0.1,0,0.1,0c0,0,0.1-0.1,0.1-0.1
			c0,0,0-0.1-0.1-0.1c0,0,0,0,0,0c-0.1,0-0.2,0.1-0.2,0.1c0,0,0,0,0,0h0c0,0-0.1-0.2-0.1-0.2C78.6,13.3,78.4,13.3,78.3,13.3z
			 M83.3,12.4c0,0.3-0.2,0.5-0.2,0.5c0.3-0.2,0.4-0.6,0.4-0.7c0,0,0,0,0,0h0C83.4,12.3,83.3,12.4,83.3,12.4z M82.6,13.1L82.6,13.1
			C82.6,13.1,82.6,13.1,82.6,13.1c0.1,0,0.3-0.2,0.3-0.2c0.3-0.5,0.6-1.3,0.5-1.4l0,0c-0.1,0-0.2,0.2-0.2,0.3
			C83,12.5,82.7,12.9,82.6,13.1C82.6,13.1,82.6,13.1,82.6,13.1z M80.2,15.9c0-0.1-0.1-0.2,0-0.4c0,0-0.1-0.1-0.2-0.3c0,0,0,0,0,0
			c0,0,0,0,0,0C79.9,15.3,79.9,15.6,80.2,15.9C80.2,15.9,80.2,15.9,80.2,15.9C80.2,15.9,80.2,15.9,80.2,15.9
			C80.2,15.9,80.2,15.9,80.2,15.9z M80.3,13.2c0,0-0.1,0.1-0.1,0.2c0,0.1,0,0.1,0,0.2c0,0.1,0.1-0.1,0.2-0.2
			c0.1-0.1,0.2-0.3,0.2-0.7c0,0,0-0.1,0-0.1c0,0,0,0,0,0.1C80.4,12.8,80.4,13,80.3,13.2z M80,13.2c0.1-0.1,0.1,0,0.3-0.2
			c0.1-0.2,0.1-0.4,0.1-0.4c0,0.1,0,0.1-0.2,0.3C79.9,13.1,80,13.2,80,13.2z M79.9,14c0,0.1,0.1,0.2,0.1,0.6c0,0.3,0.2,0.6,0.3,0.6
			c0,0,0,0,0,0c0,0,0,0,0-0.1c0-0.1,0-0.3-0.1-0.5C80.2,14.4,80,14.1,79.9,14L79.9,14L79.9,14C79.9,14,79.9,14,79.9,14z M87.8,15.3
			c-0.2,0.4-0.6,0.3-0.6,0.3c-0.5,0-0.7-0.4-0.8-0.4c-0.1-0.1-0.8-0.2-0.9,0.1c-0.1,0.3,0.5,0.6,0.9,0.9c0.7,0.5,0.8,1,0.6,1.6
			c-0.2,0.6-0.9,0.8-1.7,0.7c0,0,0,0.4,0,0.7c0,0.1,0,0.3,0.1,0.4c0.1,0.1,0.3,0.2,0.6,0.3c0.2,0,0.2,0,0.2,0.1c0,0,0,0,0,0.1v0
			c0,0.1,0,0.2,0,0.2c0,0,0.3,0.3,0.4,0.6c0.1,0.2,0.1,0.5,0,0.5h0c0,0,0,0-0.1-0.1c0,0,0,0,0,0c0,0,0,0,0,0.1c0,0.1,0,0.3,0,0.4
			c0,0,0,0-0.1-0.1c0,0,0-0.1-0.1-0.1c0,0,0,0,0,0c0,0,0,0,0,0.1c0,0,0,0.1,0,0.1c0,0.1,0,0.3,0,0.4c0,0-0.1-0.3-0.2-0.2
			c0,0,0,0,0,0.1c0,0,0,0.1,0,0.1c0,0,0,0.1,0,0.1c0,0,0,0,0,0l0.2,0.6c-0.4-0.1-1.3-0.3-1.4-0.3c-0.2,0-0.4-0.1-0.6-0.1
			c0,0,0,0,0,0c-0.1,0.1-0.5,0-0.5,0c0,0-0.1-0.1,0-0.2c0.1-0.2,0.2-0.4,0.3-0.4c0.1,0,0.2,0,0.3,0c0.1,0,0.5,0,0.5,0
			c0,0,0.1,0,0.1,0c0,0,0,0,0,0c0.1,0,0.2,0,0.3-0.2c0.1-0.2,0.2-0.4,0.2-0.6c0,0,0-0.1-0.1-0.1c-0.2-0.1-0.3-0.1-0.5-0.1
			c-0.1,0-0.5,0-0.7-0.1c-0.2-0.1-0.2-0.1-0.3-0.4c0,0-0.1,0.1-0.2,0.1c0,0,0,0,0,0.1c0,0.1,0,0.3-0.1,0.5c0,0,0,0,0,0c0,0,0,0,0,0
			c0-0.1,0-0.1-0.1-0.1c0,0,0,0,0,0c0,0,0,0.1,0,0.1c0,0.1,0,0.4-0.1,0.4c0,0-0.1-0.1-0.2-0.1c0,0,0,0,0,0c0,0,0,0.1,0,0.2
			c0,0.1-0.1,0.2-0.1,0.3c0,0,0,0,0,0c0,0-0.1,0-0.1-0.1c0,0-0.1-0.1-0.1-0.1c0,0,0,0,0,0c0,0-0.1,0.1-0.1,0.1
			c-0.1,0.1-0.1,0.2-0.2,0.2c0,0-0.1-0.1-0.2-0.1c0,0,0,0,0,0c0,0,0,0,0,0.1c0,0.1-0.1,0.2-0.2,0.2c-0.1,0-0.5,0-0.8,0
			c-0.1,0-0.3,0-0.4,0c-0.1,0-0.1-0.1-0.1,0c-0.1,0.1-0.3,0-0.3,0c0,0-0.1,0-0.1-0.1c0,0,0-0.1,0.1-0.3c0.2-0.4,0.5-0.4,0.6-0.4
			c0.2,0,0.6,0.1,0.9-0.1c0.1-0.1,0.6-0.7,0.4-1.1c0,0-0.8-0.3-0.8-0.7c0,0,0,0-0.1,0c-0.1,0-0.1,0-0.2,0c-0.2,0.1-0.6,0.1-0.7,0.1
			h0c0,0-0.1,0.2-0.1,0.4c-0.1,0.2-0.1,0.5-0.1,0.6c0,0,0,0.1,0,0c0,0-0.1,0-0.2-0.4l0,0c0,0-0.1,0-0.1,0.1s-0.1,0.1-0.2,0.2l0,0
			c0,0,0,0,0,0c0,0-0.1,0-0.1-0.1c0,0,0,0,0,0c-0.1,0-0.2,0.5-0.2,0.7l0,0c0,0.1,0,0.1,0,0.2s0.1,0,0.2,0c0,0,0,0,0.1,0
			c0,0,0.1,0,0.1,0c0.1,0,0.1,0,0.2,0c0.1,0,0.1,0,0.2,0.1c0,0,0.3,0.2,0.2,0.6l0,0c-0.1,0-1.7,0.1-2.1,0.1c0,0,0-0.1,0-0.1
			c0,0,0.1-0.1,0.2-0.1c0,0,0,0,0-0.1c0,0,0-0.1-0.1-0.1c0,0,0,0,0,0c-0.1,0-0.2,0.1-0.2,0.2c0,0.1,0,0.2,0,0.2s-0.1,0-0.2,0
			c0-0.1-0.2,0-0.3,0c0,0,0,0,0,0c0,0-0.1,0-0.1,0s-0.1,0-0.1,0c0-0.1-0.1-0.2,0.1-0.4c0,0,0-0.1,0.2-0.2c0,0,0,0,0.1,0
			c0.1,0,0.2,0,0.2,0c0.1,0,0.2,0,0.3,0c0.1,0,0.2,0,0.2,0c0,0,0,0,0,0c-0.1,0-0.2,0.1-0.4,0.1c0,0,0,0-0.1,0c-0.1,0-0.1,0-0.2,0
			c-0.1,0-0.2,0-0.2,0c0,0,0,0,0,0c0,0,0.1,0,0.1,0.1s0.1,0,0.1,0.1c0,0,0.1-0.1,0.3-0.1c0,0,0.1,0,0.1,0c0.1,0,0.2,0,0.2,0.1
			c0,0,0,0,0,0c0,0,0,0,0.1,0c0.1,0,0.3,0,0.4-0.2c0.1-0.2,0.2-0.2,0.2-0.2c0,0,0,0,0,0l0.3-1.1c0,0,0-0.1-0.1-0.1c0,0-0.1,0-0.1,0
			c-0.1,0.1-0.1,0.1-0.2,0.4c0,0,0,0.1-0.1,0.2c-0.1,0.2-0.2,0.6-0.3,0.6c0,0,0-0.2,0.1-0.4s0.2-0.9,0.2-0.9c0,0-0.2,0.1-0.2,0.1h0
			c0,0,0,0,0-0.1c0-0.1,0.1-0.2,0-0.5c-0.1-0.3-0.2-0.4-0.4-0.5c-0.1-0.1-0.2-0.1-0.2-0.2c-0.2,0-0.3,0.1-0.3,0.1s0,0,0,0
			c0,0,0,0,0,0s0,0,0-0.1c0-0.1,0-0.2,0-0.2s0,0,0,0c0,0-0.1,0-0.2,0.1c0,0,0,0,0,0h0c0,0,0-0.1,0-0.1c0,0,0,0,0,0
			c0,0-0.2,0-0.2,0.1c0,0,0,0.1,0.1,0.2c0,0,0,0,0.1,0c0.1,0.1,0.2,0.1,0.2,0.3c0,0.2-0.1,0.2-0.1,0.2c0,0-0.2,0.2-0.3,0.2
			c0,0,0,0-0.1,0c0,0,0.2,0.7,0.2,1.4c0,0.4-0.1,0.8-0.2,1c0,0,0,0-0.1,0c-0.5,0.1-1.2,0.2-1.8,0.4c0,0,0,0,0,0
			c-0.1-0.2-0.4-0.8-0.4-0.8c0,0-0.3-0.6-0.3-1.5c0,0,0-0.6,0.1-0.9c0,0,0,0,0,0c0,0,0.1-0.1,0.4-0.1c0,0,0-0.1,0-0.2
			c0,0,0-0.3,0.3-0.4c0.1,0,0.2,0,0.2,0c0.1,0,0.3,0,0.4,0c0.3,0,0.6-0.1,0.9-0.2c0,0,0,0,0,0c0,0,0,0,0,0s0,0,0,0
			c-0.1,0-0.2-0.1-0.3-0.3c0,0,0,0,0,0l0,0h0c0,0,0,0,0.1,0c0,0,0.4,0,0.5-0.3c0,0,0,0,0,0c0,0-0.1,0-0.1,0c0,0-0.1,0-0.1,0
			c0,0,0,0,0,0c0,0,0,0,0,0l0,0c0-0.1,0.1-0.2,0.1-0.4c0-0.1,0-0.2,0-0.3c0-0.1,0-0.1,0-0.2l0,0c0,0-0.1,0.1-0.2,0.1h0c0,0,0,0,0,0
			c0,0,0,0,0,0c0,0,0.1-0.2,0.1-0.4c0-0.1,0-0.1,0-0.1c0-0.2,0-0.2,0.1-0.4c0,0-0.1,0-0.1,0c0,0,0.2-0.1,0.3-0.4
			c0.1-0.3,0.3-0.4,0.3-0.4c-0.1,0-0.2-0.1-0.2-0.1c0.1-0.1,0.4-0.2,0.6-0.3c0.1,0,0.2,0,0.2-0.1c0.2-0.1,0.2-0.1,0.2-0.1
			c-0.1,0-0.2-0.1-0.2-0.1c0,0-0.1,0.1-0.3,0.1s-0.3-0.3-0.3-0.4v0c0,0,0-0.1,0-0.1c0-0.1,0.1-0.1,0.1-0.1s0.1,0,0.1,0
			c0,0-0.1,0-0.1,0c0,0,0.1,0,0.2,0.1c0.2,0,0.3,0,0.5,0c0.2,0,0.4,0,0.4,0c-0.1,0.1-0.4,0.1-0.5,0.1c0,0-0.1,0-0.1,0
			c0,0-0.1,0-0.1,0c-0.1,0-0.1,0-0.1,0c-0.1,0-0.1,0-0.1,0.1c0,0,0,0.1,0,0.1c0,0,0,0.1,0.1,0.1c0,0,0.1,0,0.2,0s0-0.1,0-0.1
			c0.1,0,0.2,0.1,0.4,0.1c0.1,0,0.1,0,0.2,0c0.1,0,0.2,0,0.2,0c0,0,0.1,0,0.1,0c0,0,0.1,0,0.1,0l0,0c0,0,0.1-0.1,0.1-0.1
			c0.1-0.4,0.2-0.4,0.2-0.4c0,0,0,0.1,0,0.4c0.1,0.5-0.1,0.8-0.2,0.9c0,0,0,0.1,0,0.1s0,0,0,0c0,0,0-0.1,0-0.1
			c0.1-0.2,0-0.5-0.1-0.6c-0.1,0-0.1,0.2-0.1,0.2c0,0,0,0,0-0.1c0-0.1,0-0.1,0-0.1h0c-0.1,0-0.2,0.1-0.4,0.2
			c-0.2,0.1-0.3,0.1-0.5,0.2c-0.1,0-0.1,0-0.1,0c-0.2,0-0.3,0.1-0.3,0.1c0,0,0.2,0.1,0.2,0.1l0,0c0,0,0,0,0,0
			c-0.1,0-0.2,0.1-0.2,0.1c-0.1,0.1-0.2,0.2-0.2,0.4c-0.1,0.1-0.1,0.2-0.1,0.2l0,0c0,0,0,0,0,0c0,0,0.1,0,0.3-0.2c0,0,0,0,0,0
			c0,0,0,0,0,0v0.2c0,0-0.2,0-0.2,0.2c-0.1,0.1-0.1,0.2-0.1,0.3c0,0,0,0.2,0,0.2c0,0,0,0,0,0l0,0c0,0,0,0,0.1,0
			c0.1-0.1,0.1-0.1,0.1-0.2l0,0c0,0,0,0,0,0c0,0.1,0.1,0.2,0.1,0.3h0c0,0,0.1,0,0.5-0.5l0,0c0,0,0,0,0,0c0,0.1,0.1,0.2,0.1,0.4l0,0
			c0,0,0.1,0,0.2-0.2c0.1-0.2,0.2-0.2,0.2-0.3h0h0c0,0,0,0,0,0s0,0,0,0c0,0-0.1,0.1-0.1,0.2c0,0.1-0.2,0.4-0.3,0.5l0,0c0,0,0,0,0,0
			v0c0-0.1,0-0.2,0-0.3c0,0,0,0,0,0c0,0,0,0,0,0c0,0,0,0,0,0c-0.1,0.1-0.4,0.5-0.5,0.6c0,0,0,0,0,0c0,0,0-0.2-0.1-0.3
			c0,0-0.1,0.1,0,0.4c0,0.2,0,0.3,0,0.3c0,0,0,0,0,0c0,0,0,0,0,0c0,0,0,0,0,0c0.1,0,0.2-0.2,0.4-0.4c0,0,0-0.1,0.1-0.1c0,0,0,0,0,0
			c0,0,0.1,0.2,0.1,0.4c0,0,0,0,0,0c0.1,0,0.4-0.4,0.4-0.7c0,0,0,0,0,0c0,0,0.1,0.1,0.1,0.2c0,0,0,0,0,0c0.1,0,0.2-0.2,0.3-0.4l0,0
			c0,0,0,0,0,0c0,0,0,0,0,0c0,0,0-0.1,0-0.2c0,0,0,0,0,0l0,0c0,0,0,0,0,0c0,0,0.1,0.1,0.1,0.1s0.1-0.1,0.1-0.1s0.1-0.1,0.1-0.1
			c0,0,0.1,0.1,0.1,0.1c0,0,0,0,0,0c0,0,0,0,0,0c0,0,0.1-0.1,0.1-0.2c0,0,0,0,0,0.1c0,0.1-0.1,0.2-0.1,0.2c0,0,0,0,0,0c0,0,0,0,0,0
			s-0.1-0.1-0.1-0.1c0,0,0,0,0,0c0,0,0,0,0,0L79,16.8c0,0,0.1,0.3,0.1,0.3h0c0,0,0.3-0.1,0.3-0.4c0,0,0,0.2-0.1,0.4l-0.1,0.1
			c0,0,0.1,0.2,0.1,0.2c0,0,0.2-0.3,0.3-0.4c0,0.2-0.1,0.4-0.2,0.5c0,0,0,0-0.1,0c0,0-0.1-0.1-0.1-0.1c0,0,0,0,0,0c0,0,0,0,0,0
			s0,0,0,0c-0.1,0.1-0.2,0.3-0.3,0.5c0,0,0,0-0.1,0c0,0,0,0,0,0c0,0,0,0,0,0s0,0.2,0.1,0.3c0,0,0,0,0,0c0,0,0,0,0,0
			c0.1-0.1,0.2-0.2,0.3-0.4c0,0,0.1,0.1,0,0.2c0,0-0.2,0.3-0.3,0.4c0,0,0.1,0.2,0.2,0.3h0c0.1,0,0.2-0.4,0.2-0.4c0,0,0.1,0.1,0,0.4
			c0,0,0,0.1-0.1,0.1c-0.1,0.1-0.1,0.2-0.1,0.4c0,0,0,0,0,0c0,0,0.1-0.1,0.2-0.2c0.1-0.1,0.2-0.2,0.3-0.2c0,0,0,0,0,0c0,0,0,0,0,0.1
			c0,0.1-0.1,0.5-0.1,0.7c0,0,0,0,0,0c0.1,0,0.2-0.2,0.3-0.3c0,0,0,0,0,0c0,0-0.1,0.2-0.2,0.3c0,0-0.1,0.1-0.2,0.2c0,0,0,0,0,0
			c0-0.1-0.1-0.2-0.1-0.4c0,0,0,0,0,0c0,0-0.2,0.1-0.2,0.2c0,0,0.1,0.5,0.3,0.6c0,0,0.1,0,0.1,0c0.1,0,0.3-0.2,0.5-0.4
			c0,0,0,0.2,0.1,0.2c0,0,0,0,0,0c0,0,0.1,0,0.1-0.1c0.1-0.2,0.4-1.1,0-1.8c0,0,0,0,0,0c0,0,0,0,0,0c0.1,0.1,0.2,0.2,0.4,0.6
			c0,0,0,0,0,0c0,0,0,0,0-0.1c0,0,0-0.1,0-0.2c0-0.2,0-0.4,0.1-0.5c0.1,0,0.2,0,0.3-0.1c0.2-0.1,0.5-0.1,0.8-0.3
			c0.4-0.2,0.7-0.6,0.7-0.7c0,0,0,0,0,0c0,0,0,0,0,0c0,0-0.3,0.2-0.8,0.4c-0.1,0-0.2,0.1-0.3,0.1c-0.1,0-0.2,0.1-0.2,0.1
			c0,0,0,0,0,0c-0.1,0.1-0.2,0.2-0.3,0.2l0,0c0,0,0.2-0.4,0.3-0.5c0,0-0.4,0.2-0.4,0.2h0c0,0,0,0,0,0c0,0,0.1-0.1,0.2-0.2
			c0.2-0.1,0.3-0.3,0.4-0.4c0,0,0,0,0,0l0,0c0,0,0,0-0.1,0h0c0,0,0,0,0,0c-0.1,0-0.1,0-0.2,0.1h0h0c0,0,0,0,0,0
			c0.2-0.1,0.6-0.4,0.8-0.8c0,0,0,0,0-0.1l0,0c0,0,0,0,0,0c-0.1,0.1-0.3,0.2-0.5,0.2c0,0,0,0,0,0h0c0,0,0,0,0,0
			c0.2-0.2,0.7-0.6,0.8-0.8c0,0,0,0,0-0.1c0,0,0,0,0,0c0,0,0,0,0,0c-0.1,0-0.2,0.1-0.3,0.1h0h0c0,0,0,0,0.1,0
			c0.2-0.1,0.5-0.4,0.6-0.6c0,0,0,0,0,0c0,0,0,0,0,0c0,0-0.1,0-0.1,0c-0.1,0.1-0.3,0.1-0.4,0.1h0h0c0,0,0,0,0.1-0.1
			c0.1-0.1,0.3-0.3,0.5-0.4c0.1-0.1,0.1-0.1,0.1-0.2c0,0,0,0-0.1,0c0,0,0,0-0.1,0c0,0-0.1,0-0.1,0c-0.1,0-0.1,0-0.2,0c0,0,0,0,0,0
			s0,0,0.1,0c0.2,0,0.9-0.2,1.9-1c0.7-0.5,1.2-1.2,1.4-1.7c0,0,0,0,0,0c0,0,0,0,0,0l0,0c0,0,0,0,0,0c-0.1,0.1-0.3,0.3-0.5,0.3
			c0,0,0.5-0.4,0.7-0.8c0,0,0.1-0.1,0.1-0.1c0,0,0,0,0,0c0.1,0.1-0.1,0.7-0.4,1.1c0,0,0.1-0.1,0.3-0.2c0,0,0,0,0.1,0s0,0,0,0
			c0,0.1-0.1,0.6-0.4,1l0,0c0,0,0.1,0,0.1-0.1h0c0,0,0,0,0,0c0,0.1,0,0.4-0.4,0.9l0,0c0,0,0.1-0.1,0.2-0.1l0,0l0,0
			c0,0.1-0.2,0.7-0.7,1.1c0,0,0.2-0.1,0.2-0.1h0c0,0,0,0,0,0s-0.2,0.5-0.7,0.9l0,0c0,0,0.1,0,0.1,0c0,0,0,0,0.1,0c0,0,0,0,0,0
			S84,16,83.8,16.3c0,0,0,0,0.1,0c0,0,0,0,0,0c-0.1,0.3-0.4,0.6-0.4,0.6c0,0,0.1,0,0.3,0c0.1,0,0.3,0,0.4,0c0.5,0.1,0.7,0.3,0.9,0.4
			c0.2,0.1,0.4,0.3,0.7,0.3c0,0-0.1,0-0.2,0c-0.6,0-0.8-0.6-1.5-0.6c0,0,0.1,0.1,0.1,0.1c0,0,0,0,0,0c0,0,0,0,0,0c0,0,0,0-0.1,0
			c-0.1,0-0.1,0-0.2,0c-0.2,0-0.4,0.1-0.7,0.2c-0.6,0.3-0.8,0.3-1,0.3c0,0-0.1,0-0.1,0c-0.2,0-0.8,0.1-0.9,0.4c0,0.1,0,0.1,0,0.2
			c0,0,0,0,0.3,0c0.1,0,0.2,0,0.2,0c0.2,0,0.5-0.1,0.8-0.2c0.3-0.1,0.6-0.1,0.8-0.1c0,0,0,0,0,0c0.3,0,0.5,0.1,0.7,0.3
			c0.2,0.2,0.2,0.4,0.2,0.6c0,0,0,0.1,0,0.1c0,0.1,0,0.1,0,0.1c0,0-0.1-0.9-0.9-0.8c-0.2,0-0.3,0.1-0.4,0.1c0,0,0.7,0,0.9,0.5
			c0.1,0.1,0.1,0.3,0.1,0.5c0,0.2,0,0.5,0.2,0.7h0h0c0,0,0,0,0,0c0-0.1-0.1-0.4,0-0.6c0,0,0,0,0,0c0,0,0,0,0,0
			c0,0.1,0.1,0.2,0.1,0.3c0,0,0,0,0,0.1c0,0.1,0.1,0.2,0.3,0.2c0.1,0,0.2,0.1,0.3,0.1c0.1,0,0.1,0,0.1,0c0,0,0,0,0.1,0
			c0,0,0.1,0,0.1,0c0,0,0,0,0,0c-0.1-0.1-0.1-0.1-0.1-0.1c0,0,0,0,0,0c0,0,0,0,0,0c0.1,0,0.6,0.2,0.8,0.5v0l0,0c0,0,0,0,0,0
			c-0.1,0-0.2,0-0.3-0.1c0,0,0,0-0.1,0c0,0,0,0-0.1,0c0,0,0,0,0.1,0.1c0.1,0,0.1,0.1,0.1,0.3c0,0.1-0.1,0.3-0.3,0.5c0,0,0,0,0,0
			s0,0,0,0c0,0,0,0,0.1,0c0,0,0,0,0,0c0,0,0,0,0,0c-0.1,0.1-0.4,0.1-0.6,0.1c-0.1,0-0.1,0-0.2,0c-0.1,0-0.1,0-0.2,0
			c-0.1,0-0.2-0.1-0.3-0.1c-0.2,0-0.3,0-0.4,0.1c-0.1,0.1,0,0.2,0.1,0.2c0.1,0,0.1,0,0.2-0.1c0,0,0.2-0.2,0.3-0.2c0,0,0,0,0,0
			s0,0,0,0c0,0,0,0,0,0c0,0,0,0,0,0c0,0-0.1,0.1-0.1,0.2c0,0,0,0,0,0c0.2,0.1,0.5,0,0.7,0c0.1,0,0.2,0.1,0.3,0
			c0.2,0,0.1-0.2,0.3-0.4c0,0,0,0,0,0c0.3-0.2,0.4-0.5,0.5-0.7c0,0,0,0.1,0,0.1v0c0,0,0,0,0,0c0,0,0.1-0.2,0.1-0.4
			c0-0.3-0.4-0.5-0.7-0.8c-0.1-0.1-0.2-0.2-0.3-0.3l0,0c-0.2-0.2-0.3-0.4-0.3-1.1c0-0.7-0.4-1.2-0.7-1.3h0c0.1,0,0.8,0,1,0.8l0,0
			c0,0,0,0,0,0c0,0,0-0.1,0-0.3c0,0,0.2,0.1,0.6,0.1c0.2,0,0.3,0,0.5-0.1c0.2-0.1,0.4-0.4,0.5-0.7c0-0.2,0-0.5-0.3-0.9
			c-0.2-0.3-0.4-0.5-0.7-0.6c-0.3-0.2-0.5-0.4-0.5-0.7c0.1-0.4,0.4-0.4,0.6-0.4c0.1,0,0.2,0,0.4,0.1c0.2,0,0.4,0.1,0.6,0.1
			c0.3,0,0.5-0.1,0.6-0.3c0.2-0.4,0.1-0.5,0.1-0.6c0,0,0,0,0,0c0,0,0.2,0.2,0.2,0.4c0,0,0,0.1,0,0.2c0,0,0,0,0,0l0,0
			c0,0,0.1,0,0.1,0c0,0,0,0,0,0c0,0.1-0.2,0.2-0.4,0.3c0,0,0.6-0.1,0.6-0.6c0,0,0,0,0,0C87.9,14.4,88.1,14.9,87.8,15.3z M83.9,15.9
			C83.9,15.9,83.9,15.9,83.9,15.9c0,0-0.1,0-0.1,0.1c-0.3,0.2-0.7,0.4-0.7,0.4c0,0-0.1,0.1-0.1,0.2c-0.1,0.1-0.2,0.2-0.1,0.2l0,0
			l0,0c0.1,0,0.4-0.2,0.6-0.4C83.7,16.2,83.9,15.9,83.9,15.9z M84.4,15.1C84.4,15.1,84.4,15.1,84.4,15.1
			C84.4,15.1,84.3,15.1,84.4,15.1c-0.4,0.2-0.9,0.5-0.9,0.5c0,0.1-0.1,0.2-0.2,0.3c0,0.1-0.1,0.1-0.1,0.1l0,0h0
			c0.1,0,0.4-0.2,0.7-0.4C84.1,15.4,84.3,15.2,84.4,15.1C84.4,15.1,84.4,15.1,84.4,15.1z M85,14.1L85,14.1
			C84.9,14.1,84.9,14.1,85,14.1c-0.1,0.1-0.3,0.2-0.5,0.3c-0.2,0.1-0.4,0.3-0.5,0.4c-0.1,0.1-0.2,0.1-0.2,0.1c0,0-0.3,0.4-0.2,0.4
			c0,0,0,0,0,0C83.6,15.4,84.6,14.8,85,14.1C85,14.1,85,14.1,85,14.1z M85.3,13.2C85.3,13.2,85.3,13.2,85.3,13.2
			C85.3,13.2,85.3,13.2,85.3,13.2c-0.6,0.6-1,0.8-1.2,0.9c-0.1,0-0.1,0.1-0.1,0.1c0,0-0.1,0.1-0.1,0.2c0,0,0,0.1,0,0.1
			c0,0,0,0.1,0,0.1c0,0.1-0.1,0.1,0,0.1l0,0c0,0,0,0,0,0C84.5,14.3,85,13.8,85.3,13.2C85.3,13.2,85.3,13.2,85.3,13.2z M83.9,13.9
			C83.9,14,83.9,14,83.9,13.9L83.9,13.9C83.9,14,83.9,14,83.9,13.9c0.3-0.1,1.2-0.6,1.6-1.7c0,0,0,0,0,0c0,0,0,0,0,0c0,0,0,0,0,0
			c-0.1,0.1-0.2,0.1-0.3,0.2c0,0-0.3,0.5-1,1C84.2,13.4,84.2,13.7,83.9,13.9z M82.7,14.5C82.7,14.5,82.7,14.6,82.7,14.5
			c0,0,0.1,0,0.2,0c0.5-0.2,0.8-0.5,1.1-0.8c0,0,0.1-0.1,0-0.1c0,0,0,0,0,0c0,0-0.1,0-0.1,0c-0.2,0.1-0.7,0.4-1,0.6
			C82.9,14.2,82.8,14.4,82.7,14.5C82.7,14.5,82.7,14.5,82.7,14.5z M82.5,15.2C82.5,15.2,82.5,15.2,82.5,15.2c0.1,0,0.2,0,0.3-0.1
			c0.5-0.3,0.7-0.5,1-0.9c0,0,0.1-0.1,0-0.1c0,0,0,0,0,0c0,0-0.1,0-0.1,0.1c-0.1,0.1-0.6,0.4-1,0.6C82.7,14.7,82.7,15,82.5,15.2
			C82.5,15.2,82.4,15.2,82.5,15.2z M82.2,15.9C82.2,15.9,82.2,15.9,82.2,15.9c0.2,0,0.6-0.1,1-0.4c0.3-0.2,0.4-0.4,0.5-0.6
			c0-0.1,0.1-0.1,0.1-0.2l0,0c0,0-0.1,0-0.1,0.1c-0.1,0.1-0.5,0.5-1.1,0.7c0,0.1-0.2,0.3-0.2,0.4C82.2,15.8,82.2,15.8,82.2,15.9
			C82.2,15.9,82.2,15.9,82.2,15.9z M81.8,16.6C81.8,16.6,81.8,16.6,81.8,16.6C81.9,16.6,81.9,16.6,81.8,16.6
			c0.6-0.2,0.9-0.4,1.2-0.7c0.2-0.2,0.2-0.3,0.2-0.3c0,0,0,0,0,0l0,0c-0.3,0.2-0.9,0.5-1,0.5c-0.1,0-0.2,0.3-0.2,0.3
			S81.9,16.4,81.8,16.6C81.8,16.5,81.8,16.6,81.8,16.6z M83,16.2C83,16.2,83,16.2,83,16.2C83,16.2,83,16.2,83,16.2
			c0-0.1-0.1,0-0.1,0c-0.3,0.2-0.8,0.4-1,0.5c-0.2,0-0.3,0.4-0.3,0.4c0,0,0,0.1,0,0.1c0,0,0,0,0,0c0,0,0.1,0,0.1,0
			C81.8,17.1,82.7,16.8,83,16.2z M82.3,17.5C82.3,17.6,82.3,17.6,82.3,17.5c0.1,0,0.3-0.1,0.5-0.2c0.3-0.2,0.8-0.8,0.8-0.9
			c0,0,0,0,0,0s0,0,0,0c-0.2,0.1-0.7,0.4-0.7,0.4C82.7,17.1,82.4,17.4,82.3,17.5C82.3,17.5,82.3,17.5,82.3,17.5z M77.2,18.5
			C77.2,18.5,77.2,18.5,77.2,18.5c0.2,0,0.2-0.2,0.3-0.2c-0.2,0.1-0.3,0.1-0.4,0.1c0,0,0,0,0,0l0,0C77,18.4,77.1,18.5,77.2,18.5z
			 M75,19.9L75,19.9C75,19.9,75,19.9,75,19.9C75,19.9,75,19.9,75,19.9c0.1,0,0.1,0,0.1,0c0,0,0-0.1,0-0.1l0-0.3c0,0,0,0,0,0l0,0
			C75,19.6,75,19.8,75,19.9z M74.9,20.1c0,0,0.2,0,0.2,0c0,0,0,0,0,0c0,0,0,0.1,0,0.1c0,0,0,0,0,0s0,0,0,0l0,0h0
			c0,0,0.3-0.1,0.9-0.2c0.5-0.1,1-0.2,1.1-0.2c0,0,0,0,0,0c0,0-0.1,0-0.1-0.1h0c0,0-0.2,0-0.2,0c0,0,0-0.1-0.1-0.1c0,0,0,0-0.1,0
			c-0.2,0-0.5,0-0.7,0.1h0l0,0c0,0,0,0,0,0s0,0,0.2-0.1c0,0,0.1,0,0.1,0v0c0,0,0-0.1-0.1-0.2c0-0.1,0-0.1,0-0.1c0,0,0,0-0.1,0
			c0,0,0,0,0,0c0,0-0.3,0-0.3,0c0,0,0,0.1,0,0.1s0,0.1-0.1,0.1l0,0c-0.1,0-0.1-0.1-0.1-0.1l0-0.1c0,0-0.1,0-0.2,0c0,0,0,0,0,0h0
			c0,0-0.1,0-0.1,0.1c0,0-0.1,0.1-0.1,0.1c0,0,0,0,0,0h0c0,0,0,0,0,0c0,0,0,0,0,0c0,0,0,0.1,0,0.3c0,0,0,0,0,0c0,0,0,0,0,0
			c0.2,0,0.3,0,0.3,0c0.1,0,0.1,0,0.1,0s0,0,0,0C75.4,19.9,75,20,74.9,20.1L74.9,20.1C74.9,20.1,74.9,20.1,74.9,20.1L74.9,20.1
			L74.9,20.1C74.9,20.1,74.9,20.1,74.9,20.1C74.9,20.1,74.9,20.1,74.9,20.1z M76.7,19.4L76.7,19.4L76.7,19.4
			C76.7,19.5,76.8,19.5,76.7,19.4c0.1,0.1,0.1,0.1,0.1,0.1c0,0,0,0,0,0c0,0,0,0,0-0.1c0,0,0,0,0,0c0-0.1-0.1-0.2-0.1-0.2
			c0,0,0,0,0,0c0,0-0.1,0-0.1,0c0,0,0,0,0,0s0.1,0.2,0.1,0.3c0,0,0,0,0,0l0,0c0,0,0,0,0,0c0,0,0,0,0,0
			C76.7,19.5,76.7,19.4,76.7,19.4z M76.4,21.4C76.4,21.4,76.4,21.5,76.4,21.4c0.1,0.1,0.2,0.1,0.2,0c0.1,0,0.2-0.1,0.2-0.1
			c0.1,0,0.1,0,0.1-0.1c0-0.1-0.1-0.9-0.2-1.1c0,0,0,0-0.1,0l0,0c-0.1,0-0.4,0-0.5,0.1c0,0,0,0,0,0c0,0,0,0,0,0L76.4,21.4z
			 M76.1,21.4c0,0-0.2-0.9-0.2-1.1c0,0,0,0,0,0h0h0c-0.1,0-0.3,0-0.5,0.1c0,0,0,0,0,0c0,0,0,0,0,0l0,0c0,0,0,0.3,0.1,0.7
			c0.1,0.4,0.4,0.4,0.5,0.4c0,0,0,0,0.1,0c0,0,0.1,0,0.1,0C76.2,21.5,76.1,21.4,76.1,21.4z M77.1,21.2c0,0.1,0,0.1,0,0.1
			c0,0,0,0,0.1,0c0.1,0,0.1,0,0.2-0.1c0,0,0-0.1,0-0.1c0-0.3-0.1-0.9-0.2-1.1c0,0-0.1,0-0.1,0c0,0,0,0-0.1,0c-0.1,0-0.1,0-0.1,0
			c0,0,0,0,0,0C77,20.6,77.1,21,77.1,21.2z M75.3,21.3C75.3,21.3,75.3,21.3,75.3,21.3c0,0-0.1-0.5-0.2-0.9l0,0c-0.1,0-0.1,0-0.1,0.1
			c0,0,0.1,0.4,0.1,0.6C75.2,21.3,75.3,21.3,75.3,21.3z M75.7,22.3c0,0,0-0.1-0.1-0.1l0,0c0,0-0.2,0-0.2,0c0,0,0,0,0,0
			C75.5,22.3,75.5,22.3,75.7,22.3C75.6,22.3,75.7,22.3,75.7,22.3z M76.3,22.2c0,0,0-0.1,0-0.2l0,0c-0.1,0-0.5,0.1-0.5,0.1
			c0,0,0.1,0.1,0.1,0.1C75.8,22.3,76.2,22.3,76.3,22.2C76.3,22.3,76.3,22.2,76.3,22.2z M77,21.9C77,21.9,77,21.9,77,21.9L77,21.9
			c-0.1,0-0.5,0.1-0.5,0.1s0,0.2,0,0.2c0,0,0,0,0.1,0c0,0,0.3-0.1,0.4-0.1C77,22,77,22,77,21.9z M77.4,21.9
			C77.4,21.9,77.4,21.9,77.4,21.9C77.4,21.9,77.4,21.9,77.4,21.9C77.3,21.9,77.3,21.9,77.4,21.9c-0.1,0-0.2,0-0.2,0c0,0,0,0,0,0
			c0,0,0,0.1,0,0.1C77.2,22,77.4,22,77.4,21.9C77.4,21.9,77.4,21.9,77.4,21.9C77.4,21.9,77.4,21.9,77.4,21.9z M77.3,21.6
			c-1,0.1-1.9,0.4-2,0.4c-0.1,0-0.1,0-0.1,0c0,0,0,0,0,0c0,0,0.7-0.1,1-0.2c0.2,0,1.1-0.2,1.1-0.3C77.4,21.5,77.3,21.6,77.3,21.6z
			 M77.3,19.7C77.3,19.7,77.3,19.7,77.3,19.7c-0.1,0,0,0.1,0,0.2c0,0,0,0,0,0c0.1,0,0.2-0.1,0.2-0.2C77.5,19.7,77.4,19.7,77.3,19.7z
			 M77.6,18.8l-0.2-0.1c0,0-0.4,0.2-0.9,0.2c-0.1,0-0.3,0-0.4,0c-0.8-0.1-0.7,0.3-0.7,0.3c0,0-0.1,0.1,0,0.2h0
			c0.1,0,0.1-0.2,0.1-0.2l0,0c0,0,0.2,0,0.2-0.2c0,0,0,0-0.1,0h0l0,0c0,0,0,0,0,0s0,0,0,0c0,0,0,0,0.1,0c0.1,0,0.2,0,0.3,0.1
			c0,0,0.3-0.1,0.6-0.1c0.2,0,0.4,0.1,0.5,0.2c0.1,0.1,0.3,0.3,0.4,0.3c0,0,0,0,0,0c0,0,0,0,0-0.1c0,0,0-0.1-0.2-0.2
			s-0.2-0.2-0.2-0.2c0,0,0-0.1,0.1-0.1C77.3,18.9,77.6,18.8,77.6,18.8z M78,17.9L78,17.9C78,17.9,77.9,17.9,78,17.9
			c0,0-0.1-0.1-0.1-0.1c0,0,0,0-0.1,0c0,0-0.2,0.1-0.3,0.2c0,0,0,0.2,0.2,0.3C77.8,18.3,78,18,78,17.9z M78.2,18.6
			c-0.1,0-0.2-0.2-0.2-0.3c0,0,0,0,0,0c0,0,0,0,0,0.1c0,0,0,0.1,0,0.1c0,0.1,0.1,0.2,0.2,0.2C78.1,18.8,78.2,18.6,78.2,18.6z
			 M78.6,17.8c-0.1-0.1-0.1-0.3-0.1-0.3l0,0c0,0,0,0,0,0c0,0,0,0,0,0c0.1,0.1,0.1,0.1,0.2,0.1c0.1,0,0.3-0.3,0.3-0.4l-0.1-0.2
			c0,0,0,0,0,0s0,0,0,0c0,0.1-0.2,0.2-0.2,0.3c0,0,0,0,0,0s0,0,0,0c0,0,0,0,0,0c0,0,0-0.1-0.1-0.1c0,0,0,0,0,0c0,0,0,0,0,0
			c0,0.1-0.2,0.5-0.4,0.7c0,0,0.1,0.4,0.2,0.4C78.3,18.3,78.6,18,78.6,17.8z M78.8,18.5l-0.2-0.3l0,0l-0.2,0.3c0,0,0.1,0.2,0.2,0.4
			C78.6,18.9,78.8,18.5,78.8,18.5z M79,18.9l-0.2-0.2c0,0,0,0.1,0,0.2s0.1,0.2,0.1,0.2C79,19,79,18.9,79,18.9z M77.9,22
			C77.9,22,77.8,22,77.9,22c-0.1,0-0.1,0-0.1,0c-0.1,0.1-0.2,0.2-0.2,0.3c0,0,0,0,0,0c0,0,0,0,0,0c0.1-0.1,0.2-0.1,0.2-0.1
			C77.9,22.1,77.9,22,77.9,22z M80.1,21.9C80.1,21.9,80.1,22,80.1,21.9c0,0,0.1,0,0.1,0c0.1,0,0.1,0,0.1,0c0,0,0-0.1-0.1-0.2l0,0
			C80.2,21.8,80.1,21.9,80.1,21.9z M79.6,21.9c0,0,0.1,0,0.2,0c0.1,0,0.1,0,0.2,0s0.1-0.1,0.1-0.2c0,0,0,0,0,0
			C79.9,21.7,79.6,21.9,79.6,21.9C79.6,21.9,79.6,21.9,79.6,21.9z M82.2,18.9c0,0-0.3,0-0.4,0c-0.3,0-0.6,0-0.6,0
			c0,0.1,0.1,0.2,0.2,0.2c0,0,0.1,0,0.1,0C81.7,19.1,81.9,19,82.2,18.9z M83.4,20.5c0-0.3-0.2-0.8-0.3-0.9c-0.1-0.1-0.2-0.1-0.3-0.1
			c-0.1,0-0.1,0-0.2,0c-0.1,0.1-0.1,0.1-0.2,0.1c0,0-0.1,0-0.2,0.1c-0.1,0-0.1,0.1-0.1,0.1c0,0.1,0.1,0.2,0.3,0.3
			c0.4,0.2,0.4,0.3,0.4,0.5l0,0c0,0.2,0,0.2-0.1,0.2c0,0,0,0,0-0.1c0-0.1,0-0.2-0.1-0.2c0,0-0.1,0.1-0.1,0.2
			c-0.1,0.3-0.4,0.6-0.8,0.7c-0.1,0-0.2,0.1-0.3,0.1c-0.1,0-0.2,0-0.3,0c-0.1,0-0.1,0-0.2,0c0,0,0,0,0,0c-0.2,0-0.4,0.3-0.4,0.3
			c0,0,0,0.1,0.1,0.1c0,0,0.1,0,0.1,0c0-0.2,0.3-0.3,0.4-0.3c0,0,0,0,0,0c0,0,0,0,0,0c-0.1,0-0.2,0.1-0.2,0.2C81,22,81.1,22,81.7,22
			c0.1,0,0.3,0,0.4,0c0.1,0,0.1-0.2,0.2-0.2c0,0,0.1-0.1,0.1-0.1c0,0,0,0,0,0c0.1,0,0.1,0,0.1,0.1c0,0,0,0,0,0s0,0,0,0
			c0.1,0,0.2-0.2,0.2-0.3c0,0,0,0,0-0.1h0c0,0-0.1,0-0.1,0c0,0-0.1,0-0.1,0h0c0,0,0,0,0,0c0-0.1,0.2-0.2,0.3-0.3
			c0.1,0,0.1-0.1,0.1-0.1c0.1-0.1,0.2-0.5,0.1-0.9c0,0,0,0,0,0l0,0c0,0,0,0,0,0c0.1,0.1,0.2,0.3,0.2,0.5c0,0,0,0,0,0s0,0,0,0
			s0,0,0,0c0,0,0,0,0.1-0.1C83.4,20.7,83.4,20.6,83.4,20.5z M86.2,20.5c0,0,0.2,0.4,0.2,0.5c0,0,0,0.1,0.1,0.1c0,0,0,0,0,0s0,0,0,0
			C86.4,20.7,86.3,20.6,86.2,20.5L86.2,20.5z M85.2,19.6C85.2,19.6,85.2,19.6,85.2,19.6C85.2,19.6,85.2,19.6,85.2,19.6
			C85.2,19.6,85.2,19.6,85.2,19.6c0,0.1,0.1,0.2,0.3,0.4c0.2,0.1,0.3,0.2,0.4,0.2h0c0,0,0,0,0,0v0l-0.1-0.1c0,0,0,0,0,0
			c0,0,0.1,0,0.1-0.1v0c0,0,0,0-0.1,0C85.8,20,85.5,20,85.2,19.6z M87.8,14.9C87.8,14.8,87.8,14.8,87.8,14.9L87.8,14.9
			c-0.1-0.1-0.2,0-0.2,0c0,0-0.1,0.1-0.1,0.1c-0.1,0.1-0.1,0.1-0.2,0.1c-0.1,0.1-0.1,0.1-0.1,0.1c0,0,0,0,0,0c0,0,0.1,0,0.1,0
			c0.1,0,0.3-0.1,0.4-0.2C87.8,15,87.8,14.9,87.8,14.9z"/>
	</g>
</g>
</svg>
