<?xml version="1.0" encoding="utf-8"?>
<!-- Generator: Adobe Illustrator 25.1.0, SVG Export Plug-In . SVG Version: 6.00 Build 0)  -->
<svg version="1.1" id="Layer_1" xmlns="http://www.w3.org/2000/svg" xmlns:xlink="http://www.w3.org/1999/xlink" x="0px" y="0px"
	 viewBox="0 0 161.6 97.6" style="enable-background:new 0 0 161.6 97.6;" xml:space="preserve">
<style type="text/css">
	.st0{fill:#062256;fill-opacity:0;}
	.st1{fill:#062256;}
	.st2{opacity:0;}
</style>
<g>
	<path class="st0" d="M21.7-2.8V98.4h118.2V-2.8L21.7-2.8z"/>
	<path class="st0" d="M32.8,8.3v78.9h95.9V8.3L32.8,8.3z"/>
	<path class="st0" d="M44,19.5v56.5l73.6-0.1V19.5L44,19.5z"/>
	<path class="st1" d="M73.9,76.1v-2h-5v-2h5v-1.7h-5.5v-2h2.8l-0.4-1.9h-1.6v-2H74V63h2v1.4h4.7v2h-1.6l-0.4,1.9h2.8v2H76v1.7h5v2
		h-5v2L73.9,76.1L73.9,76.1z M76.5,68.3l0.4-1.9H73l0.4,1.9H76.5z"/>
	<g>
		<g>
			<path class="st1" d="M79.6,19.4c-0.1,0.1-0.1,0.1-0.2,0.1c-0.1,0-0.2,0-0.2,0c-0.1,0-0.2-0.1-0.4-0.1c-0.2,0-0.5,0.1-0.6,0.2
				c-0.1,0.1-0.2,0.2-0.2,0.4c0,0.2,0.1,0.4,0.3,0.5c0,0,0.1,0.1,0.2,0.1c0.1,0.1,0.2,0.2,0.2,0.2c0.2,0.2,0.2,0.3,0.2,0.4v0
				c0,0.1,0,0.1-0.1,0.2c-0.1,0.1-0.2,0.1-0.4,0.1c-0.4,0-0.6-0.2-0.6-0.7h-0.1l-0.2,0.8h0.1c0.1-0.1,0.2-0.1,0.2-0.1
				c0.1,0,0.1,0,0.2,0c0.1,0,0.3,0.1,0.5,0.1c0.5,0,0.9-0.3,0.9-0.7c0-0.2-0.1-0.3-0.3-0.5c0,0-0.1-0.1-0.2-0.2
				c-0.1-0.1-0.2-0.1-0.2-0.2c-0.2-0.1-0.2-0.2-0.2-0.3c0-0.2,0.2-0.3,0.4-0.3c0.3,0,0.5,0.2,0.6,0.6h0.1L79.6,19.4L79.6,19.4
				L79.6,19.4z"/>
			<path class="st1" d="M81.7,19.5L81.7,19.5c0.2,0.1,0.3,0.2,0.2,0.4l0,0l0,0.1l-0.3,1c-0.1,0.4-0.4,0.5-0.7,0.5
				c-0.1,0-0.2,0-0.3-0.1c-0.1-0.1-0.1-0.1-0.1-0.2c0-0.1,0-0.2,0.1-0.4l0.3-1c0.1-0.3,0.2-0.3,0.4-0.4l0-0.1h-1.2l0,0.1
				c0.1,0,0.2,0,0.2,0.1l0,0.1l0,0l0,0.1l-0.3,1c0,0.1-0.1,0.2-0.1,0.3c0,0.1,0.1,0.2,0.1,0.3c0.2,0.1,0.4,0.2,0.7,0.2
				c0.3,0,0.6-0.1,0.7-0.2c0.2-0.1,0.3-0.3,0.3-0.6l0.3-1.1c0.1-0.3,0.2-0.3,0.4-0.4l0,0C82.6,19.5,81.7,19.5,81.7,19.5z"/>
			<path class="st1" d="M83.9,20.3c-0.1,0.1-0.2,0.2-0.4,0.2c-0.1,0-0.1,0-0.2,0h0v0l0.3-0.9v0h0c0.1,0,0.2,0,0.3,0.1
				c0.1,0,0.1,0.1,0.1,0.2C84,20,84,20.2,83.9,20.3 M84.4,19.6c-0.1-0.1-0.3-0.2-0.5-0.2h-1.2l0,0.1c0.2,0,0.3,0.1,0.3,0.2
				c0,0,0,0,0,0.1l-0.4,1.4c-0.1,0.2-0.1,0.4-0.3,0.4l0,0h1.1l0,0c-0.2-0.1-0.3-0.2-0.3-0.3c0,0,0-0.1,0-0.2l0.2-0.6v0h0
				c0.1,0,0.2,0,0.3,0c0.6,0,1-0.4,1-0.7C84.6,19.9,84.5,19.7,84.4,19.6"/>
			<path class="st1" d="M84.9,19.5L84.9,19.5c0.1,0.1,0.2,0.1,0.2,0.1l0,0.1l0,0.2l-0.5,1.5c-0.1,0.2-0.1,0.3-0.3,0.3v0h1.9l0.2-0.5
				l-0.1,0c-0.4,0.4-0.7,0.4-1,0.4c-0.1,0-0.2,0-0.2-0.1l0-0.1l0-0.1l0,0l0.2-0.7v0h0.3c0.1,0,0.2,0,0.3,0.1
				c0.1,0.1,0.1,0.1,0.1,0.2h0l0.2-0.8h0c-0.2,0.3-0.3,0.3-0.6,0.3h-0.2l0,0l0.3-0.9v0H86c0.3,0,0.6,0.1,0.6,0.4h0l0.2-0.5
				C86.8,19.5,84.9,19.5,84.9,19.5z"/>
			<path class="st1" d="M88,20.5l-0.1,0h0v0l0.3-0.8v0h0l0.1,0c0.1,0,0.2,0,0.2,0.1c0.1,0,0.1,0.1,0.1,0.2
				C88.5,20.3,88.2,20.5,88,20.5 M88.7,21.4L88.7,21.4l-0.3-0.8l0,0h0c0.4-0.1,0.7-0.4,0.7-0.6c0-0.1,0-0.2-0.1-0.3
				c-0.1-0.1-0.3-0.2-0.5-0.2h-1.1l0,0.1c0.1,0,0.2,0,0.2,0.1l0,0.1c0,0,0,0.1,0,0.1l-0.5,1.4l0,0c-0.1,0.2-0.2,0.4-0.4,0.4l0,0h1.1
				l0,0c-0.2,0-0.2-0.1-0.2-0.3l0-0.2l0.2-0.6v0h0.1v0l0.4,1.1h0.7l0,0C88.8,21.7,88.8,21.6,88.7,21.4"/>
			<path class="st1" d="M76.5,27.9c-0.3,0.3-0.8,0.5-1.4,0.5c-0.4,0-0.5-0.1-0.5-0.2c0-0.1,0-0.2,0.1-0.3l1.4-4.3v0h0
				c0.4,0,0.8,0.1,1.1,0.4c0.3,0.3,0.5,0.8,0.5,1.2C77.6,26.2,77.2,27.2,76.5,27.9 M78.5,23.9c-0.5-0.5-1.2-0.8-2.1-0.8H74l-0.1,0.2
				c0.3,0,0.5,0.1,0.6,0.2c0.1,0.1,0.1,0.2,0,0.3l0,0c0,0.1,0,0.2-0.1,0.3l-1.2,3.6c-0.2,0.5-0.3,0.6-0.8,0.7l-0.1,0.2H75
				c0.8,0,1.4-0.1,1.8-0.3c0.5-0.2,0.8-0.5,1.2-0.8c0.3-0.3,0.6-0.7,0.8-1.1c0.1-0.3,0.2-0.7,0.2-1.1C79.1,24.9,78.9,24.3,78.5,23.9
				"/>
			<path class="st1" d="M84.1,25.4c-0.3,0.3-0.7,0.4-1,0.4h0c-0.1,0-0.1,0-0.2,0h0l0,0l0.7-2.1v0h0h0c0,0,0.1,0,0.1,0
				c0.3,0,0.5,0.1,0.7,0.2c0.1,0.1,0.2,0.4,0.2,0.6C84.5,24.9,84.3,25.2,84.1,25.4 M85,27.9l-0.7-1.8v0h0c1.1-0.2,1.7-0.8,1.7-1.6
				c0-0.3-0.1-0.6-0.3-0.8c-0.3-0.3-0.7-0.4-1.3-0.4h-2.9l-0.1,0.2c0.3,0,0.5,0.1,0.6,0.2c0.1,0.1,0.1,0.2,0.1,0.3
				c0,0.1-0.1,0.2-0.1,0.4l-1.2,3.5v0c-0.2,0.5-0.2,0.6-0.8,0.7l-0.1,0.2h2.8l0.1-0.2c-0.3,0-0.6-0.1-0.6-0.2c-0.1-0.1,0-0.3,0-0.5
				c0-0.1,0-0.1,0.1-0.2l0.5-1.5v0h0l0.3,0h0v0l0.9,2.6h1.8l0.1-0.2C85.2,28.5,85.1,28.3,85,27.9"/>
			<path class="st1" d="M91.9,23.2l-0.1,0.2c0.2,0,0.6,0.1,0.6,0.4c0,0.1-0.1,0.3-0.3,0.5l-1.5,1.6l0,0l0,0l-0.5-1.6
				c-0.1-0.2-0.1-0.3-0.1-0.4c0-0.4,0.3-0.4,0.7-0.4l0.1-0.2h-2.8l-0.1,0.2c0.5,0.1,0.6,0.2,0.9,0.8l0.7,2l0,0l0,0L89,27.8
				c-0.2,0.6-0.4,0.7-1,0.7l-0.1,0.2H91l0.1-0.2c-0.5,0-0.7-0.1-0.7-0.4c0-0.1,0-0.2,0.1-0.3l0-0.1l0.4-1.5l0,0l0,0l2.2-2.4
				c0.3-0.3,0.6-0.5,0.9-0.5l0.1-0.2L91.9,23.2L91.9,23.2z"/>
			<path class="st1" d="M95.5,23c-0.3,0-0.5,0.2-0.7,0.5c-0.1,0.2-0.1,0.5,0.1,0.6l0,0l0,0c0.1,0.1,0.2,0.1,0.2,0.2
				c0.1,0,0.2,0.1,0.2,0.2l0,0l0,0c0.1,0.1,0,0.2-0.1,0.3l0,0.1l0,0c-0.2,0.2-0.4,0.3-0.6,0.5c-0.1,0-0.1,0.1-0.2,0.1l0.1,0.1l0,0
				l0.1,0c0.6-0.3,1-0.6,1.3-1c0.3-0.4,0.4-0.9,0.2-1.2C96,23.2,95.8,23,95.5,23"/>
			<path class="st1" d="M98.1,23.4C98,23.2,97.7,23,97.4,23c-0.3,0-0.5,0.2-0.7,0.5c-0.1,0.2-0.1,0.5,0.1,0.6l0,0l0,0
				c0.1,0.1,0.2,0.1,0.2,0.2c0.1,0,0.2,0.1,0.2,0.2l0,0l0,0c0.1,0.1,0,0.2-0.1,0.3l0,0.1l0,0l0,0c-0.2,0.2-0.4,0.3-0.6,0.5
				c-0.1,0-0.1,0.1-0.2,0.1l0.1,0.1l0,0l0.1,0c0.6-0.3,1-0.6,1.3-1C98.2,24.3,98.3,23.8,98.1,23.4"/>
			<path class="st1" d="M69.4,23.1c-0.4-0.1-0.7,0.1-1,0.4l0,0l0,0c-0.5,0.5-0.3,1.3-0.2,1.8l0.1,0.2c0,0.1,0.1,0.2,0.1,0.3
				c0.1,0,0.2,0,0.3-0.1c0-0.1,0-0.2,0-0.4c0-0.1,0-0.2,0-0.4c0-0.2,0-0.3,0.1-0.5l0,0l0,0c0.1,0,0.1-0.1,0.2-0.1l0,0l0,0l0.1,0
				c0.2,0,0.3,0.1,0.5,0.1c0.3-0.1,0.5-0.3,0.6-0.5c0.1-0.2,0-0.4-0.1-0.5C69.8,23.2,69.7,23.1,69.4,23.1"/>
			<path class="st1" d="M72.2,23.4c-0.1-0.2-0.3-0.3-0.5-0.3c-0.4-0.1-0.7,0.1-1,0.4l0,0c-0.5,0.5-0.3,1.3-0.2,1.8l0.1,0.2
				c0,0.1,0.1,0.2,0.1,0.3c0.1,0,0.2,0,0.3-0.1c0-0.1,0-0.2,0-0.4c0-0.1,0-0.2,0-0.4c0-0.2,0-0.3,0.1-0.5l0,0l0,0
				c0.1,0,0.1-0.1,0.2-0.1l0,0l0,0l0.1,0c0.2,0,0.3,0.1,0.5,0.1c0.3-0.1,0.5-0.3,0.6-0.5C72.4,23.8,72.3,23.6,72.2,23.4"/>
		</g>
		<path class="st1" d="M51.9,42.4c-2.1,2.5-1.8,4.7-0.1,4.8h4.7c0,0,0.8,0.1,0.2,0.7l-8.9,9c-0.6,0.6-1.2,0.5-2-0.1
			c-2.8-2.5-2.6-7.7,2-12.4l16.1-16.5c0.5-0.5,1-0.4,1,0.2v22.3L58.5,57c-0.5,0.5-1,0.4-1-0.2V36.6L51.9,42.4z M75.2,42.4l3.3-3.4
			c0.5-0.5,0.5-0.9-0.1-1.5c-2.3-2.1-5.7-2.1-7.8,0l-3.3,3.3c-1.9,2.1-1.4,3.4,0,4.7l7,7.2c0.8,0.8,0.3,2-1.2,2.8
			c-2,1-2.8,0.5-2.8-1.5v-4.1c0-0.7-0.3-0.7-0.7-0.2l-4.1,4.2c-0.8,0.9,0.1,2.2,1.3,2.7c4,1.4,6.3,0.3,8.2-1.5l2.6-2.7
			c2.1-2.6,0.2-4.3,0.2-4.3c-1-1.1-6.8-6.9-6.8-6.9c-1.4-1.2-1-2.4,1.1-3.7c0.8-0.5,1.6-0.2,1.6,0.7v4.4
			C73.8,43.4,74.2,43.4,75.2,42.4 M95.5,32.7v23.5c0,1.3,0.6,1.3,1.3,0.6l4.6-4.8l0-7.7l2-2.1v14c0,1.1,0.6,1.2,1.3,0.4l4.4-4.5
			V36.7c0-0.9-0.6-1.1-1.2-0.3l-6.6,6.6V28.5c0-1.2-0.7-1.1-1.2-0.5L95.5,32.7z M116.6,27.7l-4.7,4.7v5.2c0,0.8,0.5,0.9,1.1,0.3
			l4.5-4.7V28C117.5,27.3,117,27.3,116.6,27.7 M116.6,36.2l-4.6,4.7v15.6c0,0.8,0.5,0.9,1.1,0.2l4.5-4.6V36.6
			C117.6,35.8,117.1,35.7,116.6,36.2 M83.6,48.9c0-2,0.8-3.7,2.2-5l1.6-1.6v8.8l-1.5,1.3C84.9,53.1,83.6,51.7,83.6,48.9 M93,36.7
			c0-1-0.5-1.1-1.2-0.3l-9.2,9.4c-2.3,2.4-4.9,7.8-1.4,10.9c0.9,0.7,1.2,0.6,1.9,0l4.3-4.3v4.1c0,0.7,0.6,0.8,1.2,0.2
			c0.8-0.8,4.5-4.5,4.5-4.5L93,36.7"/>
		<path class="st1" d="M83.7,64.4h12v11.1h-12V64.4z M86,73.3h7.4v-6.8H86V73.3z M73.9,76.1v-2h-5v-2h5v-1.7h-5.5v-2h2.8l-0.4-1.9
			h-1.6v-2H74V63h2v1.4h4.7v2h-1.6l-0.4,1.9h2.8v2H76v1.7h5v2h-5v2L73.9,76.1L73.9,76.1z M76.5,68.3l0.4-1.9H73l0.4,1.9H76.5z"/>
	</g>
	<g class="st2">
		<path class="st1" d="M73.2,84h20.6c0.7,0,0.8-0.6,0.2-1.1l-6.7-6.9H64.5c-0.6,0-0.7,0.6-0.2,1.1l16.9,17.2
			c4.9,4.9,10.2,5.1,12.7,2.1c0.6-0.9,0.7-1.4,0.1-2.1l-9.2-9.4c-0.7-0.7-0.8,0.2-0.8,0.2v5c0,1.8-2.3,2.1-4.9-0.1L73.2,84z"/>
		<path class="st1" d="M125.6,48.1V27.4c0-0.7-0.6-0.8-1.1-0.2l-6.9,6.7v22.8c0,0.6,0.6,0.7,1.1,0.2l17.1-16.9
			c4.9-4.9,5.1-10.2,2.1-12.7c-0.9-0.6-1.4-0.7-2.1-0.1l-9.4,9.2c-0.7,0.7,0.2,0.8,0.2,0.8h5c1.8,0,2.1,2.3-0.1,4.9L125.6,48.1z"/>
		<path class="st1" d="M85.5,11.5H64.9c-0.7,0-0.8,0.6-0.2,1.1l6.7,6.9h22.8c0.6,0,0.7-0.5,0.2-1.1L77.6,1.2
			c-4.9-4.9-10.2-5.1-12.7-2.1c-0.6,0.9-0.7,1.4-0.1,2.1l9.2,9.4c0.7,0.7,0.8-0.2,0.8-0.2v-5c0-1.8,2.3-2.1,4.9,0.1L85.5,11.5z"/>
		<path class="st1" d="M36,36v20.6c0,0.7,0.6,0.8,1.1,0.2l6.9-6.7V27.4c0-0.6-0.5-0.7-1.1-0.2L25.7,44c-4.9,4.9-5.1,10.2-2.1,12.7
			c0.9,0.6,1.4,0.7,2.1,0.1l9.4-9.2c0.7-0.7-0.2-0.8-0.2-0.8h-5c-1.8,0-2.1-2.3,0.1-4.9L36,36z"/>
	</g>
</g>
</svg>
