<?xml version="1.0" encoding="utf-8"?>
<!-- Generator: Adobe Illustrator 25.1.0, SVG Export Plug-In . SVG Version: 6.00 Build 0)  -->
<svg version="1.1" id="Layer_1" xmlns="http://www.w3.org/2000/svg" xmlns:xlink="http://www.w3.org/1999/xlink" x="0px" y="0px"
	 viewBox="0 0 161.6 97.6" style="enable-background:new 0 0 161.6 97.6;" xml:space="preserve">
<style type="text/css">
	.st0{fill:#062256;}
</style>
<g>
	<g>
		<g>
			<path id="SVGID_13_" class="st0" d="M59.2,37.4c-0.9,0-1.6-0.7-1.6-1.6c0-0.8,0.7-1.5,1.6-1.5h13.6c0.7,0,1.2-0.4,1.3-0.9
				c0.1-0.3,0.6-1.2,1.8-1.2h21.4l0.1,0l0.1,0.1v3l-0.1,0.1c-0.1,0-0.2,0-0.2,0h-5.8c-0.7,0-1.3,0.5-1.3,1.2v19.8c0,0,0,1-0.8,1.6
				c0,0-6.1,4-6.5,4.2c-0.3,0.2-1,0.5-1.6,0c-0.5-0.3-0.5-1.1-0.5-1.1V37c0-1.2-0.7-1.6-1.6-1.6h-2.8c-0.9,0-1.2,0.3-1.3,0.8
				c-0.1,0.3-0.5,1.1-1.7,1.1h-0.9c-0.6,0-1,0.4-1,1v19.5c0,0,0,1.6-0.9,2.9c-0.7,1.1-2.4,2-2.4,2l-6.8,4.6c0,0-2.8,1.9-5.9,0.8
				c-2.3-0.9-2.7-2.4-2.5-3.8c0.2-1.4,1.9-2.2,3-2.2c1.2,0,2.3,0.5,2.9,2c0.5,1.2,0.9,1.7,1.5,1.7c0.6,0,1.2-0.8,1.2-2.4V38.4
				c0-0.5-0.5-1-1-1H59.2z M107.1,27h-7.2c-0.8,0-1.5,0.7-1.5,1.5c0,0.9,0.6,1.6,1.5,1.6h1.8h5.5c0.8,0,1.5-0.7,1.5-1.5
				C108.6,27.7,107.9,27,107.1,27 M98.8,32.2v23.4c0,0,0.1,0.7,0.5,1.1c0.6,0.5,1.3,0.2,1.6,0c0.1-0.1,0.4-0.3,1-0.6
				c1.8-1.2,5.5-3.6,5.5-3.6c0.8-0.5,0.8-1.6,0.8-1.6V32.2H98.8z"/>
		</g>
	</g>
</g>
</svg>
