<?xml version="1.0" encoding="utf-8"?>
<!-- Generator: Adobe Illustrator 25.1.0, SVG Export Plug-In . SVG Version: 6.00 Build 0)  -->
<svg version="1.1" id="Layer_1" xmlns="http://www.w3.org/2000/svg" xmlns:xlink="http://www.w3.org/1999/xlink" x="0px" y="0px"
	 viewBox="0 0 161.55 161.55" style="enable-background:new 0 0 161.55 161.55;" xml:space="preserve">
<style type="text/css">
	.st0{fill:#808080;}
</style>
<path class="st0" d="M58.29,73.46c-0.02-0.02-0.03-0.03-0.06-0.05c-0.09-0.04-0.18-0.08-0.27-0.12c-0.7-0.32-1.43-0.56-2.22-0.65
	c-0.68-0.07-1.35-0.07-2.01,0.01c-0.03,0-0.06,0-0.09,0.01c-0.04,0.01-0.07,0.02-0.11,0.02c-0.2,0.03-0.39,0.07-0.59,0.11
	c-0.15,0.04-0.29,0.09-0.44,0.14c-0.43,0.13-0.85,0.3-1.24,0.5c-0.31,0.17-0.6,0.36-0.89,0.55c-0.05,0.03-0.08,0.04-0.1,0.03
	c-0.03,0-0.05-0.03-0.06-0.11c0-0.09-0.03-0.17-0.05-0.24c-0.09-0.36-0.33-0.54-0.78-0.55c-0.69,0-1.38,0-2.07,0
	c-0.2,0-0.4,0-0.59,0c-0.08,0-0.13,0.01-0.16,0.04c-0.03,0.03-0.04,0.08-0.04,0.16c0,1.77,0,3.54-0.01,5.31c0,0.48,0,0.96,0,1.44
	c-0.01,3.56-0.01,7.12-0.01,10.67c0,0.07-0.01,0.15,0.04,0.21c0,0.01,0,0.01,0.01,0.02c0,0,0,0,0,0.01c0,0.03,0,0.05,0,0.08
	c0,0,0,0,0,0.01c-0.02,0.03-0.02,0.05,0.01,0.06c0.01,0.02,0.01,0.05,0.01,0.07c-0.01,0.04,0.01,0.06,0.03,0.07
	c0.01,0.01,0.01,0.01,0.02,0.02c0.08,0.13,0.15,0.26,0.3,0.31c0.02,0.02,0.05,0.03,0.07,0.04c0.07,0.04,0.14,0.06,0.22,0.06h2.32
	c0.12,0,0.22-0.04,0.31-0.12c0,0,0,0,0,0c0,0,0,0,0,0c0.08-0.03,0.13-0.09,0.18-0.16c0,0,0.01-0.01,0.01-0.01
	c0.04-0.02,0.06-0.05,0.07-0.1c0,0,0.01-0.01,0.01-0.01c0.01-0.01,0.01-0.03,0.02-0.04c0.01-0.01,0.01-0.02,0.02-0.03
	c0.02-0.02,0.01-0.04,0.02-0.07c0.01-0.03,0.04-0.05,0.03-0.08c0-0.06,0.01-0.12,0.01-0.17c0-0.02,0.01-0.04,0.01-0.06v-2.23
	c-0.01-0.81-0.01-1.61-0.01-2.42c0-0.06,0.01-0.13,0.01-0.2c0-0.01,0-0.01,0-0.02c0-0.27,0-0.55,0-0.82v-4.63
	c0-0.71,0.05-1.41,0.26-2.09c0.27-0.87,0.74-1.61,1.54-2.09c0.39-0.23,0.78-0.36,1.19-0.44c0.55-0.11,1.12-0.1,1.71,0.01
	c0.34,0.07,0.67,0.11,1.01,0.09c0.07,0,0.14,0.01,0.21,0c0.04-0.01,0.07-0.02,0.11-0.03c0.48-0.09,0.9-0.28,1.2-0.64
	c0.11-0.13,0.2-0.27,0.28-0.44c0.2-0.43,0.39-0.86,0.59-1.28c0.02-0.05,0.03-0.09,0.02-0.12C58.33,73.49,58.31,73.47,58.29,73.46z"
	/>
<path class="st0" d="M98.14,71.33c0.02,0.04,0.06,0.06,0.13,0.06c0.05-0.01,0.1,0,0.14-0.01c0.34-0.04,0.68-0.11,1.02-0.18
	c0.47-0.1,0.93-0.22,1.38-0.4c1.04-0.41,1.97-0.98,2.65-1.88c0.41-0.55,0.69-1.15,0.81-1.8c0.05-0.25,0.08-0.51,0.07-0.77
	c-0.01-0.84-0.26-1.62-0.56-2.4c-0.02-0.06-0.04-0.1-0.06-0.14c-0.09-0.23-0.16-0.23-0.49-0.15c-0.25,0.06-0.49,0.16-0.74,0.24
	c-0.41,0.14-0.8,0.31-1.18,0.52c-0.14,0.07-0.29,0.13-0.42,0.22c-0.29,0.18-0.55,0.38-0.78,0.59c-0.33,0.31-0.6,0.66-0.84,1.04
	c-0.26,0.42-0.49,0.87-0.64,1.37c-0.18,0.61-0.31,1.24-0.39,1.88c-0.06,0.47-0.11,0.95-0.12,1.44c0,0.04,0,0.09,0,0.14
	c0,0.05,0,0.1-0.01,0.16C98.11,71.29,98.13,71.31,98.14,71.33z"/>
<path class="st0" d="M130.44,90.45c-0.24-0.38-0.71-0.54-1.12-0.36c-0.42,0.18-0.64,0.63-0.51,1.07c0.1,0.35,0.39,0.61,0.73,0.64
	c0.38,0.03,0.7-0.09,0.91-0.44c0.03-0.04,0.02-0.13,0.11-0.12c0-0.22,0-0.43,0-0.65C130.45,90.59,130.47,90.5,130.44,90.45z"/>
<path class="st0" d="M128.43,91.05c0-0.1-0.01-0.2-0.04-0.29c-0.17-0.43-0.32-0.86-0.5-1.29c-0.04-0.09-0.11-0.17-0.19-0.22
	c-0.02-0.01-0.04-0.03-0.06-0.05c0,0,0,0-0.01,0c-0.02-0.03-0.04-0.05-0.08-0.04c0,0,0,0,0,0c-0.07-0.01-0.15-0.02-0.22-0.03
	c-0.03-0.04-0.07-0.04-0.1,0c-0.05,0.01-0.1,0.01-0.14,0.02c-0.03-0.02-0.05-0.01-0.08,0.01c-0.07,0.02-0.14,0.04-0.22,0.06
	c-0.01,0-0.02,0.01-0.03,0.01c-0.01,0-0.02,0.01-0.03,0.01c-0.03,0-0.06,0-0.08,0.03c-0.05,0.01-0.1,0.01-0.14,0.02
	c-0.13,0.01-0.25,0-0.38,0c-0.14,0-0.29,0.01-0.43-0.01c-0.03,0-0.07-0.01-0.1-0.02c-0.04-0.03-0.08-0.06-0.13-0.07
	c-0.01,0-0.01-0.01-0.02-0.01c-0.05-0.02-0.1-0.04-0.15-0.06c-0.19-0.16-0.3-0.38-0.42-0.59c-0.01-0.07-0.03-0.13-0.04-0.19
	c-0.01-0.03-0.01-0.07-0.02-0.1c-0.02-0.06-0.03-0.13-0.03-0.19c0-0.09-0.01-0.18-0.01-0.27c0-0.07-0.01-0.13-0.01-0.2
	c0-1.93,0-3.87,0-5.81c0-2.14,0-4.28,0-6.42c0-0.23-0.02-0.45-0.06-0.67c-0.03-0.16-0.06-0.31-0.11-0.47
	c-0.25-0.6-0.69-0.93-1.25-1.07c-0.19-0.05-0.39-0.07-0.59-0.08c-0.5-0.02-1,0-1.51-0.01c-0.03,0-0.04,0.01-0.06,0.02
	c-0.08,0.01-0.11,0.05-0.12,0.13c0,0.02-0.02,0.03-0.01,0.06c0.01,0.38,0,0.76,0,1.13c0,0.04,0,0.08,0,0.12c0,0.01,0,0.02,0,0.03
	c0.01,0.04,0.01,0.09-0.03,0.11c-0.05,0.03-0.08-0.05-0.12-0.06c-0.04-0.01-0.07-0.04-0.1-0.06c-0.04-0.04-0.08-0.08-0.13-0.11
	c-0.78-0.55-1.61-0.99-2.49-1.31c-0.32-0.11-0.64-0.22-0.97-0.3c-0.27-0.07-0.53-0.12-0.8-0.16c-0.12-0.02-0.24-0.04-0.36-0.05
	c-0.26-0.04-0.52-0.07-0.78-0.08c-0.92-0.05-1.83,0.04-2.73,0.23c-0.49,0.1-0.97,0.25-1.44,0.43c-0.28,0.1-0.56,0.21-0.84,0.34
	c-1.49,0.73-2.7,1.77-3.65,3.09c-0.17,0.24-0.35,0.47-0.51,0.73c-0.23,0.39-0.43,0.79-0.6,1.2c-0.36,0.86-0.58,1.77-0.67,2.7
	c-0.02,0.22-0.06,0.44-0.07,0.66c-0.01,0.22,0.01,0.44,0.01,0.66c0.01,0.33,0.03,0.66,0.07,0.99c0.03,0.22,0.05,0.43,0.08,0.65
	c0.2,1.12,0.57,2.19,1.13,3.18c0.04,0.08,0.09,0.15,0.13,0.23c0.11,0.19,0.22,0.38,0.37,0.54c0.01,0.05,0.05,0.07,0.08,0.11
	c0.02,0.03,0.03,0.06,0.06,0.08c0,0,0.01,0.01,0.01,0.01c0.01,0.02,0.02,0.04,0.03,0.05c0,0.04,0.03,0.07,0.07,0.08c0,0,0,0,0,0
	c0.17,0.26,0.37,0.5,0.59,0.72c0,0,0,0,0,0.01c0.01,0.06,0.04,0.09,0.09,0.1c0,0,0.01,0,0.01,0.01l0,0
	c0.02,0.05,0.06,0.09,0.11,0.11c0.04,0.04,0.07,0.07,0.11,0.11c0,0,0,0,0,0c0.04,0.09,0.09,0.15,0.18,0.18
	c0.05,0.06,0.1,0.12,0.17,0.15c0.03,0.06,0.06,0.09,0.12,0.11c0.01,0.01,0.02,0.02,0.03,0.02c0,0,0.01,0.01,0.01,0.01
	c0.02,0.04,0.05,0.07,0.1,0.08c0,0,0,0,0,0c0,0,0,0,0,0c0,0,0,0,0,0l0,0v0l0,0l0,0c0.02,0.04,0.05,0.06,0.09,0.07
	c0.01,0.01,0.01,0.02,0.03,0.02c0.02,0.01,0.04,0.03,0.06,0.05c0.01,0.03,0.03,0.03,0.06,0.04c0.01,0.01,0.02,0,0.02,0.02
	c0.01,0.01,0.02,0.01,0.03,0.02c0.01,0.01,0.02,0.02,0.03,0.03c0.01,0.01,0.02,0.01,0.03,0.02c0.02,0.01,0.05,0,0.06,0.04l0,0
	c0,0,0.01,0,0.01,0c0.03,0.05,0.08,0.09,0.13,0.09c0,0,0.01,0.01,0.01,0.01l0,0c0,0,0,0,0,0l0,0c0.01,0.05,0.05,0.07,0.1,0.07
	c0.04,0.03,0.07,0.05,0.11,0.08c0.05,0.07,0.13,0.12,0.22,0.14c0,0,0.01,0.01,0.02,0.01c0.01,0.01,0.02,0.01,0.02,0.02
	c0.03,0,0.06,0.01,0.06,0.04c0,0,0,0,0.01,0c0,0.01,0.01,0.01,0.02,0.01c0.04,0.06,0.09,0.08,0.15,0.09c0,0,0.01,0.01,0.01,0.01
	c0.02,0.01,0.05,0.03,0.07,0.04c0.02,0.03,0.04,0.04,0.07,0.04c0.05,0.03,0.11,0.06,0.16,0.09c0,0,0,0,0.01,0
	c0.02,0.02,0.05,0.04,0.08,0.04c0,0,0.01,0.01,0.01,0c0.02,0.01,0.03,0.01,0.05,0.02c0.02-0.01,0.03,0.02,0.04,0.02
	c0.02,0.01,0.03,0.03,0.05,0.03c0.02,0,0.04,0.01,0.05,0.02c0.05,0.05,0.1,0.08,0.17,0.08c0.03,0.03,0.07,0.04,0.11,0.05
	c0.01,0,0.01,0.01,0.02,0.01c0.05,0.07,0.12,0.08,0.2,0.09c0.04,0.01,0.07,0.02,0.11,0.04c0.02,0.03,0.04,0.04,0.07,0.04
	c0.04,0.01,0.07,0.02,0.11,0.04c0.02,0.03,0.04,0.04,0.07,0.04c0.03,0.01,0.06,0.01,0.09,0.02c0.16,0.1,0.34,0.16,0.53,0.19
	c0.02,0,0.05,0.01,0.07,0.01c0.04,0.03,0.08,0.06,0.13,0.05c0.01,0,0.02,0,0.03,0c0.01,0,0.01,0,0.02,0c0.03,0,0.06,0.01,0.08,0.01
	c0,0,0.01,0,0.01,0c0.05,0.04,0.1,0.05,0.16,0.04c0.01,0,0.01,0,0.01,0c0.02,0,0.03,0.01,0.05,0.01c0.02,0.01,0.04,0.01,0.05,0.02
	c0.08,0.03,0.15,0.06,0.23,0.07c0.08,0.02,0.16,0.03,0.24,0.03c0.02,0,0.05,0,0.07,0.01c0,0,0,0,0,0c0.11,0.05,0.21,0.08,0.33,0.06
	c0.03,0,0.05,0,0.08,0c0.02,0,0.04,0,0.06,0c0.08,0.03,0.17,0.05,0.25,0.06c0.07,0.01,0.15,0.01,0.22,0.01c0.05,0,0.11,0,0.16,0
	c0.03,0,0.06,0,0.09,0c0.03,0.03,0.05,0.03,0.07,0h0.08c0,0,0.01,0,0.01,0c0.31,0.06,0.62,0.07,0.93,0h0.07
	c0.03,0.03,0.05,0.03,0.07,0c0.03,0,0.06,0,0.09,0c0.07,0,0.14,0,0.2-0.01c0.07,0.01,0.14,0,0.21,0c0.09-0.01,0.18-0.03,0.27-0.06
	c0.05,0,0.09-0.01,0.14-0.01c0.07,0.01,0.13,0,0.19-0.01c0.06-0.01,0.12-0.03,0.18-0.05c0.01,0,0.03,0,0.04-0.01
	c0.01,0,0.02,0,0.03,0c0.16-0.02,0.32-0.05,0.48-0.09c0.03-0.01,0.05-0.01,0.08-0.02c0.17-0.04,0.35-0.09,0.52-0.15
	c0.19-0.06,0.37-0.12,0.56-0.18c0.23-0.08,0.46-0.18,0.68-0.29c0.01,0,0.01-0.01,0.02-0.01c0.02-0.01,0.03-0.02,0.05-0.02
	c0,0,0,0,0,0c0.01,0,0.02-0.01,0.03-0.02c0.11-0.02,0.2-0.08,0.28-0.14c0.01,0,0.01-0.01,0.01-0.01c0.01-0.01,0.03-0.01,0.04-0.02
	c0.07-0.02,0.13-0.04,0.19-0.08c0.05-0.03,0.1-0.06,0.14-0.1c0.02-0.01,0.03-0.02,0.04-0.03c0.01,0,0.02-0.01,0.03-0.01
	c0.01,0,0.01-0.01,0.02-0.01c0.04-0.01,0.07-0.03,0.1-0.05c0.01-0.01,0.03-0.02,0.04-0.04c0.01,0,0.02,0,0.02-0.01c0,0,0,0,0.01,0
	c0.18-0.08,0.34-0.18,0.48-0.31c0,0,0,0,0.01-0.01c0.01,0,0.01,0,0.02-0.01c0.01-0.05,0.03-0.07,0.09-0.06c0.01,0,0.02,0,0.02-0.01
	c0.1-0.06,0.19-0.12,0.28-0.18c0.01-0.01,0.02-0.01,0.03-0.02c0,0,0,0,0,0c0.1-0.07,0.19-0.16,0.27-0.25
	c0.04-0.03,0.08-0.07,0.12-0.1c0.01-0.01,0.01-0.01,0.02-0.02c0.06,0,0.11-0.08,0.17-0.1c0.03-0.01,0.07,0,0.11,0.04
	c0.03,0.07,0.06,0.13,0.09,0.2c0,0,0.01,0.01,0.01,0.01c0,0.04,0.02,0.06,0.05,0.08c0.12,0.26,0.29,0.5,0.48,0.71
	c0.01,0.04,0.04,0.08,0.08,0.09c0,0,0,0,0,0c0,0,0,0,0,0c0.01,0.02,0.04,0.03,0.05,0.05c0.07,0.09,0.15,0.18,0.25,0.25
	c0.02,0.06,0.07,0.09,0.13,0.11c0.09,0.08,0.19,0.13,0.28,0.2c0.12,0.08,0.24,0.16,0.37,0.23c0.13,0.06,0.25,0.13,0.38,0.18
	c0.09,0.04,0.19,0.06,0.29,0.09c0.67,0.21,1.35,0.29,2.06,0.25c0.1-0.01,0.19-0.03,0.29-0.04c0.55-0.06,1.07-0.19,1.56-0.44
	c0.18-0.09,0.31-0.23,0.4-0.38C128.37,91.29,128.42,91.17,128.43,91.05z M119.82,86.57L119.82,86.57L119.82,86.57
	c-0.01,0-0.01,0.01-0.01,0.01c-0.04,0.02-0.06,0.05-0.06,0.1l0,0c-0.02,0.01-0.02,0.03-0.04,0.05c-0.03,0.03-0.06,0.05-0.07,0.09
	c-0.44,0.53-0.94,0.99-1.54,1.34c-0.15,0.09-0.31,0.17-0.46,0.26c-0.01,0-0.01,0.01-0.02,0.01c-0.02,0-0.04,0-0.05,0.03
	c-0.04,0.01-0.07,0.03-0.11,0.04c-0.02,0-0.04,0.01-0.06,0.02c-0.04,0.01-0.09,0.03-0.13,0.07c0,0-0.01,0-0.01,0.01
	c-0.05,0.02-0.11,0.04-0.16,0.06c0,0,0,0,0,0l0,0c0,0,0,0,0,0c-0.01,0-0.02,0.01-0.03,0.01c-0.02,0-0.03,0-0.05,0.01
	c-0.01,0.01-0.02,0.01-0.03,0.01c-0.01,0-0.02,0-0.03,0.01c-0.03,0-0.05,0-0.07,0.01c0,0-0.01,0-0.01,0c0,0-0.01,0-0.01,0.01
	c-0.02,0.01-0.04,0.02-0.06,0.03c-0.02,0.01-0.02,0.01-0.04,0.01c-0.01,0-0.02,0-0.04,0.01c-0.03-0.01-0.06,0-0.07,0.03
	c-0.06,0.01-0.12,0.03-0.18,0.04c-0.03-0.01-0.06,0-0.07,0.03c-0.07,0.01-0.14,0.03-0.22,0.04c-0.04-0.01-0.08-0.01-0.11,0.03
	c-0.03,0-0.06,0.01-0.09,0.01c-0.03,0-0.06,0.01-0.09,0.01c-0.05,0-0.09,0-0.14,0.01c-0.06,0.01-0.13,0.02-0.19,0.05
	c-0.08,0-0.17,0.01-0.25,0.01c-0.17,0-0.33,0-0.5,0h-0.64c-0.07,0-0.14-0.01-0.21-0.01c-0.13-0.05-0.27-0.06-0.41-0.06
	c-0.02,0-0.04,0-0.07,0c-0.02,0-0.05,0-0.07-0.01c-0.02-0.02-0.04-0.02-0.07-0.03c-0.02-0.01-0.04-0.02-0.06-0.02
	c-0.03,0-0.06-0.01-0.1,0c-0.04-0.01-0.07-0.01-0.11-0.02c-0.11-0.07-0.24-0.09-0.36-0.11c-0.02-0.01-0.04-0.01-0.06-0.02
	c-0.06-0.02-0.13-0.04-0.19-0.06c-0.01-0.01-0.02,0-0.03-0.01c-0.01-0.01-0.03-0.02-0.04-0.02c-0.08-0.03-0.16-0.06-0.23-0.09
	c-0.02-0.01-0.04-0.02-0.06-0.02c-0.01-0.02-0.03-0.04-0.07-0.04c-0.06-0.03-0.12-0.05-0.17-0.07c-0.01,0-0.02-0.01-0.03-0.01
	c0-0.01-0.01,0-0.01-0.01c-0.04,0-0.07,0-0.08-0.05c-0.01-0.01-0.03-0.01-0.04-0.02c-0.02-0.01-0.04-0.02-0.06-0.04
	c-0.03-0.04-0.07-0.06-0.12-0.06c-0.01-0.01-0.02-0.01-0.03-0.02c-0.08-0.05-0.16-0.1-0.24-0.14c-0.05,0.02-0.08,0-0.09-0.06
	c0,0-0.01,0-0.01-0.01c-0.03-0.05-0.08-0.07-0.14-0.1c0,0,0,0,0,0c0,0,0,0,0,0l0,0c0,0,0,0,0,0c0,0,0,0-0.01,0
	c-0.01-0.05-0.06-0.06-0.1-0.08c-0.02-0.01-0.04-0.03-0.06-0.04c-0.01-0.01-0.03-0.02-0.04-0.03c-0.02-0.04-0.05-0.06-0.09-0.07
	c-0.01,0-0.01-0.02-0.03-0.02c0-0.01-0.01-0.01-0.02-0.01c-0.04-0.06-0.1-0.1-0.16-0.14c-0.04,0-0.05-0.03-0.06-0.06
	c-0.01,0-0.01-0.02-0.02-0.02c-0.01-0.04-0.03-0.06-0.07-0.07c-0.03-0.05-0.07-0.08-0.11-0.11c-0.04-0.04-0.06-0.08-0.11-0.11
	c-0.02-0.02-0.03-0.04-0.05-0.06c-0.02-0.05-0.04-0.09-0.07-0.12c-0.02-0.02-0.04-0.04-0.07-0.06c0,0-0.01-0.01-0.02-0.02
	c-0.01-0.01-0.01-0.02-0.02-0.02c-0.01-0.01-0.02-0.02-0.02-0.03c-0.09-0.16-0.19-0.31-0.31-0.45c-0.02-0.02-0.03-0.05-0.05-0.07
	c0-0.01,0-0.02-0.01-0.03c-0.01-0.04-0.02-0.07-0.03-0.1c0,0,0,0,0,0c-0.02-0.03-0.04-0.06-0.07-0.08c0,0,0,0,0-0.01
	c-0.01-0.02-0.03-0.04-0.04-0.06c0-0.05-0.03-0.07-0.05-0.1c-0.01-0.01-0.02-0.03-0.03-0.05c0.01-0.03-0.01-0.05-0.03-0.07
	c0-0.03-0.02-0.06-0.04-0.07c0.01-0.04-0.01-0.06-0.03-0.08c0-0.02-0.01-0.04-0.03-0.05c0-0.01,0-0.01-0.01-0.02c0,0,0,0,0,0
	c-0.1-0.31-0.22-0.62-0.31-0.94c-0.05-0.18-0.08-0.37-0.12-0.55c-0.18-0.89-0.23-1.8-0.12-2.71c0.08-0.76,0.28-1.49,0.59-2.18
	c0.1-0.22,0.21-0.44,0.34-0.65c0.66-1.09,1.56-1.86,2.69-2.32c0.27-0.11,0.54-0.22,0.83-0.29c0.97-0.24,1.94-0.27,2.9-0.08
	c0.06,0.01,0.11,0.02,0.17,0.03c0.04,0.01,0.08,0.02,0.12,0.03c0.6,0.15,1.16,0.35,1.67,0.63c0,0,0.01,0,0.01,0.01
	c0.02,0.01,0.04,0.03,0.06,0.04c0.88,0.5,1.62,1.21,2.17,2.17c0.13,0.24,0.24,0.48,0.34,0.73c0.22,0.59,0.36,1.2,0.43,1.83
	c0.06,0.51,0.06,1.01,0.03,1.52c-0.01,0.25-0.02,0.5-0.06,0.75c-0.11,0.78-0.34,1.53-0.7,2.22c-0.11,0.21-0.23,0.42-0.37,0.63
	c-0.02,0.03-0.04,0.05-0.04,0.08C119.82,86.56,119.82,86.56,119.82,86.57C119.82,86.57,119.82,86.57,119.82,86.57
	C119.82,86.57,119.82,86.57,119.82,86.57C119.82,86.57,119.82,86.57,119.82,86.57z"/>
<path class="st0" d="M96.6,73.15c-0.02-0.02-0.07-0.02-0.16-0.02h-1.13c-0.29,0-0.58,0-0.87,0.02c-0.28,0.02-0.56,0.04-0.84,0.1
	c-0.88,0.18-1.51,0.68-1.85,1.51c-0.16,0.39-0.32,0.77-0.47,1.16c-0.22,0.53-0.43,1.06-0.65,1.58c-0.09,0.22-0.18,0.44-0.27,0.66
	c-0.31,0.76-0.62,1.52-0.93,2.28c-0.53,1.31-1.07,2.62-1.59,3.93c-0.02,0.05-0.04,0.09-0.06,0.14c-0.12,0.29-0.25,0.57-0.33,0.87
	c-0.01,0.02-0.01,0.04-0.02,0.06c-0.02,0.03-0.03,0.07-0.05,0.1c-0.08,0.15-0.14,0.3-0.18,0.46c-0.01,0.04-0.03,0.07-0.04,0.11
	c-0.16,0.29-0.27,0.6-0.38,0.91c-0.01,0.03-0.02,0.05-0.03,0.08c0,0,0,0.01,0,0.01c-0.07,0.04-0.1-0.01-0.13-0.06
	c-0.04-0.08-0.04-0.17-0.12-0.22c0-0.02-0.02-0.04-0.03-0.07c-0.01-0.02-0.01-0.05-0.03-0.07c-0.02-0.09-0.06-0.18-0.09-0.26
	c-0.04-0.11-0.08-0.21-0.12-0.32c-0.04-0.1-0.09-0.2-0.14-0.29c0,0,0-0.01,0-0.01c0-0.04-0.02-0.07-0.04-0.09c0,0,0,0,0,0
	c0.01-0.06,0-0.11-0.05-0.14c0,0,0,0,0-0.01c-0.01-0.04-0.02-0.07-0.03-0.11c0.01-0.03-0.01-0.05-0.03-0.06
	c-0.01,0,0-0.01-0.01-0.02c-0.01-0.03-0.02-0.07-0.04-0.1c-0.01-0.02-0.01-0.04-0.02-0.07c0-0.01,0-0.03-0.01-0.04
	c-0.21-0.52-0.42-1.04-0.63-1.56c-0.29-0.71-0.57-1.42-0.86-2.13c-0.25-0.61-0.5-1.22-0.75-1.83c-0.14-0.33-0.27-0.67-0.41-1
	c-0.19-0.47-0.39-0.95-0.58-1.42c-0.34-0.85-0.69-1.7-1.04-2.54c-0.06-0.13-0.14-0.24-0.22-0.36c-0.19-0.3-0.42-0.58-0.76-0.77
	c-0.55-0.32-1.14-0.41-1.76-0.43c-0.64-0.02-1.28-0.01-1.92-0.01c-0.1,0-0.16,0-0.17,0.03c-0.02,0.02,0,0.07,0.04,0.17
	c0.19,0.46,0.38,0.91,0.57,1.37c0.38,0.93,0.77,1.87,1.15,2.8c0.21,0.52,0.43,1.04,0.64,1.56c0.48,1.17,0.97,2.32,1.45,3.48
	c0.18,0.43,0.36,0.86,0.54,1.29c0.02,0.05,0.04,0.11,0.07,0.16c0.07,0.18,0.15,0.36,0.25,0.52c0.02,0.04,0.03,0.07,0.04,0.11
	c0,0.01,0.01,0.01,0.01,0.02c0,0.02,0,0.04,0.03,0.05c0,0.01,0.01,0.02,0.01,0.04c0,0.01,0.01,0.03,0.01,0.04
	c0,0.05,0.01,0.09,0.06,0.12c0,0,0,0,0,0v0.01c0.01,0.03,0.02,0.06,0.03,0.1c0.01,0.05,0.03,0.09,0.07,0.13
	c0.01,0.04,0.03,0.07,0.04,0.11c0.03,0.15,0.08,0.28,0.17,0.4c0.01,0.04,0,0.08,0.04,0.11c0,0.01,0.01,0.02,0.02,0.03
	c0,0.02,0,0.03,0.02,0.05c0.12,0.38,0.3,0.74,0.45,1.12c0.2,0.49,0.4,0.98,0.61,1.46c0.33,0.79,0.66,1.58,0.98,2.37
	c0.22,0.54,0.63,0.85,1.14,0.96c0.1,0.02,0.19,0.05,0.3,0.05c0.79,0.03,1.59,0.02,2.39,0c0.23-0.01,0.44-0.06,0.63-0.15
	c0.24-0.1,0.44-0.26,0.6-0.49c0.06-0.09,0.13-0.17,0.17-0.28c0.12-0.29,0.24-0.58,0.36-0.87c0.01-0.03,0.03-0.06,0.04-0.09
	c0.34-0.82,0.67-1.63,1.01-2.45c0.01,0,0-0.01,0.01-0.02c0.01-0.02,0.03-0.04,0.03-0.06c0.01-0.03,0.02-0.07,0.04-0.11
	c0.01,0,0.01-0.02,0.01-0.03c0.01-0.01,0.02-0.02,0.02-0.04c0.01-0.04,0.03-0.07,0.04-0.11c0.01-0.01,0.01-0.02,0.02-0.03
	c0.01-0.01,0.02-0.02,0.02-0.04c0.03-0.08,0.06-0.16,0.09-0.23c0.02-0.02,0.02-0.04,0.02-0.06c0.01-0.01,0.02-0.02,0.02-0.04
	c0.01-0.02,0.02-0.04,0.03-0.06c0.03-0.05,0.06-0.1,0.06-0.15c0.02-0.01,0.02-0.03,0.02-0.05c0-0.01,0.01-0.01,0.01-0.02
	c0.03-0.09,0.07-0.17,0.1-0.26c0.06-0.05,0.07-0.11,0.08-0.18c0.03-0.02,0.03-0.04,0.03-0.07c0.02-0.03,0.05-0.07,0.07-0.11
	c0.22-0.53,0.43-1.06,0.65-1.59c0.49-1.18,0.99-2.36,1.49-3.55c0.57-1.36,1.13-2.71,1.69-4.07c0.01-0.02,0.02-0.05,0.03-0.07
	c0.44-1.07,0.88-2.12,1.33-3.18c0.02-0.05,0.03-0.08,0.04-0.11C96.63,73.18,96.62,73.16,96.6,73.15z"/>
<path class="st0" d="M75.22,83.9c0-3.53,0-7.05,0-10.58c0-0.16-0.05-0.2-0.2-0.2c-0.17,0-0.35,0-0.52,0c-0.37,0-0.73,0-1.1,0
	c-0.17,0-0.33,0.02-0.5,0.06c-0.77,0.21-1.32,0.71-1.36,1.58c0,0.05-0.02,0.08-0.02,0.13c0.02,3.24,0,6.47,0.01,9.71
	c0,0.14-0.02,0.28-0.03,0.41c0,0.05-0.01,0.1,0,0.15c0,0.02,0,0.05,0,0.07c0,0.03-0.01,0.07-0.01,0.1c0,0,0,0.01,0,0.01
	c-0.03,0.05-0.04,0.11-0.02,0.17c0,0.02,0,0.05-0.01,0.07c-0.05,0.04-0.05,0.09-0.04,0.15v0.04c0,0.01,0,0.01,0,0.02
	c-0.02,0.05-0.02,0.1-0.03,0.14c-0.01,0.05-0.04,0.1-0.04,0.15v0.03c0,0.01,0,0.03,0,0.04c-0.05,0.05-0.07,0.11-0.06,0.18
	c0,0.01,0,0.02-0.01,0.03c0,0.01-0.01,0.03-0.01,0.04c-0.04,0.04-0.08,0.09-0.06,0.15c0,0,0,0.01,0,0.02c0,0.02-0.01,0.04-0.01,0.05
	c0,0,0,0,0,0c-0.03,0.01-0.04,0.04-0.04,0.07c0,0.01,0,0.02,0,0.03c0,0.01-0.01,0.02-0.01,0.03c-0.04,0.03-0.06,0.07-0.05,0.13
	c0,0.01-0.01,0.02-0.01,0.03c0,0.01,0,0.01-0.01,0.02c0,0,0,0,0,0c-0.08,0.09-0.12,0.19-0.16,0.31c0,0,0,0,0,0
	c-0.03,0.02-0.04,0.05-0.05,0.09c0,0,0,0,0,0c0,0.02-0.02,0.02-0.02,0.04c-0.01,0.01-0.04,0.02-0.04,0.05v0.01c0,0,0,0,0,0
	c-0.02,0.01-0.02,0.03-0.03,0.05c-0.01,0.02-0.04,0.03-0.04,0.06c-0.12,0.17-0.27,0.32-0.41,0.48c-0.24,0.26-0.51,0.49-0.83,0.66
	c-0.28,0.15-0.57,0.27-0.86,0.36c-0.87,0.26-1.77,0.24-2.68-0.03c-1.02-0.3-1.77-0.95-2.25-1.9c-0.13-0.24-0.22-0.49-0.29-0.74
	c-0.12-0.41-0.2-0.82-0.24-1.25c0-0.03,0-0.05,0-0.08c0-0.01,0-0.02,0-0.03v-0.07c0-0.02,0.01-0.04,0.01-0.05
	c0-3.37,0-6.74-0.01-10.11c0-0.29-0.07-0.58-0.24-0.84c-0.09-0.13-0.19-0.24-0.3-0.34c-0.22-0.2-0.47-0.33-0.75-0.4
	c-0.14-0.04-0.29-0.06-0.44-0.07c-0.2-0.01-0.41-0.01-0.62-0.01c-0.39,0-0.78,0-1.18,0c-0.08,0-0.12,0.01-0.15,0.04
	c-0.03,0.03-0.04,0.08-0.04,0.16c0.01,3.86,0,7.72,0,11.59c0,0.07-0.02,0.14,0.04,0.21c0,0.14,0,0.3,0.02,0.45c0,0.02,0,0.03,0,0.05
	c0,0.04,0,0.09,0,0.13c0,0.08,0.01,0.16,0.05,0.24c0.01,0.04,0.01,0.07,0.01,0.11c0,0.03,0.01,0.07,0.01,0.1
	c-0.01,0.03-0.01,0.05,0.02,0.07c0.02,0.1,0.03,0.2,0.04,0.29c-0.01,0.04,0,0.06,0.03,0.08c0.04,0.24,0.11,0.48,0.18,0.71
	c0.1,0.33,0.22,0.66,0.37,0.98c0.08,0.18,0.19,0.34,0.29,0.51c0.62,1.09,1.49,1.95,2.63,2.55c0.46,0.24,0.94,0.43,1.44,0.57
	c0.34,0.1,0.69,0.17,1.04,0.22c0.17,0.03,0.35,0.06,0.53,0.08c0.77,0.08,1.53,0.09,2.28,0.01c0.67-0.06,1.34-0.19,2-0.41
	c0,0,0.01,0,0.01,0h0c0,0,0,0,0,0c1.53-0.51,2.75-1.4,3.62-2.76c0.47-0.73,0.78-1.53,0.95-2.38c0,0,0,0,0,0
	c0.03-0.01,0.03-0.03,0.03-0.07c0,0,0,0,0,0c0.01-0.04,0.01-0.08,0.02-0.12c0.01-0.06,0.02-0.11,0.03-0.17
	c0.02-0.01,0.02-0.04,0.01-0.06c0-0.01,0.01-0.01,0.01-0.02c0-0.04,0.01-0.08,0.01-0.12c0-0.04,0.01-0.08,0.01-0.13
	c0.05-0.08,0.07-0.16,0.05-0.26c0.01-0.06,0.02-0.12,0.02-0.18c0-0.01,0-0.01,0-0.02c0-0.06,0-0.13,0-0.19
	c0.03-0.02,0.03-0.05,0.03-0.08c0,0,0,0,0-0.01c0,0,0,0,0,0c0-0.03,0-0.06,0-0.09C75.22,84.77,75.22,84.33,75.22,83.9z"/>
<path class="st0" d="M44.51,89.87c-0.01-0.09-0.04-0.17-0.07-0.24c-0.02-0.06-0.05-0.11-0.08-0.16c-0.05-0.08-0.11-0.16-0.19-0.22
	c-0.03-0.03-0.06-0.07-0.09-0.1c-0.01-0.01-0.02-0.02-0.03-0.04c-0.04-0.1-0.12-0.18-0.22-0.25c-0.01-0.01-0.03-0.03-0.04-0.04
	c-0.02-0.02-0.04-0.04-0.06-0.07c-0.05-0.1-0.12-0.17-0.22-0.22c0,0,0,0,0,0c-0.01-0.01-0.02-0.02-0.03-0.03
	c-0.22-0.21-0.5-0.26-0.76-0.14c-0.03,0-0.06,0.01-0.07,0.03c0,0,0,0,0,0c-0.05,0.01-0.09,0.02-0.11,0.07
	c-0.05,0.01-0.09,0.02-0.11,0.07v0.01c-0.06,0.02-0.1,0.06-0.14,0.1c-0.03,0.02-0.05,0.05-0.08,0.08c-0.05,0.02-0.09,0.05-0.12,0.1
	c0,0-0.01,0.01-0.01,0.01c0,0-0.01,0-0.01,0.01c0,0.03-0.03,0.02-0.04,0.03c-0.02,0.01-0.04,0.01-0.05,0.03
	c-0.01,0.01-0.01,0.01-0.01,0.01c0,0,0,0,0,0c-0.08,0.02-0.14,0.07-0.2,0.12c-0.01,0-0.02,0-0.02,0.01
	c-0.42,0.18-0.85,0.22-1.3,0.18c-0.02,0-0.04-0.01-0.07-0.01c0,0,0,0,0,0c-0.13-0.06-0.27-0.11-0.4-0.17c0,0,0,0,0,0
	c-0.03-0.02-0.06-0.04-0.09-0.06c-0.02-0.03-0.05-0.06-0.09-0.07c-0.04-0.04-0.07-0.07-0.11-0.11c-0.05,0-0.07-0.03-0.07-0.08
	c-0.04-0.07-0.08-0.14-0.12-0.2c-0.01-0.04-0.02-0.07-0.03-0.11c-0.02-0.06-0.05-0.12-0.09-0.16c-0.04-0.15-0.06-0.3-0.08-0.45
	c-0.04-0.3-0.06-0.6-0.06-0.91c0-0.34,0-0.68-0.01-1.02c0-0.46-0.01-0.92-0.01-1.38c0.04-0.07,0.02-0.15,0.02-0.22
	c0-0.48,0-0.95,0-1.43c0-2.09-0.01-4.19-0.01-6.28c0-0.24,0-0.24,0.24-0.24h2.34c0.42,0,0.79-0.14,1.09-0.45
	c0.02-0.02,0.03-0.05,0.05-0.07c0.24-0.27,0.39-0.59,0.46-0.93c0.02-0.12,0.04-0.25,0.05-0.38c0.02-0.38,0-0.76,0.01-1.14
	c0-0.06-0.02-0.1-0.04-0.13c-0.03-0.05-0.08-0.08-0.18-0.08c-1,0.01-2,0-3,0h-0.77c-0.13,0-0.19,0-0.23-0.03
	c-0.03-0.03-0.03-0.1-0.03-0.22c0-1.2,0-2.39,0-3.59c0-0.16-0.03-0.3-0.09-0.42c-0.01-0.03-0.03-0.05-0.05-0.08
	c-0.07-0.1-0.16-0.19-0.3-0.25c-0.15-0.07-0.31-0.08-0.48-0.08c-0.83,0-1.67,0-2.5,0c-0.11,0-0.17,0-0.21,0.01
	c-0.01,0-0.03,0-0.04,0.01c-0.03,0.03-0.03,0.09-0.03,0.25c0,0.69,0,1.37,0,2.06v2.13c0,0.09-0.02,0.15-0.05,0.18c0,0-0.02,0-0.02,0
	c-0.04,0.03-0.08,0.04-0.16,0.03c-0.4-0.01-0.81,0-1.21,0c-0.11,0-0.21,0.02-0.3,0.05c-0.05,0.02-0.1,0.03-0.15,0.06
	c-0.65,0.32-0.94,0.89-1,1.58c-0.04,0.44,0,0.88-0.01,1.32c0,0.04,0.01,0.06,0.02,0.08c0.01,0.02,0,0.05,0.02,0.06
	c0.03,0.03,0.07,0.04,0.14,0.04c0.83-0.01,1.67,0,2.5,0c0.24,0,0.24,0,0.24,0.23c0,0.77,0,1.55,0,2.32c0,1.57,0,3.15-0.01,4.72
	c0,0.06,0.01,0.12,0.01,0.18c0,0.02,0,0.04,0,0.06c0,0.57,0,1.15,0,1.72c0,0.63-0.01,1.25-0.01,1.88c0,0.1,0.01,0.2,0.02,0.3
	c-0.02,0.04-0.03,0.08,0.01,0.11c0.01,0.04,0.01,0.07,0.01,0.11c-0.01,0.04-0.02,0.08,0.02,0.11c0,0.03,0.01,0.05,0.01,0.08
	c0.01,0.07,0.01,0.14,0.02,0.21c0,0,0,0.01,0,0.01c-0.01,0.02-0.01,0.05,0.02,0.06c0,0,0,0.01,0,0.01c0.01,0.05,0.01,0.1,0.02,0.15
	c0.01,0.06,0.02,0.12,0.02,0.18c-0.01,0.03,0,0.06,0.03,0.07c0.08,0.44,0.22,0.85,0.41,1.23c0.12,0.25,0.26,0.5,0.43,0.72
	c0.1,0.13,0.21,0.25,0.32,0.36c0.44,0.46,0.97,0.79,1.6,0.98c0.06,0.03,0.12,0.06,0.19,0.06c0.03,0,0.07,0.01,0.1,0.01
	c0.03,0.02,0.05,0.04,0.08,0.05c0,0,0.01,0,0.01,0c0.03,0.01,0.06,0.02,0.1,0.01c0.04,0,0.09,0.01,0.14,0.01
	c0.01,0.01,0.02,0.01,0.03,0.01c0.06,0.04,0.12,0.06,0.19,0.04c0,0,0.01,0,0.01,0c0.08,0.01,0.16,0.01,0.24,0.02
	c0.05,0.03,0.11,0.04,0.16,0.04c0.06,0,0.11,0,0.17,0c0.14-0.01,0.29,0,0.44-0.01c0.11,0,0.21,0,0.32,0
	c0.09,0.01,0.18,0.02,0.27-0.02c0.01,0,0.02,0,0.03-0.01c0.01,0,0.02,0,0.04,0c0.08,0,0.17,0,0.25-0.02c0.08,0.03,0.15,0,0.22-0.05
	c0.02,0,0.05,0,0.07-0.01c0.03,0,0.07-0.01,0.1-0.01c0,0,0.01,0,0.01,0c0.07,0.01,0.13-0.01,0.18-0.06c0.01,0,0.03,0,0.04,0
	c0.02,0,0.04-0.01,0.06-0.01c0.07,0,0.13-0.03,0.19-0.06c0.02-0.01,0.05-0.01,0.07-0.01c0.04,0.01,0.06-0.02,0.08-0.04
	c0,0,0.01,0,0.01,0c0.03-0.01,0.06-0.02,0.09-0.02c0.03,0.01,0.06-0.01,0.07-0.04c0.01,0,0.02-0.01,0.03-0.01
	c0.06-0.01,0.12-0.03,0.17-0.07c0,0,0.01,0,0.01,0c0-0.01,0.02,0,0.02-0.01c0.03,0,0.05-0.01,0.07-0.03
	c0.03-0.02,0.07-0.03,0.11-0.05c0.01,0,0.01-0.01,0.02-0.01c0.03,0,0.05-0.01,0.07-0.02c0,0,0.01,0,0.01,0
	c0.01,0,0.02-0.02,0.03-0.02c0.02-0.01,0.03-0.02,0.05-0.04c0.03-0.01,0.06-0.03,0.1-0.05c0.02-0.01,0.05-0.02,0.07-0.04
	c0,0,0.01,0,0.01,0c0.04,0.01,0.06-0.02,0.09-0.05c0,0,0.01-0.01,0.02-0.01c0.02-0.01,0.03-0.03,0.05-0.04
	c0.02-0.01,0.04-0.01,0.05-0.04c0.08-0.06,0.17-0.12,0.25-0.18c0-0.02,0.02-0.01,0.03-0.02c0.02-0.01,0.04-0.02,0.06-0.04
	c0.06-0.03,0.1-0.07,0.14-0.12c0.02,0,0.03-0.02,0.05-0.04c0.01-0.01,0.01-0.03,0.03-0.03c0.13-0.1,0.25-0.21,0.35-0.33
	c0.06-0.05,0.09-0.1,0.13-0.16c0.06-0.09,0.1-0.19,0.11-0.31C44.53,90.13,44.53,90,44.51,89.87C44.51,89.87,44.51,89.87,44.51,89.87
	C44.51,89.87,44.51,89.87,44.51,89.87z"/>
<path class="st0" d="M105.07,89.83c-0.06-0.13-0.11-0.26-0.17-0.39c-0.09-0.18-0.26-0.3-0.48-0.32c-0.22-0.01-0.42,0.04-0.62,0.1
	c-0.14,0.04-0.29,0.06-0.43,0.08c-0.21,0.02-0.42,0.02-0.64-0.04c-0.15-0.04-0.31-0.15-0.45-0.27c-0.18-0.16-0.31-0.34-0.38-0.53
	c-0.02-0.05-0.05-0.1-0.05-0.14c-0.05-0.44-0.08-0.87-0.08-1.31c0-0.1,0.01-0.2,0.01-0.31c0-2,0-4,0-6v-3.48c0-0.57,0-1.14,0-1.71
	c0-0.31,0-0.61-0.01-0.91c-0.01-0.21-0.06-0.4-0.14-0.57c-0.25-0.52-0.82-0.87-1.38-0.9c-0.23-0.01-0.46-0.01-0.7-0.01
	c-0.42,0-0.83,0-1.25,0c-0.16,0-0.2,0.04-0.2,0.2c0,3.69,0,7.37,0,11.06c0,0.36,0,0.72,0,1.08c0,0.03-0.01,0.06-0.01,0.1
	c0,0.03,0.01,0.06,0.04,0.09c-0.03,0.05-0.03,0.1-0.03,0.16c0,0.36,0,0.72,0,1.07c0,0.07,0,0.14,0,0.21
	c-0.02,0.78,0.08,1.54,0.32,2.28c0.3,0.9,0.81,1.59,1.53,2.09c0.3,0.21,0.64,0.4,1.02,0.53c0.13,0.04,0.25,0.08,0.38,0.11
	c0.13,0.03,0.25,0.06,0.38,0.08c0.39,0.06,0.78,0.09,1.18,0.08c0.02,0,0.05,0,0.07,0c0.34,0,0.68-0.05,1-0.13
	c0.01,0,0.02,0,0.02-0.01c0.32-0.08,0.63-0.2,0.94-0.34c0,0,0,0,0,0c0,0,0,0,0,0c0.06-0.03,0.11-0.07,0.17-0.11
	c0.03-0.02,0.07-0.04,0.09-0.06c0.22-0.19,0.3-0.44,0.23-0.75C105.34,90.5,105.21,90.16,105.07,89.83z"/>
</svg>
