<svg id="Layer_1" data-name="Layer 1" xmlns="http://www.w3.org/2000/svg" viewBox="0 0 300 300"><path d="M256.23,14.8H43.77a29,29,0,0,0-29,29V256.23a29,29,0,0,0,29,29H256.23a29,29,0,0,0,29-29V43.77A29,29,0,0,0,256.23,14.8Zm0,19.31a9.67,9.67,0,0,1,9.66,9.66V256.23a9.67,9.67,0,0,1-9.66,9.66H43.77a9.67,9.67,0,0,1-9.66-9.66V43.77a9.67,9.67,0,0,1,9.66-9.66H256.23m-20.7,59.33-5.1-5.14a7.25,7.25,0,0,0-10.25,0l-98.65,97.86-41.63-42a7.24,7.24,0,0,0-10.24,0l-5.15,5.1a7.25,7.25,0,0,0,0,10.24l51.84,52.25a7.24,7.24,0,0,0,10.24,0L235.49,103.68a7.24,7.24,0,0,0,0-10.24Z"/></svg>