<?xml version="1.0" encoding="utf-8"?>
<!-- Generator: Adobe Illustrator 25.1.0, SVG Export Plug-In . SVG Version: 6.00 Build 0)  -->
<svg version="1.1" id="Layer_1" xmlns="http://www.w3.org/2000/svg" xmlns:xlink="http://www.w3.org/1999/xlink" x="0px" y="0px"
	 viewBox="0 0 300 300" style="enable-background:new 0 0 300 300;" xml:space="preserve">
<style type="text/css">
	.st0{fill:#062256;}
</style>
<path class="st0" d="M256.2,14.8H43.8c-16,0-29,13-29,29v212.4c0,16,13,29,29,29l0,0h212.5c16,0,29-13,29-29l0,0V43.8
	C285.2,27.8,272.2,14.8,256.2,14.8z M256.2,34.1c5.3,0,9.7,4.3,9.7,9.7v212.5c0,5.3-4.3,9.7-9.7,9.7H43.8c-5.3,0-9.7-4.3-9.7-9.7
	V43.8c0-5.3,4.3-9.7,9.7-9.7H256.2 M235.5,93.4l-5.1-5.1c-2.8-2.8-7.4-2.8-10.2,0l-98.7,97.9l-41.6-42c-2.8-2.8-7.4-2.8-10.2,0
	c0,0,0,0,0,0l-5.2,5.1c-2.8,2.8-2.8,7.4,0,10.2l51.8,52.2c2.8,2.8,7.4,2.8,10.2,0c0,0,0,0,0,0l108.9-108.1
	C238.3,100.9,238.3,96.3,235.5,93.4C235.5,93.4,235.5,93.4,235.5,93.4L235.5,93.4z"/>
</svg>
