<svg id="Layer_1" data-name="Layer 1" xmlns="http://www.w3.org/2000/svg" viewBox="0 0 300 300"><path d="M256.13,14.93H43.87A28.94,28.94,0,0,0,14.93,43.87V256.13a28.94,28.94,0,0,0,28.94,28.94H256.13a28.94,28.94,0,0,0,28.94-28.94V43.87A28.94,28.94,0,0,0,256.13,14.93Zm9.64,241.2a9.67,9.67,0,0,1-9.64,9.64H43.87a9.67,9.67,0,0,1-9.64-9.64V43.87a9.67,9.67,0,0,1,9.64-9.64H256.13a9.67,9.67,0,0,1,9.64,9.64ZM207.16,108.21,165.38,150l41.78,41.79a7.23,7.23,0,0,1,0,10.25L202,207.16a7.23,7.23,0,0,1-10.25,0L150,165.38l-41.79,41.78a7.23,7.23,0,0,1-10.25,0L92.84,202a7.23,7.23,0,0,1,0-10.25L134.62,150,92.84,108.21a7.23,7.23,0,0,1,0-10.25L98,92.84a7.23,7.23,0,0,1,10.25,0L150,134.62l41.79-41.78a7.23,7.23,0,0,1,10.25,0L207.16,98a7.34,7.34,0,0,1,0,10.25Z"/></svg>