<?xml version="1.0" encoding="utf-8"?>
<!-- Generator: Adobe Illustrator 25.1.0, SVG Export Plug-In . SVG Version: 6.00 Build 0)  -->
<svg version="1.1" id="Layer_1" xmlns="http://www.w3.org/2000/svg" xmlns:xlink="http://www.w3.org/1999/xlink" x="0px" y="0px"
	 viewBox="0 0 300 300" style="enable-background:new 0 0 300 300;" xml:space="preserve">
<style type="text/css">
	.st0{fill:#062256;}
</style>
<path class="st0" d="M256.1,14.9H43.9c-16,0-28.9,13-28.9,28.9v212.3c0,16,13,28.9,28.9,28.9c0,0,0,0,0,0h212.3
	c16,0,28.9-13,28.9-28.9l0,0V43.9C285.1,27.9,272.1,14.9,256.1,14.9L256.1,14.9z M265.8,256.1c0,5.3-4.3,9.6-9.6,9.6H43.9
	c-5.3,0-9.6-4.3-9.6-9.6V43.9c0-5.3,4.3-9.6,9.6-9.6h212.3c5.3,0,9.6,4.3,9.6,9.6V256.1z M207.2,108.2L165.4,150l41.8,41.8
	c2.8,2.8,2.8,7.4,0,10.2c0,0,0,0,0,0l-5.2,5.1c-2.8,2.8-7.4,2.8-10.2,0c0,0,0,0,0,0L150,165.4l-41.8,41.8c-2.8,2.8-7.4,2.8-10.2,0
	c0,0,0,0,0,0l-5.1-5.2c-2.8-2.8-2.8-7.4,0-10.2c0,0,0,0,0,0l41.8-41.8l-41.8-41.8c-2.8-2.8-2.8-7.4,0-10.2c0,0,0,0,0,0l5.2-5.1
	c2.8-2.8,7.4-2.8,10.2,0c0,0,0,0,0,0l41.8,41.8l41.8-41.8c2.8-2.8,7.4-2.8,10.2,0c0,0,0,0,0,0l5.1,5.2
	C209.9,100.9,209.9,105.4,207.2,108.2L207.2,108.2z"/>
</svg>
