<svg xmlns="http://www.w3.org/2000/svg" xmlns:xlink="http://www.w3.org/1999/xlink" viewBox="0 0 300 300"><defs><style>.cls-1{fill:none;}.cls-2{isolation:isolate;}.cls-3{opacity:0.47;}.cls-4{clip-path:url(#clip-path);}.cls-5{mix-blend-mode:multiply;fill:url(#radial-gradient);}.cls-6,.cls-7{fill:#a7d5e0;}.cls-7{stroke:#a7d5e0;stroke-miterlimit:10;stroke-width:2.37px;}</style><clipPath id="clip-path"><rect class="cls-1" x="-6.12" y="419.49" width="633.97" height="334.6"/></clipPath><radialGradient id="radial-gradient" cx="145.36" cy="556.37" r="481.28" gradientUnits="userSpaceOnUse"><stop offset="0" stop-color="#4a7481"/><stop offset="1" stop-color="#fff"/></radialGradient></defs><g class="cls-2"><g id="Layer_1" data-name="Layer 1"><g class="cls-3"><g class="cls-4"><circle class="cls-5" cx="145.36" cy="556.37" r="481.28"/></g></g><g id="ZMb9R2.tif"><path class="cls-6" d="M221.25,197.12v3.33q0,33.21,0,66.42a11.57,11.57,0,0,0,5,10,11,11,0,0,0,12.11.89,11.31,11.31,0,0,0,6.41-10.6q0-63.59-.05-127.16a3.87,3.87,0,0,1,2.05-3.74q19.5-12.54,38.91-25.22c7.25-4.72,7.92-11.09,1.76-17.18-5.56-5.5-11.16-11-16.74-16.43-3.59-3.51-7.13-7.07-10.79-10.5a8.19,8.19,0,0,0-11.37-.16c-3.29,3.17-3.5,7.7-.48,11.32.95,1.14,2,2.2,3,3.29l16.9,18.47c-.94.48-1.66.86-2.39,1.21-8,3.88-16,7.71-23.93,11.67a8.88,8.88,0,0,0-3.23,2.79c-10.41,15.1-32.21,16.52-43.77,2.41a28.21,28.21,0,0,0-10.53-8C179.93,108,175.9,106,171.83,104l-8.57-4.15c.67-.77,1.19-1.38,1.72-2q8.76-9.55,17.5-19.13c3.65-4,3.67-8.69.16-12.07-3.3-3.16-8.24-2.91-11.91.68Q157.13,80.68,143.57,94c-6.2,6.12-5.55,12.15,1.74,16.89,12.69,8.24,25.35,16.52,38.1,24.66a5,5,0,0,1,2.71,4.88q-.12,63-.06,125.93c0,7.35,5.1,12.83,11.87,12.73s11.66-5.45,11.66-12.68V197.12Zm-5.93-74.76a22.78,22.78,0,1,0-22.66-22.83A22.79,22.79,0,0,0,215.32,122.36ZM182.13,49.93c1.68-2,3.11-3.28,4-4.87.79-1.38,1.74-3.44,1.23-4.56s-2.67-1.82-4.22-2.22a42.63,42.63,0,0,0-6.2-.67c1.31-1.65,2.29-2.74,3.1-4,2-3,1.56-5.71-1.47-7.61a22.54,22.54,0,0,0-5.41-2.3c-.64-.19-1.53.42-2.31.67.45.65.76,1.55,1.38,1.9,1.42.79,3,1.24,4.49,2,1.66.84,1.86,2.19.87,3.71a15.68,15.68,0,0,0-1.5,1.93c-.65,1.49-1.9,3.4-1.44,4.52s2.65,1.81,4.21,2.2a48.06,48.06,0,0,0,6.51.66,44.16,44.16,0,0,0-4,4.88c-.81,1.38-1.76,3.18-1.49,4.57.38,2,2.62,2.15,4.47,2.27l6.22.44a50.79,50.79,0,0,0-3.52,4.84c-1.83,3.25-.81,5.36,2.77,6.11,2.32.49,4.73.69,6.27,3a1.93,1.93,0,0,0,1.89.09c.38-.29.56-1.6.29-1.83a21.16,21.16,0,0,0-4.46-3.22c-1.34-.66-2.95-.76-5-1.25a41.42,41.42,0,0,0,3.28-4.64c.66-1.28,1.45-3,1-4.17-.34-.94-2.3-1.55-3.63-1.8C187.35,50.16,185.13,50.17,182.13,49.93Zm61,5.4-.49.77c-1.63.16-3.26.27-4.88.48-3.88.52-5.17,2.17-5.41,6-.1,1.61-1.05,3.15-1.48,4.76a8.36,8.36,0,0,0,0,2.18c.73-.11,1.68,0,2.15-.39a7,7,0,0,0,2.32-6.22c-.25-2.55,1-3.36,3.29-3.49a34.77,34.77,0,0,0,4.9-.5c2.49-.52,3.3-2.53,1.89-4.65A25.26,25.26,0,0,0,243,51.52l-2.72-3c1.83,0,2.95,0,4.08,0a25,25,0,0,0,3.68-.14c3-.48,4-2.39,2.81-5.17a30.53,30.53,0,0,0-1.71-3l-1.93-3.34c2.31-.17,4.19-.18,6-.48,2.54-.4,4.3-2.18,4.22-4.68A28.76,28.76,0,0,0,256.18,25c-.15-.53-1.3-.79-2-1.18a10.55,10.55,0,0,0-.65,2.07c0,.44.31.92.42,1.4,1.1,4.7,1.32,7-4.82,6.43a6.12,6.12,0,0,0-.74,0c-3.54.13-4.85,2.26-3.28,5.45.58,1.17,1.38,2.23,2,3.37.45.81.81,1.68,1.41,2.94-2.23,0-4,0-5.76,0s-4-.31-5,1.84.59,3.74,2,5.15C240.83,53.53,242,54.39,243.14,55.33Zm-32,1.22-.25-1a33.61,33.61,0,0,0,4.38-2.16c1.28-.86,3.19-2,3.23-3.14.06-1.34-1.4-2.88-2.47-4.1a26.26,26.26,0,0,0-3.66-2.88c1.12-.68,1.8-1.1,2.49-1.5,1.94-1.12,4.61-1.68,4.67-4.51s-2.62-3.68-4.6-4.93c-.78-.49-1.51-1.07-2.54-1.8,1.36-.76,2.37-1.29,3.34-1.87,3.5-2.09,4.46-5.15,2.64-8.83a12,12,0,0,0-2.45-3.36c-.55-.52-1.65-.44-2.5-.62.14.85,0,1.93.46,2.53,3.51,4.44,3.28,6-1.5,8.75-3.74,2.13-3.79,4.68-.12,7,1.42.92,2.89,1.77,4.86,3-1.91,1.06-3.32,1.81-4.71,2.61-3.41,2-3.63,4.42-.58,7,1.24,1,2.59,1.93,4.11,3a56.14,56.14,0,0,0-5.79,2.8c-3,1.92-2.87,5.64.24,6.84,2.27.87,3.75,1.86,3.39,4.58-.06.41.82,1.32,1.31,1.34a2,2,0,0,0,1.49-1.2,5.71,5.71,0,0,0-3-6.58C212.73,57.18,211.91,56.88,211.09,56.55Z"/><path class="cls-6" d="M221.25,197.12H209.59v69.29c0,7.23-4.92,12.58-11.66,12.68s-11.87-5.38-11.87-12.73q0-63,.06-125.93a5,5,0,0,0-2.71-4.88c-12.75-8.14-25.41-16.42-38.1-24.66-7.29-4.74-7.94-10.77-1.74-16.89q13.53-13.35,27.16-26.61c3.67-3.59,8.61-3.84,11.91-.68,3.51,3.38,3.49,8.05-.16,12.07q-8.72,9.6-17.5,19.13c-.53.59-1,1.2-1.72,2l8.57,4.15c4.07,2,8.1,4,12.21,5.89a28.21,28.21,0,0,1,10.53,8c11.56,14.11,33.36,12.69,43.77-2.41a8.88,8.88,0,0,1,3.23-2.79c7.94-4,15.95-7.79,23.93-11.67.73-.35,1.45-.73,2.39-1.21L251,81.34c-1-1.09-2-2.15-3-3.29-3-3.62-2.81-8.15.48-11.32a8.19,8.19,0,0,1,11.37.16c3.66,3.43,7.2,7,10.79,10.5,5.58,5.47,11.18,10.93,16.74,16.43,6.16,6.09,5.49,12.46-1.76,17.18q-19.44,12.63-38.91,25.22a3.87,3.87,0,0,0-2.05,3.74q.09,63.58.05,127.16a11.31,11.31,0,0,1-6.41,10.6,11,11,0,0,1-12.11-.89,11.57,11.57,0,0,1-5-10q0-33.21,0-66.42Z"/><path class="cls-6" d="M215.32,122.36a22.78,22.78,0,0,1,.17-45.55,22.78,22.78,0,1,1-.17,45.55Z"/><path class="cls-6" d="M182.13,49.93c3,.24,5.22.23,7.37.64,1.33.25,3.29.86,3.63,1.8.4,1.13-.39,2.89-1,4.17a41.42,41.42,0,0,1-3.28,4.64c2.1.49,3.71.59,5,1.25a21.16,21.16,0,0,1,4.46,3.22c.27.23.09,1.54-.29,1.83a1.93,1.93,0,0,1-1.89-.09c-1.54-2.27-3.95-2.47-6.27-3-3.58-.75-4.6-2.86-2.77-6.11a50.79,50.79,0,0,1,3.52-4.84L184.39,53c-1.85-.12-4.09-.26-4.47-2.27-.27-1.39.68-3.19,1.49-4.57a44.16,44.16,0,0,1,4-4.88,48.06,48.06,0,0,1-6.51-.66c-1.56-.39-3.74-1.06-4.21-2.2s.79-3,1.44-4.52A15.68,15.68,0,0,1,177.6,32c1-1.52.79-2.87-.87-3.71-1.46-.74-3.07-1.19-4.49-2-.62-.35-.93-1.25-1.38-1.9.78-.25,1.67-.86,2.31-.67a22.54,22.54,0,0,1,5.41,2.3c3,1.9,3.48,4.63,1.47,7.61-.81,1.21-1.79,2.3-3.1,4a42.63,42.63,0,0,1,6.2.67c1.55.4,3.69,1.06,4.22,2.22s-.44,3.18-1.23,4.56C185.24,46.65,183.81,47.94,182.13,49.93Z"/><path class="cls-6" d="M243.14,55.33c-1.12-.94-2.31-1.8-3.33-2.84-1.38-1.41-3-2.92-2-5.15s3.09-1.81,5-1.84,3.53,0,5.76,0c-.6-1.26-1-2.13-1.41-2.94-.65-1.14-1.45-2.2-2-3.37-1.57-3.19-.26-5.32,3.28-5.45a6.12,6.12,0,0,1,.74,0c6.14.53,5.92-1.73,4.82-6.43-.11-.48-.47-1-.42-1.4a10.55,10.55,0,0,1,.65-2.07c.69.39,1.84.65,2,1.18a28.76,28.76,0,0,1,1.26,6.72c.08,2.5-1.68,4.28-4.22,4.68-1.83.3-3.71.31-6,.48l1.93,3.34a30.53,30.53,0,0,1,1.71,3c1.22,2.78.19,4.69-2.81,5.17a25,25,0,0,1-3.68.14c-1.13,0-2.25,0-4.08,0l2.72,3a25.26,25.26,0,0,1,2.43,2.76c1.41,2.12.6,4.13-1.89,4.65a34.77,34.77,0,0,1-4.9.5c-2.24.13-3.54.94-3.29,3.49A7,7,0,0,1,233,69.14c-.47.41-1.42.28-2.15.39a8.36,8.36,0,0,1,0-2.18c.43-1.61,1.38-3.15,1.48-4.76.24-3.84,1.53-5.49,5.41-6,1.62-.21,3.25-.32,4.88-.48Z"/><path class="cls-6" d="M211.09,56.55c.82.33,1.64.63,2.44,1a5.71,5.71,0,0,1,3,6.58,2,2,0,0,1-1.49,1.2c-.49,0-1.37-.93-1.31-1.34.36-2.72-1.12-3.71-3.39-4.58-3.11-1.2-3.22-4.92-.24-6.84a56.14,56.14,0,0,1,5.79-2.8c-1.52-1.12-2.87-2-4.11-3-3.05-2.57-2.83-5,.58-7,1.39-.8,2.8-1.55,4.71-2.61-2-1.19-3.44-2-4.86-3-3.67-2.37-3.62-4.92.12-7,4.78-2.7,5-4.31,1.5-8.75-.47-.6-.32-1.68-.46-2.53.85.18,1.95.1,2.5.62a12,12,0,0,1,2.45,3.36c1.82,3.68.86,6.74-2.64,8.83-1,.58-2,1.11-3.34,1.87,1,.73,1.76,1.31,2.54,1.8,2,1.25,4.65,2,4.6,4.93s-2.73,3.39-4.67,4.51c-.69.4-1.37.82-2.49,1.5A26.26,26.26,0,0,1,216,46.12c1.07,1.22,2.53,2.76,2.47,4.1,0,1.1-1.95,2.28-3.23,3.14a33.61,33.61,0,0,1-4.38,2.16Z"/></g><g id="lmD6ww.tif"><path class="cls-7" d="M158.93,260.44H97v15h1.44c4.7,0,9.41,0,14.12,0a2.35,2.35,0,1,1,.2,4.68,11.76,11.76,0,0,1-1.19,0H60.51a11.71,11.71,0,0,1-1.57-.07,2.31,2.31,0,0,1,.22-4.62c1.85,0,3.69,0,5.54,0H75V260.47H13.05V161.41H42v-1.48A10.32,10.32,0,0,1,52.3,149.42c2.37-.06,4.73,0,7.24,0,0-2.58,0-5,0-7.4,0-4.81,2.79-7.6,7.62-7.6,18.27,0,36.53.06,54.79,0a7.32,7.32,0,0,1,7.6,7.56c-.22,5.93-.05,11.88-.05,17.82v1.56h29.43Zm-141.17-21H154.21V166.13H129.54v1.6c0,18.62-.06,37.24.05,55.85a7.21,7.21,0,0,1-7.3,7.46c-18.48,0-37,0-55.45,0-4.47,0-7.27-3-7.27-7.43v-5.1c-2.35,0-4.5,0-6.65,0C46.37,218.41,42,214,42,207.5V166.16H17.76Zm46.65-20.93a2.74,2.74,0,0,0-.14.45c0,1.37,0,2.73,0,4.09,0,2.7.57,3.29,3.22,3.29h54.12c2.69,0,3.25-.56,3.25-3.25V142.28c0-2.61-.55-3.15-3.2-3.15H66.33a1.89,1.89,0,0,0-2,1.75c-.12,2.79,0,5.59,0,8.51,1,0,1.8,0,2.63,0a49.12,49.12,0,0,1,7,.21c5.11.85,8.48,5.2,8.49,10.56,0,15.67-.1,31.33,0,47,.06,6.33-4.51,11.62-11.28,11.34C68.93,218.41,66.69,218.49,64.41,218.49ZM46.75,184.07V207.7c0,3.62,2.2,6.05,5.83,6.11q9.63.13,19.27,0c3.62-.05,5.82-2.51,5.82-6.12q0-23.7,0-47.4c0-3.76-2.23-6.13-6-6.17q-9.44-.11-18.88,0c-3.79,0-6,2.4-6,6.19Q46.75,172.18,46.75,184.07Zm107.48,60.26H17.77v11.33H154.23ZM79.86,260.5v14.82H92.11V260.5Z"/><path class="cls-7" d="M94.58,222.14a6.77,6.77,0,1,1,6.79-6.81A6.79,6.79,0,0,1,94.58,222.14Zm0-4.74a2,2,0,1,0-.12-4.09,2,2,0,1,0,.12,4.09Z"/><path class="cls-7" d="M94.57,147.34c-1.14,0-2.28,0-3.42,0a2.35,2.35,0,1,1,0-4.69c2.23-.06,4.47-.06,6.7,0a2.32,2.32,0,0,1,2.53,2.3c0,1.4-.93,2.33-2.55,2.4C96.76,147.38,95.67,147.34,94.57,147.34Z"/><path class="cls-7" d="M68.4,206.14A6.2,6.2,0,1,1,62.17,200,6.27,6.27,0,0,1,68.4,206.14Zm-4.14,0c-.94-.66-1.44-1.27-2-1.37-.88-.14-1.48.48-1.47,1.42s.63,1.54,1.51,1.36C62.86,207.4,63.34,206.78,64.26,206.1Z"/><path class="cls-7" d="M62.17,159.81c-.88,0-1.76,0-2.63,0a2.3,2.3,0,0,1-2.18-2.22,2.21,2.21,0,0,1,2-2.33,56,56,0,0,1,5.65,0,2.23,2.23,0,0,1,2,2.25,2.32,2.32,0,0,1-2.11,2.29c-.91.07-1.84,0-2.76,0Z"/></g></g></g></svg>