<svg xmlns="http://www.w3.org/2000/svg" xmlns:xlink="http://www.w3.org/1999/xlink" viewBox="0 0 300 300"><defs><style>.cls-1{fill:none;}.cls-2{isolation:isolate;}.cls-3{opacity:0.47;}.cls-4{clip-path:url(#clip-path);}.cls-5{mix-blend-mode:multiply;fill:url(#radial-gradient);}.cls-6{fill:#a7d5e0;}</style><clipPath id="clip-path"><rect class="cls-1" x="-337.66" y="419.49" width="633.97" height="334.6"/></clipPath><radialGradient id="radial-gradient" cx="-186.17" cy="556.37" r="481.28" gradientUnits="userSpaceOnUse"><stop offset="0" stop-color="#4a7481"/><stop offset="1" stop-color="#fff"/></radialGradient></defs><g class="cls-2"><g id="Layer_1" data-name="Layer 1"><g class="cls-3"><g class="cls-4"><circle class="cls-5" cx="-186.17" cy="556.37" r="481.28"/></g></g><path class="cls-6" d="M244.88,122.25v3.82q0,71.13,0,142.26c0,6.15-3.35,10.6-8.67,11.56a10.7,10.7,0,0,1-12.84-10.6c0-13.63,0-27.26,0-40.9V194.32h-9c-.06,1.07-.16,2.1-.16,3.14q0,35.68,0,71.38c0,4.43-1.8,7.86-5.7,10a10.09,10.09,0,0,1-11-.53c-3.38-2.29-4.84-5.62-4.84-9.75q.06-56.64,0-113.27V111.47h-3.47q-29.61,0-59.22,0c-4.29,0-8-1-10.5-4.83a10.63,10.63,0,0,1,6.82-16.4A20.65,20.65,0,0,1,130,90q50.92,0,101.84,0a92.73,92.73,0,0,1,13.32,1c10.66,1.58,18.06,8.86,19.9,19.55q5.25,30.36,10.25,60.77c1.46,8.86-5.41,15.33-13.59,12.92-4.49-1.32-6.86-4.57-7.61-9.14q-4.22-25.89-8.5-51.78A6.38,6.38,0,0,0,244.88,122.25Z"/><path class="cls-6" d="M218.75,36.84a24.73,24.73,0,1,1-24.68,24.79A24.79,24.79,0,0,1,218.75,36.84Z"/><path class="cls-6" d="M85.35,194.27c-1.64-1.2-1.24-3.31-.92-5.28a2.85,2.85,0,0,1,3.26-2.07,2.77,2.77,0,0,1,2.7,2.56c.17,1.69.55,3.55-1.38,4.83,2.55,1.7,1.46,4.24,1.85,6.69l6.93-4.26a16.84,16.84,0,0,1,1.74-1,3,3,0,0,1,4.22,1.26c1.81,3.23,3.58,6.49,5.28,9.79,1,1.84.4,3.26-1.61,4.5q-7.19,4.44-14.38,8.82c-2.64,1.62-2.65,1.66-2.11,5.18l41.45-24.46-5.33-9.72c-2.33-4.23-4.68-8.46-7-12.72a2,2,0,0,0-2.09-1.23c-2.64.08-5.29.06-7.93,0-2.34,0-3.43-1.26-3.45-3.62,0-.45-.45-.89-.61-1.36-.35-1-1.1-2.18-.85-3a4,4,0,0,1,2.37-2.25c3.2-1,5.15.53,5.33,4h46.68c3.82,0,4.67.85,4.67,4.64V275.82c0,3.8-.85,4.64-4.67,4.64H29.09c-3.73,0-4.55-.83-4.55-4.55V175.49c0-3.6.84-4.44,4.49-4.44H62.44c-.31-4,2-5.76,5.76-4.55a3.08,3.08,0,0,1-.21,5.95c-.38.09-.77.12-1.11.17-.08.17-.18.27-.17.36.34,3-.71,4.23-3.84,4.23h-32v96.92H84.45V272q0-36.72,0-73.42A24.23,24.23,0,0,1,85.35,194.27ZM157.82,274c0-.36.09-.57.09-.79,0-8.49,0-17,0-25.48a4.58,4.58,0,0,0-.63-2c-3-5.52-6.06-11-9.1-16.54-1.05-1.91-2.11-3.81-3.22-5.81l-22.61,13.34a18.07,18.07,0,0,1,3.11,1.31,9,9,0,0,0,10.46.09,8.15,8.15,0,0,1,1.55-.64c1.43-.53,2.8-.53,3.85.72a3.07,3.07,0,0,1,.13,3.9c-1.31,2.16-2.57,4.36-3.86,6.53l-5,8.52c1.87.5,3.69.86,5.4,1.5a3.89,3.89,0,0,1,2.76,3.86,3.76,3.76,0,0,1-2.92,3.72,31.09,31.09,0,0,1-7.75,1.18,27.29,27.29,0,0,1-7.2-1.38,3.5,3.5,0,0,1-2.48-3.48,3.79,3.79,0,0,1,2.39-3.73,14.84,14.84,0,0,1,2.69-1c.94-.25,1.93-.37,2.89-.55-2.61-4.59-5.18-9.06-7.72-13.55-.88-1.55-2.17-3-1-5.38-9.71,5.73-18.91,11.14-28.07,16.62a2.19,2.19,0,0,0-.73,1.63c-.08,2.92,0,5.85,0,8.77V274Zm-31.33-96.81c.39.76.65,1.31.94,1.83l11.07,20.07c1.84,3.34,1.53,4.51-1.7,6.42Q116,217.78,95.14,230.07c-1.38.81-2.83,1.5-4.33,2.29V248c.71-.39,1.29-.68,1.86-1l50.71-29.79c3.37-2,4.51-1.66,6.39,1.82q3.55,6.6,7.13,13.19c.19.34.45.64.77,1.09v-40.4l-1.8,1c-2.6,1.47-4.2,1-5.7-1.55-2.75-4.71-5.46-9.44-8.26-14.11a2.35,2.35,0,0,0-1.62-1.06C135.8,177.13,131.3,177.17,126.49,177.17Zm28.3,10.47a17.85,17.85,0,0,0,1.79-1c.5-.38,1.26-.86,1.28-1.32.13-2.66.06-5.33.06-8h-9.3C150.74,180.83,152.73,184.17,154.79,187.64Zm-55,15.22c-2.91,1.78-5.69,3.46-8.45,5.19a1.31,1.31,0,0,0-.59.89c-.06,1.64,0,3.28,0,5.21l11.41-7Z"/><path class="cls-6" d="M70.27,207.53c-.56,2.8-1,5.64-1.71,8.37a47.5,47.5,0,0,1-7.75,15.23c-1.46,2-3.78,2.11-5.24.17-4.57-6.06-8.32-12.57-9.83-20.1-1-5-.84-9.93,3-13.87a11.88,11.88,0,0,1,13-3c4.83,1.62,7.38,5.26,8,10.28.11.94.11,1.9.16,2.86ZM58.06,224.05c3.43-6.16,6.23-12,5.39-18.88a5.83,5.83,0,0,0-5.92-5.3,6,6,0,0,0-5.94,5.73C51.25,212.51,54.62,218.08,58.06,224.05Z"/><path class="cls-6" d="M87.55,154.39c7.84-.2,14.48,6.36,14.68,14.53.22,8.77-6.19,15.74-14.64,15.91C80,185,73.1,178.31,72.87,170.57,72.6,161.54,78.87,154.62,87.55,154.39Zm8.32,15.25c0-5.11-3.53-8.94-8.26-9A8.83,8.83,0,0,0,79,169.43c0,5,3.88,9.09,8.53,9A8.74,8.74,0,0,0,95.87,169.64Z"/><path class="cls-6" d="M57.64,235.1c2.53,0,5.06,0,7.58,0s3.7,1.1,3.71,3.68q0,7.67,0,15.34c0,2.45-1.13,3.63-3.61,3.66q-7.75.07-15.51,0c-2.41,0-3.56-1.29-3.57-3.72,0-5.05,0-10.11,0-15.17,0-2.65,1.11-3.75,3.81-3.78C52.58,235.08,55.11,235.1,57.64,235.1Zm-5,16.23h10v-9.89h-10Z"/><path class="cls-6" d="M118.38,186.08a8.89,8.89,0,0,1,2.28,1.88c1.93,3.09,3.72,6.27,5.49,9.46A3,3,0,0,1,125,201.9c-3.16,1.94-6.35,3.81-9.57,5.65a3.06,3.06,0,0,1-4.47-1.2q-2.79-4.69-5.46-9.47c-1-1.8-.7-3.35,1-4.39,3.25-2,6.56-3.89,9.87-5.79A11.4,11.4,0,0,1,118.38,186.08Zm-5.91,10.2,2.53,4.36,4.41-2.54-2.7-4.52Z"/><path class="cls-6" d="M78.48,156c-.59.73-1.1,1.93-2,2.28a3.83,3.83,0,0,1-3.24-.19,40.8,40.8,0,0,1-5.17-5.26,2.74,2.74,0,0,1,.34-3.82,2.92,2.92,0,0,1,3.84-.43c1.91,1.72,3.66,3.62,5.41,5.51A7.22,7.22,0,0,1,78.48,156Z"/><path class="cls-6" d="M99.91,180.1a13.74,13.74,0,0,1,2.48,1.41c1.4,1.28,2.73,2.66,4,4.05a3.1,3.1,0,0,1,0,4.63,3.14,3.14,0,0,1-4.51-.32c-1.4-1.38-2.78-2.77-4.09-4.22a2.58,2.58,0,0,1-.43-3.39A14,14,0,0,1,99.91,180.1Z"/><path class="cls-6" d="M77,182.14a15.67,15.67,0,0,1-1.49,2.53c-1.21,1.33-2.52,2.56-3.83,3.79a3.11,3.11,0,0,1-4.51.11,3,3,0,0,1,0-4.5c1.32-1.38,2.71-2.7,4.11-4a2.77,2.77,0,0,1,3.56-.45A11.45,11.45,0,0,1,77,182.14Z"/><path class="cls-6" d="M101.41,160.3c-.73-.57-1.89-1.05-2.29-1.9a3.51,3.51,0,0,1,.08-3.06,37.1,37.1,0,0,1,5.11-5.07,2.88,2.88,0,0,1,3.84.5,2.78,2.78,0,0,1,.23,3.83c-1.52,1.72-3.19,3.31-4.87,4.87A7.15,7.15,0,0,1,101.41,160.3Z"/><path class="cls-6" d="M91.18,148.45a7.34,7.34,0,0,1-.9,2.6,4.17,4.17,0,0,1-2.55,1.28c-1.7.15-2.94-1.28-3-3.12-.16-3,.74-4.56,2.72-4.81C89.6,144.13,91,145.67,91.18,148.45Z"/><path class="cls-6" d="M61.13,206.4a3.53,3.53,0,0,0-3.48-3.57,3.63,3.63,0,0,0-3.58,3.53,3.57,3.57,0,0,0,3.53,3.55A3.49,3.49,0,0,0,61.13,206.4Z"/><path class="cls-6" d="M61.13,206.4a3.49,3.49,0,0,1-3.53,3.51,3.57,3.57,0,0,1-3.53-3.55,3.63,3.63,0,0,1,3.58-3.53A3.53,3.53,0,0,1,61.13,206.4Z"/></g></g></svg>