<svg xmlns="http://www.w3.org/2000/svg" width="80" height="80" viewBox="0 0 80 80">
  <path id="Icon_awesome-linkedin" data-name="Icon awesome-linkedin" d="M74.286,2.25H5.7A5.739,5.739,0,0,0,0,8.018V76.482A5.739,5.739,0,0,0,5.7,82.25H74.286A5.754,5.754,0,0,0,80,76.482V8.018A5.754,5.754,0,0,0,74.286,2.25ZM24.179,70.821H12.321V32.643H24.2V70.821ZM18.25,27.429a6.875,6.875,0,1,1,6.875-6.875,6.878,6.878,0,0,1-6.875,6.875ZM68.625,70.821H56.768V52.25c0-4.429-.089-10.125-6.161-10.125-6.179,0-7.125,4.821-7.125,9.8V70.821H31.625V32.643H43v5.214h.161A12.489,12.489,0,0,1,54.393,31.7c12,0,14.232,7.911,14.232,18.2Z" transform="translate(0 -2.25)" fill="#fff"/>
</svg>
